<svg width="1440" height="900" viewBox="0 0 1440 900" fill="none" xmlns="http://www.w3.org/2000/svg">
<g clip-path="url(#clip0_1092_1022)">
<path d="M20 0L20 900" stroke="#92918F" stroke-opacity="0.2" stroke-dasharray="5 32"/>
<path d="M40 0L40 900" stroke="#92918F" stroke-opacity="0.2" stroke-dasharray="5 32"/>
<path d="M60 0L60 900" stroke="#92918F" stroke-opacity="0.2" stroke-dasharray="5 32"/>
<path d="M80 0L80 900" stroke="#92918F" stroke-opacity="0.2" stroke-dasharray="5 32"/>
<path d="M100 0L100 900" stroke="#92918F" stroke-opacity="0.2" stroke-dasharray="5 32"/>
<path d="M120 0L120 900" stroke="#92918F" stroke-opacity="0.2" stroke-dasharray="5 32"/>
<path d="M140 0L140 900" stroke="#92918F" stroke-opacity="0.2" stroke-dasharray="5 32"/>
<path d="M160 0L160 900" stroke="#92918F" stroke-opacity="0.2" stroke-dasharray="5 32"/>
<path d="M180 0L180 900" stroke="#92918F" stroke-opacity="0.2" stroke-dasharray="5 32"/>
<path d="M200 0L200 900" stroke="#92918F" stroke-opacity="0.2" stroke-dasharray="5 32"/>
<path d="M220 0L220 900" stroke="#92918F" stroke-opacity="0.2" stroke-dasharray="5 32"/>
<path d="M240 0L240 900" stroke="#92918F" stroke-opacity="0.2" stroke-dasharray="5 32"/>
<path d="M260 0L260 900" stroke="#92918F" stroke-opacity="0.2" stroke-dasharray="5 32"/>
<path d="M280 0L280 900" stroke="#92918F" stroke-opacity="0.2" stroke-dasharray="5 32"/>
<path d="M300 0L300 900" stroke="#92918F" stroke-opacity="0.2" stroke-dasharray="5 32"/>
<path d="M320 0L320 900" stroke="#92918F" stroke-opacity="0.2" stroke-dasharray="5 32"/>
<path d="M340 0L340 900" stroke="#92918F" stroke-opacity="0.2" stroke-dasharray="5 32"/>
<path d="M360 0L360 900" stroke="#92918F" stroke-opacity="0.2" stroke-dasharray="5 32"/>
<path d="M380 0L380 900" stroke="#92918F" stroke-opacity="0.2" stroke-dasharray="5 32"/>
<path d="M400 0L400 900" stroke="#92918F" stroke-opacity="0.2" stroke-dasharray="5 32"/>
<path d="M420 0L420 900" stroke="#92918F" stroke-opacity="0.2" stroke-dasharray="5 32"/>
<path d="M440 0L440 900" stroke="#92918F" stroke-opacity="0.2" stroke-dasharray="5 32"/>
<path d="M460 0L460 900" stroke="#92918F" stroke-opacity="0.2" stroke-dasharray="5 32"/>
<path d="M480 0L480 900" stroke="#92918F" stroke-opacity="0.2" stroke-dasharray="5 32"/>
<path d="M500 0L500 900" stroke="#92918F" stroke-opacity="0.2" stroke-dasharray="5 32"/>
<path d="M520 0L520 900" stroke="#92918F" stroke-opacity="0.2" stroke-dasharray="5 32"/>
<path d="M540 0L540 900" stroke="#92918F" stroke-opacity="0.2" stroke-dasharray="5 32"/>
<path d="M560 0L560 900" stroke="#92918F" stroke-opacity="0.2" stroke-dasharray="5 32"/>
<path d="M580 0L580 900" stroke="#92918F" stroke-opacity="0.2" stroke-dasharray="5 32"/>
<path d="M600 0L600 900" stroke="#92918F" stroke-opacity="0.2" stroke-dasharray="5 32"/>
<path d="M620 0L620 900" stroke="#92918F" stroke-opacity="0.2" stroke-dasharray="5 32"/>
<path d="M640 0L640 900" stroke="#92918F" stroke-opacity="0.2" stroke-dasharray="5 32"/>
<path d="M660 0L660 900" stroke="#92918F" stroke-opacity="0.2" stroke-dasharray="5 32"/>
<path d="M680 0L680 900" stroke="#92918F" stroke-opacity="0.2" stroke-dasharray="5 32"/>
<path d="M700 0L700 900" stroke="#92918F" stroke-opacity="0.2" stroke-dasharray="5 32"/>
<path d="M720 0L720 900" stroke="#92918F" stroke-opacity="0.2" stroke-dasharray="5 32"/>
<path d="M740 0L740 900" stroke="#92918F" stroke-opacity="0.2" stroke-dasharray="5 32"/>
<path d="M760 0L760 900" stroke="#92918F" stroke-opacity="0.2" stroke-dasharray="5 32"/>
<path d="M780 0L780 900" stroke="#92918F" stroke-opacity="0.2" stroke-dasharray="5 32"/>
<path d="M800 0L800 900" stroke="#92918F" stroke-opacity="0.2" stroke-dasharray="5 32"/>
<path d="M820 0L820 900" stroke="#92918F" stroke-opacity="0.2" stroke-dasharray="5 32"/>
<path d="M840 0L840 900" stroke="#92918F" stroke-opacity="0.2" stroke-dasharray="5 32"/>
<path d="M860 0L860 900" stroke="#92918F" stroke-opacity="0.2" stroke-dasharray="5 32"/>
<path d="M880 0L880 900" stroke="#92918F" stroke-opacity="0.2" stroke-dasharray="5 32"/>
<path d="M900 0L900 900" stroke="#92918F" stroke-opacity="0.2" stroke-dasharray="5 32"/>
<path d="M920 0L920 900" stroke="#92918F" stroke-opacity="0.2" stroke-dasharray="5 32"/>
<path d="M940 0L940 900" stroke="#92918F" stroke-opacity="0.2" stroke-dasharray="5 32"/>
<path d="M960 0L960 900" stroke="#92918F" stroke-opacity="0.2" stroke-dasharray="5 32"/>
<path d="M980 0L980 900" stroke="#92918F" stroke-opacity="0.2" stroke-dasharray="5 32"/>
<path d="M1000 0L1000 900" stroke="#92918F" stroke-opacity="0.2" stroke-dasharray="5 32"/>
<path d="M1020 0L1020 900" stroke="#92918F" stroke-opacity="0.2" stroke-dasharray="5 32"/>
<path d="M1040 0L1040 900" stroke="#92918F" stroke-opacity="0.2" stroke-dasharray="5 32"/>
<path d="M1060 0L1060 900" stroke="#92918F" stroke-opacity="0.2" stroke-dasharray="5 32"/>
<path d="M1080 0L1080 900" stroke="#92918F" stroke-opacity="0.2" stroke-dasharray="5 32"/>
<path d="M1100 0L1100 900" stroke="#92918F" stroke-opacity="0.2" stroke-dasharray="5 32"/>
<path d="M1120 0L1120 900" stroke="#92918F" stroke-opacity="0.2" stroke-dasharray="5 32"/>
<path d="M1140 0L1140 900" stroke="#92918F" stroke-opacity="0.2" stroke-dasharray="5 32"/>
<path d="M1160 0L1160 900" stroke="#92918F" stroke-opacity="0.2" stroke-dasharray="5 32"/>
<path d="M1180 0L1180 900" stroke="#92918F" stroke-opacity="0.2" stroke-dasharray="5 32"/>
<path d="M1200 0L1200 900" stroke="#92918F" stroke-opacity="0.2" stroke-dasharray="5 32"/>
<path d="M1220 0L1220 900" stroke="#92918F" stroke-opacity="0.2" stroke-dasharray="5 32"/>
<path d="M1240 0L1240 900" stroke="#92918F" stroke-opacity="0.2" stroke-dasharray="5 32"/>
<path d="M1260 0L1260 900" stroke="#92918F" stroke-opacity="0.2" stroke-dasharray="5 32"/>
<path d="M1280 0L1280 900" stroke="#92918F" stroke-opacity="0.2" stroke-dasharray="5 32"/>
<path d="M1300 0L1300 900" stroke="#92918F" stroke-opacity="0.2" stroke-dasharray="5 32"/>
<path d="M1320 0L1320 900" stroke="#92918F" stroke-opacity="0.2" stroke-dasharray="5 32"/>
<path d="M1340 0L1340 900" stroke="#92918F" stroke-opacity="0.2" stroke-dasharray="5 32"/>
<path d="M1360 0L1360 900" stroke="#92918F" stroke-opacity="0.2" stroke-dasharray="5 32"/>
<path d="M1380 0L1380 900" stroke="#92918F" stroke-opacity="0.2" stroke-dasharray="5 32"/>
<path d="M1400 0L1400 900" stroke="#92918F" stroke-opacity="0.2" stroke-dasharray="5 32"/>
<path d="M1420 0L1420 900" stroke="#92918F" stroke-opacity="0.2" stroke-dasharray="5 32"/>
<g filter="url(#filter0_f_1092_1022)">
<rect x="182" y="-295" width="1076" height="971" rx="485.5" fill="white"/>
</g>
</g>
<defs>
<filter id="filter0_f_1092_1022" x="-42" y="-519" width="1524" height="1419" filterUnits="userSpaceOnUse" color-interpolation-filters="sRGB">
<feFlood flood-opacity="0" result="BackgroundImageFix"/>
<feBlend mode="normal" in="SourceGraphic" in2="BackgroundImageFix" result="shape"/>
<feGaussianBlur stdDeviation="112" result="effect1_foregroundBlur_1092_1022"/>
</filter>
<clipPath id="clip0_1092_1022">
<rect width="1440" height="900" fill="white"/>
</clipPath>
</defs>
</svg>
