<svg width="90" height="41" viewBox="0 0 90 41" fill="none" xmlns="http://www.w3.org/2000/svg">
<path d="M57.3529 7.86667C60.1573 7.86667 61.5967 6.96 61.5967 5.01C61.5967 3.32667 60.4096 2.20667 57.8316 2.20667C54.7069 2.20667 53.4584 3.64333 53.1737 6.21667C52.7176 6.18667 52.2195 6.17667 51.5402 6.17333C51.5402 6.03333 51.5435 5.89333 51.5435 5.75C51.5435 3.14 50.4954 2.19667 47.7007 2.19667C46.3357 2.19667 45.1324 2.40667 44.3982 2.71333L44.5081 4.79667C45.1486 4.44667 46.1028 4.11 47.0085 4.11C48.2862 4.11 48.6743 4.65333 48.6743 5.95667V6.15C48.5838 6.14667 48.3573 6.14667 48.2344 6.14667C45.0516 6.14667 43.5766 7.14 43.5766 8.98C43.5766 10.82 44.492 11.9933 47.1023 11.9933C48.477 11.9933 49.8356 11.7933 51.5855 11.7933C51.4561 11.0333 51.4529 9.94 51.4529 9.19C51.4529 8.79333 51.4723 8.32 51.4917 7.78333C52.2389 7.79 52.7888 7.81 53.1511 7.82667C53.4228 10.8733 54.956 12 58.1486 12C59.3292 12 60.5228 11.7933 61.1471 11.4933L61.0371 9.41C60.4161 9.78 59.5524 10.0833 58.6047 10.0833C57.0359 10.0833 56.1852 9.24 56.1852 7.90667V7.84333C56.4666 7.85667 57.0262 7.86667 57.3529 7.86667ZM47.7816 10.1733C46.8112 10.1733 46.3972 9.84 46.3972 9.00333C46.3972 8.16667 46.9244 7.74 48.2506 7.74C48.3735 7.74 48.5223 7.73667 48.6291 7.74667C48.6226 8.52667 48.6064 9.43667 48.6485 10.07C48.4188 10.1333 48.0792 10.1733 47.7816 10.1733ZM56.1722 6.25667V6.21C56.1722 4.90333 56.5733 3.94333 57.7378 3.94333C58.3976 3.94333 58.8214 4.3 58.8214 4.94667C58.8214 5.85667 58.2327 6.28 57.01 6.28C56.7156 6.28 56.4019 6.27667 56.1722 6.25667ZM67.3317 9.91333C66.3937 9.91333 66.1187 9.53 66.1187 8.12667V4.50333H67.9689V2.49H66.1478C66.1478 1.77667 66.2028 0.723333 66.261 0H64.5467C64.3203 1.76 63.8254 2.66667 62.2663 2.93333C62.2598 3.40667 62.2857 4.05333 62.2663 4.50333H63.3046C63.2884 5.50333 63.2593 7.33 63.2593 8.99333C63.2593 11.1167 64.3267 11.9867 66.3322 11.9867C67.3091 11.9867 68.0271 11.84 68.2665 11.77L68.1436 9.7C67.9689 9.82333 67.6228 9.91333 67.3317 9.91333ZM86.8495 5.75C86.8495 3.14 85.8014 2.19667 83.01 2.19667C81.6417 2.19667 80.4417 2.40667 79.7074 2.71333L79.8174 4.79667C80.4578 4.44667 81.4088 4.11 82.3177 4.11C83.5954 4.11 83.9836 4.65333 83.9836 5.95667V6.15C83.893 6.14667 83.6698 6.14667 83.5469 6.14667C80.3608 6.14667 78.889 7.14 78.889 8.98C78.889 10.82 79.8044 11.9933 82.4148 11.9933C83.7895 11.9933 85.1481 11.7933 86.8948 11.7933C86.7686 11.0333 86.7654 9.94 86.7654 9.19C86.7654 8.34 86.8495 7.14667 86.8495 5.75ZM83.0908 10.1733C82.1172 10.1733 81.7064 9.84 81.7064 9.00333C81.7064 8.16667 82.2336 7.74 83.5598 7.74C83.6795 7.74 83.8283 7.73667 83.9351 7.74667C83.9351 8.52667 83.9124 9.43667 83.9577 10.07C83.728 10.1333 83.3852 10.1733 83.0908 10.1733ZM77.7213 7.45333C77.7213 6.66667 77.7375 5.62 77.7375 5.62C77.7375 3.26333 76.7348 2.20667 73.898 2.20667C72.3066 2.20667 71.1712 2.49333 69.3954 2.49333C69.4957 4.14667 69.4989 6.19 69.4924 7.45667C69.4989 8.74333 69.4504 11.05 69.3954 11.7933H72.4424C72.3713 11.0467 72.313 8.90333 72.3195 7.45667C72.3195 6.63333 72.3292 5.63667 72.3616 4.3C72.6656 4.19333 73.0505 4.11333 73.4678 4.11333C74.5352 4.11333 74.8781 4.63 74.8781 6.04667C74.8781 6.04667 74.8943 6.93667 74.8943 7.46C74.8943 8.74667 74.8522 11.0533 74.7972 11.7967H77.8443C77.7731 11.0433 77.7116 8.9 77.7213 7.45333ZM39.9796 1.78333C39.695 1.49 39.323 1.34333 38.9543 1.34333C38.5855 1.34333 38.2071 1.49 37.9224 1.78667L36.2339 3.53L34.5422 1.78667C34.2543 1.48667 33.8824 1.34 33.5104 1.34C33.1384 1.34 32.7664 1.48667 32.4818 1.78L30.4245 3.9C29.8585 4.48333 29.8585 5.43333 30.4245 6.02L36.2275 12L42.0304 6.02C42.5997 5.43667 42.5965 4.48667 42.0304 3.9L39.9764 1.78333H39.9796ZM89.269 2.74C89.269 2.42333 89.0814 2.29 88.7159 2.29H88.1401V3.85H88.3891V3.18333H88.622L89.0134 3.85H89.2948L88.8711 3.16333C89.1008 3.14 89.269 3.02333 89.269 2.74ZM88.3891 2.96667V2.51H88.69C88.8388 2.51 89.0199 2.53333 89.0199 2.72C89.0199 2.94667 88.8549 2.96333 88.6706 2.96333H88.3891V2.96667ZM88.6609 1.63667C87.9363 1.63667 87.3153 2.2 87.3153 3.04667C87.3153 3.89333 87.8748 4.45667 88.6609 4.45667C89.379 4.45667 90 3.89667 90 3.04667C90 2.19667 89.379 1.63667 88.6609 1.63667ZM88.6609 4.21C88.0107 4.21 87.6064 3.68667 87.6064 3.04667C87.6064 2.36 88.0657 1.88333 88.6609 1.88333C89.256 1.88333 89.7056 2.36333 89.7056 3.04667C89.7056 3.73 89.2463 4.21 88.6609 4.21Z" fill="#7D3F98"/>
<path d="M0.24 33L3.312 24.48H4.956L8.028 33H6.648L5.868 30.78H2.388L1.62 33H0.24ZM2.796 29.604H5.472L4.128 25.716L2.796 29.604ZM11.4231 33.144C10.8151 33.144 10.2831 33.008 9.82706 32.736C9.37106 32.464 9.01906 32.076 8.77106 31.572C8.52306 31.068 8.39906 30.48 8.39906 29.808C8.39906 29.136 8.52306 28.552 8.77106 28.056C9.01906 27.552 9.37106 27.164 9.82706 26.892C10.2831 26.612 10.8151 26.472 11.4231 26.472C11.9431 26.472 12.4031 26.564 12.8031 26.748C13.2111 26.924 13.5391 27.184 13.7871 27.528C14.0431 27.872 14.2071 28.292 14.2791 28.788L12.9471 28.86C12.8831 28.444 12.7151 28.128 12.4431 27.912C12.1711 27.688 11.8311 27.576 11.4231 27.576C10.8871 27.576 10.4671 27.776 10.1631 28.176C9.86706 28.568 9.71906 29.112 9.71906 29.808C9.71906 30.504 9.86706 31.052 10.1631 31.452C10.4671 31.844 10.8871 32.04 11.4231 32.04C11.8311 32.04 12.1711 31.928 12.4431 31.704C12.7151 31.472 12.8831 31.124 12.9471 30.66L14.2791 30.732C14.2071 31.22 14.0431 31.644 13.7871 32.004C13.5391 32.364 13.2111 32.644 12.8031 32.844C12.4031 33.044 11.9431 33.144 11.4231 33.144ZM17.5092 33C16.9012 33 16.4532 32.86 16.1652 32.58C15.8772 32.3 15.7332 31.864 15.7332 31.272V25.116H17.0052V31.176C17.0052 31.472 17.0692 31.676 17.1972 31.788C17.3252 31.9 17.5212 31.956 17.7852 31.956H18.6972V33H17.5092ZM14.7612 27.66V26.616H18.6972V27.66H14.7612ZM19.7688 33V26.616H21.0408V33H19.7688ZM19.7448 25.692V24.42H21.0648V25.692H19.7448ZM24.2699 33L21.9419 26.616H23.2979L25.0379 31.704L26.7779 26.616H28.1459L25.8059 33H24.2699ZM31.4486 33.144C30.8246 33.144 30.2846 33.008 29.8286 32.736C29.3806 32.464 29.0326 32.076 28.7846 31.572C28.5446 31.068 28.4246 30.48 28.4246 29.808C28.4246 29.136 28.5446 28.552 28.7846 28.056C29.0326 27.552 29.3806 27.164 29.8286 26.892C30.2766 26.612 30.8046 26.472 31.4126 26.472C31.9886 26.472 32.4966 26.608 32.9366 26.88C33.3766 27.144 33.7166 27.528 33.9566 28.032C34.2046 28.536 34.3286 29.144 34.3286 29.856V30.18H29.7446C29.7766 30.804 29.9406 31.272 30.2366 31.584C30.5406 31.896 30.9486 32.052 31.4606 32.052C31.8366 32.052 32.1486 31.964 32.3966 31.788C32.6446 31.612 32.8166 31.376 32.9126 31.08L34.2326 31.164C34.0646 31.756 33.7326 32.236 33.2366 32.604C32.7486 32.964 32.1526 33.144 31.4486 33.144ZM29.7446 29.22H32.9846C32.9446 28.652 32.7806 28.232 32.4926 27.96C32.2126 27.688 31.8526 27.552 31.4126 27.552C30.9566 27.552 30.5806 27.696 30.2846 27.984C29.9966 28.264 29.8166 28.676 29.7446 29.22ZM41.8807 33.192C41.1127 33.192 40.4367 33.016 39.8527 32.664C39.2687 32.304 38.8127 31.792 38.4847 31.128C38.1567 30.464 37.9927 29.672 37.9927 28.752C37.9927 27.84 38.1527 27.052 38.4727 26.388C38.8007 25.716 39.2567 25.2 39.8407 24.84C40.4247 24.472 41.1087 24.288 41.8927 24.288C42.9487 24.288 43.7687 24.552 44.3527 25.08C44.9367 25.608 45.3167 26.34 45.4927 27.276L44.1367 27.348C44.0247 26.764 43.7847 26.308 43.4167 25.98C43.0487 25.644 42.5407 25.476 41.8927 25.476C41.3727 25.476 40.9207 25.608 40.5367 25.872C40.1607 26.136 39.8647 26.512 39.6487 27C39.4407 27.488 39.3367 28.072 39.3367 28.752C39.3367 29.432 39.4407 30.016 39.6487 30.504C39.8647 30.992 40.1647 31.364 40.5487 31.62C40.9327 31.876 41.3767 32.004 41.8807 32.004C42.5687 32.004 43.1007 31.824 43.4767 31.464C43.8607 31.096 44.1007 30.592 44.1967 29.952L45.5527 30.024C45.4487 30.672 45.2407 31.232 44.9287 31.704C44.6167 32.176 44.2047 32.544 43.6927 32.808C43.1807 33.064 42.5767 33.192 41.8807 33.192ZM49.3096 33.144C48.7016 33.144 48.1696 33.008 47.7136 32.736C47.2576 32.464 46.9056 32.076 46.6576 31.572C46.4096 31.068 46.2856 30.48 46.2856 29.808C46.2856 29.128 46.4096 28.54 46.6576 28.044C46.9056 27.548 47.2576 27.164 47.7136 26.892C48.1696 26.612 48.7016 26.472 49.3096 26.472C49.9176 26.472 50.4496 26.612 50.9056 26.892C51.3616 27.164 51.7136 27.548 51.9616 28.044C52.2096 28.54 52.3336 29.128 52.3336 29.808C52.3336 30.48 52.2096 31.068 51.9616 31.572C51.7136 32.076 51.3616 32.464 50.9056 32.736C50.4496 33.008 49.9176 33.144 49.3096 33.144ZM49.3096 32.04C49.8536 32.04 50.2736 31.844 50.5696 31.452C50.8656 31.052 51.0136 30.504 51.0136 29.808C51.0136 29.112 50.8656 28.568 50.5696 28.176C50.2736 27.776 49.8536 27.576 49.3096 27.576C48.7736 27.576 48.3536 27.776 48.0496 28.176C47.7536 28.568 47.6056 29.112 47.6056 29.808C47.6056 30.504 47.7536 31.052 48.0496 31.452C48.3536 31.844 48.7736 32.04 49.3096 32.04ZM54.9679 33L52.6399 26.616H53.9959L55.7359 31.704L57.4759 26.616H58.8439L56.5039 33H54.9679ZM62.1466 33.144C61.5226 33.144 60.9826 33.008 60.5266 32.736C60.0786 32.464 59.7306 32.076 59.4826 31.572C59.2426 31.068 59.1226 30.48 59.1226 29.808C59.1226 29.136 59.2426 28.552 59.4826 28.056C59.7306 27.552 60.0786 27.164 60.5266 26.892C60.9746 26.612 61.5026 26.472 62.1106 26.472C62.6866 26.472 63.1946 26.608 63.6346 26.88C64.0746 27.144 64.4146 27.528 64.6546 28.032C64.9026 28.536 65.0266 29.144 65.0266 29.856V30.18H60.4426C60.4746 30.804 60.6386 31.272 60.9346 31.584C61.2386 31.896 61.6466 32.052 62.1586 32.052C62.5346 32.052 62.8466 31.964 63.0946 31.788C63.3426 31.612 63.5146 31.376 63.6106 31.08L64.9306 31.164C64.7626 31.756 64.4306 32.236 63.9346 32.604C63.4466 32.964 62.8506 33.144 62.1466 33.144ZM60.4426 29.22H63.6826C63.6426 28.652 63.4786 28.232 63.1906 27.96C62.9106 27.688 62.5506 27.552 62.1106 27.552C61.6546 27.552 61.2786 27.696 60.9826 27.984C60.6946 28.264 60.5146 28.676 60.4426 29.22ZM66.1715 33V26.616H67.3355L67.3835 28.308L67.2755 28.272C67.3635 27.696 67.5395 27.276 67.8035 27.012C68.0755 26.748 68.4395 26.616 68.8955 26.616H69.5075V27.756H68.8955C68.5755 27.756 68.3075 27.808 68.0915 27.912C67.8755 28.016 67.7115 28.176 67.5995 28.392C67.4955 28.608 67.4435 28.888 67.4435 29.232V33H66.1715ZM72.0811 33.144C71.4171 33.144 70.8851 32.992 70.4851 32.688C70.0931 32.384 69.8971 31.956 69.8971 31.404C69.8971 30.852 70.0611 30.424 70.3891 30.12C70.7251 29.808 71.2411 29.584 71.9371 29.448L74.1331 29.028C74.1331 28.532 74.0171 28.164 73.7851 27.924C73.5531 27.676 73.2091 27.552 72.7531 27.552C72.3451 27.552 72.0251 27.644 71.7931 27.828C71.5611 28.004 71.4011 28.268 71.3131 28.62L70.0051 28.536C70.1251 27.896 70.4211 27.392 70.8931 27.024C71.3731 26.656 71.9931 26.472 72.7531 26.472C73.6171 26.472 74.2731 26.704 74.7211 27.168C75.1771 27.624 75.4051 28.268 75.4051 29.1V31.584C75.4051 31.736 75.4291 31.844 75.4771 31.908C75.5331 31.964 75.6211 31.992 75.7411 31.992H75.9691V33C75.9291 33.008 75.8651 33.016 75.7771 33.024C75.6891 33.032 75.5971 33.036 75.5011 33.036C75.2291 33.036 74.9931 32.992 74.7931 32.904C74.6011 32.816 74.4571 32.672 74.3611 32.472C74.2651 32.264 74.2171 31.988 74.2171 31.644L74.3491 31.704C74.2851 31.984 74.1451 32.232 73.9291 32.448C73.7211 32.664 73.4531 32.836 73.1251 32.964C72.8051 33.084 72.4571 33.144 72.0811 33.144ZM72.2851 32.136C72.6691 32.136 72.9971 32.064 73.2691 31.92C73.5411 31.768 73.7531 31.56 73.9051 31.296C74.0571 31.032 74.1331 30.732 74.1331 30.396V29.988L72.2611 30.348C71.8771 30.42 71.6051 30.536 71.4451 30.696C71.2931 30.848 71.2171 31.044 71.2171 31.284C71.2171 31.556 71.3091 31.768 71.4931 31.92C71.6851 32.064 71.9491 32.136 72.2851 32.136ZM79.4202 34.944C78.9162 34.944 78.4722 34.868 78.0882 34.716C77.7042 34.564 77.3882 34.348 77.1402 34.068C76.8922 33.796 76.7242 33.476 76.6362 33.108L77.9562 33.024C78.0442 33.288 78.1962 33.496 78.4122 33.648C78.6362 33.808 78.9722 33.888 79.4202 33.888C79.9482 33.888 80.3522 33.776 80.6322 33.552C80.9202 33.328 81.0642 32.988 81.0642 32.532V31.608C80.9122 31.936 80.6682 32.196 80.3322 32.388C79.9962 32.58 79.6202 32.676 79.2042 32.676C78.6682 32.676 78.1922 32.544 77.7762 32.28C77.3602 32.016 77.0362 31.652 76.8042 31.188C76.5722 30.724 76.4562 30.188 76.4562 29.58C76.4562 28.964 76.5682 28.424 76.7922 27.96C77.0242 27.496 77.3442 27.132 77.7522 26.868C78.1682 26.604 78.6362 26.472 79.1562 26.472C79.6122 26.472 80.0122 26.576 80.3562 26.784C80.7082 26.992 80.9602 27.272 81.1122 27.624V26.616H82.3362V32.496C82.3362 33.024 82.2162 33.468 81.9762 33.828C81.7442 34.196 81.4082 34.472 80.9682 34.656C80.5362 34.848 80.0202 34.944 79.4202 34.944ZM79.4082 31.596C79.9042 31.596 80.3002 31.416 80.5962 31.056C80.9002 30.696 81.0562 30.2 81.0642 29.568C81.0722 29.152 81.0082 28.796 80.8722 28.5C80.7362 28.196 80.5402 27.964 80.2842 27.804C80.0362 27.636 79.7442 27.552 79.4082 27.552C78.8882 27.552 78.4842 27.736 78.1962 28.104C77.9162 28.464 77.7762 28.952 77.7762 29.568C77.7762 30.192 77.9202 30.688 78.2082 31.056C78.5042 31.416 78.9042 31.596 79.4082 31.596ZM86.5081 33.144C85.8841 33.144 85.3441 33.008 84.8881 32.736C84.4401 32.464 84.0921 32.076 83.8441 31.572C83.6041 31.068 83.4841 30.48 83.4841 29.808C83.4841 29.136 83.6041 28.552 83.8441 28.056C84.0921 27.552 84.4401 27.164 84.8881 26.892C85.3361 26.612 85.8641 26.472 86.4721 26.472C87.0481 26.472 87.5561 26.608 87.9961 26.88C88.4361 27.144 88.7761 27.528 89.0161 28.032C89.2641 28.536 89.3881 29.144 89.3881 29.856V30.18H84.8041C84.8361 30.804 85.0001 31.272 85.2961 31.584C85.6001 31.896 86.0081 32.052 86.5201 32.052C86.8961 32.052 87.2081 31.964 87.4561 31.788C87.7041 31.612 87.8761 31.376 87.9721 31.08L89.2921 31.164C89.1241 31.756 88.7921 32.236 88.2961 32.604C87.8081 32.964 87.2121 33.144 86.5081 33.144ZM84.8041 29.22H88.0441C88.0041 28.652 87.8401 28.232 87.5521 27.96C87.2721 27.688 86.9121 27.552 86.4721 27.552C86.0161 27.552 85.6401 27.696 85.3441 27.984C85.0561 28.264 84.8761 28.676 84.8041 29.22Z" fill="#F48024"/>
</svg>
