<svg width="58" height="34" viewBox="0 0 58 34" fill="none" xmlns="http://www.w3.org/2000/svg">
<path d="M40.2525 0C36.298 0 32.4568 1.40917 29.4291 3.96782C29.1579 4.19633 28.8627 4.46293 28.5434 4.75723C27.493 5.73707 26.2195 7.0389 24.9425 8.39613C21.9697 11.5503 18.9867 14.978 18.7945 15.1996C17.8676 16.266 17.9706 17.8898 19.0313 18.8281C20.0886 19.7629 21.6986 19.6591 22.6254 18.5892C22.6975 18.5061 29.7552 10.3974 32.7005 7.90448C34.8116 6.12138 37.4926 5.13809 40.2491 5.13809C46.7335 5.13809 52.0096 10.4597 52.0096 17C52.0096 23.5403 46.7335 28.8619 40.2491 28.8619C37.2077 28.8619 34.3516 27.709 32.1581 25.6073C30.8811 26.9646 29.6076 28.2664 28.5572 29.2428C31.7119 32.3139 35.8414 34 40.2456 34C49.5381 34 57.1004 26.3725 57.1004 17C57.1004 7.62749 49.5449 0 40.2525 0Z" fill="#1C275E"/>
<path d="M32.1648 25.6073C35.1375 22.4532 38.1206 19.022 38.3128 18.8004C39.2397 17.7305 39.1332 16.1102 38.076 15.1719C37.0187 14.2371 35.4087 14.3409 34.4784 15.4108C34.4064 15.4939 27.3486 23.6026 24.4033 26.0955C22.2922 27.8786 19.6112 28.8619 16.8548 28.8619C10.3703 28.8619 5.09419 23.5403 5.09419 17C5.09419 10.4597 10.3703 5.14155 16.8548 5.14155C19.8996 5.14155 22.7522 6.2945 24.9423 8.39613C26.2193 7.0389 27.4928 5.73707 28.5432 4.75723C25.3885 1.68961 21.2624 0 16.8548 0C7.56233 0 0 7.62749 0 17C0 26.3725 7.56233 34 16.8548 34C20.8093 34 24.6505 32.5908 27.6782 30.0322C27.9494 29.8037 28.2446 29.5371 28.5638 29.2393C29.6142 28.2595 30.8878 26.9576 32.1648 25.6039V25.6073Z" fill="#F48024"/>
</svg>
