<svg width="114" height="24" viewBox="0 0 114 24" fill="none" xmlns="http://www.w3.org/2000/svg">
<path d="M28.6798 0C25.8622 0 23.1254 0.994705 20.9681 2.80081C20.7749 2.96212 20.5646 3.15031 20.3371 3.35804C19.5887 4.04969 18.6813 4.96864 17.7715 5.92668C15.6534 8.15316 13.5279 10.5727 13.391 10.7291C12.7306 11.4819 12.804 12.6281 13.5597 13.2904C14.3131 13.9503 15.4601 13.877 16.1205 13.1218C16.1719 13.0631 21.2005 7.33931 23.299 5.57963C24.8032 4.32098 26.7134 3.62688 28.6774 3.62688C33.2976 3.62688 37.0568 7.3833 37.0568 12C37.0568 16.6167 33.2976 20.3731 28.6774 20.3731C26.5104 20.3731 24.4755 19.5593 22.9126 18.0758C22.0027 19.0338 21.0953 19.9527 20.3469 20.642C22.5946 22.8098 25.537 24 28.6749 24C35.2958 24 40.684 18.6159 40.684 12C40.684 5.38411 35.3007 0 28.6798 0Z" fill="white"/>
<path d="M22.9174 18.0758C25.0355 15.8493 27.1609 13.4273 27.2979 13.2709C27.9583 12.5157 27.8824 11.3719 27.1291 10.7096C26.3758 10.0497 25.2287 10.123 24.5659 10.8782C24.5145 10.9369 19.4859 16.6607 17.3874 18.4204C15.8832 19.679 13.973 20.3731 12.009 20.3731C7.38884 20.3731 3.62961 16.6167 3.62961 12C3.62961 7.3833 7.38884 3.62933 12.009 3.62933C14.1785 3.62933 16.2109 4.44318 17.7714 5.92668C18.6812 4.96864 19.5886 4.04969 20.3371 3.35804C18.0893 1.19267 15.1495 0 12.009 0C5.38816 0 0 5.38411 0 12C0 18.6159 5.38816 24 12.009 24C14.8266 24 17.5635 23.0053 19.7207 21.1992C19.9139 21.0379 20.1243 20.8497 20.3517 20.6395C21.1002 19.9479 22.0076 19.0289 22.9174 18.0733V18.0758Z" fill="#F48024"/>
<path d="M57.4624 20.5711H54.6668V8.35604C54.6668 7.5153 54.41 6.84076 53.8939 6.32997C53.3779 5.81917 52.7004 5.56255 51.8615 5.56255C51.0225 5.56255 50.3353 5.81429 49.8045 6.31775C49.2738 6.82121 49.0096 7.46642 49.0096 8.25339V9.21877H52.4411V11.7287H49.0096V20.5736H46.214V11.7287H44.2256V9.21877H46.214V8.19718C46.214 7.22202 46.4537 6.35685 46.9356 5.60899C47.4174 4.85868 48.0802 4.27213 48.924 3.84443C49.7678 3.41673 50.7388 3.2041 51.837 3.2041C52.9352 3.2041 53.9282 3.42406 54.7744 3.86154C55.6182 4.30145 56.2786 4.91245 56.7507 5.69453C57.2227 6.47905 57.46 7.38333 57.46 8.41469V20.5736L57.4624 20.5711Z" fill="white"/>
<path d="M65.3742 20.7981C64.2222 20.7981 63.1901 20.5415 62.2778 20.0258C61.3655 19.5102 60.6464 18.8087 60.1181 17.9191C59.5923 17.0295 59.3281 16.0226 59.3281 14.8935C59.3281 13.7643 59.5923 12.7574 60.1181 11.8678C60.644 10.9782 61.3631 10.2768 62.2778 9.76107C63.1901 9.24539 64.2222 8.98877 65.3742 8.98877C66.5262 8.98877 67.5681 9.24539 68.4755 9.76107C69.3854 10.2768 70.0971 10.9782 70.6181 11.8678C71.1366 12.7574 71.3958 13.7668 71.3958 14.8935C71.3958 16.0201 71.1366 17.0295 70.6181 17.9191C70.0995 18.8087 69.3854 19.5102 68.4755 20.0258C67.5657 20.5415 66.5335 20.7981 65.3742 20.7981ZM65.3644 18.2906C65.971 18.2906 66.5115 18.144 66.9885 17.8482C67.4654 17.5525 67.842 17.1493 68.1184 16.6336C68.3948 16.1179 68.5342 15.5362 68.5342 14.8861C68.5342 14.236 68.3948 13.6666 68.1184 13.1558C67.842 12.645 67.4654 12.2417 66.9885 11.946C66.5115 11.6503 65.9685 11.5036 65.3644 11.5036C64.7603 11.5036 64.2271 11.6503 63.7453 11.946C63.2635 12.2417 62.8868 12.645 62.608 13.1558C62.3316 13.6666 62.1922 14.2434 62.1922 14.8861C62.1922 15.5289 62.3292 16.1203 62.608 16.6336C62.8844 17.1493 63.2635 17.5525 63.7453 17.8482C64.2271 18.144 64.7652 18.2906 65.3644 18.2906Z" fill="white"/>
<path d="M85.8777 20.5711H82.6737L80.6069 13.0094L78.5402 20.5711H75.3362L71.6895 9.21875H74.644L76.904 17.5283L79.3694 9.21875H81.8568L84.3099 17.5405L86.5821 9.21875H89.5367L85.8777 20.5711Z" fill="white"/>
<path d="M95.8646 20.5712H92.7168L99.5798 3.5415H102.772L109.622 20.5712H106.475L104.919 16.5973H97.4201L95.8646 20.5712ZM98.4107 13.9773H103.933L101.172 6.92643L98.4107 13.9773Z" fill="white"/>
<path d="M111.001 20.5712V3.54395H114V20.5737H111.001V20.5712Z" fill="white"/>
</svg>
