<svg width="30" height="30" viewBox="0 0 30 30" fill="none" xmlns="http://www.w3.org/2000/svg">
<circle cx="15" cy="15" r="15" fill="#F48024"/>
<path d="M11.6667 12.4997H18.3333M11.6667 15.833H16.6667M12.5 19.9997H10C9.33696 19.9997 8.70107 19.7363 8.23223 19.2674C7.76339 18.7986 7.5 18.1627 7.5 17.4997V10.833C7.5 10.17 7.76339 9.53408 8.23223 9.06524C8.70107 8.5964 9.33696 8.33301 10 8.33301H20C20.663 8.33301 21.2989 8.5964 21.7678 9.06524C22.2366 9.53408 22.5 10.17 22.5 10.833V17.4997C22.5 18.1627 22.2366 18.7986 21.7678 19.2674C21.2989 19.7363 20.663 19.9997 20 19.9997H17.5L15 22.4997L12.5 19.9997Z" stroke="white" stroke-linecap="round" stroke-linejoin="round"/>
</svg>
