<svg width="30" height="39" viewBox="0 0 30 39" fill="none" xmlns="http://www.w3.org/2000/svg">
<path fill-rule="evenodd" clip-rule="evenodd" d="M5.07719 0H18.1162L29.1671 11.5188V33.9228C29.1671 36.7294 26.8965 39 24.0997 39H5.07719C2.27061 39 8.02027e-10 36.7294 8.02027e-10 33.9228V5.07719C-4.92756e-05 2.27061 2.27056 0 5.07719 0Z" fill="#E5252A"/>
<path opacity="0.302" fill-rule="evenodd" clip-rule="evenodd" d="M18.1064 0V11.431H29.1672L18.1064 0Z" fill="white"/>
<path d="M5.64355 29.0993V21.9756H8.6743C9.42468 21.9756 10.0192 22.1802 10.4674 22.5993C10.9157 23.0086 11.1398 23.5641 11.1398 24.2559C11.1398 24.9478 10.9157 25.5033 10.4674 25.9126C10.0192 26.3317 9.42468 26.5363 8.6743 26.5363H7.46589V29.0993H5.64355ZM7.46589 24.9869H8.46965C8.7425 24.9869 8.9569 24.9284 9.1031 24.792C9.24926 24.6653 9.32726 24.4899 9.32726 24.256C9.32726 24.0221 9.24931 23.8467 9.1031 23.72C8.95695 23.5836 8.74255 23.5251 8.46965 23.5251H7.46589V24.9869ZM11.8902 29.0993V21.9756H14.4142C14.9112 21.9756 15.3789 22.0438 15.8175 22.19C16.256 22.3361 16.6555 22.5408 17.0063 22.8234C17.3572 23.0963 17.6398 23.4666 17.8444 23.9344C18.0393 24.4022 18.1466 24.9381 18.1466 25.5423C18.1466 26.1368 18.0394 26.6728 17.8444 27.1405C17.6398 27.6083 17.3572 27.9786 17.0063 28.2514C16.6555 28.534 16.256 28.7387 15.8175 28.8849C15.3789 29.031 14.9112 29.0993 14.4142 29.0993H11.8902ZM13.6735 27.5498H14.1998C14.4824 27.5498 14.7455 27.5206 14.9891 27.4524C15.223 27.3842 15.4471 27.2769 15.6615 27.1308C15.8662 26.9846 16.0319 26.7799 16.1488 26.5071C16.2657 26.2342 16.3242 25.9126 16.3242 25.5423C16.3242 25.1622 16.2657 24.8407 16.1488 24.5678C16.0319 24.295 15.8662 24.0903 15.6615 23.9441C15.4471 23.798 15.223 23.6907 14.9891 23.6225C14.7455 23.5544 14.4824 23.5251 14.1998 23.5251H13.6735V27.5498ZM19.0626 29.0993V21.9756H24.1301V23.5251H20.8849V24.6652H23.4771V26.205H20.8849V29.0993H19.0626Z" fill="white"/>
</svg>
