<svg width="40" height="40" viewBox="0 0 40 40" fill="none" xmlns="http://www.w3.org/2000/svg">
<circle cx="20" cy="20" r="20" fill="#1C275E"/>
<path d="M24.2285 11.4014V12.6818H25.509L24.2285 11.4014Z" fill="white"/>
<path d="M29.9614 18.1523H9.76503C8.92109 18.1523 8.22266 18.8508 8.22266 19.6947V25.9515C8.22266 26.7954 8.92109 27.4939 9.76503 27.4939H13.1408V23.3033H12.4715V23.8853C12.4715 24.0599 12.3259 24.2054 12.1513 24.2054C11.9767 24.2054 11.8312 24.0599 11.8312 23.8853V23.3033C11.8312 22.9541 12.1222 22.6922 12.4423 22.6922H27.1676C27.5168 22.6922 27.7788 22.9832 27.7788 23.3033V23.8853C27.7788 24.0599 27.6332 24.2054 27.4586 24.2054C27.284 24.2054 27.1385 24.0599 27.1385 23.8853V23.3033H26.4692V27.4939H29.8449C30.6889 27.4939 31.3873 26.7954 31.3873 25.9515V19.6947C31.5037 18.8508 30.8053 18.1523 29.9614 18.1523ZM10.1724 20.7133C9.85233 20.7133 9.59042 20.4513 9.59042 20.1021C9.59042 19.782 9.85233 19.491 10.1724 19.491C10.4926 19.491 10.7836 19.7529 10.7836 20.1021C10.7836 20.4513 10.5217 20.7133 10.1724 20.7133Z" fill="white"/>
<path d="M13.7812 28.9494C13.7812 29.4732 14.1887 29.8806 14.7125 29.8806H25.0144C25.5382 29.8806 25.9456 29.4732 25.9456 28.9494V23.3037H13.7812V28.9494ZM15.8474 25.0789H23.8794C24.054 25.0789 24.1995 25.2244 24.1995 25.399C24.1995 25.5736 24.054 25.7191 23.8794 25.7191H15.8474C15.6728 25.7191 15.5273 25.5736 15.5273 25.399C15.5273 25.2244 15.6728 25.0789 15.8474 25.0789ZM15.8474 27.4943H23.8794C24.054 27.4943 24.1995 27.6398 24.1995 27.8144C24.1995 27.989 24.054 28.1345 23.8794 28.1345H15.8474C15.6728 28.1345 15.5273 27.989 15.5273 27.8144C15.5273 27.6398 15.6728 27.4943 15.8474 27.4943Z" fill="white"/>
<path d="M25.9456 13.3221H23.9085C23.7339 13.3221 23.5884 13.1765 23.5884 13.0019V10.9648H14.7125C14.1887 10.9648 13.7812 11.3723 13.7812 11.8961V17.5417H25.9456V13.3221Z" fill="white"/>
</svg>
