<svg width="318" height="272" viewBox="0 0 318 272" fill="none" xmlns="http://www.w3.org/2000/svg">
<rect width="318" height="272" rx="20" fill="white"/>
<path d="M49.0508 32.412C48.2228 32.412 47.5388 32.142 46.9988 31.602C46.4708 31.062 46.2068 30.276 46.2068 29.244C46.2068 28.2 46.4708 27.414 46.9988 26.886C47.5388 26.346 48.2228 26.076 49.0508 26.076C49.8788 26.076 50.5568 26.346 51.0848 26.886C51.6128 27.414 51.8768 28.2 51.8768 29.244C51.8768 30.276 51.6128 31.062 51.0848 31.602C50.5568 32.142 49.8788 32.412 49.0508 32.412ZM49.0508 31.206C49.5068 31.206 49.8488 31.038 50.0768 30.702C50.3048 30.366 50.4188 29.88 50.4188 29.244C50.4188 28.608 50.3048 28.122 50.0768 27.786C49.8488 27.45 49.5068 27.282 49.0508 27.282C48.6068 27.282 48.2648 27.45 48.0248 27.786C47.7968 28.122 47.6828 28.608 47.6828 29.244C47.6828 29.88 47.7968 30.366 48.0248 30.702C48.2648 31.038 48.6068 31.206 49.0508 31.206ZM56.4308 39.144C55.6148 39.144 54.9368 38.874 54.3968 38.334C53.8568 37.794 53.5868 37.008 53.5868 35.976C53.5868 34.932 53.8568 34.146 54.3968 33.618C54.9368 33.078 55.6148 32.808 56.4308 32.808C57.2708 32.808 57.9548 33.078 58.4828 33.618C59.0108 34.146 59.2748 34.932 59.2748 35.976C59.2748 37.008 59.0108 37.794 58.4828 38.334C57.9548 38.874 57.2708 39.144 56.4308 39.144ZM56.4308 37.938C56.8868 37.938 57.2288 37.77 57.4568 37.434C57.6848 37.098 57.7988 36.612 57.7988 35.976C57.7988 35.34 57.6848 34.854 57.4568 34.518C57.2288 34.182 56.8868 34.014 56.4308 34.014C55.9868 34.014 55.6448 34.182 55.4048 34.518C55.1768 34.854 55.0628 35.34 55.0628 35.976C55.0628 36.612 55.1768 37.098 55.4048 37.434C55.6448 37.77 55.9868 37.938 56.4308 37.938ZM47.6288 39L56.3408 26.22H57.8528L49.1408 39H47.6288ZM64.328 39L68.936 26.22H71.402L76.01 39H73.94L72.77 35.67H67.55L66.398 39H64.328ZM68.162 33.906H72.176L70.16 28.074L68.162 33.906ZM77.1606 41.7V29.424H78.9606L79.0146 31.476L78.7986 31.368C79.0386 30.66 79.4346 30.126 79.9866 29.766C80.5386 29.394 81.1746 29.208 81.8946 29.208C82.8306 29.208 83.5986 29.442 84.1986 29.91C84.8106 30.366 85.2606 30.972 85.5486 31.728C85.8486 32.484 85.9986 33.312 85.9986 34.212C85.9986 35.112 85.8486 35.94 85.5486 36.696C85.2606 37.452 84.8106 38.064 84.1986 38.532C83.5986 38.988 82.8306 39.216 81.8946 39.216C81.4146 39.216 80.9646 39.132 80.5446 38.964C80.1246 38.796 79.7646 38.562 79.4646 38.262C79.1766 37.95 78.9726 37.584 78.8526 37.164L79.0686 36.948V41.7H77.1606ZM81.5526 37.56C82.3206 37.56 82.9206 37.266 83.3526 36.678C83.7966 36.09 84.0186 35.268 84.0186 34.212C84.0186 33.156 83.7966 32.334 83.3526 31.746C82.9206 31.158 82.3206 30.864 81.5526 30.864C81.0486 30.864 80.6106 30.99 80.2386 31.242C79.8666 31.482 79.5786 31.854 79.3746 32.358C79.1706 32.862 79.0686 33.48 79.0686 34.212C79.0686 34.944 79.1646 35.562 79.3566 36.066C79.5606 36.57 79.8486 36.948 80.2206 37.2C80.6046 37.44 81.0486 37.56 81.5526 37.56ZM87.72 41.7V29.424H89.52L89.574 31.476L89.358 31.368C89.598 30.66 89.994 30.126 90.546 29.766C91.098 29.394 91.734 29.208 92.454 29.208C93.39 29.208 94.158 29.442 94.758 29.91C95.37 30.366 95.82 30.972 96.108 31.728C96.408 32.484 96.558 33.312 96.558 34.212C96.558 35.112 96.408 35.94 96.108 36.696C95.82 37.452 95.37 38.064 94.758 38.532C94.158 38.988 93.39 39.216 92.454 39.216C91.974 39.216 91.524 39.132 91.104 38.964C90.684 38.796 90.324 38.562 90.024 38.262C89.736 37.95 89.532 37.584 89.412 37.164L89.628 36.948V41.7H87.72ZM92.112 37.56C92.88 37.56 93.48 37.266 93.912 36.678C94.356 36.09 94.578 35.268 94.578 34.212C94.578 33.156 94.356 32.334 93.912 31.746C93.48 31.158 92.88 30.864 92.112 30.864C91.608 30.864 91.17 30.99 90.798 31.242C90.426 31.482 90.138 31.854 89.934 32.358C89.73 32.862 89.628 33.48 89.628 34.212C89.628 34.944 89.724 35.562 89.916 36.066C90.12 36.57 90.408 36.948 90.78 37.2C91.164 37.44 91.608 37.56 92.112 37.56ZM102.221 39.216C101.309 39.216 100.511 39.012 99.8274 38.604C99.1434 38.196 98.6154 37.614 98.2434 36.858C97.8714 36.102 97.6854 35.22 97.6854 34.212C97.6854 33.192 97.8714 32.31 98.2434 31.566C98.6154 30.822 99.1434 30.246 99.8274 29.838C100.511 29.418 101.309 29.208 102.221 29.208C103.133 29.208 103.931 29.418 104.615 29.838C105.299 30.246 105.827 30.822 106.199 31.566C106.571 32.31 106.757 33.192 106.757 34.212C106.757 35.22 106.571 36.102 106.199 36.858C105.827 37.614 105.299 38.196 104.615 38.604C103.931 39.012 103.133 39.216 102.221 39.216ZM102.221 37.56C103.037 37.56 103.667 37.266 104.111 36.678C104.555 36.078 104.777 35.256 104.777 34.212C104.777 33.168 104.555 32.352 104.111 31.764C103.667 31.164 103.037 30.864 102.221 30.864C101.417 30.864 100.787 31.164 100.331 31.764C99.8874 32.352 99.6654 33.168 99.6654 34.212C99.6654 35.256 99.8874 36.078 100.331 36.678C100.787 37.266 101.417 37.56 102.221 37.56ZM108.47 39V29.424H110.378V39H108.47ZM108.434 28.038V26.13H110.414V28.038H108.434ZM113.017 39V29.424H114.763L114.835 31.98L114.601 31.854C114.709 31.23 114.913 30.726 115.213 30.342C115.513 29.958 115.879 29.676 116.311 29.496C116.743 29.304 117.211 29.208 117.715 29.208C118.435 29.208 119.029 29.37 119.497 29.694C119.977 30.006 120.337 30.438 120.577 30.99C120.829 31.53 120.955 32.148 120.955 32.844V39H119.047V33.42C119.047 32.856 118.987 32.382 118.867 31.998C118.747 31.614 118.549 31.32 118.273 31.116C117.997 30.912 117.637 30.81 117.193 30.81C116.521 30.81 115.975 31.032 115.555 31.476C115.135 31.92 114.925 32.568 114.925 33.42V39H113.017ZM126.423 39C125.511 39 124.839 38.79 124.407 38.37C123.975 37.95 123.759 37.296 123.759 36.408V27.174H125.667V36.264C125.667 36.708 125.763 37.014 125.955 37.182C126.147 37.35 126.441 37.434 126.837 37.434H128.205V39H126.423ZM122.301 30.99V29.424H128.205V30.99H122.301ZM130.005 39V29.424H131.751L131.805 31.8L131.589 31.728C131.697 31.2 131.883 30.75 132.147 30.378C132.423 30.006 132.759 29.718 133.155 29.514C133.551 29.31 133.983 29.208 134.451 29.208C135.267 29.208 135.933 29.442 136.449 29.91C136.965 30.366 137.289 30.996 137.421 31.8H137.115C137.223 31.236 137.403 30.768 137.655 30.396C137.919 30.012 138.255 29.718 138.663 29.514C139.071 29.31 139.533 29.208 140.049 29.208C140.721 29.208 141.291 29.352 141.759 29.64C142.239 29.916 142.599 30.324 142.839 30.864C143.091 31.404 143.217 32.064 143.217 32.844V39H141.309V33.312C141.309 32.484 141.159 31.86 140.859 31.44C140.559 31.02 140.103 30.81 139.491 30.81C139.095 30.81 138.747 30.912 138.447 31.116C138.147 31.32 137.913 31.614 137.745 31.998C137.589 32.382 137.511 32.844 137.511 33.384V39H135.693V33.384C135.693 32.568 135.555 31.938 135.279 31.494C135.015 31.038 134.559 30.81 133.911 30.81C133.503 30.81 133.149 30.912 132.849 31.116C132.561 31.32 132.333 31.62 132.165 32.016C131.997 32.4 131.913 32.856 131.913 33.384V39H130.005ZM149.446 39.216C148.51 39.216 147.7 39.012 147.016 38.604C146.344 38.196 145.822 37.614 145.45 36.858C145.09 36.102 144.91 35.22 144.91 34.212C144.91 33.204 145.09 32.328 145.45 31.584C145.822 30.828 146.344 30.246 147.016 29.838C147.688 29.418 148.48 29.208 149.392 29.208C150.256 29.208 151.018 29.412 151.678 29.82C152.338 30.216 152.848 30.792 153.208 31.548C153.58 32.304 153.766 33.216 153.766 34.284V34.77H146.89C146.938 35.706 147.184 36.408 147.628 36.876C148.084 37.344 148.696 37.578 149.464 37.578C150.028 37.578 150.496 37.446 150.868 37.182C151.24 36.918 151.498 36.564 151.642 36.12L153.622 36.246C153.37 37.134 152.872 37.854 152.128 38.406C151.396 38.946 150.502 39.216 149.446 39.216ZM146.89 33.33H151.75C151.69 32.478 151.444 31.848 151.012 31.44C150.592 31.032 150.052 30.828 149.392 30.828C148.708 30.828 148.144 31.044 147.7 31.476C147.268 31.896 146.998 32.514 146.89 33.33ZM155.483 39V29.424H157.229L157.301 31.98L157.067 31.854C157.175 31.23 157.379 30.726 157.679 30.342C157.979 29.958 158.345 29.676 158.777 29.496C159.209 29.304 159.677 29.208 160.181 29.208C160.901 29.208 161.495 29.37 161.963 29.694C162.443 30.006 162.803 30.438 163.043 30.99C163.295 31.53 163.421 32.148 163.421 32.844V39H161.513V33.42C161.513 32.856 161.453 32.382 161.333 31.998C161.213 31.614 161.015 31.32 160.739 31.116C160.463 30.912 160.103 30.81 159.659 30.81C158.987 30.81 158.441 31.032 158.021 31.476C157.601 31.92 157.391 32.568 157.391 33.42V39H155.483ZM168.889 39C167.977 39 167.305 38.79 166.873 38.37C166.441 37.95 166.225 37.296 166.225 36.408V27.174H168.133V36.264C168.133 36.708 168.229 37.014 168.421 37.182C168.613 37.35 168.907 37.434 169.303 37.434H170.671V39H168.889ZM164.767 30.99V29.424H170.671V30.99H164.767ZM175.81 39.216C174.91 39.216 174.148 39.078 173.524 38.802C172.912 38.526 172.438 38.148 172.102 37.668C171.766 37.176 171.574 36.612 171.526 35.976L173.488 35.886C173.584 36.414 173.812 36.834 174.172 37.146C174.532 37.458 175.078 37.614 175.81 37.614C176.41 37.614 176.884 37.518 177.232 37.326C177.58 37.134 177.754 36.828 177.754 36.408C177.754 36.18 177.694 35.988 177.574 35.832C177.466 35.664 177.25 35.526 176.926 35.418C176.602 35.298 176.122 35.184 175.486 35.076C174.538 34.896 173.794 34.686 173.254 34.446C172.714 34.206 172.33 33.9 172.102 33.528C171.874 33.156 171.76 32.706 171.76 32.178C171.76 31.302 172.084 30.588 172.732 30.036C173.392 29.484 174.34 29.208 175.576 29.208C176.404 29.208 177.1 29.352 177.664 29.64C178.228 29.916 178.666 30.294 178.978 30.774C179.302 31.242 179.506 31.77 179.59 32.358L177.628 32.466C177.568 32.13 177.448 31.842 177.268 31.602C177.1 31.35 176.872 31.158 176.584 31.026C176.296 30.882 175.954 30.81 175.558 30.81C174.946 30.81 174.49 30.93 174.19 31.17C173.89 31.41 173.74 31.722 173.74 32.106C173.74 32.394 173.806 32.628 173.938 32.808C174.082 32.988 174.31 33.138 174.622 33.258C174.934 33.366 175.348 33.462 175.864 33.546C176.86 33.714 177.64 33.924 178.204 34.176C178.768 34.416 179.164 34.716 179.392 35.076C179.62 35.436 179.734 35.874 179.734 36.39C179.734 36.99 179.566 37.5 179.23 37.92C178.894 38.34 178.432 38.664 177.844 38.892C177.256 39.108 176.578 39.216 175.81 39.216ZM190.591 39.288C189.571 39.288 188.683 39.102 187.927 38.73C187.183 38.358 186.595 37.842 186.163 37.182C185.731 36.522 185.479 35.754 185.407 34.878L187.405 34.752C187.489 35.352 187.663 35.862 187.927 36.282C188.191 36.69 188.545 37.002 188.989 37.218C189.445 37.422 189.991 37.524 190.627 37.524C191.179 37.524 191.647 37.458 192.031 37.326C192.427 37.182 192.727 36.972 192.931 36.696C193.135 36.42 193.237 36.084 193.237 35.688C193.237 35.328 193.147 35.01 192.967 34.734C192.799 34.446 192.469 34.188 191.977 33.96C191.497 33.72 190.789 33.486 189.853 33.258C188.833 33.006 188.017 32.73 187.405 32.43C186.793 32.13 186.349 31.758 186.073 31.314C185.809 30.858 185.677 30.3 185.677 29.64C185.677 28.908 185.851 28.266 186.199 27.714C186.559 27.15 187.069 26.712 187.729 26.4C188.389 26.088 189.181 25.932 190.105 25.932C191.077 25.932 191.905 26.112 192.589 26.472C193.285 26.832 193.831 27.324 194.227 27.948C194.635 28.572 194.887 29.286 194.983 30.09L192.985 30.198C192.925 29.706 192.775 29.274 192.535 28.902C192.295 28.518 191.971 28.224 191.563 28.02C191.155 27.804 190.657 27.696 190.069 27.696C189.325 27.696 188.737 27.87 188.305 28.218C187.885 28.554 187.675 29.004 187.675 29.568C187.675 29.928 187.759 30.234 187.927 30.486C188.107 30.726 188.419 30.936 188.863 31.116C189.319 31.296 189.961 31.488 190.789 31.692C191.893 31.944 192.769 32.256 193.417 32.628C194.077 32.988 194.545 33.414 194.821 33.906C195.097 34.398 195.235 34.956 195.235 35.58C195.235 36.336 195.037 36.996 194.641 37.56C194.257 38.112 193.717 38.538 193.021 38.838C192.325 39.138 191.515 39.288 190.591 39.288ZM201.5 39.216C200.588 39.216 199.79 39.012 199.106 38.604C198.422 38.196 197.894 37.614 197.522 36.858C197.15 36.102 196.964 35.22 196.964 34.212C196.964 33.204 197.15 32.328 197.522 31.584C197.894 30.828 198.422 30.246 199.106 29.838C199.79 29.418 200.588 29.208 201.5 29.208C202.28 29.208 202.97 29.346 203.57 29.622C204.182 29.886 204.674 30.276 205.046 30.792C205.43 31.308 205.676 31.938 205.784 32.682L203.786 32.79C203.69 32.166 203.438 31.692 203.03 31.368C202.622 31.032 202.112 30.864 201.5 30.864C200.696 30.864 200.066 31.164 199.61 31.764C199.166 32.352 198.944 33.168 198.944 34.212C198.944 35.256 199.166 36.078 199.61 36.678C200.066 37.266 200.696 37.56 201.5 37.56C202.112 37.56 202.622 37.392 203.03 37.056C203.438 36.708 203.69 36.186 203.786 35.49L205.784 35.598C205.676 36.33 205.43 36.966 205.046 37.506C204.674 38.046 204.182 38.466 203.57 38.766C202.97 39.066 202.28 39.216 201.5 39.216ZM207.308 39V26.22H209.216V31.584L208.982 31.548C209.09 31.008 209.288 30.57 209.576 30.234C209.864 29.886 210.218 29.628 210.638 29.46C211.058 29.292 211.52 29.208 212.024 29.208C212.72 29.208 213.308 29.364 213.788 29.676C214.268 29.976 214.628 30.402 214.868 30.954C215.12 31.506 215.246 32.136 215.246 32.844V39H213.338V33.348C213.338 32.484 213.188 31.848 212.888 31.44C212.6 31.02 212.144 30.81 211.52 30.81C210.824 30.81 210.266 31.032 209.846 31.476C209.426 31.908 209.216 32.544 209.216 33.384V39H207.308ZM221.458 39.216C220.522 39.216 219.712 39.012 219.028 38.604C218.356 38.196 217.834 37.614 217.462 36.858C217.102 36.102 216.922 35.22 216.922 34.212C216.922 33.204 217.102 32.328 217.462 31.584C217.834 30.828 218.356 30.246 219.028 29.838C219.7 29.418 220.492 29.208 221.404 29.208C222.268 29.208 223.03 29.412 223.69 29.82C224.35 30.216 224.86 30.792 225.22 31.548C225.592 32.304 225.778 33.216 225.778 34.284V34.77H218.902C218.95 35.706 219.196 36.408 219.64 36.876C220.096 37.344 220.708 37.578 221.476 37.578C222.04 37.578 222.508 37.446 222.88 37.182C223.252 36.918 223.51 36.564 223.654 36.12L225.634 36.246C225.382 37.134 224.884 37.854 224.14 38.406C223.408 38.946 222.514 39.216 221.458 39.216ZM218.902 33.33H223.762C223.702 32.478 223.456 31.848 223.024 31.44C222.604 31.032 222.064 30.828 221.404 30.828C220.72 30.828 220.156 31.044 219.712 31.476C219.28 31.896 219.01 32.514 218.902 33.33ZM230.898 39.216C230.082 39.216 229.368 39.012 228.756 38.604C228.156 38.196 227.694 37.62 227.37 36.876C227.058 36.12 226.902 35.232 226.902 34.212C226.902 33.192 227.064 32.31 227.388 31.566C227.712 30.81 228.174 30.228 228.774 29.82C229.374 29.412 230.082 29.208 230.898 29.208C231.558 29.208 232.146 29.346 232.662 29.622C233.178 29.898 233.568 30.282 233.832 30.774V26.22H235.74V39H233.958L233.904 37.56C233.64 38.076 233.238 38.484 232.698 38.784C232.17 39.072 231.57 39.216 230.898 39.216ZM231.402 37.56C231.918 37.56 232.356 37.428 232.716 37.164C233.076 36.9 233.352 36.516 233.544 36.012C233.736 35.508 233.832 34.908 233.832 34.212C233.832 33.492 233.736 32.886 233.544 32.394C233.352 31.89 233.076 31.512 232.716 31.26C232.356 30.996 231.918 30.864 231.402 30.864C230.634 30.864 230.022 31.164 229.566 31.764C229.11 32.352 228.882 33.168 228.882 34.212C228.882 35.244 229.11 36.06 229.566 36.66C230.022 37.26 230.634 37.56 231.402 37.56ZM241.047 39.216C240.087 39.216 239.319 38.898 238.743 38.262C238.179 37.614 237.897 36.72 237.897 35.58V29.424H239.805V35.094C239.805 35.958 239.955 36.594 240.255 37.002C240.555 37.41 241.011 37.614 241.623 37.614C242.319 37.614 242.859 37.392 243.243 36.948C243.639 36.492 243.837 35.856 243.837 35.04V29.424H245.745V39H243.963L243.927 36.498L244.197 36.606C244.029 37.446 243.675 38.094 243.135 38.55C242.595 38.994 241.899 39.216 241.047 39.216ZM250.316 39C249.692 39 249.188 38.838 248.804 38.514C248.42 38.19 248.228 37.674 248.228 36.966V26.22H250.136V36.786C250.136 37.002 250.19 37.164 250.298 37.272C250.418 37.38 250.586 37.434 250.802 37.434H251.558V39H250.316ZM256.911 39.216C255.975 39.216 255.165 39.012 254.481 38.604C253.809 38.196 253.287 37.614 252.915 36.858C252.555 36.102 252.375 35.22 252.375 34.212C252.375 33.204 252.555 32.328 252.915 31.584C253.287 30.828 253.809 30.246 254.481 29.838C255.153 29.418 255.945 29.208 256.857 29.208C257.721 29.208 258.483 29.412 259.143 29.82C259.803 30.216 260.313 30.792 260.673 31.548C261.045 32.304 261.231 33.216 261.231 34.284V34.77H254.355C254.403 35.706 254.649 36.408 255.093 36.876C255.549 37.344 256.161 37.578 256.929 37.578C257.493 37.578 257.961 37.446 258.333 37.182C258.705 36.918 258.963 36.564 259.107 36.12L261.087 36.246C260.835 37.134 260.337 37.854 259.593 38.406C258.861 38.946 257.967 39.216 256.911 39.216ZM254.355 33.33H259.215C259.155 32.478 258.909 31.848 258.477 31.44C258.057 31.032 257.517 30.828 256.857 30.828C256.173 30.828 255.609 31.044 255.165 31.476C254.733 31.896 254.463 32.514 254.355 33.33ZM266.35 39.216C265.534 39.216 264.82 39.012 264.208 38.604C263.608 38.196 263.146 37.62 262.822 36.876C262.51 36.12 262.354 35.232 262.354 34.212C262.354 33.192 262.516 32.31 262.84 31.566C263.164 30.81 263.626 30.228 264.226 29.82C264.826 29.412 265.534 29.208 266.35 29.208C267.01 29.208 267.598 29.346 268.114 29.622C268.63 29.898 269.02 30.282 269.284 30.774V26.22H271.192V39H269.41L269.356 37.56C269.092 38.076 268.69 38.484 268.15 38.784C267.622 39.072 267.022 39.216 266.35 39.216ZM266.854 37.56C267.37 37.56 267.808 37.428 268.168 37.164C268.528 36.9 268.804 36.516 268.996 36.012C269.188 35.508 269.284 34.908 269.284 34.212C269.284 33.492 269.188 32.886 268.996 32.394C268.804 31.89 268.528 31.512 268.168 31.26C267.808 30.996 267.37 30.864 266.854 30.864C266.086 30.864 265.474 31.164 265.018 31.764C264.562 32.352 264.334 33.168 264.334 34.212C264.334 35.244 264.562 36.06 265.018 36.66C265.474 37.26 266.086 37.56 266.854 37.56ZM132.695 64.216C132.035 64.216 131.447 64.072 130.931 63.784C130.427 63.484 130.037 63.076 129.761 62.56L129.707 64H127.925V51.22H129.833V55.774C130.085 55.354 130.457 54.988 130.949 54.676C131.453 54.364 132.035 54.208 132.695 54.208C133.523 54.208 134.243 54.412 134.855 54.82C135.467 55.228 135.935 55.81 136.259 56.566C136.595 57.31 136.763 58.192 136.763 59.212C136.763 60.232 136.595 61.12 136.259 61.876C135.935 62.62 135.467 63.196 134.855 63.604C134.243 64.012 133.523 64.216 132.695 64.216ZM132.389 62.56C133.121 62.56 133.703 62.266 134.135 61.678C134.567 61.078 134.783 60.256 134.783 59.212C134.783 58.168 134.567 57.352 134.135 56.764C133.703 56.164 133.127 55.864 132.407 55.864C131.867 55.864 131.405 55.996 131.021 56.26C130.637 56.524 130.343 56.908 130.139 57.412C129.935 57.904 129.833 58.504 129.833 59.212C129.833 59.896 129.935 60.49 130.139 60.994C130.343 61.498 130.637 61.888 131.021 62.164C131.405 62.428 131.861 62.56 132.389 62.56ZM138.725 66.7V65.134H139.895C140.219 65.134 140.459 65.086 140.615 64.99C140.771 64.894 140.891 64.732 140.975 64.504L141.281 63.712H140.687L137.231 54.424H139.247L141.875 61.948L144.377 54.424H146.411L142.595 65.116C142.403 65.668 142.115 66.07 141.731 66.322C141.359 66.574 140.837 66.7 140.165 66.7H138.725ZM152.277 64V51.22H160.593V53.002H154.221V56.728H160.377V58.456H154.221V62.218H160.737V64H152.277ZM162.832 64V54.424H164.578L164.632 56.8L164.416 56.728C164.524 56.2 164.71 55.75 164.974 55.378C165.25 55.006 165.586 54.718 165.982 54.514C166.378 54.31 166.81 54.208 167.278 54.208C168.094 54.208 168.76 54.442 169.276 54.91C169.792 55.366 170.116 55.996 170.248 56.8H169.942C170.05 56.236 170.23 55.768 170.482 55.396C170.746 55.012 171.082 54.718 171.49 54.514C171.898 54.31 172.36 54.208 172.876 54.208C173.548 54.208 174.118 54.352 174.586 54.64C175.066 54.916 175.426 55.324 175.666 55.864C175.918 56.404 176.044 57.064 176.044 57.844V64H174.136V58.312C174.136 57.484 173.986 56.86 173.686 56.44C173.386 56.02 172.93 55.81 172.318 55.81C171.922 55.81 171.574 55.912 171.274 56.116C170.974 56.32 170.74 56.614 170.572 56.998C170.416 57.382 170.338 57.844 170.338 58.384V64H168.52V58.384C168.52 57.568 168.382 56.938 168.106 56.494C167.842 56.038 167.386 55.81 166.738 55.81C166.33 55.81 165.976 55.912 165.676 56.116C165.388 56.32 165.16 56.62 164.992 57.016C164.824 57.4 164.74 57.856 164.74 58.384V64H162.832ZM178.366 64V54.424H180.274V64H178.366ZM178.33 53.038V51.13H180.31V53.038H178.33ZM184.703 64C184.079 64 183.575 63.838 183.191 63.514C182.807 63.19 182.615 62.674 182.615 61.966V51.22H184.523V61.786C184.523 62.002 184.577 62.164 184.685 62.272C184.805 62.38 184.973 62.434 185.189 62.434H185.945V64H184.703ZM187.527 66.7V65.134H188.697C189.021 65.134 189.261 65.086 189.417 64.99C189.573 64.894 189.693 64.732 189.777 64.504L190.083 63.712H189.489L186.033 54.424H188.049L190.677 61.948L193.179 54.424H195.213L191.397 65.116C191.205 65.668 190.917 66.07 190.533 66.322C190.161 66.574 189.639 66.7 188.967 66.7H187.527Z" fill="black"/>
<path d="M107.188 91.256C106.484 91.256 105.86 91.0907 105.316 90.76C104.772 90.4187 104.345 89.9493 104.036 89.352C103.737 88.7547 103.583 88.0667 103.572 87.288L104.98 87.192C104.991 88.0667 105.188 88.7387 105.572 89.208C105.956 89.6773 106.495 89.912 107.188 89.912C107.913 89.912 108.468 89.6613 108.852 89.16C109.247 88.6587 109.444 87.9493 109.444 87.032V79.64H110.82V87.032C110.82 87.896 110.671 88.648 110.372 89.288C110.073 89.9173 109.652 90.4027 109.108 90.744C108.575 91.0853 107.935 91.256 107.188 91.256ZM115.423 91.192C114.548 91.192 113.85 90.9893 113.327 90.584C112.815 90.1787 112.559 89.6133 112.559 88.888C112.559 88.1627 112.772 87.592 113.199 87.176C113.626 86.76 114.303 86.4667 115.231 86.296L118.239 85.736C118.239 85.0213 118.068 84.488 117.727 84.136C117.396 83.784 116.895 83.608 116.223 83.608C115.636 83.608 115.172 83.7413 114.831 84.008C114.49 84.264 114.255 84.6373 114.127 85.128L112.703 85.016C112.863 84.216 113.247 83.5707 113.855 83.08C114.474 82.5787 115.263 82.328 116.223 82.328C117.311 82.328 118.143 82.6373 118.719 83.256C119.295 83.864 119.583 84.7067 119.583 85.784V89.288C119.583 89.48 119.615 89.6187 119.679 89.704C119.754 89.7787 119.871 89.816 120.031 89.816H120.367V91C120.324 91.0107 120.255 91.016 120.159 91.016C120.063 91.0267 119.962 91.032 119.855 91.032C119.471 91.032 119.156 90.9733 118.911 90.856C118.676 90.728 118.506 90.536 118.399 90.28C118.292 90.0133 118.239 89.6667 118.239 89.24L118.399 89.272C118.324 89.6347 118.143 89.9653 117.855 90.264C117.567 90.552 117.21 90.7813 116.783 90.952C116.356 91.112 115.903 91.192 115.423 91.192ZM115.551 90.008C116.116 90.008 116.596 89.9013 116.991 89.688C117.396 89.464 117.706 89.1653 117.919 88.792C118.132 88.408 118.239 87.9813 118.239 87.512V86.904L115.487 87.416C114.911 87.5227 114.511 87.688 114.287 87.912C114.074 88.1253 113.967 88.408 113.967 88.76C113.967 89.1547 114.106 89.464 114.383 89.688C114.671 89.9013 115.06 90.008 115.551 90.008ZM121.693 91V82.52H122.925L122.973 84.68L122.813 84.536C122.92 84.0347 123.106 83.624 123.373 83.304C123.64 82.9733 123.96 82.728 124.333 82.568C124.717 82.408 125.128 82.328 125.565 82.328C126.216 82.328 126.749 82.472 127.165 82.76C127.592 83.048 127.906 83.4373 128.109 83.928C128.322 84.408 128.429 84.9467 128.429 85.544V91H127.085V85.928C127.085 85.4053 127.021 84.968 126.893 84.616C126.776 84.2533 126.584 83.9813 126.317 83.8C126.05 83.608 125.704 83.512 125.277 83.512C124.626 83.512 124.088 83.72 123.661 84.136C123.245 84.5413 123.037 85.1387 123.037 85.928V91H121.693ZM138.142 91.256C136.883 91.256 135.912 90.9627 135.23 90.376C134.547 89.7787 134.179 89.0107 134.126 88.072L135.55 87.976C135.614 88.6693 135.88 89.1653 136.35 89.464C136.83 89.7627 137.427 89.912 138.142 89.912C138.632 89.912 139.086 89.848 139.502 89.72C139.918 89.5813 140.254 89.3627 140.51 89.064C140.766 88.7547 140.894 88.344 140.894 87.832C140.894 87.0747 140.643 86.52 140.142 86.168C139.64 85.816 138.979 85.64 138.158 85.64H137.262V84.296H138.158C138.83 84.296 139.384 84.1627 139.822 83.896C140.27 83.6293 140.494 83.1707 140.494 82.52C140.494 81.9333 140.302 81.4907 139.918 81.192C139.544 80.8827 138.979 80.728 138.222 80.728C137.475 80.728 136.91 80.872 136.526 81.16C136.152 81.448 135.928 81.8427 135.854 82.344L134.414 82.248C134.52 81.3947 134.899 80.7067 135.55 80.184C136.2 79.6507 137.091 79.384 138.222 79.384C138.99 79.384 139.651 79.512 140.206 79.768C140.76 80.0133 141.187 80.3653 141.486 80.824C141.784 81.2827 141.934 81.8267 141.934 82.456C141.934 83.16 141.71 83.7307 141.262 84.168C140.824 84.5947 140.174 84.888 139.31 85.048V84.76C140.238 84.8667 140.974 85.1973 141.518 85.752C142.062 86.3067 142.334 87 142.334 87.832C142.334 88.5573 142.152 89.176 141.79 89.688C141.438 90.2 140.947 90.5893 140.318 90.856C139.688 91.1227 138.963 91.256 138.142 91.256ZM145.954 91V82.584H143.586V81.4H144.546C144.962 81.4 145.293 81.3467 145.538 81.24C145.794 81.1333 145.976 80.952 146.082 80.696C146.189 80.44 146.242 80.088 146.242 79.64H147.33V91H145.954ZM153.407 86.968V85.704H158.703V86.968H153.407ZM168.398 91.256C167.523 91.256 166.761 91.0907 166.11 90.76C165.459 90.4293 164.942 89.976 164.558 89.4C164.185 88.8133 163.966 88.136 163.902 87.368L165.342 87.272C165.417 87.8373 165.582 88.3173 165.838 88.712C166.094 89.1067 166.435 89.4053 166.862 89.608C167.299 89.8107 167.822 89.912 168.43 89.912C168.963 89.912 169.417 89.8427 169.79 89.704C170.163 89.5653 170.446 89.3627 170.638 89.096C170.841 88.8293 170.942 88.504 170.942 88.12C170.942 87.768 170.857 87.4587 170.686 87.192C170.526 86.9147 170.211 86.664 169.742 86.44C169.283 86.2053 168.601 85.976 167.694 85.752C166.819 85.528 166.121 85.2827 165.598 85.016C165.086 84.7493 164.713 84.424 164.478 84.04C164.254 83.656 164.142 83.1813 164.142 82.616C164.142 81.976 164.291 81.416 164.59 80.936C164.899 80.4453 165.337 80.0667 165.902 79.8C166.467 79.5227 167.139 79.384 167.918 79.384C168.75 79.384 169.465 79.544 170.062 79.864C170.659 80.1733 171.134 80.6 171.486 81.144C171.838 81.688 172.057 82.3067 172.142 83L170.702 83.096C170.638 82.6373 170.489 82.232 170.254 81.88C170.03 81.5173 169.721 81.2347 169.326 81.032C168.931 80.8293 168.451 80.728 167.886 80.728C167.182 80.728 166.622 80.8987 166.206 81.24C165.79 81.5707 165.582 82.008 165.582 82.552C165.582 82.904 165.662 83.1973 165.822 83.432C165.993 83.656 166.291 83.8587 166.718 84.04C167.145 84.2107 167.758 84.3973 168.558 84.6C169.507 84.8347 170.259 85.1173 170.814 85.448C171.379 85.768 171.779 86.1413 172.014 86.568C172.259 86.9947 172.382 87.48 172.382 88.024C172.382 88.6853 172.211 89.2613 171.87 89.752C171.529 90.232 171.059 90.6053 170.462 90.872C169.865 91.128 169.177 91.256 168.398 91.256ZM177.875 91.192C177.075 91.192 176.382 91.0107 175.795 90.648C175.219 90.2853 174.771 89.7733 174.451 89.112C174.142 88.44 173.987 87.656 173.987 86.76C173.987 85.864 174.142 85.0853 174.451 84.424C174.771 83.7627 175.214 83.2507 175.779 82.888C176.355 82.5147 177.032 82.328 177.811 82.328C178.547 82.328 179.198 82.504 179.763 82.856C180.328 83.1973 180.766 83.6987 181.075 84.36C181.395 85.0213 181.555 85.8267 181.555 86.776V87.176H175.395C175.448 88.0827 175.688 88.7653 176.115 89.224C176.552 89.6827 177.139 89.912 177.875 89.912C178.43 89.912 178.883 89.784 179.235 89.528C179.598 89.2613 179.848 88.9147 179.987 88.488L181.427 88.6C181.203 89.3573 180.776 89.9813 180.147 90.472C179.528 90.952 178.771 91.192 177.875 91.192ZM175.395 85.992H180.083C180.019 85.1707 179.779 84.568 179.363 84.184C178.958 83.8 178.44 83.608 177.811 83.608C177.16 83.608 176.622 83.8107 176.195 84.216C175.779 84.6107 175.512 85.2027 175.395 85.992ZM183.184 93.4V82.52H184.432L184.464 84.344L184.272 84.248C184.485 83.6187 184.837 83.144 185.328 82.824C185.829 82.4933 186.405 82.328 187.056 82.328C187.898 82.328 188.586 82.536 189.12 82.952C189.664 83.368 190.064 83.912 190.32 84.584C190.586 85.256 190.72 85.9813 190.72 86.76C190.72 87.5387 190.586 88.264 190.32 88.936C190.064 89.608 189.664 90.152 189.12 90.568C188.586 90.984 187.898 91.192 187.056 91.192C186.618 91.192 186.208 91.1173 185.824 90.968C185.45 90.8187 185.13 90.6107 184.864 90.344C184.608 90.0773 184.432 89.7627 184.336 89.4L184.528 89.176V93.4H183.184ZM186.928 89.912C187.664 89.912 188.245 89.6347 188.672 89.08C189.098 88.5253 189.312 87.752 189.312 86.76C189.312 85.768 189.098 84.9947 188.672 84.44C188.245 83.8853 187.664 83.608 186.928 83.608C186.437 83.608 186.01 83.7253 185.648 83.96C185.296 84.1947 185.018 84.5467 184.816 85.016C184.624 85.4853 184.528 86.0667 184.528 86.76C184.528 87.4533 184.624 88.0347 184.816 88.504C185.008 88.9733 185.285 89.3253 185.648 89.56C186.01 89.7947 186.437 89.912 186.928 89.912ZM199.851 91.256C198.593 91.256 197.622 90.9627 196.939 90.376C196.257 89.7787 195.889 89.0107 195.835 88.072L197.259 87.976C197.323 88.6693 197.59 89.1653 198.059 89.464C198.539 89.7627 199.137 89.912 199.851 89.912C200.342 89.912 200.795 89.848 201.211 89.72C201.627 89.5813 201.963 89.3627 202.219 89.064C202.475 88.7547 202.603 88.344 202.603 87.832C202.603 87.0747 202.353 86.52 201.851 86.168C201.35 85.816 200.689 85.64 199.867 85.64H198.971V84.296H199.867C200.539 84.296 201.094 84.1627 201.531 83.896C201.979 83.6293 202.203 83.1707 202.203 82.52C202.203 81.9333 202.011 81.4907 201.627 81.192C201.254 80.8827 200.689 80.728 199.931 80.728C199.185 80.728 198.619 80.872 198.235 81.16C197.862 81.448 197.638 81.8427 197.563 82.344L196.123 82.248C196.23 81.3947 196.609 80.7067 197.259 80.184C197.91 79.6507 198.801 79.384 199.931 79.384C200.699 79.384 201.361 79.512 201.915 79.768C202.47 80.0133 202.897 80.3653 203.195 80.824C203.494 81.2827 203.643 81.8267 203.643 82.456C203.643 83.16 203.419 83.7307 202.971 84.168C202.534 84.5947 201.883 84.888 201.019 85.048V84.76C201.947 84.8667 202.683 85.1973 203.227 85.752C203.771 86.3067 204.043 87 204.043 87.832C204.043 88.5573 203.862 89.176 203.499 89.688C203.147 90.2 202.657 90.5893 202.027 90.856C201.398 91.1227 200.673 91.256 199.851 91.256ZM209.952 91.256C209.034 91.256 208.24 91.016 207.568 90.536C206.896 90.056 206.373 89.3733 206 88.488C205.637 87.6027 205.456 86.552 205.456 85.336C205.456 84.12 205.637 83.0693 206 82.184C206.373 81.288 206.896 80.6 207.568 80.12C208.24 79.6293 209.034 79.384 209.952 79.384C210.88 79.384 211.68 79.6293 212.352 80.12C213.024 80.6 213.541 81.2827 213.904 82.168C214.277 83.0533 214.464 84.1093 214.464 85.336C214.464 86.552 214.277 87.6027 213.904 88.488C213.541 89.3733 213.024 90.056 212.352 90.536C211.68 91.016 210.88 91.256 209.952 91.256ZM209.952 89.912C210.933 89.912 211.69 89.5173 212.224 88.728C212.757 87.928 213.024 86.7973 213.024 85.336C213.024 84.3547 212.901 83.5227 212.656 82.84C212.421 82.1467 212.074 81.624 211.616 81.272C211.168 80.9093 210.613 80.728 209.952 80.728C209.301 80.728 208.746 80.9093 208.288 81.272C207.84 81.624 207.493 82.1467 207.248 82.84C207.013 83.5227 206.896 84.3547 206.896 85.336C206.896 86.7973 207.162 87.928 207.696 88.728C208.229 89.5173 208.981 89.912 209.952 89.912Z" fill="black" fill-opacity="0.4"/>
<path d="M29.692 236V234.152H25.36V233.216L29.62 227.48H30.724V233.144H31.78V234.152H30.724V236H29.692ZM26.608 233.144H29.692V229.064L26.608 233.144ZM36.2108 236.192C35.5228 236.192 34.9268 236.012 34.4228 235.652C33.9188 235.292 33.5268 234.78 33.2468 234.116C32.9748 233.452 32.8388 232.664 32.8388 231.752C32.8388 230.84 32.9748 230.052 33.2468 229.388C33.5268 228.716 33.9188 228.2 34.4228 227.84C34.9268 227.472 35.5228 227.288 36.2108 227.288C36.9068 227.288 37.5068 227.472 38.0108 227.84C38.5148 228.2 38.9028 228.712 39.1748 229.376C39.4548 230.04 39.5948 230.832 39.5948 231.752C39.5948 232.664 39.4548 233.452 39.1748 234.116C38.9028 234.78 38.5148 235.292 38.0108 235.652C37.5068 236.012 36.9068 236.192 36.2108 236.192ZM36.2108 235.184C36.9468 235.184 37.5148 234.888 37.9148 234.296C38.3148 233.696 38.5148 232.848 38.5148 231.752C38.5148 231.016 38.4228 230.392 38.2388 229.88C38.0628 229.36 37.8028 228.968 37.4588 228.704C37.1228 228.432 36.7068 228.296 36.2108 228.296C35.7228 228.296 35.3068 228.432 34.9628 228.704C34.6268 228.968 34.3668 229.36 34.1828 229.88C34.0068 230.392 33.9188 231.016 33.9188 231.752C33.9188 232.848 34.1188 233.696 34.5188 234.296C34.9188 234.888 35.4828 235.184 36.2108 235.184Z" fill="black" fill-opacity="0.3"/>
<rect x="45" y="231" width="253" height="1" fill="black" fill-opacity="0.3"/>
<path d="M28.744 207.192C28.104 207.192 27.556 207.048 27.1 206.76C26.652 206.464 26.308 206.032 26.068 205.464C25.836 204.896 25.72 204.208 25.72 203.4C25.72 202.696 25.776 202.036 25.888 201.42C26.008 200.804 26.196 200.264 26.452 199.8C26.716 199.328 27.06 198.96 27.484 198.696C27.916 198.424 28.448 198.288 29.08 198.288C29.84 198.288 30.428 198.476 30.844 198.852C31.26 199.22 31.552 199.704 31.72 200.304L30.64 200.4C30.544 200.064 30.376 199.796 30.136 199.596C29.904 199.396 29.552 199.296 29.08 199.296C28.376 199.296 27.82 199.596 27.412 200.196C27.012 200.796 26.8 201.704 26.776 202.92L26.56 202.872C26.648 202.584 26.8 202.32 27.016 202.08C27.24 201.832 27.512 201.636 27.832 201.492C28.16 201.34 28.528 201.264 28.936 201.264C29.496 201.264 29.988 201.384 30.412 201.624C30.836 201.864 31.164 202.204 31.396 202.644C31.636 203.076 31.756 203.584 31.756 204.168C31.756 204.792 31.628 205.332 31.372 205.788C31.116 206.236 30.76 206.584 30.304 206.832C29.856 207.072 29.336 207.192 28.744 207.192ZM28.768 206.184C29.328 206.184 29.784 206.008 30.136 205.656C30.496 205.296 30.676 204.8 30.676 204.168C30.676 203.776 30.6 203.436 30.448 203.148C30.296 202.86 30.084 202.64 29.812 202.488C29.54 202.328 29.224 202.248 28.864 202.248C28.48 202.248 28.136 202.328 27.832 202.488C27.528 202.64 27.288 202.86 27.112 203.148C26.936 203.436 26.848 203.776 26.848 204.168C26.848 204.56 26.924 204.908 27.076 205.212C27.236 205.516 27.46 205.756 27.748 205.932C28.036 206.1 28.376 206.184 28.768 206.184ZM36.3163 207.192C35.6283 207.192 35.0323 207.012 34.5283 206.652C34.0243 206.292 33.6323 205.78 33.3523 205.116C33.0803 204.452 32.9443 203.664 32.9443 202.752C32.9443 201.84 33.0803 201.052 33.3523 200.388C33.6323 199.716 34.0243 199.2 34.5283 198.84C35.0323 198.472 35.6283 198.288 36.3163 198.288C37.0123 198.288 37.6123 198.472 38.1163 198.84C38.6203 199.2 39.0083 199.712 39.2803 200.376C39.5603 201.04 39.7003 201.832 39.7003 202.752C39.7003 203.664 39.5603 204.452 39.2803 205.116C39.0083 205.78 38.6203 206.292 38.1163 206.652C37.6123 207.012 37.0123 207.192 36.3163 207.192ZM36.3163 206.184C37.0523 206.184 37.6203 205.888 38.0203 205.296C38.4203 204.696 38.6203 203.848 38.6203 202.752C38.6203 202.016 38.5283 201.392 38.3443 200.88C38.1683 200.36 37.9083 199.968 37.5643 199.704C37.2283 199.432 36.8123 199.296 36.3163 199.296C35.8283 199.296 35.4123 199.432 35.0683 199.704C34.7323 199.968 34.4723 200.36 34.2883 200.88C34.1123 201.392 34.0243 202.016 34.0243 202.752C34.0243 203.848 34.2243 204.696 34.6243 205.296C35.0243 205.888 35.5883 206.184 36.3163 206.184Z" fill="black" fill-opacity="0.3"/>
<rect x="45" y="202" width="253" height="1" fill="black" fill-opacity="0.3"/>
<path d="M28.624 178.192C28.016 178.192 27.472 178.096 26.992 177.904C26.52 177.712 26.148 177.428 25.876 177.052C25.612 176.676 25.48 176.212 25.48 175.66C25.48 175.044 25.664 174.536 26.032 174.136C26.4 173.728 26.888 173.452 27.496 173.308L27.52 173.548C27.032 173.412 26.636 173.192 26.332 172.888C26.036 172.576 25.888 172.156 25.888 171.628C25.888 171.18 26 170.78 26.224 170.428C26.456 170.076 26.776 169.8 27.184 169.6C27.592 169.392 28.072 169.288 28.624 169.288C29.176 169.288 29.656 169.392 30.064 169.6C30.48 169.8 30.8 170.076 31.024 170.428C31.248 170.78 31.36 171.18 31.36 171.628C31.36 172.156 31.212 172.576 30.916 172.888C30.62 173.192 30.224 173.412 29.728 173.548L29.752 173.308C30.368 173.452 30.856 173.728 31.216 174.136C31.584 174.536 31.768 175.044 31.768 175.66C31.768 176.212 31.632 176.676 31.36 177.052C31.096 177.428 30.728 177.712 30.256 177.904C29.784 178.096 29.24 178.192 28.624 178.192ZM28.624 177.184C29.256 177.184 29.756 177.056 30.124 176.8C30.5 176.536 30.688 176.136 30.688 175.6C30.688 175.104 30.52 174.708 30.184 174.412C29.856 174.108 29.336 173.956 28.624 173.956C27.92 173.956 27.4 174.108 27.064 174.412C26.728 174.708 26.56 175.104 26.56 175.6C26.56 176.136 26.744 176.536 27.112 176.8C27.488 177.056 27.992 177.184 28.624 177.184ZM28.624 172.996C29.152 172.996 29.56 172.884 29.848 172.66C30.136 172.428 30.28 172.084 30.28 171.628C30.28 171.22 30.14 170.896 29.86 170.656C29.58 170.416 29.168 170.296 28.624 170.296C28.088 170.296 27.676 170.416 27.388 170.656C27.108 170.896 26.968 171.22 26.968 171.628C26.968 172.084 27.112 172.428 27.4 172.66C27.688 172.884 28.096 172.996 28.624 172.996ZM36.0702 178.192C35.3822 178.192 34.7862 178.012 34.2822 177.652C33.7782 177.292 33.3862 176.78 33.1062 176.116C32.8342 175.452 32.6982 174.664 32.6982 173.752C32.6982 172.84 32.8342 172.052 33.1062 171.388C33.3862 170.716 33.7782 170.2 34.2822 169.84C34.7862 169.472 35.3822 169.288 36.0702 169.288C36.7662 169.288 37.3662 169.472 37.8702 169.84C38.3742 170.2 38.7622 170.712 39.0342 171.376C39.3142 172.04 39.4542 172.832 39.4542 173.752C39.4542 174.664 39.3142 175.452 39.0342 176.116C38.7622 176.78 38.3742 177.292 37.8702 177.652C37.3662 178.012 36.7662 178.192 36.0702 178.192ZM36.0702 177.184C36.8062 177.184 37.3742 176.888 37.7742 176.296C38.1742 175.696 38.3742 174.848 38.3742 173.752C38.3742 173.016 38.2822 172.392 38.0982 171.88C37.9222 171.36 37.6622 170.968 37.3182 170.704C36.9822 170.432 36.5662 170.296 36.0702 170.296C35.5822 170.296 35.1662 170.432 34.8222 170.704C34.4862 170.968 34.2262 171.36 34.0422 171.88C33.8662 172.392 33.7782 173.016 33.7782 173.752C33.7782 174.848 33.9782 175.696 34.3782 176.296C34.7782 176.888 35.3422 177.184 36.0702 177.184Z" fill="black" fill-opacity="0.3"/>
<rect x="45" y="173" width="253" height="1" fill="black" fill-opacity="0.3"/>
<path d="M22.256 149V142.688H20.48V141.8H21.2C21.512 141.8 21.76 141.76 21.944 141.68C22.136 141.6 22.272 141.464 22.352 141.272C22.432 141.08 22.472 140.816 22.472 140.48H23.288V149H22.256ZM28.3163 149.192C27.6283 149.192 27.0323 149.012 26.5283 148.652C26.0243 148.292 25.6323 147.78 25.3523 147.116C25.0803 146.452 24.9443 145.664 24.9443 144.752C24.9443 143.84 25.0803 143.052 25.3523 142.388C25.6323 141.716 26.0243 141.2 26.5283 140.84C27.0323 140.472 27.6283 140.288 28.3163 140.288C29.0123 140.288 29.6123 140.472 30.1163 140.84C30.6203 141.2 31.0083 141.712 31.2803 142.376C31.5603 143.04 31.7003 143.832 31.7003 144.752C31.7003 145.664 31.5603 146.452 31.2803 147.116C31.0083 147.78 30.6203 148.292 30.1163 148.652C29.6123 149.012 29.0123 149.192 28.3163 149.192ZM28.3163 148.184C29.0523 148.184 29.6203 147.888 30.0203 147.296C30.4203 146.696 30.6203 145.848 30.6203 144.752C30.6203 144.016 30.5283 143.392 30.3443 142.88C30.1683 142.36 29.9083 141.968 29.5643 141.704C29.2283 141.432 28.8123 141.296 28.3163 141.296C27.8283 141.296 27.4123 141.432 27.0683 141.704C26.7323 141.968 26.4723 142.36 26.2883 142.88C26.1123 143.392 26.0243 144.016 26.0243 144.752C26.0243 145.848 26.2243 146.696 26.6243 147.296C27.0243 147.888 27.5883 148.184 28.3163 148.184ZM36.1293 149.192C35.4413 149.192 34.8453 149.012 34.3413 148.652C33.8373 148.292 33.4453 147.78 33.1653 147.116C32.8933 146.452 32.7573 145.664 32.7573 144.752C32.7573 143.84 32.8933 143.052 33.1653 142.388C33.4453 141.716 33.8373 141.2 34.3413 140.84C34.8453 140.472 35.4413 140.288 36.1293 140.288C36.8253 140.288 37.4253 140.472 37.9293 140.84C38.4333 141.2 38.8213 141.712 39.0933 142.376C39.3733 143.04 39.5133 143.832 39.5133 144.752C39.5133 145.664 39.3733 146.452 39.0933 147.116C38.8213 147.78 38.4333 148.292 37.9293 148.652C37.4253 149.012 36.8253 149.192 36.1293 149.192ZM36.1293 148.184C36.8653 148.184 37.4333 147.888 37.8333 147.296C38.2333 146.696 38.4333 145.848 38.4333 144.752C38.4333 144.016 38.3413 143.392 38.1573 142.88C37.9813 142.36 37.7213 141.968 37.3773 141.704C37.0413 141.432 36.6253 141.296 36.1293 141.296C35.6413 141.296 35.2253 141.432 34.8813 141.704C34.5453 141.968 34.2853 142.36 34.1013 142.88C33.9253 143.392 33.8373 144.016 33.8373 144.752C33.8373 145.848 34.0373 146.696 34.4373 147.296C34.8373 147.888 35.4013 148.184 36.1293 148.184Z" fill="black" fill-opacity="0.3"/>
<rect x="45" y="144" width="253" height="1" fill="black" fill-opacity="0.3"/>
<path d="M288 157C261.5 157 266.5 163.5 250 163.5C226.701 163.5 232 167.5 215 167.5C201 167.5 189.5 167.5 175 174.11C166.963 177.774 159.976 183.426 144.5 182.617C131.358 181.931 125.477 189.392 109.5 182.617C100 178.589 91.1238 187.393 84.5 191.158C79.5 194 71.5 198.499 52 191.159" stroke="#F48024" stroke-width="3"/>
</svg>
