<svg width="318" height="247" viewBox="0 0 318 247" fill="none" xmlns="http://www.w3.org/2000/svg">
<rect width="318" height="247" rx="20" fill="white"/>
<path d="M33.548 39V26.22H35.492V38.28L34.466 37.218H41.72V39H33.548ZM46.3101 39.216C45.3141 39.216 44.5161 38.988 43.9161 38.532C43.3281 38.076 43.0341 37.434 43.0341 36.606C43.0341 35.778 43.2801 35.136 43.7721 34.68C44.2761 34.212 45.0501 33.876 46.0941 33.672L49.3881 33.042C49.3881 32.298 49.2141 31.746 48.8661 31.386C48.5181 31.014 48.0021 30.828 47.3181 30.828C46.7061 30.828 46.2261 30.966 45.8781 31.242C45.5301 31.506 45.2901 31.902 45.1581 32.43L43.1961 32.304C43.3761 31.344 43.8201 30.588 44.5281 30.036C45.2481 29.484 46.1781 29.208 47.3181 29.208C48.6141 29.208 49.5981 29.556 50.2701 30.252C50.9541 30.936 51.2961 31.902 51.2961 33.15V36.876C51.2961 37.104 51.3321 37.266 51.4041 37.362C51.4881 37.446 51.6201 37.488 51.8001 37.488H52.1421V39C52.0821 39.012 51.9861 39.024 51.8541 39.036C51.7221 39.048 51.5841 39.054 51.4401 39.054C51.0321 39.054 50.6781 38.988 50.3781 38.856C50.0901 38.724 49.8741 38.508 49.7301 38.208C49.5861 37.896 49.5141 37.482 49.5141 36.966L49.7121 37.056C49.6161 37.476 49.4061 37.848 49.0821 38.172C48.7701 38.496 48.3681 38.754 47.8761 38.946C47.3961 39.126 46.8741 39.216 46.3101 39.216ZM46.6161 37.704C47.1921 37.704 47.6841 37.596 48.0921 37.38C48.5001 37.152 48.8181 36.84 49.0461 36.444C49.2741 36.048 49.3881 35.598 49.3881 35.094V34.482L46.5801 35.022C46.0041 35.13 45.5961 35.304 45.3561 35.544C45.1281 35.772 45.0141 36.066 45.0141 36.426C45.0141 36.834 45.1521 37.152 45.4281 37.38C45.7161 37.596 46.1121 37.704 46.6161 37.704ZM58.2193 39.216C57.5593 39.216 56.9713 39.072 56.4553 38.784C55.9513 38.484 55.5613 38.076 55.2853 37.56L55.2313 39H53.4493V26.22H55.3573V30.774C55.6093 30.354 55.9813 29.988 56.4733 29.676C56.9773 29.364 57.5593 29.208 58.2193 29.208C59.0473 29.208 59.7673 29.412 60.3793 29.82C60.9913 30.228 61.4593 30.81 61.7833 31.566C62.1193 32.31 62.2873 33.192 62.2873 34.212C62.2873 35.232 62.1193 36.12 61.7833 36.876C61.4593 37.62 60.9913 38.196 60.3793 38.604C59.7673 39.012 59.0473 39.216 58.2193 39.216ZM57.9133 37.56C58.6453 37.56 59.2273 37.266 59.6593 36.678C60.0913 36.078 60.3073 35.256 60.3073 34.212C60.3073 33.168 60.0913 32.352 59.6593 31.764C59.2273 31.164 58.6513 30.864 57.9313 30.864C57.3913 30.864 56.9293 30.996 56.5453 31.26C56.1613 31.524 55.8673 31.908 55.6633 32.412C55.4593 32.904 55.3573 33.504 55.3573 34.212C55.3573 34.896 55.4593 35.49 55.6633 35.994C55.8673 36.498 56.1613 36.888 56.5453 37.164C56.9293 37.428 57.3853 37.56 57.9133 37.56ZM67.9506 39.216C67.0386 39.216 66.2406 39.012 65.5566 38.604C64.8726 38.196 64.3446 37.614 63.9726 36.858C63.6006 36.102 63.4146 35.22 63.4146 34.212C63.4146 33.192 63.6006 32.31 63.9726 31.566C64.3446 30.822 64.8726 30.246 65.5566 29.838C66.2406 29.418 67.0386 29.208 67.9506 29.208C68.8626 29.208 69.6606 29.418 70.3446 29.838C71.0286 30.246 71.5566 30.822 71.9286 31.566C72.3006 32.31 72.4866 33.192 72.4866 34.212C72.4866 35.22 72.3006 36.102 71.9286 36.858C71.5566 37.614 71.0286 38.196 70.3446 38.604C69.6606 39.012 68.8626 39.216 67.9506 39.216ZM67.9506 37.56C68.7666 37.56 69.3966 37.266 69.8406 36.678C70.2846 36.078 70.5066 35.256 70.5066 34.212C70.5066 33.168 70.2846 32.352 69.8406 31.764C69.3966 31.164 68.7666 30.864 67.9506 30.864C67.1466 30.864 66.5166 31.164 66.0606 31.764C65.6166 32.352 65.3946 33.168 65.3946 34.212C65.3946 35.256 65.6166 36.078 66.0606 36.678C66.5166 37.266 67.1466 37.56 67.9506 37.56ZM74.1989 39V29.424H75.9449L76.0169 31.962L75.8549 31.908C75.9869 31.044 76.2509 30.414 76.6469 30.018C77.0549 29.622 77.6009 29.424 78.2849 29.424H79.2029V31.134H78.2849C77.8049 31.134 77.4029 31.212 77.0789 31.368C76.7549 31.524 76.5089 31.764 76.3409 32.088C76.1849 32.412 76.1069 32.832 76.1069 33.348V39H74.1989ZM90.5018 39.288C89.3498 39.288 88.3358 39.024 87.4598 38.496C86.5838 37.956 85.8998 37.188 85.4078 36.192C84.9158 35.196 84.6698 34.008 84.6698 32.628C84.6698 31.26 84.9098 30.078 85.3898 29.082C85.8818 28.074 86.5658 27.3 87.4418 26.76C88.3178 26.208 89.3438 25.932 90.5198 25.932C92.1038 25.932 93.3338 26.328 94.2098 27.12C95.0858 27.912 95.6558 29.01 95.9198 30.414L93.8858 30.522C93.7178 29.646 93.3578 28.962 92.8058 28.47C92.2538 27.966 91.4918 27.714 90.5198 27.714C89.7398 27.714 89.0618 27.912 88.4858 28.308C87.9218 28.704 87.4778 29.268 87.1538 30C86.8418 30.732 86.6858 31.608 86.6858 32.628C86.6858 33.648 86.8418 34.524 87.1538 35.256C87.4778 35.988 87.9278 36.546 88.5038 36.93C89.0798 37.314 89.7458 37.506 90.5018 37.506C91.5338 37.506 92.3318 37.236 92.8958 36.696C93.4718 36.144 93.8318 35.388 93.9758 34.428L96.0098 34.536C95.8538 35.508 95.5418 36.348 95.0738 37.056C94.6058 37.764 93.9878 38.316 93.2198 38.712C92.4518 39.096 91.5458 39.288 90.5018 39.288ZM101.645 39.216C100.733 39.216 99.9352 39.012 99.2512 38.604C98.5672 38.196 98.0392 37.614 97.6672 36.858C97.2952 36.102 97.1092 35.22 97.1092 34.212C97.1092 33.192 97.2952 32.31 97.6672 31.566C98.0392 30.822 98.5672 30.246 99.2512 29.838C99.9352 29.418 100.733 29.208 101.645 29.208C102.557 29.208 103.355 29.418 104.039 29.838C104.723 30.246 105.251 30.822 105.623 31.566C105.995 32.31 106.181 33.192 106.181 34.212C106.181 35.22 105.995 36.102 105.623 36.858C105.251 37.614 104.723 38.196 104.039 38.604C103.355 39.012 102.557 39.216 101.645 39.216ZM101.645 37.56C102.461 37.56 103.091 37.266 103.535 36.678C103.979 36.078 104.201 35.256 104.201 34.212C104.201 33.168 103.979 32.352 103.535 31.764C103.091 31.164 102.461 30.864 101.645 30.864C100.841 30.864 100.211 31.164 99.7552 31.764C99.3112 32.352 99.0892 33.168 99.0892 34.212C99.0892 35.256 99.3112 36.078 99.7552 36.678C100.211 37.266 100.841 37.56 101.645 37.56ZM111.583 39.216C110.683 39.216 109.921 39.078 109.297 38.802C108.685 38.526 108.211 38.148 107.875 37.668C107.539 37.176 107.347 36.612 107.299 35.976L109.261 35.886C109.357 36.414 109.585 36.834 109.945 37.146C110.305 37.458 110.851 37.614 111.583 37.614C112.183 37.614 112.657 37.518 113.005 37.326C113.353 37.134 113.527 36.828 113.527 36.408C113.527 36.18 113.467 35.988 113.347 35.832C113.239 35.664 113.023 35.526 112.699 35.418C112.375 35.298 111.895 35.184 111.259 35.076C110.311 34.896 109.567 34.686 109.027 34.446C108.487 34.206 108.103 33.9 107.875 33.528C107.647 33.156 107.533 32.706 107.533 32.178C107.533 31.302 107.857 30.588 108.505 30.036C109.165 29.484 110.113 29.208 111.349 29.208C112.177 29.208 112.873 29.352 113.437 29.64C114.001 29.916 114.439 30.294 114.751 30.774C115.075 31.242 115.279 31.77 115.363 32.358L113.401 32.466C113.341 32.13 113.221 31.842 113.041 31.602C112.873 31.35 112.645 31.158 112.357 31.026C112.069 30.882 111.727 30.81 111.331 30.81C110.719 30.81 110.263 30.93 109.963 31.17C109.663 31.41 109.513 31.722 109.513 32.106C109.513 32.394 109.579 32.628 109.711 32.808C109.855 32.988 110.083 33.138 110.395 33.258C110.707 33.366 111.121 33.462 111.637 33.546C112.633 33.714 113.413 33.924 113.977 34.176C114.541 34.416 114.937 34.716 115.165 35.076C115.393 35.436 115.507 35.874 115.507 36.39C115.507 36.99 115.339 37.5 115.003 37.92C114.667 38.34 114.205 38.664 113.617 38.892C113.029 39.108 112.351 39.216 111.583 39.216ZM120.543 39C119.631 39 118.959 38.79 118.527 38.37C118.095 37.95 117.879 37.296 117.879 36.408V27.174H119.787V36.264C119.787 36.708 119.883 37.014 120.075 37.182C120.267 37.35 120.561 37.434 120.957 37.434H122.325V39H120.543ZM116.421 30.99V29.424H122.325V30.99H116.421ZM130.881 39.216C129.885 39.216 129.087 38.988 128.487 38.532C127.899 38.076 127.605 37.434 127.605 36.606C127.605 35.778 127.851 35.136 128.343 34.68C128.847 34.212 129.621 33.876 130.665 33.672L133.959 33.042C133.959 32.298 133.785 31.746 133.437 31.386C133.089 31.014 132.573 30.828 131.889 30.828C131.277 30.828 130.797 30.966 130.449 31.242C130.101 31.506 129.861 31.902 129.729 32.43L127.767 32.304C127.947 31.344 128.391 30.588 129.099 30.036C129.819 29.484 130.749 29.208 131.889 29.208C133.185 29.208 134.169 29.556 134.841 30.252C135.525 30.936 135.867 31.902 135.867 33.15V36.876C135.867 37.104 135.903 37.266 135.975 37.362C136.059 37.446 136.191 37.488 136.371 37.488H136.713V39C136.653 39.012 136.557 39.024 136.425 39.036C136.293 39.048 136.155 39.054 136.011 39.054C135.603 39.054 135.249 38.988 134.949 38.856C134.661 38.724 134.445 38.508 134.301 38.208C134.157 37.896 134.085 37.482 134.085 36.966L134.283 37.056C134.187 37.476 133.977 37.848 133.653 38.172C133.341 38.496 132.939 38.754 132.447 38.946C131.967 39.126 131.445 39.216 130.881 39.216ZM131.187 37.704C131.763 37.704 132.255 37.596 132.663 37.38C133.071 37.152 133.389 36.84 133.617 36.444C133.845 36.048 133.959 35.598 133.959 35.094V34.482L131.151 35.022C130.575 35.13 130.167 35.304 129.927 35.544C129.699 35.772 129.585 36.066 129.585 36.426C129.585 36.834 129.723 37.152 129.999 37.38C130.287 37.596 130.683 37.704 131.187 37.704ZM141.727 39.216C140.827 39.216 140.065 39.078 139.441 38.802C138.829 38.526 138.355 38.148 138.019 37.668C137.683 37.176 137.491 36.612 137.443 35.976L139.405 35.886C139.501 36.414 139.729 36.834 140.089 37.146C140.449 37.458 140.995 37.614 141.727 37.614C142.327 37.614 142.801 37.518 143.149 37.326C143.497 37.134 143.671 36.828 143.671 36.408C143.671 36.18 143.611 35.988 143.491 35.832C143.383 35.664 143.167 35.526 142.843 35.418C142.519 35.298 142.039 35.184 141.403 35.076C140.455 34.896 139.711 34.686 139.171 34.446C138.631 34.206 138.247 33.9 138.019 33.528C137.791 33.156 137.677 32.706 137.677 32.178C137.677 31.302 138.001 30.588 138.649 30.036C139.309 29.484 140.257 29.208 141.493 29.208C142.321 29.208 143.017 29.352 143.581 29.64C144.145 29.916 144.583 30.294 144.895 30.774C145.219 31.242 145.423 31.77 145.507 32.358L143.545 32.466C143.485 32.13 143.365 31.842 143.185 31.602C143.017 31.35 142.789 31.158 142.501 31.026C142.213 30.882 141.871 30.81 141.475 30.81C140.863 30.81 140.407 30.93 140.107 31.17C139.807 31.41 139.657 31.722 139.657 32.106C139.657 32.394 139.723 32.628 139.855 32.808C139.999 32.988 140.227 33.138 140.539 33.258C140.851 33.366 141.265 33.462 141.781 33.546C142.777 33.714 143.557 33.924 144.121 34.176C144.685 34.416 145.081 34.716 145.309 35.076C145.537 35.436 145.651 35.874 145.651 36.39C145.651 36.99 145.483 37.5 145.147 37.92C144.811 38.34 144.349 38.664 143.761 38.892C143.173 39.108 142.495 39.216 141.727 39.216ZM154.385 39.216C153.389 39.216 152.591 38.988 151.991 38.532C151.403 38.076 151.109 37.434 151.109 36.606C151.109 35.778 151.355 35.136 151.847 34.68C152.351 34.212 153.125 33.876 154.169 33.672L157.463 33.042C157.463 32.298 157.289 31.746 156.941 31.386C156.593 31.014 156.077 30.828 155.393 30.828C154.781 30.828 154.301 30.966 153.953 31.242C153.605 31.506 153.365 31.902 153.233 32.43L151.271 32.304C151.451 31.344 151.895 30.588 152.603 30.036C153.323 29.484 154.253 29.208 155.393 29.208C156.689 29.208 157.673 29.556 158.345 30.252C159.029 30.936 159.371 31.902 159.371 33.15V36.876C159.371 37.104 159.407 37.266 159.479 37.362C159.563 37.446 159.695 37.488 159.875 37.488H160.217V39C160.157 39.012 160.061 39.024 159.929 39.036C159.797 39.048 159.659 39.054 159.515 39.054C159.107 39.054 158.753 38.988 158.453 38.856C158.165 38.724 157.949 38.508 157.805 38.208C157.661 37.896 157.589 37.482 157.589 36.966L157.787 37.056C157.691 37.476 157.481 37.848 157.157 38.172C156.845 38.496 156.443 38.754 155.951 38.946C155.471 39.126 154.949 39.216 154.385 39.216ZM154.691 37.704C155.267 37.704 155.759 37.596 156.167 37.38C156.575 37.152 156.893 36.84 157.121 36.444C157.349 36.048 157.463 35.598 157.463 35.094V34.482L154.655 35.022C154.079 35.13 153.671 35.304 153.431 35.544C153.203 35.772 153.089 36.066 153.089 36.426C153.089 36.834 153.227 37.152 153.503 37.38C153.791 37.596 154.187 37.704 154.691 37.704ZM168.076 32.412C167.248 32.412 166.564 32.142 166.024 31.602C165.496 31.062 165.232 30.276 165.232 29.244C165.232 28.2 165.496 27.414 166.024 26.886C166.564 26.346 167.248 26.076 168.076 26.076C168.904 26.076 169.582 26.346 170.11 26.886C170.638 27.414 170.902 28.2 170.902 29.244C170.902 30.276 170.638 31.062 170.11 31.602C169.582 32.142 168.904 32.412 168.076 32.412ZM168.076 31.206C168.532 31.206 168.874 31.038 169.102 30.702C169.33 30.366 169.444 29.88 169.444 29.244C169.444 28.608 169.33 28.122 169.102 27.786C168.874 27.45 168.532 27.282 168.076 27.282C167.632 27.282 167.29 27.45 167.05 27.786C166.822 28.122 166.708 28.608 166.708 29.244C166.708 29.88 166.822 30.366 167.05 30.702C167.29 31.038 167.632 31.206 168.076 31.206ZM175.456 39.144C174.64 39.144 173.962 38.874 173.422 38.334C172.882 37.794 172.612 37.008 172.612 35.976C172.612 34.932 172.882 34.146 173.422 33.618C173.962 33.078 174.64 32.808 175.456 32.808C176.296 32.808 176.98 33.078 177.508 33.618C178.036 34.146 178.3 34.932 178.3 35.976C178.3 37.008 178.036 37.794 177.508 38.334C176.98 38.874 176.296 39.144 175.456 39.144ZM175.456 37.938C175.912 37.938 176.254 37.77 176.482 37.434C176.71 37.098 176.824 36.612 176.824 35.976C176.824 35.34 176.71 34.854 176.482 34.518C176.254 34.182 175.912 34.014 175.456 34.014C175.012 34.014 174.67 34.182 174.43 34.518C174.202 34.854 174.088 35.34 174.088 35.976C174.088 36.612 174.202 37.098 174.43 37.434C174.67 37.77 175.012 37.938 175.456 37.938ZM166.654 39L175.366 26.22H176.878L168.166 39H166.654ZM188.285 39.216C187.373 39.216 186.575 39.012 185.891 38.604C185.207 38.196 184.679 37.614 184.307 36.858C183.935 36.102 183.749 35.22 183.749 34.212C183.749 33.192 183.935 32.31 184.307 31.566C184.679 30.822 185.207 30.246 185.891 29.838C186.575 29.418 187.373 29.208 188.285 29.208C189.197 29.208 189.995 29.418 190.679 29.838C191.363 30.246 191.891 30.822 192.263 31.566C192.635 32.31 192.821 33.192 192.821 34.212C192.821 35.22 192.635 36.102 192.263 36.858C191.891 37.614 191.363 38.196 190.679 38.604C189.995 39.012 189.197 39.216 188.285 39.216ZM188.285 37.56C189.101 37.56 189.731 37.266 190.175 36.678C190.619 36.078 190.841 35.256 190.841 34.212C190.841 33.168 190.619 32.352 190.175 31.764C189.731 31.164 189.101 30.864 188.285 30.864C187.481 30.864 186.851 31.164 186.395 31.764C185.951 32.352 185.729 33.168 185.729 34.212C185.729 35.256 185.951 36.078 186.395 36.678C186.851 37.266 187.481 37.56 188.285 37.56ZM195.136 39V28.812C195.136 28.02 195.358 27.39 195.802 26.922C196.246 26.454 196.942 26.22 197.89 26.22H199.582V27.786H198.142C197.77 27.786 197.494 27.888 197.314 28.092C197.134 28.284 197.044 28.56 197.044 28.92V39H195.136ZM193.804 31.098V29.55H199.438V31.098H193.804ZM205.725 39V26.22H210.819C211.731 26.22 212.517 26.376 213.177 26.688C213.837 27 214.347 27.444 214.707 28.02C215.067 28.596 215.247 29.28 215.247 30.072C215.247 30.648 215.115 31.164 214.851 31.62C214.599 32.076 214.257 32.442 213.825 32.718C213.405 32.982 212.955 33.132 212.475 33.168L212.385 33.006C213.189 33.006 213.813 33.192 214.257 33.564C214.701 33.924 214.959 34.494 215.031 35.274L215.373 39H213.411L213.105 35.526C213.069 35.01 212.895 34.632 212.583 34.392C212.271 34.14 211.761 34.014 211.053 34.014H207.669V39H205.725ZM207.669 32.232H210.855C211.587 32.232 212.163 32.052 212.583 31.692C213.015 31.32 213.231 30.798 213.231 30.126C213.231 29.442 213.015 28.92 212.583 28.56C212.151 28.188 211.521 28.002 210.693 28.002H207.669V32.232ZM221.241 39.216C220.305 39.216 219.495 39.012 218.811 38.604C218.139 38.196 217.617 37.614 217.245 36.858C216.885 36.102 216.705 35.22 216.705 34.212C216.705 33.204 216.885 32.328 217.245 31.584C217.617 30.828 218.139 30.246 218.811 29.838C219.483 29.418 220.275 29.208 221.187 29.208C222.051 29.208 222.813 29.412 223.473 29.82C224.133 30.216 224.643 30.792 225.003 31.548C225.375 32.304 225.561 33.216 225.561 34.284V34.77H218.685C218.733 35.706 218.979 36.408 219.423 36.876C219.879 37.344 220.491 37.578 221.259 37.578C221.823 37.578 222.291 37.446 222.663 37.182C223.035 36.918 223.293 36.564 223.437 36.12L225.417 36.246C225.165 37.134 224.667 37.854 223.923 38.406C223.191 38.946 222.297 39.216 221.241 39.216ZM218.685 33.33H223.545C223.485 32.478 223.239 31.848 222.807 31.44C222.387 31.032 221.847 30.828 221.187 30.828C220.503 30.828 219.939 31.044 219.495 31.476C219.063 31.896 218.793 32.514 218.685 33.33ZM229.518 39L226.026 29.424H228.06L230.67 37.056L233.28 29.424H235.332L231.822 39H229.518ZM240.286 39.216C239.35 39.216 238.54 39.012 237.856 38.604C237.184 38.196 236.662 37.614 236.29 36.858C235.93 36.102 235.75 35.22 235.75 34.212C235.75 33.204 235.93 32.328 236.29 31.584C236.662 30.828 237.184 30.246 237.856 29.838C238.528 29.418 239.32 29.208 240.232 29.208C241.096 29.208 241.858 29.412 242.518 29.82C243.178 30.216 243.688 30.792 244.048 31.548C244.42 32.304 244.606 33.216 244.606 34.284V34.77H237.73C237.778 35.706 238.024 36.408 238.468 36.876C238.924 37.344 239.536 37.578 240.304 37.578C240.868 37.578 241.336 37.446 241.708 37.182C242.08 36.918 242.338 36.564 242.482 36.12L244.462 36.246C244.21 37.134 243.712 37.854 242.968 38.406C242.236 38.946 241.342 39.216 240.286 39.216ZM237.73 33.33H242.59C242.53 32.478 242.284 31.848 241.852 31.44C241.432 31.032 240.892 30.828 240.232 30.828C239.548 30.828 238.984 31.044 238.54 31.476C238.108 31.896 237.838 32.514 237.73 33.33ZM246.323 39V29.424H248.069L248.141 31.98L247.907 31.854C248.015 31.23 248.219 30.726 248.519 30.342C248.819 29.958 249.185 29.676 249.617 29.496C250.049 29.304 250.517 29.208 251.021 29.208C251.741 29.208 252.335 29.37 252.803 29.694C253.283 30.006 253.643 30.438 253.883 30.99C254.135 31.53 254.261 32.148 254.261 32.844V39H252.353V33.42C252.353 32.856 252.293 32.382 252.173 31.998C252.053 31.614 251.855 31.32 251.579 31.116C251.303 30.912 250.943 30.81 250.499 30.81C249.827 30.81 249.281 31.032 248.861 31.476C248.441 31.92 248.231 32.568 248.231 33.42V39H246.323ZM259.646 39.216C258.686 39.216 257.918 38.898 257.342 38.262C256.778 37.614 256.496 36.72 256.496 35.58V29.424H258.404V35.094C258.404 35.958 258.554 36.594 258.854 37.002C259.154 37.41 259.61 37.614 260.222 37.614C260.918 37.614 261.458 37.392 261.842 36.948C262.238 36.492 262.436 35.856 262.436 35.04V29.424H264.344V39H262.562L262.526 36.498L262.796 36.606C262.628 37.446 262.274 38.094 261.734 38.55C261.194 38.994 260.498 39.216 259.646 39.216ZM270.593 39.216C269.657 39.216 268.847 39.012 268.163 38.604C267.491 38.196 266.969 37.614 266.597 36.858C266.237 36.102 266.057 35.22 266.057 34.212C266.057 33.204 266.237 32.328 266.597 31.584C266.969 30.828 267.491 30.246 268.163 29.838C268.835 29.418 269.627 29.208 270.539 29.208C271.403 29.208 272.165 29.412 272.825 29.82C273.485 30.216 273.995 30.792 274.355 31.548C274.727 32.304 274.913 33.216 274.913 34.284V34.77H268.037C268.085 35.706 268.331 36.408 268.775 36.876C269.231 37.344 269.843 37.578 270.611 37.578C271.175 37.578 271.643 37.446 272.015 37.182C272.387 36.918 272.645 36.564 272.789 36.12L274.769 36.246C274.517 37.134 274.019 37.854 273.275 38.406C272.543 38.946 271.649 39.216 270.593 39.216ZM268.037 33.33H272.897C272.837 32.478 272.591 31.848 272.159 31.44C271.739 31.032 271.199 30.828 270.539 30.828C269.855 30.828 269.291 31.044 268.847 31.476C268.415 31.896 268.145 32.514 268.037 33.33ZM280.32 39.216C279.42 39.216 278.658 39.078 278.034 38.802C277.422 38.526 276.948 38.148 276.612 37.668C276.276 37.176 276.084 36.612 276.036 35.976L277.998 35.886C278.094 36.414 278.322 36.834 278.682 37.146C279.042 37.458 279.588 37.614 280.32 37.614C280.92 37.614 281.394 37.518 281.742 37.326C282.09 37.134 282.264 36.828 282.264 36.408C282.264 36.18 282.204 35.988 282.084 35.832C281.976 35.664 281.76 35.526 281.436 35.418C281.112 35.298 280.632 35.184 279.996 35.076C279.048 34.896 278.304 34.686 277.764 34.446C277.224 34.206 276.84 33.9 276.612 33.528C276.384 33.156 276.27 32.706 276.27 32.178C276.27 31.302 276.594 30.588 277.242 30.036C277.902 29.484 278.85 29.208 280.086 29.208C280.914 29.208 281.61 29.352 282.174 29.64C282.738 29.916 283.176 30.294 283.488 30.774C283.812 31.242 284.016 31.77 284.1 32.358L282.138 32.466C282.078 32.13 281.958 31.842 281.778 31.602C281.61 31.35 281.382 31.158 281.094 31.026C280.806 30.882 280.464 30.81 280.068 30.81C279.456 30.81 279 30.93 278.7 31.17C278.4 31.41 278.25 31.722 278.25 32.106C278.25 32.394 278.316 32.628 278.448 32.808C278.592 32.988 278.82 33.138 279.132 33.258C279.444 33.366 279.858 33.462 280.374 33.546C281.37 33.714 282.15 33.924 282.714 34.176C283.278 34.416 283.674 34.716 283.902 35.076C284.13 35.436 284.244 35.874 284.244 36.39C284.244 36.99 284.076 37.5 283.74 37.92C283.404 38.34 282.942 38.664 282.354 38.892C281.766 39.108 281.088 39.216 280.32 39.216Z" fill="black"/>
<path d="M107.188 66.256C106.484 66.256 105.86 66.0907 105.316 65.76C104.772 65.4187 104.345 64.9493 104.036 64.352C103.737 63.7547 103.583 63.0667 103.572 62.288L104.98 62.192C104.991 63.0667 105.188 63.7387 105.572 64.208C105.956 64.6773 106.495 64.912 107.188 64.912C107.913 64.912 108.468 64.6613 108.852 64.16C109.247 63.6587 109.444 62.9493 109.444 62.032V54.64H110.82V62.032C110.82 62.896 110.671 63.648 110.372 64.288C110.073 64.9173 109.652 65.4027 109.108 65.744C108.575 66.0853 107.935 66.256 107.188 66.256ZM115.423 66.192C114.548 66.192 113.85 65.9893 113.327 65.584C112.815 65.1787 112.559 64.6133 112.559 63.888C112.559 63.1627 112.772 62.592 113.199 62.176C113.626 61.76 114.303 61.4667 115.231 61.296L118.239 60.736C118.239 60.0213 118.068 59.488 117.727 59.136C117.396 58.784 116.895 58.608 116.223 58.608C115.636 58.608 115.172 58.7413 114.831 59.008C114.49 59.264 114.255 59.6373 114.127 60.128L112.703 60.016C112.863 59.216 113.247 58.5707 113.855 58.08C114.474 57.5787 115.263 57.328 116.223 57.328C117.311 57.328 118.143 57.6373 118.719 58.256C119.295 58.864 119.583 59.7067 119.583 60.784V64.288C119.583 64.48 119.615 64.6187 119.679 64.704C119.754 64.7787 119.871 64.816 120.031 64.816H120.367V66C120.324 66.0107 120.255 66.016 120.159 66.016C120.063 66.0267 119.962 66.032 119.855 66.032C119.471 66.032 119.156 65.9733 118.911 65.856C118.676 65.728 118.506 65.536 118.399 65.28C118.292 65.0133 118.239 64.6667 118.239 64.24L118.399 64.272C118.324 64.6347 118.143 64.9653 117.855 65.264C117.567 65.552 117.21 65.7813 116.783 65.952C116.356 66.112 115.903 66.192 115.423 66.192ZM115.551 65.008C116.116 65.008 116.596 64.9013 116.991 64.688C117.396 64.464 117.706 64.1653 117.919 63.792C118.132 63.408 118.239 62.9813 118.239 62.512V61.904L115.487 62.416C114.911 62.5227 114.511 62.688 114.287 62.912C114.074 63.1253 113.967 63.408 113.967 63.76C113.967 64.1547 114.106 64.464 114.383 64.688C114.671 64.9013 115.06 65.008 115.551 65.008ZM121.693 66V57.52H122.925L122.973 59.68L122.813 59.536C122.92 59.0347 123.106 58.624 123.373 58.304C123.64 57.9733 123.96 57.728 124.333 57.568C124.717 57.408 125.128 57.328 125.565 57.328C126.216 57.328 126.749 57.472 127.165 57.76C127.592 58.048 127.906 58.4373 128.109 58.928C128.322 59.408 128.429 59.9467 128.429 60.544V66H127.085V60.928C127.085 60.4053 127.021 59.968 126.893 59.616C126.776 59.2533 126.584 58.9813 126.317 58.8C126.05 58.608 125.704 58.512 125.277 58.512C124.626 58.512 124.088 58.72 123.661 59.136C123.245 59.5413 123.037 60.1387 123.037 60.928V66H121.693ZM138.142 66.256C136.883 66.256 135.912 65.9627 135.23 65.376C134.547 64.7787 134.179 64.0107 134.126 63.072L135.55 62.976C135.614 63.6693 135.88 64.1653 136.35 64.464C136.83 64.7627 137.427 64.912 138.142 64.912C138.632 64.912 139.086 64.848 139.502 64.72C139.918 64.5813 140.254 64.3627 140.51 64.064C140.766 63.7547 140.894 63.344 140.894 62.832C140.894 62.0747 140.643 61.52 140.142 61.168C139.64 60.816 138.979 60.64 138.158 60.64H137.262V59.296H138.158C138.83 59.296 139.384 59.1627 139.822 58.896C140.27 58.6293 140.494 58.1707 140.494 57.52C140.494 56.9333 140.302 56.4907 139.918 56.192C139.544 55.8827 138.979 55.728 138.222 55.728C137.475 55.728 136.91 55.872 136.526 56.16C136.152 56.448 135.928 56.8427 135.854 57.344L134.414 57.248C134.52 56.3947 134.899 55.7067 135.55 55.184C136.2 54.6507 137.091 54.384 138.222 54.384C138.99 54.384 139.651 54.512 140.206 54.768C140.76 55.0133 141.187 55.3653 141.486 55.824C141.784 56.2827 141.934 56.8267 141.934 57.456C141.934 58.16 141.71 58.7307 141.262 59.168C140.824 59.5947 140.174 59.888 139.31 60.048V59.76C140.238 59.8667 140.974 60.1973 141.518 60.752C142.062 61.3067 142.334 62 142.334 62.832C142.334 63.5573 142.152 64.176 141.79 64.688C141.438 65.2 140.947 65.5893 140.318 65.856C139.688 66.1227 138.963 66.256 138.142 66.256ZM145.954 66V57.584H143.586V56.4H144.546C144.962 56.4 145.293 56.3467 145.538 56.24C145.794 56.1333 145.976 55.952 146.082 55.696C146.189 55.44 146.242 55.088 146.242 54.64H147.33V66H145.954ZM153.407 61.968V60.704H158.703V61.968H153.407ZM168.398 66.256C167.523 66.256 166.761 66.0907 166.11 65.76C165.459 65.4293 164.942 64.976 164.558 64.4C164.185 63.8133 163.966 63.136 163.902 62.368L165.342 62.272C165.417 62.8373 165.582 63.3173 165.838 63.712C166.094 64.1067 166.435 64.4053 166.862 64.608C167.299 64.8107 167.822 64.912 168.43 64.912C168.963 64.912 169.417 64.8427 169.79 64.704C170.163 64.5653 170.446 64.3627 170.638 64.096C170.841 63.8293 170.942 63.504 170.942 63.12C170.942 62.768 170.857 62.4587 170.686 62.192C170.526 61.9147 170.211 61.664 169.742 61.44C169.283 61.2053 168.601 60.976 167.694 60.752C166.819 60.528 166.121 60.2827 165.598 60.016C165.086 59.7493 164.713 59.424 164.478 59.04C164.254 58.656 164.142 58.1813 164.142 57.616C164.142 56.976 164.291 56.416 164.59 55.936C164.899 55.4453 165.337 55.0667 165.902 54.8C166.467 54.5227 167.139 54.384 167.918 54.384C168.75 54.384 169.465 54.544 170.062 54.864C170.659 55.1733 171.134 55.6 171.486 56.144C171.838 56.688 172.057 57.3067 172.142 58L170.702 58.096C170.638 57.6373 170.489 57.232 170.254 56.88C170.03 56.5173 169.721 56.2347 169.326 56.032C168.931 55.8293 168.451 55.728 167.886 55.728C167.182 55.728 166.622 55.8987 166.206 56.24C165.79 56.5707 165.582 57.008 165.582 57.552C165.582 57.904 165.662 58.1973 165.822 58.432C165.993 58.656 166.291 58.8587 166.718 59.04C167.145 59.2107 167.758 59.3973 168.558 59.6C169.507 59.8347 170.259 60.1173 170.814 60.448C171.379 60.768 171.779 61.1413 172.014 61.568C172.259 61.9947 172.382 62.48 172.382 63.024C172.382 63.6853 172.211 64.2613 171.87 64.752C171.529 65.232 171.059 65.6053 170.462 65.872C169.865 66.128 169.177 66.256 168.398 66.256ZM177.875 66.192C177.075 66.192 176.382 66.0107 175.795 65.648C175.219 65.2853 174.771 64.7733 174.451 64.112C174.142 63.44 173.987 62.656 173.987 61.76C173.987 60.864 174.142 60.0853 174.451 59.424C174.771 58.7627 175.214 58.2507 175.779 57.888C176.355 57.5147 177.032 57.328 177.811 57.328C178.547 57.328 179.198 57.504 179.763 57.856C180.328 58.1973 180.766 58.6987 181.075 59.36C181.395 60.0213 181.555 60.8267 181.555 61.776V62.176H175.395C175.448 63.0827 175.688 63.7653 176.115 64.224C176.552 64.6827 177.139 64.912 177.875 64.912C178.43 64.912 178.883 64.784 179.235 64.528C179.598 64.2613 179.848 63.9147 179.987 63.488L181.427 63.6C181.203 64.3573 180.776 64.9813 180.147 65.472C179.528 65.952 178.771 66.192 177.875 66.192ZM175.395 60.992H180.083C180.019 60.1707 179.779 59.568 179.363 59.184C178.958 58.8 178.44 58.608 177.811 58.608C177.16 58.608 176.622 58.8107 176.195 59.216C175.779 59.6107 175.512 60.2027 175.395 60.992ZM183.184 68.4V57.52H184.432L184.464 59.344L184.272 59.248C184.485 58.6187 184.837 58.144 185.328 57.824C185.829 57.4933 186.405 57.328 187.056 57.328C187.898 57.328 188.586 57.536 189.12 57.952C189.664 58.368 190.064 58.912 190.32 59.584C190.586 60.256 190.72 60.9813 190.72 61.76C190.72 62.5387 190.586 63.264 190.32 63.936C190.064 64.608 189.664 65.152 189.12 65.568C188.586 65.984 187.898 66.192 187.056 66.192C186.618 66.192 186.208 66.1173 185.824 65.968C185.45 65.8187 185.13 65.6107 184.864 65.344C184.608 65.0773 184.432 64.7627 184.336 64.4L184.528 64.176V68.4H183.184ZM186.928 64.912C187.664 64.912 188.245 64.6347 188.672 64.08C189.098 63.5253 189.312 62.752 189.312 61.76C189.312 60.768 189.098 59.9947 188.672 59.44C188.245 58.8853 187.664 58.608 186.928 58.608C186.437 58.608 186.01 58.7253 185.648 58.96C185.296 59.1947 185.018 59.5467 184.816 60.016C184.624 60.4853 184.528 61.0667 184.528 61.76C184.528 62.4533 184.624 63.0347 184.816 63.504C185.008 63.9733 185.285 64.3253 185.648 64.56C186.01 64.7947 186.437 64.912 186.928 64.912ZM199.851 66.256C198.593 66.256 197.622 65.9627 196.939 65.376C196.257 64.7787 195.889 64.0107 195.835 63.072L197.259 62.976C197.323 63.6693 197.59 64.1653 198.059 64.464C198.539 64.7627 199.137 64.912 199.851 64.912C200.342 64.912 200.795 64.848 201.211 64.72C201.627 64.5813 201.963 64.3627 202.219 64.064C202.475 63.7547 202.603 63.344 202.603 62.832C202.603 62.0747 202.353 61.52 201.851 61.168C201.35 60.816 200.689 60.64 199.867 60.64H198.971V59.296H199.867C200.539 59.296 201.094 59.1627 201.531 58.896C201.979 58.6293 202.203 58.1707 202.203 57.52C202.203 56.9333 202.011 56.4907 201.627 56.192C201.254 55.8827 200.689 55.728 199.931 55.728C199.185 55.728 198.619 55.872 198.235 56.16C197.862 56.448 197.638 56.8427 197.563 57.344L196.123 57.248C196.23 56.3947 196.609 55.7067 197.259 55.184C197.91 54.6507 198.801 54.384 199.931 54.384C200.699 54.384 201.361 54.512 201.915 54.768C202.47 55.0133 202.897 55.3653 203.195 55.824C203.494 56.2827 203.643 56.8267 203.643 57.456C203.643 58.16 203.419 58.7307 202.971 59.168C202.534 59.5947 201.883 59.888 201.019 60.048V59.76C201.947 59.8667 202.683 60.1973 203.227 60.752C203.771 61.3067 204.043 62 204.043 62.832C204.043 63.5573 203.862 64.176 203.499 64.688C203.147 65.2 202.657 65.5893 202.027 65.856C201.398 66.1227 200.673 66.256 199.851 66.256ZM209.952 66.256C209.034 66.256 208.24 66.016 207.568 65.536C206.896 65.056 206.373 64.3733 206 63.488C205.637 62.6027 205.456 61.552 205.456 60.336C205.456 59.12 205.637 58.0693 206 57.184C206.373 56.288 206.896 55.6 207.568 55.12C208.24 54.6293 209.034 54.384 209.952 54.384C210.88 54.384 211.68 54.6293 212.352 55.12C213.024 55.6 213.541 56.2827 213.904 57.168C214.277 58.0533 214.464 59.1093 214.464 60.336C214.464 61.552 214.277 62.6027 213.904 63.488C213.541 64.3733 213.024 65.056 212.352 65.536C211.68 66.016 210.88 66.256 209.952 66.256ZM209.952 64.912C210.933 64.912 211.69 64.5173 212.224 63.728C212.757 62.928 213.024 61.7973 213.024 60.336C213.024 59.3547 212.901 58.5227 212.656 57.84C212.421 57.1467 212.074 56.624 211.616 56.272C211.168 55.9093 210.613 55.728 209.952 55.728C209.301 55.728 208.746 55.9093 208.288 56.272C207.84 56.624 207.493 57.1467 207.248 57.84C207.013 58.5227 206.896 59.3547 206.896 60.336C206.896 61.7973 207.162 62.928 207.696 63.728C208.229 64.5173 208.981 64.912 209.952 64.912Z" fill="black" fill-opacity="0.4"/>
<path d="M25.256 211V204.688H23.48V203.8H24.2C24.512 203.8 24.76 203.76 24.944 203.68C25.136 203.6 25.272 203.464 25.352 203.272C25.432 203.08 25.472 202.816 25.472 202.48H26.288V211H25.256ZM31.3163 211.192C30.6283 211.192 30.0323 211.012 29.5283 210.652C29.0243 210.292 28.6323 209.78 28.3523 209.116C28.0803 208.452 27.9443 207.664 27.9443 206.752C27.9443 205.84 28.0803 205.052 28.3523 204.388C28.6323 203.716 29.0243 203.2 29.5283 202.84C30.0323 202.472 30.6283 202.288 31.3163 202.288C32.0123 202.288 32.6123 202.472 33.1163 202.84C33.6203 203.2 34.0083 203.712 34.2803 204.376C34.5603 205.04 34.7003 205.832 34.7003 206.752C34.7003 207.664 34.5603 208.452 34.2803 209.116C34.0083 209.78 33.6203 210.292 33.1163 210.652C32.6123 211.012 32.0123 211.192 31.3163 211.192ZM31.3163 210.184C32.0523 210.184 32.6203 209.888 33.0203 209.296C33.4203 208.696 33.6203 207.848 33.6203 206.752C33.6203 206.016 33.5283 205.392 33.3443 204.88C33.1683 204.36 32.9083 203.968 32.5643 203.704C32.2283 203.432 31.8123 203.296 31.3163 203.296C30.8283 203.296 30.4123 203.432 30.0683 203.704C29.7323 203.968 29.4723 204.36 29.2883 204.88C29.1123 205.392 29.0243 206.016 29.0243 206.752C29.0243 207.848 29.2243 208.696 29.6243 209.296C30.0243 209.888 30.5883 210.184 31.3163 210.184Z" fill="black" fill-opacity="0.3"/>
<rect x="40" y="206" width="258" height="1" fill="black" fill-opacity="0.3"/>
<path d="M20.72 182C20.72 181.4 20.812 180.86 20.996 180.38C21.188 179.892 21.52 179.428 21.992 178.988C22.472 178.548 23.136 178.104 23.984 177.656C24.376 177.448 24.692 177.256 24.932 177.08C25.172 176.904 25.348 176.716 25.46 176.516C25.572 176.316 25.628 176.072 25.628 175.784C25.628 175.488 25.564 175.232 25.436 175.016C25.308 174.792 25.116 174.616 24.86 174.488C24.612 174.36 24.3 174.296 23.924 174.296C23.324 174.296 22.848 174.452 22.496 174.764C22.152 175.076 21.936 175.52 21.848 176.096L20.768 176.024C20.864 175.192 21.184 174.528 21.728 174.032C22.272 173.536 23.004 173.288 23.924 173.288C24.508 173.288 25.008 173.392 25.424 173.6C25.84 173.808 26.156 174.1 26.372 174.476C26.596 174.844 26.708 175.272 26.708 175.76C26.708 176.192 26.636 176.568 26.492 176.888C26.348 177.2 26.104 177.492 25.76 177.764C25.424 178.036 24.96 178.328 24.368 178.64C23.6 179.048 23.016 179.46 22.616 179.876C22.224 180.292 22.016 180.664 21.992 180.992H26.708V182H20.72ZM31.1405 182.192C30.4525 182.192 29.8565 182.012 29.3525 181.652C28.8485 181.292 28.4565 180.78 28.1765 180.116C27.9045 179.452 27.7685 178.664 27.7685 177.752C27.7685 176.84 27.9045 176.052 28.1765 175.388C28.4565 174.716 28.8485 174.2 29.3525 173.84C29.8565 173.472 30.4525 173.288 31.1405 173.288C31.8365 173.288 32.4365 173.472 32.9405 173.84C33.4445 174.2 33.8325 174.712 34.1045 175.376C34.3845 176.04 34.5245 176.832 34.5245 177.752C34.5245 178.664 34.3845 179.452 34.1045 180.116C33.8325 180.78 33.4445 181.292 32.9405 181.652C32.4365 182.012 31.8365 182.192 31.1405 182.192ZM31.1405 181.184C31.8765 181.184 32.4445 180.888 32.8445 180.296C33.2445 179.696 33.4445 178.848 33.4445 177.752C33.4445 177.016 33.3525 176.392 33.1685 175.88C32.9925 175.36 32.7325 174.968 32.3885 174.704C32.0525 174.432 31.6365 174.296 31.1405 174.296C30.6525 174.296 30.2365 174.432 29.8925 174.704C29.5565 174.968 29.2965 175.36 29.1125 175.88C28.9365 176.392 28.8485 177.016 28.8485 177.752C28.8485 178.848 29.0485 179.696 29.4485 180.296C29.8485 180.888 30.4125 181.184 31.1405 181.184Z" fill="black" fill-opacity="0.3"/>
<rect x="40" y="177" width="258" height="1" fill="black" fill-opacity="0.3"/>
<path d="M23.612 153.192C22.668 153.192 21.94 152.972 21.428 152.532C20.916 152.084 20.64 151.508 20.6 150.804L21.668 150.732C21.716 151.252 21.916 151.624 22.268 151.848C22.628 152.072 23.076 152.184 23.612 152.184C23.98 152.184 24.32 152.136 24.632 152.04C24.944 151.936 25.196 151.772 25.388 151.548C25.58 151.316 25.676 151.008 25.676 150.624C25.676 150.056 25.488 149.64 25.112 149.376C24.736 149.112 24.24 148.98 23.624 148.98H22.952V147.972H23.624C24.128 147.972 24.544 147.872 24.872 147.672C25.208 147.472 25.376 147.128 25.376 146.64C25.376 146.2 25.232 145.868 24.944 145.644C24.664 145.412 24.24 145.296 23.672 145.296C23.112 145.296 22.688 145.404 22.4 145.62C22.12 145.836 21.952 146.132 21.896 146.508L20.816 146.436C20.896 145.796 21.18 145.28 21.668 144.888C22.156 144.488 22.824 144.288 23.672 144.288C24.248 144.288 24.744 144.384 25.16 144.576C25.576 144.76 25.896 145.024 26.12 145.368C26.344 145.712 26.456 146.12 26.456 146.592C26.456 147.12 26.288 147.548 25.952 147.876C25.624 148.196 25.136 148.416 24.488 148.536V148.32C25.184 148.4 25.736 148.648 26.144 149.064C26.552 149.48 26.756 150 26.756 150.624C26.756 151.168 26.62 151.632 26.348 152.016C26.084 152.4 25.716 152.692 25.244 152.892C24.772 153.092 24.228 153.192 23.612 153.192ZM31.1874 153.192C30.4994 153.192 29.9034 153.012 29.3994 152.652C28.8954 152.292 28.5034 151.78 28.2234 151.116C27.9514 150.452 27.8154 149.664 27.8154 148.752C27.8154 147.84 27.9514 147.052 28.2234 146.388C28.5034 145.716 28.8954 145.2 29.3994 144.84C29.9034 144.472 30.4994 144.288 31.1874 144.288C31.8834 144.288 32.4834 144.472 32.9874 144.84C33.4914 145.2 33.8794 145.712 34.1514 146.376C34.4314 147.04 34.5714 147.832 34.5714 148.752C34.5714 149.664 34.4314 150.452 34.1514 151.116C33.8794 151.78 33.4914 152.292 32.9874 152.652C32.4834 153.012 31.8834 153.192 31.1874 153.192ZM31.1874 152.184C31.9234 152.184 32.4914 151.888 32.8914 151.296C33.2914 150.696 33.4914 149.848 33.4914 148.752C33.4914 148.016 33.3994 147.392 33.2154 146.88C33.0394 146.36 32.7794 145.968 32.4354 145.704C32.0994 145.432 31.6834 145.296 31.1874 145.296C30.6994 145.296 30.2834 145.432 29.9394 145.704C29.6034 145.968 29.3434 146.36 29.1594 146.88C28.9834 147.392 28.8954 148.016 28.8954 148.752C28.8954 149.848 29.0954 150.696 29.4954 151.296C29.8954 151.888 30.4594 152.184 31.1874 152.184Z" fill="black" fill-opacity="0.3"/>
<rect x="40" y="148" width="258" height="1" fill="black" fill-opacity="0.3"/>
<path d="M24.692 124V122.152H20.36V121.216L24.62 115.48H25.724V121.144H26.78V122.152H25.724V124H24.692ZM21.608 121.144H24.692V117.064L21.608 121.144ZM31.2108 124.192C30.5228 124.192 29.9268 124.012 29.4228 123.652C28.9188 123.292 28.5268 122.78 28.2468 122.116C27.9748 121.452 27.8388 120.664 27.8388 119.752C27.8388 118.84 27.9748 118.052 28.2468 117.388C28.5268 116.716 28.9188 116.2 29.4228 115.84C29.9268 115.472 30.5228 115.288 31.2108 115.288C31.9068 115.288 32.5068 115.472 33.0108 115.84C33.5148 116.2 33.9028 116.712 34.1748 117.376C34.4548 118.04 34.5948 118.832 34.5948 119.752C34.5948 120.664 34.4548 121.452 34.1748 122.116C33.9028 122.78 33.5148 123.292 33.0108 123.652C32.5068 124.012 31.9068 124.192 31.2108 124.192ZM31.2108 123.184C31.9468 123.184 32.5148 122.888 32.9148 122.296C33.3148 121.696 33.5148 120.848 33.5148 119.752C33.5148 119.016 33.4228 118.392 33.2388 117.88C33.0628 117.36 32.8028 116.968 32.4588 116.704C32.1228 116.432 31.7068 116.296 31.2108 116.296C30.7228 116.296 30.3068 116.432 29.9628 116.704C29.6268 116.968 29.3668 117.36 29.1828 117.88C29.0068 118.392 28.9188 119.016 28.9188 119.752C28.9188 120.848 29.1188 121.696 29.5188 122.296C29.9188 122.888 30.4828 123.184 31.2108 123.184Z" fill="black" fill-opacity="0.3"/>
<rect x="40" y="119" width="258" height="1" fill="black" fill-opacity="0.3"/>
<path d="M284 169C270.905 167.432 273.711 157.242 255.939 154.89C232.841 151.834 236.797 145.118 201.136 146.382C178.522 147.183 179.951 142.896 165.189 141.824C156.38 141.185 156.618 138.775 141.142 139.583C128 140.27 119.237 140.779 108.523 138.775C102.395 137.629 93.0471 137.841 85.4282 137.841C75.1902 137.841 71.3807 135 54 135" stroke="#F48024" stroke-width="3"/>
</svg>
