<svg width="421" height="259" viewBox="0 0 421 259" fill="none" xmlns="http://www.w3.org/2000/svg">
<rect width="421" height="258.625" rx="20" fill="white"/>
<path d="M155.548 39V26.22H160.318C161.782 26.22 162.922 26.574 163.738 27.282C164.554 27.978 164.962 28.95 164.962 30.198C164.962 31.026 164.776 31.746 164.404 32.358C164.032 32.958 163.498 33.42 162.802 33.744C162.118 34.056 161.29 34.212 160.318 34.212H157.492V39H155.548ZM157.492 32.448H160.264C161.14 32.448 161.806 32.262 162.262 31.89C162.718 31.506 162.946 30.942 162.946 30.198C162.946 29.466 162.718 28.92 162.262 28.56C161.806 28.188 161.14 28.002 160.264 28.002H157.492V32.448ZM169.242 39.216C168.246 39.216 167.448 38.988 166.848 38.532C166.26 38.076 165.966 37.434 165.966 36.606C165.966 35.778 166.212 35.136 166.704 34.68C167.208 34.212 167.982 33.876 169.026 33.672L172.32 33.042C172.32 32.298 172.146 31.746 171.798 31.386C171.45 31.014 170.934 30.828 170.25 30.828C169.638 30.828 169.158 30.966 168.81 31.242C168.462 31.506 168.222 31.902 168.09 32.43L166.128 32.304C166.308 31.344 166.752 30.588 167.46 30.036C168.18 29.484 169.11 29.208 170.25 29.208C171.546 29.208 172.53 29.556 173.202 30.252C173.886 30.936 174.228 31.902 174.228 33.15V36.876C174.228 37.104 174.264 37.266 174.336 37.362C174.42 37.446 174.552 37.488 174.732 37.488H175.074V39C175.014 39.012 174.918 39.024 174.786 39.036C174.654 39.048 174.516 39.054 174.372 39.054C173.964 39.054 173.61 38.988 173.31 38.856C173.022 38.724 172.806 38.508 172.662 38.208C172.518 37.896 172.446 37.482 172.446 36.966L172.644 37.056C172.548 37.476 172.338 37.848 172.014 38.172C171.702 38.496 171.3 38.754 170.808 38.946C170.328 39.126 169.806 39.216 169.242 39.216ZM169.548 37.704C170.124 37.704 170.616 37.596 171.024 37.38C171.432 37.152 171.75 36.84 171.978 36.444C172.206 36.048 172.32 35.598 172.32 35.094V34.482L169.512 35.022C168.936 35.13 168.528 35.304 168.288 35.544C168.06 35.772 167.946 36.066 167.946 36.426C167.946 36.834 168.084 37.152 168.36 37.38C168.648 37.596 169.044 37.704 169.548 37.704ZM176.569 41.7V40.134H177.739C178.063 40.134 178.303 40.086 178.459 39.99C178.615 39.894 178.735 39.732 178.819 39.504L179.125 38.712H178.531L175.075 29.424H177.091L179.719 36.948L182.221 29.424H184.255L180.439 40.116C180.247 40.668 179.959 41.07 179.575 41.322C179.203 41.574 178.681 41.7 178.009 41.7H176.569ZM189.212 39.216C188.276 39.216 187.466 39.012 186.782 38.604C186.11 38.196 185.588 37.614 185.216 36.858C184.856 36.102 184.676 35.22 184.676 34.212C184.676 33.204 184.856 32.328 185.216 31.584C185.588 30.828 186.11 30.246 186.782 29.838C187.454 29.418 188.246 29.208 189.158 29.208C190.022 29.208 190.784 29.412 191.444 29.82C192.104 30.216 192.614 30.792 192.974 31.548C193.346 32.304 193.532 33.216 193.532 34.284V34.77H186.656C186.704 35.706 186.95 36.408 187.394 36.876C187.85 37.344 188.462 37.578 189.23 37.578C189.794 37.578 190.262 37.446 190.634 37.182C191.006 36.918 191.264 36.564 191.408 36.12L193.388 36.246C193.136 37.134 192.638 37.854 191.894 38.406C191.162 38.946 190.268 39.216 189.212 39.216ZM186.656 33.33H191.516C191.456 32.478 191.21 31.848 190.778 31.44C190.358 31.032 189.818 30.828 189.158 30.828C188.474 30.828 187.91 31.044 187.466 31.476C187.034 31.896 186.764 32.514 186.656 33.33ZM195.25 39V29.424H196.996L197.068 31.962L196.906 31.908C197.038 31.044 197.302 30.414 197.698 30.018C198.106 29.622 198.652 29.424 199.336 29.424H200.254V31.134H199.336C198.856 31.134 198.454 31.212 198.13 31.368C197.806 31.524 197.56 31.764 197.392 32.088C197.236 32.412 197.158 32.832 197.158 33.348V39H195.25ZM206.477 39V26.22H210.581C212.585 26.22 214.127 26.778 215.207 27.894C216.287 28.998 216.827 30.576 216.827 32.628C216.827 34.668 216.293 36.24 215.225 37.344C214.169 38.448 212.657 39 210.689 39H206.477ZM208.421 37.218H210.581C211.997 37.218 213.053 36.84 213.749 36.084C214.457 35.316 214.811 34.164 214.811 32.628C214.811 31.068 214.457 29.91 213.749 29.154C213.053 28.386 211.997 28.002 210.581 28.002H208.421V37.218ZM222.907 39.216C221.971 39.216 221.161 39.012 220.477 38.604C219.805 38.196 219.283 37.614 218.911 36.858C218.551 36.102 218.371 35.22 218.371 34.212C218.371 33.204 218.551 32.328 218.911 31.584C219.283 30.828 219.805 30.246 220.477 29.838C221.149 29.418 221.941 29.208 222.853 29.208C223.717 29.208 224.479 29.412 225.139 29.82C225.799 30.216 226.309 30.792 226.669 31.548C227.041 32.304 227.227 33.216 227.227 34.284V34.77H220.351C220.399 35.706 220.645 36.408 221.089 36.876C221.545 37.344 222.157 37.578 222.925 37.578C223.489 37.578 223.957 37.446 224.329 37.182C224.701 36.918 224.959 36.564 225.103 36.12L227.083 36.246C226.831 37.134 226.333 37.854 225.589 38.406C224.857 38.946 223.963 39.216 222.907 39.216ZM220.351 33.33H225.211C225.151 32.478 224.905 31.848 224.473 31.44C224.053 31.032 223.513 30.828 222.853 30.828C222.169 30.828 221.605 31.044 221.161 31.476C220.729 31.896 220.459 32.514 220.351 33.33ZM228.944 39V29.424H230.69L230.762 31.98L230.528 31.854C230.636 31.23 230.84 30.726 231.14 30.342C231.44 29.958 231.806 29.676 232.238 29.496C232.67 29.304 233.138 29.208 233.642 29.208C234.362 29.208 234.956 29.37 235.424 29.694C235.904 30.006 236.264 30.438 236.504 30.99C236.756 31.53 236.882 32.148 236.882 32.844V39H234.974V33.42C234.974 32.856 234.914 32.382 234.794 31.998C234.674 31.614 234.476 31.32 234.2 31.116C233.924 30.912 233.564 30.81 233.12 30.81C232.448 30.81 231.902 31.032 231.482 31.476C231.062 31.92 230.852 32.568 230.852 33.42V39H228.944ZM239.187 39V29.424H241.095V39H239.187ZM239.151 28.038V26.13H241.131V28.038H239.151ZM246.083 39.216C245.087 39.216 244.289 38.988 243.689 38.532C243.101 38.076 242.807 37.434 242.807 36.606C242.807 35.778 243.053 35.136 243.545 34.68C244.049 34.212 244.823 33.876 245.867 33.672L249.161 33.042C249.161 32.298 248.987 31.746 248.639 31.386C248.291 31.014 247.775 30.828 247.091 30.828C246.479 30.828 245.999 30.966 245.651 31.242C245.303 31.506 245.063 31.902 244.931 32.43L242.969 32.304C243.149 31.344 243.593 30.588 244.301 30.036C245.021 29.484 245.951 29.208 247.091 29.208C248.387 29.208 249.371 29.556 250.043 30.252C250.727 30.936 251.069 31.902 251.069 33.15V36.876C251.069 37.104 251.105 37.266 251.177 37.362C251.261 37.446 251.393 37.488 251.573 37.488H251.915V39C251.855 39.012 251.759 39.024 251.627 39.036C251.495 39.048 251.357 39.054 251.213 39.054C250.805 39.054 250.451 38.988 250.151 38.856C249.863 38.724 249.647 38.508 249.503 38.208C249.359 37.896 249.287 37.482 249.287 36.966L249.485 37.056C249.389 37.476 249.179 37.848 248.855 38.172C248.543 38.496 248.141 38.754 247.649 38.946C247.169 39.126 246.647 39.216 246.083 39.216ZM246.389 37.704C246.965 37.704 247.457 37.596 247.865 37.38C248.273 37.152 248.591 36.84 248.819 36.444C249.047 36.048 249.161 35.598 249.161 35.094V34.482L246.353 35.022C245.777 35.13 245.369 35.304 245.129 35.544C244.901 35.772 244.787 36.066 244.787 36.426C244.787 36.834 244.925 37.152 245.201 37.38C245.489 37.596 245.885 37.704 246.389 37.704ZM255.275 39C254.651 39 254.147 38.838 253.763 38.514C253.379 38.19 253.187 37.674 253.187 36.966V26.22H255.095V36.786C255.095 37.002 255.149 37.164 255.257 37.272C255.377 37.38 255.545 37.434 255.761 37.434H256.517V39H255.275ZM261.618 39.216C260.718 39.216 259.956 39.078 259.332 38.802C258.72 38.526 258.246 38.148 257.91 37.668C257.574 37.176 257.382 36.612 257.334 35.976L259.296 35.886C259.392 36.414 259.62 36.834 259.98 37.146C260.34 37.458 260.886 37.614 261.618 37.614C262.218 37.614 262.692 37.518 263.04 37.326C263.388 37.134 263.562 36.828 263.562 36.408C263.562 36.18 263.502 35.988 263.382 35.832C263.274 35.664 263.058 35.526 262.734 35.418C262.41 35.298 261.93 35.184 261.294 35.076C260.346 34.896 259.602 34.686 259.062 34.446C258.522 34.206 258.138 33.9 257.91 33.528C257.682 33.156 257.568 32.706 257.568 32.178C257.568 31.302 257.892 30.588 258.54 30.036C259.2 29.484 260.148 29.208 261.384 29.208C262.212 29.208 262.908 29.352 263.472 29.64C264.036 29.916 264.474 30.294 264.786 30.774C265.11 31.242 265.314 31.77 265.398 32.358L263.436 32.466C263.376 32.13 263.256 31.842 263.076 31.602C262.908 31.35 262.68 31.158 262.392 31.026C262.104 30.882 261.762 30.81 261.366 30.81C260.754 30.81 260.298 30.93 259.998 31.17C259.698 31.41 259.548 31.722 259.548 32.106C259.548 32.394 259.614 32.628 259.746 32.808C259.89 32.988 260.118 33.138 260.43 33.258C260.742 33.366 261.156 33.462 261.672 33.546C262.668 33.714 263.448 33.924 264.012 34.176C264.576 34.416 264.972 34.716 265.2 35.076C265.428 35.436 265.542 35.874 265.542 36.39C265.542 36.99 265.374 37.5 265.038 37.92C264.702 38.34 264.24 38.664 263.652 38.892C263.064 39.108 262.386 39.216 261.618 39.216Z" fill="black"/>
<path d="M158.688 66.256C157.984 66.256 157.36 66.0907 156.816 65.76C156.272 65.4187 155.845 64.9493 155.536 64.352C155.237 63.7547 155.083 63.0667 155.072 62.288L156.48 62.192C156.491 63.0667 156.688 63.7387 157.072 64.208C157.456 64.6773 157.995 64.912 158.688 64.912C159.413 64.912 159.968 64.6613 160.352 64.16C160.747 63.6587 160.944 62.9493 160.944 62.032V54.64H162.32V62.032C162.32 62.896 162.171 63.648 161.872 64.288C161.573 64.9173 161.152 65.4027 160.608 65.744C160.075 66.0853 159.435 66.256 158.688 66.256ZM166.923 66.192C166.048 66.192 165.35 65.9893 164.827 65.584C164.315 65.1787 164.059 64.6133 164.059 63.888C164.059 63.1627 164.272 62.592 164.699 62.176C165.126 61.76 165.803 61.4667 166.731 61.296L169.739 60.736C169.739 60.0213 169.568 59.488 169.227 59.136C168.896 58.784 168.395 58.608 167.723 58.608C167.136 58.608 166.672 58.7413 166.331 59.008C165.99 59.264 165.755 59.6373 165.627 60.128L164.203 60.016C164.363 59.216 164.747 58.5707 165.355 58.08C165.974 57.5787 166.763 57.328 167.723 57.328C168.811 57.328 169.643 57.6373 170.219 58.256C170.795 58.864 171.083 59.7067 171.083 60.784V64.288C171.083 64.48 171.115 64.6187 171.179 64.704C171.254 64.7787 171.371 64.816 171.531 64.816H171.867V66C171.824 66.0107 171.755 66.016 171.659 66.016C171.563 66.0267 171.462 66.032 171.355 66.032C170.971 66.032 170.656 65.9733 170.411 65.856C170.176 65.728 170.006 65.536 169.899 65.28C169.792 65.0133 169.739 64.6667 169.739 64.24L169.899 64.272C169.824 64.6347 169.643 64.9653 169.355 65.264C169.067 65.552 168.71 65.7813 168.283 65.952C167.856 66.112 167.403 66.192 166.923 66.192ZM167.051 65.008C167.616 65.008 168.096 64.9013 168.491 64.688C168.896 64.464 169.206 64.1653 169.419 63.792C169.632 63.408 169.739 62.9813 169.739 62.512V61.904L166.987 62.416C166.411 62.5227 166.011 62.688 165.787 62.912C165.574 63.1253 165.467 63.408 165.467 63.76C165.467 64.1547 165.606 64.464 165.883 64.688C166.171 64.9013 166.56 65.008 167.051 65.008ZM173.193 66V57.52H174.425L174.473 59.68L174.313 59.536C174.42 59.0347 174.606 58.624 174.873 58.304C175.14 57.9733 175.46 57.728 175.833 57.568C176.217 57.408 176.628 57.328 177.065 57.328C177.716 57.328 178.249 57.472 178.665 57.76C179.092 58.048 179.406 58.4373 179.609 58.928C179.822 59.408 179.929 59.9467 179.929 60.544V66H178.585V60.928C178.585 60.4053 178.521 59.968 178.393 59.616C178.276 59.2533 178.084 58.9813 177.817 58.8C177.55 58.608 177.204 58.512 176.777 58.512C176.126 58.512 175.588 58.72 175.161 59.136C174.745 59.5413 174.537 60.1387 174.537 60.928V66H173.193ZM189.642 66.256C188.383 66.256 187.412 65.9627 186.73 65.376C186.047 64.7787 185.679 64.0107 185.626 63.072L187.05 62.976C187.114 63.6693 187.38 64.1653 187.85 64.464C188.33 64.7627 188.927 64.912 189.642 64.912C190.132 64.912 190.586 64.848 191.002 64.72C191.418 64.5813 191.754 64.3627 192.01 64.064C192.266 63.7547 192.394 63.344 192.394 62.832C192.394 62.0747 192.143 61.52 191.642 61.168C191.14 60.816 190.479 60.64 189.658 60.64H188.762V59.296H189.658C190.33 59.296 190.884 59.1627 191.322 58.896C191.77 58.6293 191.994 58.1707 191.994 57.52C191.994 56.9333 191.802 56.4907 191.418 56.192C191.044 55.8827 190.479 55.728 189.722 55.728C188.975 55.728 188.41 55.872 188.026 56.16C187.652 56.448 187.428 56.8427 187.354 57.344L185.914 57.248C186.02 56.3947 186.399 55.7067 187.05 55.184C187.7 54.6507 188.591 54.384 189.722 54.384C190.49 54.384 191.151 54.512 191.706 54.768C192.26 55.0133 192.687 55.3653 192.986 55.824C193.284 56.2827 193.434 56.8267 193.434 57.456C193.434 58.16 193.21 58.7307 192.762 59.168C192.324 59.5947 191.674 59.888 190.81 60.048V59.76C191.738 59.8667 192.474 60.1973 193.018 60.752C193.562 61.3067 193.834 62 193.834 62.832C193.834 63.5573 193.652 64.176 193.29 64.688C192.938 65.2 192.447 65.5893 191.818 65.856C191.188 66.1227 190.463 66.256 189.642 66.256ZM197.454 66V57.584H195.086V56.4H196.046C196.462 56.4 196.793 56.3467 197.038 56.24C197.294 56.1333 197.476 55.952 197.582 55.696C197.689 55.44 197.742 55.088 197.742 54.64H198.83V66H197.454ZM204.907 61.968V60.704H210.203V61.968H204.907ZM219.898 66.256C219.023 66.256 218.261 66.0907 217.61 65.76C216.959 65.4293 216.442 64.976 216.058 64.4C215.685 63.8133 215.466 63.136 215.402 62.368L216.842 62.272C216.917 62.8373 217.082 63.3173 217.338 63.712C217.594 64.1067 217.935 64.4053 218.362 64.608C218.799 64.8107 219.322 64.912 219.93 64.912C220.463 64.912 220.917 64.8427 221.29 64.704C221.663 64.5653 221.946 64.3627 222.138 64.096C222.341 63.8293 222.442 63.504 222.442 63.12C222.442 62.768 222.357 62.4587 222.186 62.192C222.026 61.9147 221.711 61.664 221.242 61.44C220.783 61.2053 220.101 60.976 219.194 60.752C218.319 60.528 217.621 60.2827 217.098 60.016C216.586 59.7493 216.213 59.424 215.978 59.04C215.754 58.656 215.642 58.1813 215.642 57.616C215.642 56.976 215.791 56.416 216.09 55.936C216.399 55.4453 216.837 55.0667 217.402 54.8C217.967 54.5227 218.639 54.384 219.418 54.384C220.25 54.384 220.965 54.544 221.562 54.864C222.159 55.1733 222.634 55.6 222.986 56.144C223.338 56.688 223.557 57.3067 223.642 58L222.202 58.096C222.138 57.6373 221.989 57.232 221.754 56.88C221.53 56.5173 221.221 56.2347 220.826 56.032C220.431 55.8293 219.951 55.728 219.386 55.728C218.682 55.728 218.122 55.8987 217.706 56.24C217.29 56.5707 217.082 57.008 217.082 57.552C217.082 57.904 217.162 58.1973 217.322 58.432C217.493 58.656 217.791 58.8587 218.218 59.04C218.645 59.2107 219.258 59.3973 220.058 59.6C221.007 59.8347 221.759 60.1173 222.314 60.448C222.879 60.768 223.279 61.1413 223.514 61.568C223.759 61.9947 223.882 62.48 223.882 63.024C223.882 63.6853 223.711 64.2613 223.37 64.752C223.029 65.232 222.559 65.6053 221.962 65.872C221.365 66.128 220.677 66.256 219.898 66.256ZM229.375 66.192C228.575 66.192 227.882 66.0107 227.295 65.648C226.719 65.2853 226.271 64.7733 225.951 64.112C225.642 63.44 225.487 62.656 225.487 61.76C225.487 60.864 225.642 60.0853 225.951 59.424C226.271 58.7627 226.714 58.2507 227.279 57.888C227.855 57.5147 228.532 57.328 229.311 57.328C230.047 57.328 230.698 57.504 231.263 57.856C231.828 58.1973 232.266 58.6987 232.575 59.36C232.895 60.0213 233.055 60.8267 233.055 61.776V62.176H226.895C226.948 63.0827 227.188 63.7653 227.615 64.224C228.052 64.6827 228.639 64.912 229.375 64.912C229.93 64.912 230.383 64.784 230.735 64.528C231.098 64.2613 231.348 63.9147 231.487 63.488L232.927 63.6C232.703 64.3573 232.276 64.9813 231.647 65.472C231.028 65.952 230.271 66.192 229.375 66.192ZM226.895 60.992H231.583C231.519 60.1707 231.279 59.568 230.863 59.184C230.458 58.8 229.94 58.608 229.311 58.608C228.66 58.608 228.122 58.8107 227.695 59.216C227.279 59.6107 227.012 60.2027 226.895 60.992ZM234.684 68.4V57.52H235.932L235.964 59.344L235.772 59.248C235.985 58.6187 236.337 58.144 236.828 57.824C237.329 57.4933 237.905 57.328 238.556 57.328C239.398 57.328 240.086 57.536 240.62 57.952C241.164 58.368 241.564 58.912 241.82 59.584C242.086 60.256 242.22 60.9813 242.22 61.76C242.22 62.5387 242.086 63.264 241.82 63.936C241.564 64.608 241.164 65.152 240.62 65.568C240.086 65.984 239.398 66.192 238.556 66.192C238.118 66.192 237.708 66.1173 237.324 65.968C236.95 65.8187 236.63 65.6107 236.364 65.344C236.108 65.0773 235.932 64.7627 235.836 64.4L236.028 64.176V68.4H234.684ZM238.428 64.912C239.164 64.912 239.745 64.6347 240.172 64.08C240.598 63.5253 240.812 62.752 240.812 61.76C240.812 60.768 240.598 59.9947 240.172 59.44C239.745 58.8853 239.164 58.608 238.428 58.608C237.937 58.608 237.51 58.7253 237.148 58.96C236.796 59.1947 236.518 59.5467 236.316 60.016C236.124 60.4853 236.028 61.0667 236.028 61.76C236.028 62.4533 236.124 63.0347 236.316 63.504C236.508 63.9733 236.785 64.3253 237.148 64.56C237.51 64.7947 237.937 64.912 238.428 64.912ZM251.351 66.256C250.093 66.256 249.122 65.9627 248.439 65.376C247.757 64.7787 247.389 64.0107 247.335 63.072L248.759 62.976C248.823 63.6693 249.09 64.1653 249.559 64.464C250.039 64.7627 250.637 64.912 251.351 64.912C251.842 64.912 252.295 64.848 252.711 64.72C253.127 64.5813 253.463 64.3627 253.719 64.064C253.975 63.7547 254.103 63.344 254.103 62.832C254.103 62.0747 253.853 61.52 253.351 61.168C252.85 60.816 252.189 60.64 251.367 60.64H250.471V59.296H251.367C252.039 59.296 252.594 59.1627 253.031 58.896C253.479 58.6293 253.703 58.1707 253.703 57.52C253.703 56.9333 253.511 56.4907 253.127 56.192C252.754 55.8827 252.189 55.728 251.431 55.728C250.685 55.728 250.119 55.872 249.735 56.16C249.362 56.448 249.138 56.8427 249.063 57.344L247.623 57.248C247.73 56.3947 248.109 55.7067 248.759 55.184C249.41 54.6507 250.301 54.384 251.431 54.384C252.199 54.384 252.861 54.512 253.415 54.768C253.97 55.0133 254.397 55.3653 254.695 55.824C254.994 56.2827 255.143 56.8267 255.143 57.456C255.143 58.16 254.919 58.7307 254.471 59.168C254.034 59.5947 253.383 59.888 252.519 60.048V59.76C253.447 59.8667 254.183 60.1973 254.727 60.752C255.271 61.3067 255.543 62 255.543 62.832C255.543 63.5573 255.362 64.176 254.999 64.688C254.647 65.2 254.157 65.5893 253.527 65.856C252.898 66.1227 252.173 66.256 251.351 66.256ZM261.452 66.256C260.534 66.256 259.74 66.016 259.068 65.536C258.396 65.056 257.873 64.3733 257.5 63.488C257.137 62.6027 256.956 61.552 256.956 60.336C256.956 59.12 257.137 58.0693 257.5 57.184C257.873 56.288 258.396 55.6 259.068 55.12C259.74 54.6293 260.534 54.384 261.452 54.384C262.38 54.384 263.18 54.6293 263.852 55.12C264.524 55.6 265.041 56.2827 265.404 57.168C265.777 58.0533 265.964 59.1093 265.964 60.336C265.964 61.552 265.777 62.6027 265.404 63.488C265.041 64.3733 264.524 65.056 263.852 65.536C263.18 66.016 262.38 66.256 261.452 66.256ZM261.452 64.912C262.433 64.912 263.19 64.5173 263.724 63.728C264.257 62.928 264.524 61.7973 264.524 60.336C264.524 59.3547 264.401 58.5227 264.156 57.84C263.921 57.1467 263.574 56.624 263.116 56.272C262.668 55.9093 262.113 55.728 261.452 55.728C260.801 55.728 260.246 55.9093 259.788 56.272C259.34 56.624 258.993 57.1467 258.748 57.84C258.513 58.5227 258.396 59.3547 258.396 60.336C258.396 61.7973 258.662 62.928 259.196 63.728C259.729 64.5173 260.481 64.912 261.452 64.912Z" fill="black" fill-opacity="0.4"/>
<path opacity="0.4" d="M57.3097 167.385C32.8705 174.209 38.0156 221.981 20.0078 226.531H401V195.265C391.544 189.731 366.328 184.474 345.052 186.964C323.777 189.455 322.595 172.853 299.349 169.81C276.104 166.766 267.105 172.577 247.342 172.577C217.793 172.577 200.851 164.276 183.909 169.81C166.967 175.344 147.349 185.593 128.055 167.384C69.5623 112.182 89.0731 158.517 57.3097 167.385Z" fill="url(#paint0_linear_874_1852)"/>
<path d="M20 226.624C38.0265 222.075 32.876 174.303 57.3405 167.479C89.1367 158.61 69.6058 112.276 128.159 167.478C147.473 185.687 167.112 175.437 184.071 169.904C201.03 164.37 217.989 172.671 247.57 172.671C267.353 172.671 276.361 166.86 299.631 169.904C322.9 172.947 324.083 189.548 345.381 187.058C366.679 184.568 391.341 189.637 400.807 195.171" stroke="#1C275E" stroke-width="3"/>
<path opacity="0.4" d="M66.483 184.451C37.0438 191.48 41.6921 221.939 20 226.625H400.996V125C372.205 125 365.895 133.493 348.935 133.493C336.315 133.493 320.829 132.858 310.678 136.283C292.93 142.274 278.415 140.752 256.645 138.7C231.009 136.283 231.404 143.486 216.811 145.398C192.358 148.601 194.724 161.414 157.265 159.019C98.1916 155.242 104.745 175.315 66.483 184.451Z" fill="url(#paint1_linear_874_1852)"/>
<path d="M20 226.625C41.6921 221.939 37.0438 191.48 66.483 184.451C104.745 175.315 98.1916 155.242 157.265 159.019C194.724 161.414 192.358 148.601 216.811 145.398C231.404 143.486 231.009 136.283 256.645 138.7C278.415 140.752 292.93 142.274 310.678 136.283C320.829 132.858 336.315 133.493 348.935 133.493C365.895 133.493 372.205 125 400.996 125" stroke="#F48024" stroke-width="3"/>
<rect x="48" y="111" width="97" height="42" rx="20" fill="#1C275E"/>
<path d="M74.7502 120.742C76.6356 121.874 78.2039 123.499 79.3001 125.455C80.3962 127.411 80.982 129.631 80.9996 131.895C81.0172 134.159 80.4659 136.389 79.4003 138.363C78.3347 140.337 76.7918 141.988 74.9243 143.152C73.0568 144.315 70.9294 144.952 68.7528 144.997C66.5762 145.043 64.4258 144.497 62.5145 143.413C60.6033 142.329 58.9974 140.744 57.8559 138.816C56.7143 136.889 56.0768 134.684 56.0063 132.421L56 132L56.0063 131.579C56.0763 129.334 56.7044 127.146 57.8296 125.228C58.9547 123.311 60.5384 121.729 62.4262 120.638C64.314 119.546 66.4416 118.982 68.6014 119C70.7613 119.019 72.8797 119.619 74.7502 120.742ZM66.6389 128.282C66.377 128.12 66.0671 128.063 65.7676 128.121C65.4681 128.18 65.1996 128.351 65.0125 128.601C64.8255 128.851 64.7328 129.164 64.7519 129.48C64.7711 129.797 64.9007 130.095 65.1164 130.319L66.7314 132L65.1164 133.681L65.0126 133.803C64.8183 134.064 64.727 134.393 64.7571 134.721C64.7872 135.05 64.9366 135.355 65.1748 135.573C65.413 135.792 65.7222 135.908 66.0396 135.898C66.3571 135.887 66.6589 135.752 66.8839 135.519L68.5002 133.839L70.1164 135.519L70.2339 135.627C70.4852 135.829 70.8009 135.924 71.1171 135.893C71.4333 135.861 71.7261 135.706 71.9361 135.458C72.1462 135.21 72.2577 134.889 72.248 134.559C72.2383 134.229 72.1081 133.915 71.8839 133.681L70.2689 132L71.8839 130.319L71.9877 130.197C72.182 129.935 72.2733 129.607 72.2432 129.278C72.2131 128.949 72.0638 128.645 71.8255 128.426C71.5873 128.208 71.2781 128.092 70.9607 128.102C70.6432 128.112 70.3414 128.248 70.1164 128.481L68.5002 130.16L66.8839 128.481L66.7664 128.373L66.6389 128.282Z" fill="white"/>
<path d="M86.204 137V127.06H89.396C90.9547 127.06 92.154 127.494 92.994 128.362C93.834 129.221 94.254 130.448 94.254 132.044C94.254 133.631 93.8387 134.853 93.008 135.712C92.1867 136.571 91.0107 137 89.48 137H86.204ZM87.716 135.614H89.396C90.4973 135.614 91.3187 135.32 91.86 134.732C92.4107 134.135 92.686 133.239 92.686 132.044C92.686 130.831 92.4107 129.93 91.86 129.342C91.3187 128.745 90.4973 128.446 89.396 128.446H87.716V135.614ZM98.9832 137.168C98.2552 137.168 97.6252 137.009 97.0932 136.692C96.5705 136.375 96.1645 135.922 95.8752 135.334C95.5952 134.746 95.4552 134.06 95.4552 133.276C95.4552 132.492 95.5952 131.811 95.8752 131.232C96.1645 130.644 96.5705 130.191 97.0932 129.874C97.6158 129.547 98.2318 129.384 98.9412 129.384C99.6132 129.384 100.206 129.543 100.719 129.86C101.232 130.168 101.629 130.616 101.909 131.204C102.198 131.792 102.343 132.501 102.343 133.332V133.71H96.9952C97.0325 134.438 97.2238 134.984 97.5692 135.348C97.9238 135.712 98.3998 135.894 98.9972 135.894C99.4358 135.894 99.7998 135.791 100.089 135.586C100.378 135.381 100.579 135.105 100.691 134.76L102.231 134.858C102.035 135.549 101.648 136.109 101.069 136.538C100.5 136.958 99.8045 137.168 98.9832 137.168ZM96.9952 132.59H100.775C100.728 131.927 100.537 131.437 100.201 131.12C99.8745 130.803 99.4545 130.644 98.9412 130.644C98.4092 130.644 97.9705 130.812 97.6252 131.148C97.2892 131.475 97.0792 131.955 96.9952 132.59ZM103.679 137V129.552H105.037L105.093 131.54L104.911 131.442C104.995 130.957 105.154 130.565 105.387 130.266C105.62 129.967 105.905 129.748 106.241 129.608C106.577 129.459 106.941 129.384 107.333 129.384C107.893 129.384 108.355 129.51 108.719 129.762C109.092 130.005 109.372 130.341 109.559 130.77C109.755 131.19 109.853 131.671 109.853 132.212V137H108.369V132.66C108.369 132.221 108.322 131.853 108.229 131.554C108.136 131.255 107.982 131.027 107.767 130.868C107.552 130.709 107.272 130.63 106.927 130.63C106.404 130.63 105.98 130.803 105.653 131.148C105.326 131.493 105.163 131.997 105.163 132.66V137H103.679ZM111.646 137V129.552H113.13V137H111.646ZM111.618 128.474V126.99H113.158V128.474H111.618ZM117.009 137.168C116.234 137.168 115.614 136.991 115.147 136.636C114.69 136.281 114.461 135.782 114.461 135.138C114.461 134.494 114.652 133.995 115.035 133.64C115.427 133.276 116.029 133.015 116.841 132.856L119.403 132.366C119.403 131.787 119.268 131.358 118.997 131.078C118.726 130.789 118.325 130.644 117.793 130.644C117.317 130.644 116.944 130.751 116.673 130.966C116.402 131.171 116.216 131.479 116.113 131.89L114.587 131.792C114.727 131.045 115.072 130.457 115.623 130.028C116.183 129.599 116.906 129.384 117.793 129.384C118.801 129.384 119.566 129.655 120.089 130.196C120.621 130.728 120.887 131.479 120.887 132.45V135.348C120.887 135.525 120.915 135.651 120.971 135.726C121.036 135.791 121.139 135.824 121.279 135.824H121.545V137C121.498 137.009 121.424 137.019 121.321 137.028C121.218 137.037 121.111 137.042 120.999 137.042C120.682 137.042 120.406 136.991 120.173 136.888C119.949 136.785 119.781 136.617 119.669 136.384C119.557 136.141 119.501 135.819 119.501 135.418L119.655 135.488C119.58 135.815 119.417 136.104 119.165 136.356C118.922 136.608 118.61 136.809 118.227 136.958C117.854 137.098 117.448 137.168 117.009 137.168ZM117.247 135.992C117.695 135.992 118.078 135.908 118.395 135.74C118.712 135.563 118.96 135.32 119.137 135.012C119.314 134.704 119.403 134.354 119.403 133.962V133.486L117.219 133.906C116.771 133.99 116.454 134.125 116.267 134.312C116.09 134.489 116.001 134.718 116.001 134.998C116.001 135.315 116.108 135.563 116.323 135.74C116.547 135.908 116.855 135.992 117.247 135.992ZM124.158 137C123.673 137 123.281 136.874 122.982 136.622C122.684 136.37 122.534 135.969 122.534 135.418V127.06H124.018V135.278C124.018 135.446 124.06 135.572 124.144 135.656C124.238 135.74 124.368 135.782 124.536 135.782H125.124V137H124.158ZM129.092 137.168C128.392 137.168 127.799 137.061 127.314 136.846C126.838 136.631 126.469 136.337 126.208 135.964C125.946 135.581 125.797 135.143 125.76 134.648L127.286 134.578C127.36 134.989 127.538 135.315 127.818 135.558C128.098 135.801 128.522 135.922 129.092 135.922C129.558 135.922 129.927 135.847 130.198 135.698C130.468 135.549 130.604 135.311 130.604 134.984C130.604 134.807 130.557 134.657 130.464 134.536C130.38 134.405 130.212 134.298 129.96 134.214C129.708 134.121 129.334 134.032 128.84 133.948C128.102 133.808 127.524 133.645 127.104 133.458C126.684 133.271 126.385 133.033 126.208 132.744C126.03 132.455 125.942 132.105 125.942 131.694C125.942 131.013 126.194 130.457 126.698 130.028C127.211 129.599 127.948 129.384 128.91 129.384C129.554 129.384 130.095 129.496 130.534 129.72C130.972 129.935 131.313 130.229 131.556 130.602C131.808 130.966 131.966 131.377 132.032 131.834L130.506 131.918C130.459 131.657 130.366 131.433 130.226 131.246C130.095 131.05 129.918 130.901 129.694 130.798C129.47 130.686 129.204 130.63 128.896 130.63C128.42 130.63 128.065 130.723 127.832 130.91C127.598 131.097 127.482 131.339 127.482 131.638C127.482 131.862 127.533 132.044 127.636 132.184C127.748 132.324 127.925 132.441 128.168 132.534C128.41 132.618 128.732 132.693 129.134 132.758C129.908 132.889 130.515 133.052 130.954 133.248C131.392 133.435 131.7 133.668 131.878 133.948C132.055 134.228 132.144 134.569 132.144 134.97C132.144 135.437 132.013 135.833 131.752 136.16C131.49 136.487 131.131 136.739 130.674 136.916C130.216 137.084 129.689 137.168 129.092 137.168Z" fill="white"/>
<rect x="201" y="116" width="184" height="41" rx="20" fill="#1C275E"/>
<rect x="209" y="124" width="25" height="25" rx="12.5" fill="white"/>
<path d="M225.056 132.333C224.804 131.896 224.438 131.536 223.998 131.292C223.558 131.047 223.059 130.927 222.556 130.944H219.778C219.041 130.944 218.335 131.236 217.814 131.757C217.293 132.278 217 132.985 217 133.722C217 134.458 217.293 135.165 217.814 135.686C218.335 136.207 219.041 136.499 219.778 136.499H222.556C223.292 136.499 223.999 136.792 224.52 137.313C225.041 137.834 225.333 138.54 225.333 139.277C225.333 140.014 225.041 140.72 224.52 141.241C223.999 141.762 223.292 142.055 222.556 142.055H219.778C219.274 142.072 218.776 141.952 218.335 141.707C217.895 141.462 217.529 141.102 217.278 140.666M221.167 129.555V143.444" stroke="#F48024" stroke-width="2" stroke-linecap="round" stroke-linejoin="round"/>
<path d="M239.204 141.5V131.56H241.122L245.714 139.666V131.56H247.226V141.5H245.238L240.716 133.576V141.5H239.204ZM252.243 141.668C251.515 141.668 250.885 141.509 250.353 141.192C249.83 140.875 249.424 140.422 249.135 139.834C248.855 139.246 248.715 138.56 248.715 137.776C248.715 136.992 248.855 136.311 249.135 135.732C249.424 135.144 249.83 134.691 250.353 134.374C250.876 134.047 251.492 133.884 252.201 133.884C252.873 133.884 253.466 134.043 253.979 134.36C254.492 134.668 254.889 135.116 255.169 135.704C255.458 136.292 255.603 137.001 255.603 137.832V138.21H250.255C250.292 138.938 250.484 139.484 250.829 139.848C251.184 140.212 251.66 140.394 252.257 140.394C252.696 140.394 253.06 140.291 253.349 140.086C253.638 139.881 253.839 139.605 253.951 139.26L255.491 139.358C255.295 140.049 254.908 140.609 254.329 141.038C253.76 141.458 253.064 141.668 252.243 141.668ZM250.255 137.09H254.035C253.988 136.427 253.797 135.937 253.461 135.62C253.134 135.303 252.714 135.144 252.201 135.144C251.669 135.144 251.23 135.312 250.885 135.648C250.549 135.975 250.339 136.455 250.255 137.09ZM259.521 141.5C258.812 141.5 258.289 141.337 257.953 141.01C257.617 140.683 257.449 140.175 257.449 139.484V132.302H258.933V139.372C258.933 139.717 259.008 139.955 259.157 140.086C259.307 140.217 259.535 140.282 259.843 140.282H260.907V141.5H259.521ZM256.315 135.27V134.052H260.907V135.27H256.315ZM269.578 141.724C268.682 141.724 267.893 141.519 267.212 141.108C266.53 140.688 265.998 140.091 265.616 139.316C265.233 138.541 265.042 137.617 265.042 136.544C265.042 135.48 265.228 134.561 265.602 133.786C265.984 133.002 266.516 132.4 267.198 131.98C267.879 131.551 268.677 131.336 269.592 131.336C270.824 131.336 271.78 131.644 272.462 132.26C273.143 132.876 273.586 133.73 273.792 134.822L272.21 134.906C272.079 134.225 271.799 133.693 271.37 133.31C270.94 132.918 270.348 132.722 269.592 132.722C268.985 132.722 268.458 132.876 268.01 133.184C267.571 133.492 267.226 133.931 266.974 134.5C266.731 135.069 266.61 135.751 266.61 136.544C266.61 137.337 266.731 138.019 266.974 138.588C267.226 139.157 267.576 139.591 268.024 139.89C268.472 140.189 268.99 140.338 269.578 140.338C270.38 140.338 271.001 140.128 271.44 139.708C271.888 139.279 272.168 138.691 272.28 137.944L273.862 138.028C273.74 138.784 273.498 139.437 273.134 139.988C272.77 140.539 272.289 140.968 271.692 141.276C271.094 141.575 270.39 141.724 269.578 141.724ZM277.292 141.668C276.517 141.668 275.897 141.491 275.43 141.136C274.973 140.781 274.744 140.282 274.744 139.638C274.744 138.994 274.935 138.495 275.318 138.14C275.71 137.776 276.312 137.515 277.124 137.356L279.686 136.866C279.686 136.287 279.551 135.858 279.28 135.578C279.009 135.289 278.608 135.144 278.076 135.144C277.6 135.144 277.227 135.251 276.956 135.466C276.685 135.671 276.499 135.979 276.396 136.39L274.87 136.292C275.01 135.545 275.355 134.957 275.906 134.528C276.466 134.099 277.189 133.884 278.076 133.884C279.084 133.884 279.849 134.155 280.372 134.696C280.904 135.228 281.17 135.979 281.17 136.95V139.848C281.17 140.025 281.198 140.151 281.254 140.226C281.319 140.291 281.422 140.324 281.562 140.324H281.828V141.5C281.781 141.509 281.707 141.519 281.604 141.528C281.501 141.537 281.394 141.542 281.282 141.542C280.965 141.542 280.689 141.491 280.456 141.388C280.232 141.285 280.064 141.117 279.952 140.884C279.84 140.641 279.784 140.319 279.784 139.918L279.938 139.988C279.863 140.315 279.7 140.604 279.448 140.856C279.205 141.108 278.893 141.309 278.51 141.458C278.137 141.598 277.731 141.668 277.292 141.668ZM277.53 140.492C277.978 140.492 278.361 140.408 278.678 140.24C278.995 140.063 279.243 139.82 279.42 139.512C279.597 139.204 279.686 138.854 279.686 138.462V137.986L277.502 138.406C277.054 138.49 276.737 138.625 276.55 138.812C276.373 138.989 276.284 139.218 276.284 139.498C276.284 139.815 276.391 140.063 276.606 140.24C276.83 140.408 277.138 140.492 277.53 140.492ZM285.728 141.668C285.028 141.668 284.436 141.561 283.95 141.346C283.474 141.131 283.106 140.837 282.844 140.464C282.583 140.081 282.434 139.643 282.396 139.148L283.922 139.078C283.997 139.489 284.174 139.815 284.454 140.058C284.734 140.301 285.159 140.422 285.728 140.422C286.195 140.422 286.564 140.347 286.834 140.198C287.105 140.049 287.24 139.811 287.24 139.484C287.24 139.307 287.194 139.157 287.1 139.036C287.016 138.905 286.848 138.798 286.596 138.714C286.344 138.621 285.971 138.532 285.476 138.448C284.739 138.308 284.16 138.145 283.74 137.958C283.32 137.771 283.022 137.533 282.844 137.244C282.667 136.955 282.578 136.605 282.578 136.194C282.578 135.513 282.83 134.957 283.334 134.528C283.848 134.099 284.585 133.884 285.546 133.884C286.19 133.884 286.732 133.996 287.17 134.22C287.609 134.435 287.95 134.729 288.192 135.102C288.444 135.466 288.603 135.877 288.668 136.334L287.142 136.418C287.096 136.157 287.002 135.933 286.862 135.746C286.732 135.55 286.554 135.401 286.33 135.298C286.106 135.186 285.84 135.13 285.532 135.13C285.056 135.13 284.702 135.223 284.468 135.41C284.235 135.597 284.118 135.839 284.118 136.138C284.118 136.362 284.17 136.544 284.272 136.684C284.384 136.824 284.562 136.941 284.804 137.034C285.047 137.118 285.369 137.193 285.77 137.258C286.545 137.389 287.152 137.552 287.59 137.748C288.029 137.935 288.337 138.168 288.514 138.448C288.692 138.728 288.78 139.069 288.78 139.47C288.78 139.937 288.65 140.333 288.388 140.66C288.127 140.987 287.768 141.239 287.31 141.416C286.853 141.584 286.326 141.668 285.728 141.668ZM290.114 141.5V131.56H291.598V135.732L291.416 135.704C291.5 135.284 291.654 134.943 291.878 134.682C292.102 134.411 292.378 134.211 292.704 134.08C293.031 133.949 293.39 133.884 293.782 133.884C294.324 133.884 294.781 134.005 295.154 134.248C295.528 134.481 295.808 134.813 295.994 135.242C296.19 135.671 296.288 136.161 296.288 136.712V141.5H294.804V137.104C294.804 136.432 294.688 135.937 294.454 135.62C294.23 135.293 293.876 135.13 293.39 135.13C292.849 135.13 292.415 135.303 292.088 135.648C291.762 135.984 291.598 136.479 291.598 137.132V141.5H290.114ZM305.556 141.724C304.66 141.724 303.871 141.519 303.19 141.108C302.509 140.688 301.977 140.091 301.594 139.316C301.211 138.541 301.02 137.617 301.02 136.544C301.02 135.48 301.207 134.561 301.58 133.786C301.963 133.002 302.495 132.4 303.176 131.98C303.857 131.551 304.655 131.336 305.57 131.336C306.802 131.336 307.759 131.644 308.44 132.26C309.121 132.876 309.565 133.73 309.77 134.822L308.188 134.906C308.057 134.225 307.777 133.693 307.348 133.31C306.919 132.918 306.326 132.722 305.57 132.722C304.963 132.722 304.436 132.876 303.988 133.184C303.549 133.492 303.204 133.931 302.952 134.5C302.709 135.069 302.588 135.751 302.588 136.544C302.588 137.337 302.709 138.019 302.952 138.588C303.204 139.157 303.554 139.591 304.002 139.89C304.45 140.189 304.968 140.338 305.556 140.338C306.359 140.338 306.979 140.128 307.418 139.708C307.866 139.279 308.146 138.691 308.258 137.944L309.84 138.028C309.719 138.784 309.476 139.437 309.112 139.988C308.748 140.539 308.267 140.968 307.67 141.276C307.073 141.575 306.368 141.724 305.556 141.724ZM314.223 141.668C313.514 141.668 312.893 141.509 312.361 141.192C311.829 140.875 311.418 140.422 311.129 139.834C310.84 139.246 310.695 138.56 310.695 137.776C310.695 136.983 310.84 136.297 311.129 135.718C311.418 135.139 311.829 134.691 312.361 134.374C312.893 134.047 313.514 133.884 314.223 133.884C314.932 133.884 315.553 134.047 316.085 134.374C316.617 134.691 317.028 135.139 317.317 135.718C317.606 136.297 317.751 136.983 317.751 137.776C317.751 138.56 317.606 139.246 317.317 139.834C317.028 140.422 316.617 140.875 316.085 141.192C315.553 141.509 314.932 141.668 314.223 141.668ZM314.223 140.38C314.858 140.38 315.348 140.151 315.693 139.694C316.038 139.227 316.211 138.588 316.211 137.776C316.211 136.964 316.038 136.329 315.693 135.872C315.348 135.405 314.858 135.172 314.223 135.172C313.598 135.172 313.108 135.405 312.753 135.872C312.408 136.329 312.235 136.964 312.235 137.776C312.235 138.588 312.408 139.227 312.753 139.694C313.108 140.151 313.598 140.38 314.223 140.38ZM320.775 141.5C320.29 141.5 319.898 141.374 319.599 141.122C319.301 140.87 319.151 140.469 319.151 139.918V131.56H320.635V139.778C320.635 139.946 320.677 140.072 320.761 140.156C320.855 140.24 320.985 140.282 321.153 140.282H321.741V141.5H320.775ZM324.422 141.5C323.936 141.5 323.544 141.374 323.246 141.122C322.947 140.87 322.798 140.469 322.798 139.918V131.56H324.282V139.778C324.282 139.946 324.324 140.072 324.408 140.156C324.501 140.24 324.632 140.282 324.8 140.282H325.388V141.5H324.422ZM329.551 141.668C328.823 141.668 328.193 141.509 327.661 141.192C327.138 140.875 326.732 140.422 326.443 139.834C326.163 139.246 326.023 138.56 326.023 137.776C326.023 136.992 326.163 136.311 326.443 135.732C326.732 135.144 327.138 134.691 327.661 134.374C328.184 134.047 328.8 133.884 329.509 133.884C330.181 133.884 330.774 134.043 331.287 134.36C331.8 134.668 332.197 135.116 332.477 135.704C332.766 136.292 332.911 137.001 332.911 137.832V138.21H327.563C327.6 138.938 327.792 139.484 328.137 139.848C328.492 140.212 328.968 140.394 329.565 140.394C330.004 140.394 330.368 140.291 330.657 140.086C330.946 139.881 331.147 139.605 331.259 139.26L332.799 139.358C332.603 140.049 332.216 140.609 331.637 141.038C331.068 141.458 330.372 141.668 329.551 141.668ZM327.563 137.09H331.343C331.296 136.427 331.105 135.937 330.769 135.62C330.442 135.303 330.022 135.144 329.509 135.144C328.977 135.144 328.538 135.312 328.193 135.648C327.857 135.975 327.647 136.455 327.563 137.09ZM337.313 141.668C336.603 141.668 335.983 141.509 335.451 141.192C334.919 140.875 334.508 140.422 334.219 139.834C333.929 139.246 333.785 138.56 333.785 137.776C333.785 136.992 333.929 136.311 334.219 135.732C334.508 135.144 334.919 134.691 335.451 134.374C335.983 134.047 336.603 133.884 337.313 133.884C337.919 133.884 338.456 133.991 338.923 134.206C339.399 134.411 339.781 134.715 340.071 135.116C340.369 135.517 340.561 136.007 340.645 136.586L339.091 136.67C339.016 136.185 338.82 135.816 338.503 135.564C338.185 135.303 337.789 135.172 337.313 135.172C336.687 135.172 336.197 135.405 335.843 135.872C335.497 136.329 335.325 136.964 335.325 137.776C335.325 138.588 335.497 139.227 335.843 139.694C336.197 140.151 336.687 140.38 337.313 140.38C337.789 140.38 338.185 140.249 338.503 139.988C338.82 139.717 339.016 139.311 339.091 138.77L340.645 138.854C340.561 139.423 340.369 139.918 340.071 140.338C339.781 140.758 339.399 141.085 338.923 141.318C338.456 141.551 337.919 141.668 337.313 141.668ZM344.413 141.5C343.704 141.5 343.181 141.337 342.845 141.01C342.509 140.683 342.341 140.175 342.341 139.484V132.302H343.825V139.372C343.825 139.717 343.9 139.955 344.049 140.086C344.199 140.217 344.427 140.282 344.735 140.282H345.799V141.5H344.413ZM341.207 135.27V134.052H345.799V135.27H341.207ZM347.049 141.5V134.052H348.533V141.5H347.049ZM347.021 132.974V131.49H348.561V132.974H347.021ZM353.393 141.668C352.683 141.668 352.063 141.509 351.531 141.192C350.999 140.875 350.588 140.422 350.299 139.834C350.009 139.246 349.865 138.56 349.865 137.776C349.865 136.983 350.009 136.297 350.299 135.718C350.588 135.139 350.999 134.691 351.531 134.374C352.063 134.047 352.683 133.884 353.393 133.884C354.102 133.884 354.723 134.047 355.255 134.374C355.787 134.691 356.197 135.139 356.487 135.718C356.776 136.297 356.921 136.983 356.921 137.776C356.921 138.56 356.776 139.246 356.487 139.834C356.197 140.422 355.787 140.875 355.255 141.192C354.723 141.509 354.102 141.668 353.393 141.668ZM353.393 140.38C354.027 140.38 354.517 140.151 354.863 139.694C355.208 139.227 355.381 138.588 355.381 137.776C355.381 136.964 355.208 136.329 354.863 135.872C354.517 135.405 354.027 135.172 353.393 135.172C352.767 135.172 352.277 135.405 351.923 135.872C351.577 136.329 351.405 136.964 351.405 137.776C351.405 138.588 351.577 139.227 351.923 139.694C352.277 140.151 352.767 140.38 353.393 140.38ZM358.253 141.5V134.052H359.611L359.667 136.04L359.485 135.942C359.569 135.457 359.727 135.065 359.961 134.766C360.194 134.467 360.479 134.248 360.815 134.108C361.151 133.959 361.515 133.884 361.907 133.884C362.467 133.884 362.929 134.01 363.293 134.262C363.666 134.505 363.946 134.841 364.133 135.27C364.329 135.69 364.427 136.171 364.427 136.712V141.5H362.943V137.16C362.943 136.721 362.896 136.353 362.803 136.054C362.709 135.755 362.555 135.527 362.341 135.368C362.126 135.209 361.846 135.13 361.501 135.13C360.978 135.13 360.553 135.303 360.227 135.648C359.9 135.993 359.737 136.497 359.737 137.16V141.5H358.253ZM369.062 141.668C368.362 141.668 367.769 141.561 367.284 141.346C366.808 141.131 366.439 140.837 366.178 140.464C365.917 140.081 365.767 139.643 365.73 139.148L367.256 139.078C367.331 139.489 367.508 139.815 367.788 140.058C368.068 140.301 368.493 140.422 369.062 140.422C369.529 140.422 369.897 140.347 370.168 140.198C370.439 140.049 370.574 139.811 370.574 139.484C370.574 139.307 370.527 139.157 370.434 139.036C370.35 138.905 370.182 138.798 369.93 138.714C369.678 138.621 369.305 138.532 368.81 138.448C368.073 138.308 367.494 138.145 367.074 137.958C366.654 137.771 366.355 137.533 366.178 137.244C366.001 136.955 365.912 136.605 365.912 136.194C365.912 135.513 366.164 134.957 366.668 134.528C367.181 134.099 367.919 133.884 368.88 133.884C369.524 133.884 370.065 133.996 370.504 134.22C370.943 134.435 371.283 134.729 371.526 135.102C371.778 135.466 371.937 135.877 372.002 136.334L370.476 136.418C370.429 136.157 370.336 135.933 370.196 135.746C370.065 135.55 369.888 135.401 369.664 135.298C369.44 135.186 369.174 135.13 368.866 135.13C368.39 135.13 368.035 135.223 367.802 135.41C367.569 135.597 367.452 135.839 367.452 136.138C367.452 136.362 367.503 136.544 367.606 136.684C367.718 136.824 367.895 136.941 368.138 137.034C368.381 137.118 368.703 137.193 369.104 137.258C369.879 137.389 370.485 137.552 370.924 137.748C371.363 137.935 371.671 138.168 371.848 138.448C372.025 138.728 372.114 139.069 372.114 139.47C372.114 139.937 371.983 140.333 371.722 140.66C371.461 140.987 371.101 141.239 370.644 141.416C370.187 141.584 369.659 141.668 369.062 141.668Z" fill="white"/>
<defs>
<linearGradient id="paint0_linear_874_1852" x1="226.075" y1="80.8995" x2="227.63" y2="230.88" gradientUnits="userSpaceOnUse">
<stop stop-color="#1C275E"/>
<stop offset="1" stop-color="#1C275E" stop-opacity="0"/>
</linearGradient>
<linearGradient id="paint1_linear_874_1852" x1="213.384" y1="111.016" x2="213.384" y2="226.554" gradientUnits="userSpaceOnUse">
<stop stop-color="#F48024"/>
<stop offset="1" stop-color="#F48024" stop-opacity="0"/>
</linearGradient>
</defs>
</svg>
