<svg width="421" height="218" viewBox="0 0 421 218" fill="none" xmlns="http://www.w3.org/2000/svg">
<rect width="421" height="218" rx="20" fill="white"/>
<path d="M72.14 39V28.002H68.216V26.22H78.008V28.002H74.084V39H72.14ZM78.8899 39V29.424H80.7979V39H78.8899ZM78.8539 28.038V26.13H80.8339V28.038H78.8539ZM83.4375 39V29.424H85.1835L85.2375 31.8L85.0215 31.728C85.1295 31.2 85.3155 30.75 85.5795 30.378C85.8555 30.006 86.1915 29.718 86.5875 29.514C86.9835 29.31 87.4155 29.208 87.8835 29.208C88.6995 29.208 89.3655 29.442 89.8815 29.91C90.3975 30.366 90.7215 30.996 90.8535 31.8H90.5475C90.6555 31.236 90.8355 30.768 91.0875 30.396C91.3515 30.012 91.6875 29.718 92.0955 29.514C92.5035 29.31 92.9655 29.208 93.4815 29.208C94.1535 29.208 94.7235 29.352 95.1915 29.64C95.6715 29.916 96.0315 30.324 96.2715 30.864C96.5235 31.404 96.6495 32.064 96.6495 32.844V39H94.7415V33.312C94.7415 32.484 94.5915 31.86 94.2915 31.44C93.9915 31.02 93.5355 30.81 92.9235 30.81C92.5275 30.81 92.1795 30.912 91.8795 31.116C91.5795 31.32 91.3455 31.614 91.1775 31.998C91.0215 32.382 90.9435 32.844 90.9435 33.384V39H89.1255V33.384C89.1255 32.568 88.9875 31.938 88.7115 31.494C88.4475 31.038 87.9915 30.81 87.3435 30.81C86.9355 30.81 86.5815 30.912 86.2815 31.116C85.9935 31.32 85.7655 31.62 85.5975 32.016C85.4295 32.4 85.3455 32.856 85.3455 33.384V39H83.4375ZM102.878 39.216C101.942 39.216 101.132 39.012 100.448 38.604C99.7764 38.196 99.2544 37.614 98.8824 36.858C98.5224 36.102 98.3424 35.22 98.3424 34.212C98.3424 33.204 98.5224 32.328 98.8824 31.584C99.2544 30.828 99.7764 30.246 100.448 29.838C101.12 29.418 101.912 29.208 102.824 29.208C103.688 29.208 104.45 29.412 105.11 29.82C105.77 30.216 106.28 30.792 106.64 31.548C107.012 32.304 107.198 33.216 107.198 34.284V34.77H100.322C100.37 35.706 100.616 36.408 101.06 36.876C101.516 37.344 102.128 37.578 102.896 37.578C103.46 37.578 103.928 37.446 104.3 37.182C104.672 36.918 104.93 36.564 105.074 36.12L107.054 36.246C106.802 37.134 106.304 37.854 105.56 38.406C104.828 38.946 103.934 39.216 102.878 39.216ZM100.322 33.33H105.182C105.122 32.478 104.876 31.848 104.444 31.44C104.024 31.032 103.484 30.828 102.824 30.828C102.14 30.828 101.576 31.044 101.132 31.476C100.7 31.896 100.43 32.514 100.322 33.33ZM114.224 39V28.812C114.224 28.02 114.446 27.39 114.89 26.922C115.334 26.454 116.03 26.22 116.978 26.22H118.67V27.786H117.23C116.858 27.786 116.582 27.888 116.402 28.092C116.222 28.284 116.132 28.56 116.132 28.92V39H114.224ZM112.892 31.098V29.55H118.526V31.098H112.892ZM119.945 39V29.424H121.691L121.763 31.962L121.601 31.908C121.733 31.044 121.997 30.414 122.393 30.018C122.801 29.622 123.347 29.424 124.031 29.424H124.949V31.134H124.031C123.551 31.134 123.149 31.212 122.825 31.368C122.501 31.524 122.255 31.764 122.087 32.088C121.931 32.412 121.853 32.832 121.853 33.348V39H119.945ZM130.034 39.216C129.122 39.216 128.324 39.012 127.64 38.604C126.956 38.196 126.428 37.614 126.056 36.858C125.684 36.102 125.498 35.22 125.498 34.212C125.498 33.192 125.684 32.31 126.056 31.566C126.428 30.822 126.956 30.246 127.64 29.838C128.324 29.418 129.122 29.208 130.034 29.208C130.946 29.208 131.744 29.418 132.428 29.838C133.112 30.246 133.64 30.822 134.012 31.566C134.384 32.31 134.57 33.192 134.57 34.212C134.57 35.22 134.384 36.102 134.012 36.858C133.64 37.614 133.112 38.196 132.428 38.604C131.744 39.012 130.946 39.216 130.034 39.216ZM130.034 37.56C130.85 37.56 131.48 37.266 131.924 36.678C132.368 36.078 132.59 35.256 132.59 34.212C132.59 33.168 132.368 32.352 131.924 31.764C131.48 31.164 130.85 30.864 130.034 30.864C129.23 30.864 128.6 31.164 128.144 31.764C127.7 32.352 127.478 33.168 127.478 34.212C127.478 35.256 127.7 36.078 128.144 36.678C128.6 37.266 129.23 37.56 130.034 37.56ZM136.282 39V29.424H138.028L138.082 31.8L137.866 31.728C137.974 31.2 138.16 30.75 138.424 30.378C138.7 30.006 139.036 29.718 139.432 29.514C139.828 29.31 140.26 29.208 140.728 29.208C141.544 29.208 142.21 29.442 142.726 29.91C143.242 30.366 143.566 30.996 143.698 31.8H143.392C143.5 31.236 143.68 30.768 143.932 30.396C144.196 30.012 144.532 29.718 144.94 29.514C145.348 29.31 145.81 29.208 146.326 29.208C146.998 29.208 147.568 29.352 148.036 29.64C148.516 29.916 148.876 30.324 149.116 30.864C149.368 31.404 149.494 32.064 149.494 32.844V39H147.586V33.312C147.586 32.484 147.436 31.86 147.136 31.44C146.836 31.02 146.38 30.81 145.768 30.81C145.372 30.81 145.024 30.912 144.724 31.116C144.424 31.32 144.19 31.614 144.022 31.998C143.866 32.382 143.788 32.844 143.788 33.384V39H141.97V33.384C141.97 32.568 141.832 31.938 141.556 31.494C141.292 31.038 140.836 30.81 140.188 30.81C139.78 30.81 139.426 30.912 139.126 31.116C138.838 31.32 138.61 31.62 138.442 32.016C138.274 32.4 138.19 32.856 138.19 33.384V39H136.282ZM156.351 39V26.22H161.445C162.357 26.22 163.143 26.376 163.803 26.688C164.463 27 164.973 27.444 165.333 28.02C165.693 28.596 165.873 29.28 165.873 30.072C165.873 30.648 165.741 31.164 165.477 31.62C165.225 32.076 164.883 32.442 164.451 32.718C164.031 32.982 163.581 33.132 163.101 33.168L163.011 33.006C163.815 33.006 164.439 33.192 164.883 33.564C165.327 33.924 165.585 34.494 165.657 35.274L165.999 39H164.037L163.731 35.526C163.695 35.01 163.521 34.632 163.209 34.392C162.897 34.14 162.387 34.014 161.679 34.014H158.295V39H156.351ZM158.295 32.232H161.481C162.213 32.232 162.789 32.052 163.209 31.692C163.641 31.32 163.857 30.798 163.857 30.126C163.857 29.442 163.641 28.92 163.209 28.56C162.777 28.188 162.147 28.002 161.319 28.002H158.295V32.232ZM171.867 39.216C170.931 39.216 170.121 39.012 169.437 38.604C168.765 38.196 168.243 37.614 167.871 36.858C167.511 36.102 167.331 35.22 167.331 34.212C167.331 33.204 167.511 32.328 167.871 31.584C168.243 30.828 168.765 30.246 169.437 29.838C170.109 29.418 170.901 29.208 171.813 29.208C172.677 29.208 173.439 29.412 174.099 29.82C174.759 30.216 175.269 30.792 175.629 31.548C176.001 32.304 176.187 33.216 176.187 34.284V34.77H169.311C169.359 35.706 169.605 36.408 170.049 36.876C170.505 37.344 171.117 37.578 171.885 37.578C172.449 37.578 172.917 37.446 173.289 37.182C173.661 36.918 173.919 36.564 174.063 36.12L176.043 36.246C175.791 37.134 175.293 37.854 174.549 38.406C173.817 38.946 172.923 39.216 171.867 39.216ZM169.311 33.33H174.171C174.111 32.478 173.865 31.848 173.433 31.44C173.013 31.032 172.473 30.828 171.813 30.828C171.129 30.828 170.565 31.044 170.121 31.476C169.689 31.896 169.419 32.514 169.311 33.33ZM178.507 39V28.812C178.507 28.02 178.729 27.39 179.173 26.922C179.617 26.454 180.313 26.22 181.261 26.22H182.953V27.786H181.513C181.141 27.786 180.865 27.888 180.685 28.092C180.505 28.284 180.415 28.56 180.415 28.92V39H178.507ZM177.175 31.098V29.55H182.809V31.098H177.175ZM187.923 39.216C186.987 39.216 186.177 39.012 185.493 38.604C184.821 38.196 184.299 37.614 183.927 36.858C183.567 36.102 183.387 35.22 183.387 34.212C183.387 33.204 183.567 32.328 183.927 31.584C184.299 30.828 184.821 30.246 185.493 29.838C186.165 29.418 186.957 29.208 187.869 29.208C188.733 29.208 189.495 29.412 190.155 29.82C190.815 30.216 191.325 30.792 191.685 31.548C192.057 32.304 192.243 33.216 192.243 34.284V34.77H185.367C185.415 35.706 185.661 36.408 186.105 36.876C186.561 37.344 187.173 37.578 187.941 37.578C188.505 37.578 188.973 37.446 189.345 37.182C189.717 36.918 189.975 36.564 190.119 36.12L192.099 36.246C191.847 37.134 191.349 37.854 190.605 38.406C189.873 38.946 188.979 39.216 187.923 39.216ZM185.367 33.33H190.227C190.167 32.478 189.921 31.848 189.489 31.44C189.069 31.032 188.529 30.828 187.869 30.828C187.185 30.828 186.621 31.044 186.177 31.476C185.745 31.896 185.475 32.514 185.367 33.33ZM193.961 39V29.424H195.707L195.779 31.962L195.617 31.908C195.749 31.044 196.013 30.414 196.409 30.018C196.817 29.622 197.363 29.424 198.047 29.424H198.965V31.134H198.047C197.567 31.134 197.165 31.212 196.841 31.368C196.517 31.524 196.271 31.764 196.103 32.088C195.947 32.412 195.869 32.832 195.869 33.348V39H193.961ZM200.178 39V29.424H201.924L201.996 31.962L201.834 31.908C201.966 31.044 202.23 30.414 202.626 30.018C203.034 29.622 203.58 29.424 204.264 29.424H205.182V31.134H204.264C203.784 31.134 203.382 31.212 203.058 31.368C202.734 31.524 202.488 31.764 202.32 32.088C202.164 32.412 202.086 32.832 202.086 33.348V39H200.178ZM209.043 39.216C208.047 39.216 207.249 38.988 206.649 38.532C206.061 38.076 205.767 37.434 205.767 36.606C205.767 35.778 206.013 35.136 206.505 34.68C207.009 34.212 207.783 33.876 208.827 33.672L212.121 33.042C212.121 32.298 211.947 31.746 211.599 31.386C211.251 31.014 210.735 30.828 210.051 30.828C209.439 30.828 208.959 30.966 208.611 31.242C208.263 31.506 208.023 31.902 207.891 32.43L205.929 32.304C206.109 31.344 206.553 30.588 207.261 30.036C207.981 29.484 208.911 29.208 210.051 29.208C211.347 29.208 212.331 29.556 213.003 30.252C213.687 30.936 214.029 31.902 214.029 33.15V36.876C214.029 37.104 214.065 37.266 214.137 37.362C214.221 37.446 214.353 37.488 214.533 37.488H214.875V39C214.815 39.012 214.719 39.024 214.587 39.036C214.455 39.048 214.317 39.054 214.173 39.054C213.765 39.054 213.411 38.988 213.111 38.856C212.823 38.724 212.607 38.508 212.463 38.208C212.319 37.896 212.247 37.482 212.247 36.966L212.445 37.056C212.349 37.476 212.139 37.848 211.815 38.172C211.503 38.496 211.101 38.754 210.609 38.946C210.129 39.126 209.607 39.216 209.043 39.216ZM209.349 37.704C209.925 37.704 210.417 37.596 210.825 37.38C211.233 37.152 211.551 36.84 211.779 36.444C212.007 36.048 212.121 35.598 212.121 35.094V34.482L209.313 35.022C208.737 35.13 208.329 35.304 208.089 35.544C207.861 35.772 207.747 36.066 207.747 36.426C207.747 36.834 207.885 37.152 208.161 37.38C208.449 37.596 208.845 37.704 209.349 37.704ZM218.235 39C217.611 39 217.107 38.838 216.723 38.514C216.339 38.19 216.147 37.674 216.147 36.966V26.22H218.055V36.786C218.055 37.002 218.109 37.164 218.217 37.272C218.337 37.38 218.505 37.434 218.721 37.434H219.477V39H218.235ZM228.844 39C227.932 39 227.26 38.79 226.828 38.37C226.396 37.95 226.18 37.296 226.18 36.408V27.174H228.088V36.264C228.088 36.708 228.184 37.014 228.376 37.182C228.568 37.35 228.862 37.434 229.258 37.434H230.626V39H228.844ZM224.722 30.99V29.424H230.626V30.99H224.722ZM236.017 39.216C235.105 39.216 234.307 39.012 233.623 38.604C232.939 38.196 232.411 37.614 232.039 36.858C231.667 36.102 231.481 35.22 231.481 34.212C231.481 33.192 231.667 32.31 232.039 31.566C232.411 30.822 232.939 30.246 233.623 29.838C234.307 29.418 235.105 29.208 236.017 29.208C236.929 29.208 237.727 29.418 238.411 29.838C239.095 30.246 239.623 30.822 239.995 31.566C240.367 32.31 240.553 33.192 240.553 34.212C240.553 35.22 240.367 36.102 239.995 36.858C239.623 37.614 239.095 38.196 238.411 38.604C237.727 39.012 236.929 39.216 236.017 39.216ZM236.017 37.56C236.833 37.56 237.463 37.266 237.907 36.678C238.351 36.078 238.573 35.256 238.573 34.212C238.573 33.168 238.351 32.352 237.907 31.764C237.463 31.164 236.833 30.864 236.017 30.864C235.213 30.864 234.583 31.164 234.127 31.764C233.683 32.352 233.461 33.168 233.461 34.212C233.461 35.256 233.683 36.078 234.127 36.678C234.583 37.266 235.213 37.56 236.017 37.56ZM245.612 39L250.22 26.22H252.686L257.294 39H255.224L254.054 35.67H248.834L247.682 39H245.612ZM249.446 33.906H253.46L251.444 28.074L249.446 33.906ZM258.444 41.7V29.424H260.244L260.298 31.476L260.082 31.368C260.322 30.66 260.718 30.126 261.27 29.766C261.822 29.394 262.458 29.208 263.178 29.208C264.114 29.208 264.882 29.442 265.482 29.91C266.094 30.366 266.544 30.972 266.832 31.728C267.132 32.484 267.282 33.312 267.282 34.212C267.282 35.112 267.132 35.94 266.832 36.696C266.544 37.452 266.094 38.064 265.482 38.532C264.882 38.988 264.114 39.216 263.178 39.216C262.698 39.216 262.248 39.132 261.828 38.964C261.408 38.796 261.048 38.562 260.748 38.262C260.46 37.95 260.256 37.584 260.136 37.164L260.352 36.948V41.7H258.444ZM262.836 37.56C263.604 37.56 264.204 37.266 264.636 36.678C265.08 36.09 265.302 35.268 265.302 34.212C265.302 33.156 265.08 32.334 264.636 31.746C264.204 31.158 263.604 30.864 262.836 30.864C262.332 30.864 261.894 30.99 261.522 31.242C261.15 31.482 260.862 31.854 260.658 32.358C260.454 32.862 260.352 33.48 260.352 34.212C260.352 34.944 260.448 35.562 260.64 36.066C260.844 36.57 261.132 36.948 261.504 37.2C261.888 37.44 262.332 37.56 262.836 37.56ZM269.004 41.7V29.424H270.804L270.858 31.476L270.642 31.368C270.882 30.66 271.278 30.126 271.83 29.766C272.382 29.394 273.018 29.208 273.738 29.208C274.674 29.208 275.442 29.442 276.042 29.91C276.654 30.366 277.104 30.972 277.392 31.728C277.692 32.484 277.842 33.312 277.842 34.212C277.842 35.112 277.692 35.94 277.392 36.696C277.104 37.452 276.654 38.064 276.042 38.532C275.442 38.988 274.674 39.216 273.738 39.216C273.258 39.216 272.808 39.132 272.388 38.964C271.968 38.796 271.608 38.562 271.308 38.262C271.02 37.95 270.816 37.584 270.696 37.164L270.912 36.948V41.7H269.004ZM273.396 37.56C274.164 37.56 274.764 37.266 275.196 36.678C275.64 36.09 275.862 35.268 275.862 34.212C275.862 33.156 275.64 32.334 275.196 31.746C274.764 31.158 274.164 30.864 273.396 30.864C272.892 30.864 272.454 30.99 272.082 31.242C271.71 31.482 271.422 31.854 271.218 32.358C271.014 32.862 270.912 33.48 270.912 34.212C270.912 34.944 271.008 35.562 271.2 36.066C271.404 36.57 271.692 36.948 272.064 37.2C272.448 37.44 272.892 37.56 273.396 37.56ZM283.505 39.216C282.593 39.216 281.795 39.012 281.111 38.604C280.427 38.196 279.899 37.614 279.527 36.858C279.155 36.102 278.969 35.22 278.969 34.212C278.969 33.192 279.155 32.31 279.527 31.566C279.899 30.822 280.427 30.246 281.111 29.838C281.795 29.418 282.593 29.208 283.505 29.208C284.417 29.208 285.215 29.418 285.899 29.838C286.583 30.246 287.111 30.822 287.483 31.566C287.855 32.31 288.041 33.192 288.041 34.212C288.041 35.22 287.855 36.102 287.483 36.858C287.111 37.614 286.583 38.196 285.899 38.604C285.215 39.012 284.417 39.216 283.505 39.216ZM283.505 37.56C284.321 37.56 284.951 37.266 285.395 36.678C285.839 36.078 286.061 35.256 286.061 34.212C286.061 33.168 285.839 32.352 285.395 31.764C284.951 31.164 284.321 30.864 283.505 30.864C282.701 30.864 282.071 31.164 281.615 31.764C281.171 32.352 280.949 33.168 280.949 34.212C280.949 35.256 281.171 36.078 281.615 36.678C282.071 37.266 282.701 37.56 283.505 37.56ZM289.754 39V29.424H291.662V39H289.754ZM289.718 28.038V26.13H291.698V28.038H289.718ZM294.301 39V29.424H296.047L296.119 31.98L295.885 31.854C295.993 31.23 296.197 30.726 296.497 30.342C296.797 29.958 297.163 29.676 297.595 29.496C298.027 29.304 298.495 29.208 298.999 29.208C299.719 29.208 300.313 29.37 300.781 29.694C301.261 30.006 301.621 30.438 301.861 30.99C302.113 31.53 302.239 32.148 302.239 32.844V39H300.331V33.42C300.331 32.856 300.271 32.382 300.151 31.998C300.031 31.614 299.833 31.32 299.557 31.116C299.281 30.912 298.921 30.81 298.477 30.81C297.805 30.81 297.259 31.032 296.839 31.476C296.419 31.92 296.209 32.568 296.209 33.42V39H294.301ZM307.706 39C306.794 39 306.122 38.79 305.69 38.37C305.258 37.95 305.042 37.296 305.042 36.408V27.174H306.95V36.264C306.95 36.708 307.046 37.014 307.238 37.182C307.43 37.35 307.724 37.434 308.12 37.434H309.488V39H307.706ZM303.584 30.99V29.424H309.488V30.99H303.584ZM311.289 39V29.424H313.035L313.089 31.8L312.873 31.728C312.981 31.2 313.167 30.75 313.431 30.378C313.707 30.006 314.043 29.718 314.439 29.514C314.835 29.31 315.267 29.208 315.735 29.208C316.551 29.208 317.217 29.442 317.733 29.91C318.249 30.366 318.573 30.996 318.705 31.8H318.399C318.507 31.236 318.687 30.768 318.939 30.396C319.203 30.012 319.539 29.718 319.947 29.514C320.355 29.31 320.817 29.208 321.333 29.208C322.005 29.208 322.575 29.352 323.043 29.64C323.523 29.916 323.883 30.324 324.123 30.864C324.375 31.404 324.501 32.064 324.501 32.844V39H322.593V33.312C322.593 32.484 322.443 31.86 322.143 31.44C321.843 31.02 321.387 30.81 320.775 30.81C320.379 30.81 320.031 30.912 319.731 31.116C319.431 31.32 319.197 31.614 319.029 31.998C318.873 32.382 318.795 32.844 318.795 33.384V39H316.977V33.384C316.977 32.568 316.839 31.938 316.563 31.494C316.299 31.038 315.843 30.81 315.195 30.81C314.787 30.81 314.433 30.912 314.133 31.116C313.845 31.32 313.617 31.62 313.449 32.016C313.281 32.4 313.197 32.856 313.197 33.384V39H311.289ZM330.73 39.216C329.794 39.216 328.984 39.012 328.3 38.604C327.628 38.196 327.106 37.614 326.734 36.858C326.374 36.102 326.194 35.22 326.194 34.212C326.194 33.204 326.374 32.328 326.734 31.584C327.106 30.828 327.628 30.246 328.3 29.838C328.972 29.418 329.764 29.208 330.676 29.208C331.54 29.208 332.302 29.412 332.962 29.82C333.622 30.216 334.132 30.792 334.492 31.548C334.864 32.304 335.05 33.216 335.05 34.284V34.77H328.174C328.222 35.706 328.468 36.408 328.912 36.876C329.368 37.344 329.98 37.578 330.748 37.578C331.312 37.578 331.78 37.446 332.152 37.182C332.524 36.918 332.782 36.564 332.926 36.12L334.906 36.246C334.654 37.134 334.156 37.854 333.412 38.406C332.68 38.946 331.786 39.216 330.73 39.216ZM328.174 33.33H333.034C332.974 32.478 332.728 31.848 332.296 31.44C331.876 31.032 331.336 30.828 330.676 30.828C329.992 30.828 329.428 31.044 328.984 31.476C328.552 31.896 328.282 32.514 328.174 33.33ZM336.767 39V29.424H338.513L338.585 31.98L338.351 31.854C338.459 31.23 338.663 30.726 338.963 30.342C339.263 29.958 339.629 29.676 340.061 29.496C340.493 29.304 340.961 29.208 341.465 29.208C342.185 29.208 342.779 29.37 343.247 29.694C343.727 30.006 344.087 30.438 344.327 30.99C344.579 31.53 344.705 32.148 344.705 32.844V39H342.797V33.42C342.797 32.856 342.737 32.382 342.617 31.998C342.497 31.614 342.299 31.32 342.023 31.116C341.747 30.912 341.387 30.81 340.943 30.81C340.271 30.81 339.725 31.032 339.305 31.476C338.885 31.92 338.675 32.568 338.675 33.42V39H336.767ZM350.173 39C349.261 39 348.589 38.79 348.157 38.37C347.725 37.95 347.509 37.296 347.509 36.408V27.174H349.417V36.264C349.417 36.708 349.513 37.014 349.705 37.182C349.897 37.35 350.191 37.434 350.587 37.434H351.955V39H350.173ZM346.051 30.99V29.424H351.955V30.99H346.051Z" fill="black"/>
<path d="M158.688 66.256C157.984 66.256 157.36 66.0907 156.816 65.76C156.272 65.4187 155.845 64.9493 155.536 64.352C155.237 63.7547 155.083 63.0667 155.072 62.288L156.48 62.192C156.491 63.0667 156.688 63.7387 157.072 64.208C157.456 64.6773 157.995 64.912 158.688 64.912C159.413 64.912 159.968 64.6613 160.352 64.16C160.747 63.6587 160.944 62.9493 160.944 62.032V54.64H162.32V62.032C162.32 62.896 162.171 63.648 161.872 64.288C161.573 64.9173 161.152 65.4027 160.608 65.744C160.075 66.0853 159.435 66.256 158.688 66.256ZM166.923 66.192C166.048 66.192 165.35 65.9893 164.827 65.584C164.315 65.1787 164.059 64.6133 164.059 63.888C164.059 63.1627 164.272 62.592 164.699 62.176C165.126 61.76 165.803 61.4667 166.731 61.296L169.739 60.736C169.739 60.0213 169.568 59.488 169.227 59.136C168.896 58.784 168.395 58.608 167.723 58.608C167.136 58.608 166.672 58.7413 166.331 59.008C165.99 59.264 165.755 59.6373 165.627 60.128L164.203 60.016C164.363 59.216 164.747 58.5707 165.355 58.08C165.974 57.5787 166.763 57.328 167.723 57.328C168.811 57.328 169.643 57.6373 170.219 58.256C170.795 58.864 171.083 59.7067 171.083 60.784V64.288C171.083 64.48 171.115 64.6187 171.179 64.704C171.254 64.7787 171.371 64.816 171.531 64.816H171.867V66C171.824 66.0107 171.755 66.016 171.659 66.016C171.563 66.0267 171.462 66.032 171.355 66.032C170.971 66.032 170.656 65.9733 170.411 65.856C170.176 65.728 170.006 65.536 169.899 65.28C169.792 65.0133 169.739 64.6667 169.739 64.24L169.899 64.272C169.824 64.6347 169.643 64.9653 169.355 65.264C169.067 65.552 168.71 65.7813 168.283 65.952C167.856 66.112 167.403 66.192 166.923 66.192ZM167.051 65.008C167.616 65.008 168.096 64.9013 168.491 64.688C168.896 64.464 169.206 64.1653 169.419 63.792C169.632 63.408 169.739 62.9813 169.739 62.512V61.904L166.987 62.416C166.411 62.5227 166.011 62.688 165.787 62.912C165.574 63.1253 165.467 63.408 165.467 63.76C165.467 64.1547 165.606 64.464 165.883 64.688C166.171 64.9013 166.56 65.008 167.051 65.008ZM173.193 66V57.52H174.425L174.473 59.68L174.313 59.536C174.42 59.0347 174.606 58.624 174.873 58.304C175.14 57.9733 175.46 57.728 175.833 57.568C176.217 57.408 176.628 57.328 177.065 57.328C177.716 57.328 178.249 57.472 178.665 57.76C179.092 58.048 179.406 58.4373 179.609 58.928C179.822 59.408 179.929 59.9467 179.929 60.544V66H178.585V60.928C178.585 60.4053 178.521 59.968 178.393 59.616C178.276 59.2533 178.084 58.9813 177.817 58.8C177.55 58.608 177.204 58.512 176.777 58.512C176.126 58.512 175.588 58.72 175.161 59.136C174.745 59.5413 174.537 60.1387 174.537 60.928V66H173.193ZM189.642 66.256C188.383 66.256 187.412 65.9627 186.73 65.376C186.047 64.7787 185.679 64.0107 185.626 63.072L187.05 62.976C187.114 63.6693 187.38 64.1653 187.85 64.464C188.33 64.7627 188.927 64.912 189.642 64.912C190.132 64.912 190.586 64.848 191.002 64.72C191.418 64.5813 191.754 64.3627 192.01 64.064C192.266 63.7547 192.394 63.344 192.394 62.832C192.394 62.0747 192.143 61.52 191.642 61.168C191.14 60.816 190.479 60.64 189.658 60.64H188.762V59.296H189.658C190.33 59.296 190.884 59.1627 191.322 58.896C191.77 58.6293 191.994 58.1707 191.994 57.52C191.994 56.9333 191.802 56.4907 191.418 56.192C191.044 55.8827 190.479 55.728 189.722 55.728C188.975 55.728 188.41 55.872 188.026 56.16C187.652 56.448 187.428 56.8427 187.354 57.344L185.914 57.248C186.02 56.3947 186.399 55.7067 187.05 55.184C187.7 54.6507 188.591 54.384 189.722 54.384C190.49 54.384 191.151 54.512 191.706 54.768C192.26 55.0133 192.687 55.3653 192.986 55.824C193.284 56.2827 193.434 56.8267 193.434 57.456C193.434 58.16 193.21 58.7307 192.762 59.168C192.324 59.5947 191.674 59.888 190.81 60.048V59.76C191.738 59.8667 192.474 60.1973 193.018 60.752C193.562 61.3067 193.834 62 193.834 62.832C193.834 63.5573 193.652 64.176 193.29 64.688C192.938 65.2 192.447 65.5893 191.818 65.856C191.188 66.1227 190.463 66.256 189.642 66.256ZM197.454 66V57.584H195.086V56.4H196.046C196.462 56.4 196.793 56.3467 197.038 56.24C197.294 56.1333 197.476 55.952 197.582 55.696C197.689 55.44 197.742 55.088 197.742 54.64H198.83V66H197.454ZM204.907 61.968V60.704H210.203V61.968H204.907ZM219.898 66.256C219.023 66.256 218.261 66.0907 217.61 65.76C216.959 65.4293 216.442 64.976 216.058 64.4C215.685 63.8133 215.466 63.136 215.402 62.368L216.842 62.272C216.917 62.8373 217.082 63.3173 217.338 63.712C217.594 64.1067 217.935 64.4053 218.362 64.608C218.799 64.8107 219.322 64.912 219.93 64.912C220.463 64.912 220.917 64.8427 221.29 64.704C221.663 64.5653 221.946 64.3627 222.138 64.096C222.341 63.8293 222.442 63.504 222.442 63.12C222.442 62.768 222.357 62.4587 222.186 62.192C222.026 61.9147 221.711 61.664 221.242 61.44C220.783 61.2053 220.101 60.976 219.194 60.752C218.319 60.528 217.621 60.2827 217.098 60.016C216.586 59.7493 216.213 59.424 215.978 59.04C215.754 58.656 215.642 58.1813 215.642 57.616C215.642 56.976 215.791 56.416 216.09 55.936C216.399 55.4453 216.837 55.0667 217.402 54.8C217.967 54.5227 218.639 54.384 219.418 54.384C220.25 54.384 220.965 54.544 221.562 54.864C222.159 55.1733 222.634 55.6 222.986 56.144C223.338 56.688 223.557 57.3067 223.642 58L222.202 58.096C222.138 57.6373 221.989 57.232 221.754 56.88C221.53 56.5173 221.221 56.2347 220.826 56.032C220.431 55.8293 219.951 55.728 219.386 55.728C218.682 55.728 218.122 55.8987 217.706 56.24C217.29 56.5707 217.082 57.008 217.082 57.552C217.082 57.904 217.162 58.1973 217.322 58.432C217.493 58.656 217.791 58.8587 218.218 59.04C218.645 59.2107 219.258 59.3973 220.058 59.6C221.007 59.8347 221.759 60.1173 222.314 60.448C222.879 60.768 223.279 61.1413 223.514 61.568C223.759 61.9947 223.882 62.48 223.882 63.024C223.882 63.6853 223.711 64.2613 223.37 64.752C223.029 65.232 222.559 65.6053 221.962 65.872C221.365 66.128 220.677 66.256 219.898 66.256ZM229.375 66.192C228.575 66.192 227.882 66.0107 227.295 65.648C226.719 65.2853 226.271 64.7733 225.951 64.112C225.642 63.44 225.487 62.656 225.487 61.76C225.487 60.864 225.642 60.0853 225.951 59.424C226.271 58.7627 226.714 58.2507 227.279 57.888C227.855 57.5147 228.532 57.328 229.311 57.328C230.047 57.328 230.698 57.504 231.263 57.856C231.828 58.1973 232.266 58.6987 232.575 59.36C232.895 60.0213 233.055 60.8267 233.055 61.776V62.176H226.895C226.948 63.0827 227.188 63.7653 227.615 64.224C228.052 64.6827 228.639 64.912 229.375 64.912C229.93 64.912 230.383 64.784 230.735 64.528C231.098 64.2613 231.348 63.9147 231.487 63.488L232.927 63.6C232.703 64.3573 232.276 64.9813 231.647 65.472C231.028 65.952 230.271 66.192 229.375 66.192ZM226.895 60.992H231.583C231.519 60.1707 231.279 59.568 230.863 59.184C230.458 58.8 229.94 58.608 229.311 58.608C228.66 58.608 228.122 58.8107 227.695 59.216C227.279 59.6107 227.012 60.2027 226.895 60.992ZM234.684 68.4V57.52H235.932L235.964 59.344L235.772 59.248C235.985 58.6187 236.337 58.144 236.828 57.824C237.329 57.4933 237.905 57.328 238.556 57.328C239.398 57.328 240.086 57.536 240.62 57.952C241.164 58.368 241.564 58.912 241.82 59.584C242.086 60.256 242.22 60.9813 242.22 61.76C242.22 62.5387 242.086 63.264 241.82 63.936C241.564 64.608 241.164 65.152 240.62 65.568C240.086 65.984 239.398 66.192 238.556 66.192C238.118 66.192 237.708 66.1173 237.324 65.968C236.95 65.8187 236.63 65.6107 236.364 65.344C236.108 65.0773 235.932 64.7627 235.836 64.4L236.028 64.176V68.4H234.684ZM238.428 64.912C239.164 64.912 239.745 64.6347 240.172 64.08C240.598 63.5253 240.812 62.752 240.812 61.76C240.812 60.768 240.598 59.9947 240.172 59.44C239.745 58.8853 239.164 58.608 238.428 58.608C237.937 58.608 237.51 58.7253 237.148 58.96C236.796 59.1947 236.518 59.5467 236.316 60.016C236.124 60.4853 236.028 61.0667 236.028 61.76C236.028 62.4533 236.124 63.0347 236.316 63.504C236.508 63.9733 236.785 64.3253 237.148 64.56C237.51 64.7947 237.937 64.912 238.428 64.912ZM251.351 66.256C250.093 66.256 249.122 65.9627 248.439 65.376C247.757 64.7787 247.389 64.0107 247.335 63.072L248.759 62.976C248.823 63.6693 249.09 64.1653 249.559 64.464C250.039 64.7627 250.637 64.912 251.351 64.912C251.842 64.912 252.295 64.848 252.711 64.72C253.127 64.5813 253.463 64.3627 253.719 64.064C253.975 63.7547 254.103 63.344 254.103 62.832C254.103 62.0747 253.853 61.52 253.351 61.168C252.85 60.816 252.189 60.64 251.367 60.64H250.471V59.296H251.367C252.039 59.296 252.594 59.1627 253.031 58.896C253.479 58.6293 253.703 58.1707 253.703 57.52C253.703 56.9333 253.511 56.4907 253.127 56.192C252.754 55.8827 252.189 55.728 251.431 55.728C250.685 55.728 250.119 55.872 249.735 56.16C249.362 56.448 249.138 56.8427 249.063 57.344L247.623 57.248C247.73 56.3947 248.109 55.7067 248.759 55.184C249.41 54.6507 250.301 54.384 251.431 54.384C252.199 54.384 252.861 54.512 253.415 54.768C253.97 55.0133 254.397 55.3653 254.695 55.824C254.994 56.2827 255.143 56.8267 255.143 57.456C255.143 58.16 254.919 58.7307 254.471 59.168C254.034 59.5947 253.383 59.888 252.519 60.048V59.76C253.447 59.8667 254.183 60.1973 254.727 60.752C255.271 61.3067 255.543 62 255.543 62.832C255.543 63.5573 255.362 64.176 254.999 64.688C254.647 65.2 254.157 65.5893 253.527 65.856C252.898 66.1227 252.173 66.256 251.351 66.256ZM261.452 66.256C260.534 66.256 259.74 66.016 259.068 65.536C258.396 65.056 257.873 64.3733 257.5 63.488C257.137 62.6027 256.956 61.552 256.956 60.336C256.956 59.12 257.137 58.0693 257.5 57.184C257.873 56.288 258.396 55.6 259.068 55.12C259.74 54.6293 260.534 54.384 261.452 54.384C262.38 54.384 263.18 54.6293 263.852 55.12C264.524 55.6 265.041 56.2827 265.404 57.168C265.777 58.0533 265.964 59.1093 265.964 60.336C265.964 61.552 265.777 62.6027 265.404 63.488C265.041 64.3733 264.524 65.056 263.852 65.536C263.18 66.016 262.38 66.256 261.452 66.256ZM261.452 64.912C262.433 64.912 263.19 64.5173 263.724 63.728C264.257 62.928 264.524 61.7973 264.524 60.336C264.524 59.3547 264.401 58.5227 264.156 57.84C263.921 57.1467 263.574 56.624 263.116 56.272C262.668 55.9093 262.113 55.728 261.452 55.728C260.801 55.728 260.246 55.9093 259.788 56.272C259.34 56.624 258.993 57.1467 258.748 57.84C258.513 58.5227 258.396 59.3547 258.396 60.336C258.396 61.7973 258.662 62.928 259.196 63.728C259.729 64.5173 260.481 64.912 261.452 64.912Z" fill="black" fill-opacity="0.4"/>
<rect x="20" y="205" width="381" height="1" fill="#D9D9D9"/>
<rect x="20" y="184" width="381" height="1" fill="#D9D9D9"/>
<rect x="20" y="163" width="381" height="1" fill="#D9D9D9"/>
<rect x="20" y="142" width="381" height="1" fill="#D9D9D9"/>
<rect x="20" y="121" width="381" height="1" fill="#D9D9D9"/>
<path d="M401 205C382.128 205 375.132 184.882 358.669 183.39C343.852 183.39 339.324 193.837 326.977 193.837C314.63 193.837 307.982 175.591 302.694 172.942C289.935 163.49 272.92 173.817 264.006 172.942C242.952 170.877 241.494 150.133 224.145 150.133C206.796 150.133 200.623 159.494 185.394 156.525C170.166 153.556 164.878 136.461 152.531 138.193C135.656 140.561 136.479 151.983 117.958 142.68C94.4981 130.895 94.0865 142.68 80.916 142.68C63.2181 142.68 50.0452 111 20 111" stroke="#F48024" stroke-width="3"/>
</svg>
