<svg width="224" height="25" viewBox="0 0 224 25" fill="none" xmlns="http://www.w3.org/2000/svg">
<g clip-path="url(#clip0_846_979)">
<path d="M31.6029 16.2458C31.6029 17.6461 32.0666 18.9254 32.9133 19.8546C33.76 20.7839 34.9894 21.3631 36.5207 21.3631C37.9927 21.3631 39.2225 20.8129 40.0841 19.8982C40.946 18.9835 41.4396 17.7042 41.4396 16.2458C41.4396 14.7868 40.946 13.5073 40.0841 12.5924C39.2225 11.6775 37.9927 11.1274 36.5207 11.1274C34.9894 11.1274 33.76 11.7066 32.9133 12.6359C32.0666 13.5653 31.6029 14.8449 31.6029 16.2458ZM44.7747 24.231H42.9964H41.2182V23.2722V22.3136C40.6566 23.0221 39.9546 23.6057 39.1036 24.0121C38.2527 24.4183 37.2528 24.6476 36.0954 24.6476C33.8153 24.6476 31.7776 23.7682 30.3098 22.2782C28.8422 20.7882 27.9443 18.6878 27.9443 16.2458C27.9443 13.8032 28.8422 11.7025 30.3098 10.2124C31.7776 8.72225 33.8153 7.84277 36.0954 7.84277C37.2528 7.84277 38.2527 8.07636 39.1036 8.48708C39.9546 8.8978 40.6566 9.48566 41.2182 10.1942V9.22684V8.25945H42.9964H44.7747V16.2451V24.231Z" fill="#ADADAD"/>
<path d="M59.4155 11.4273H56.2931H53.1707V14.9034V18.3796C53.1707 19.4548 53.4598 20.2009 53.9277 20.678C54.3955 21.1552 55.042 21.3636 55.7571 21.3636C56.3097 21.3636 56.8881 21.2429 57.4497 21.0469C58.0113 20.8511 58.556 20.5801 59.0411 20.2796L59.7473 21.6716L60.4533 23.0639C59.7982 23.4973 59.058 23.8934 58.2263 24.1811C57.3946 24.4689 56.4715 24.6482 55.4502 24.6482C53.6037 24.6482 52.1403 24.1604 51.1384 23.1412C50.1367 22.1221 49.5964 20.5715 49.5964 18.4457V14.9365V11.4273H47.9715H46.3467V9.84365V8.25998H47.9715H49.5964V5.30926V2.35852H51.3836H53.1707V5.30924V8.25998H56.2931H59.4155V9.84365V11.4273Z" fill="#ADADAD"/>
<path d="M65.4461 10.1603C66.1013 9.24345 66.9309 8.66401 67.8031 8.3138C68.6751 7.96358 69.5897 7.84258 70.415 7.84258C72.355 7.84258 74.01 8.49717 75.1801 9.61849C76.3501 10.7398 77.0352 12.3278 77.0352 14.1948V19.2127V24.2307H75.248H73.4609V19.7878V15.3449C73.4609 14.0032 73.1078 12.9572 72.4569 12.2466C71.806 11.536 70.8574 11.1609 69.6661 11.1609C68.5176 11.1609 67.4626 11.5317 66.6947 12.2443C65.9269 12.9569 65.4461 14.0113 65.4461 15.3785V19.8046V24.2307H63.6597H61.873V13.2891V2.34753H63.6597H65.4461V6.25394V10.1603Z" fill="#ADADAD"/>
<path d="M83.1577 14.8789H87.3866H91.6154C91.42 13.6364 90.952 12.6528 90.25 11.9798C89.5481 11.3068 88.6122 10.9444 87.4808 10.9444C86.213 10.9444 85.2259 11.3445 84.5088 12.0364C83.7918 12.7283 83.3448 13.7119 83.1577 14.8789ZM95.2574 16.2287C95.2574 16.4539 95.2487 16.6788 95.236 16.8974C95.2232 17.116 95.2063 17.3284 95.1898 17.5287H89.1654H83.1411C83.3791 18.9625 84.013 19.9796 84.8767 20.6381C85.7404 21.2966 86.8338 21.5967 87.9914 21.5967C88.8076 21.5967 89.65 21.4382 90.4564 21.1485C91.2627 20.8588 92.0331 20.4378 92.7053 19.9125L93.5899 21.155L94.4742 22.3975C93.479 23.2309 92.42 23.7935 91.3011 24.1477C90.1822 24.502 89.0037 24.648 87.7698 24.648C85.3275 24.648 83.243 23.8143 81.769 22.3471C80.295 20.88 79.4316 18.7792 79.4316 16.2449C79.4316 13.7444 80.261 11.6439 81.6902 10.1686C83.1194 8.69331 85.1486 7.84314 87.5482 7.84314C89.8284 7.84314 91.7514 8.69331 93.1066 10.1666C94.4618 11.6399 95.249 13.7363 95.2574 16.2287Z" fill="#ADADAD"/>
<path d="M112.944 14.195V19.2129V24.2309H111.158H109.371V19.788V15.3451C109.371 14.0029 109.018 12.9565 108.367 12.2458C107.716 11.5351 106.767 11.1599 105.575 11.1599C104.427 11.1599 103.372 11.531 102.604 12.2439C101.836 12.9568 101.355 14.0116 101.355 15.3788V19.8048V24.2309H99.5688H97.7822V16.2458V8.26062H99.5523H101.322V9.23555V10.2105C101.977 9.26862 102.81 8.67669 103.689 8.32023C104.567 7.96377 105.49 7.84277 106.324 7.84277C108.264 7.84277 109.919 8.49737 111.089 9.6187C112.259 10.74 112.944 12.3281 112.944 14.195Z" fill="#ADADAD"/>
<path d="M118.934 16.2458C118.934 17.6461 119.398 18.9254 120.244 19.8546C121.091 20.7839 122.32 21.3631 123.852 21.3631C125.324 21.3631 126.554 20.8129 127.415 19.8982C128.277 18.9835 128.771 17.7042 128.771 16.2458C128.771 14.7868 128.277 13.5073 127.415 12.5924C126.553 11.6775 125.324 11.1274 123.852 11.1274C122.32 11.1274 121.091 11.7066 120.244 12.6359C119.398 13.5653 118.934 14.8449 118.934 16.2458ZM132.106 24.231H130.327H128.549V23.2722V22.3136C127.988 23.0221 127.286 23.6057 126.435 24.0121C125.584 24.4183 124.584 24.6476 123.426 24.6476C121.146 24.6476 119.109 23.7682 117.641 22.2782C116.173 20.7882 115.275 18.6878 115.275 16.2458C115.275 13.8032 116.173 11.7025 117.641 10.2124C119.109 8.72225 121.146 7.84277 123.426 7.84277C124.584 7.84277 125.584 8.07636 126.435 8.48708C127.286 8.8978 127.988 9.48566 128.549 10.1942V9.22684V8.25945H130.327H132.106V16.2451V24.231Z" fill="#ADADAD"/>
<path d="M137.707 11.2606C138.337 10.2271 139.213 9.48517 140.206 9.00162C141.2 8.51808 142.31 8.29291 143.407 8.29291C145.416 8.29291 147.101 8.90137 148.284 9.99541C149.467 11.0895 150.147 12.6691 150.147 14.6114V19.421V24.2307H149.178H148.208V19.713V15.1952C148.208 13.6115 147.739 12.3363 146.862 11.4569C145.986 10.5776 144.702 10.0942 143.067 10.0942C141.561 10.0942 140.221 10.6235 139.258 11.5382C138.294 12.4529 137.707 13.7531 137.707 15.295V19.7628V24.2307H136.737H135.768V13.2891V2.34753H136.737H137.707V6.80408V11.2606Z" fill="#ADADAD"/>
<path d="M154.878 15.4457H160.604H166.33C166.185 13.8197 165.547 12.4524 164.569 11.4917C163.591 10.531 162.271 9.97684 160.765 9.97684C159.141 9.97684 157.761 10.5479 156.743 11.517C155.724 12.4861 155.065 13.8533 154.878 15.4457ZM168.305 16.2953C168.305 16.4369 168.301 16.5744 168.294 16.7057C168.288 16.8371 168.279 16.9621 168.269 17.0788H161.556H154.844C154.988 18.9044 155.715 20.3425 156.817 21.324C157.919 22.3057 159.396 22.8308 161.038 22.8308C162.152 22.8308 163.153 22.614 164.05 22.2264C164.948 21.8388 165.743 21.2803 166.449 20.5967L166.968 21.2472L167.488 21.8978C166.475 22.9057 165.411 23.5517 164.311 23.9456C163.212 24.3394 162.077 24.4813 160.919 24.4813C158.579 24.4813 156.566 23.6558 155.14 22.2322C153.712 20.8088 152.87 18.7872 152.87 16.3951C152.87 14.0281 153.725 12.0024 155.144 10.5686C156.562 9.13478 158.545 8.29272 160.801 8.29272C162.936 8.29272 164.799 9.12229 166.134 10.5374C167.47 11.9525 168.279 13.9532 168.305 16.2953Z" fill="#ADADAD"/>
<path d="M172.027 16.3954C172.027 18.1625 172.678 19.7378 173.784 20.8713C174.891 22.0049 176.452 22.6965 178.274 22.6965C180.086 22.6965 181.642 22.0214 182.747 20.8961C183.85 19.7709 184.502 18.1957 184.502 16.3954C184.502 14.5953 183.85 13.0157 182.747 11.8861C181.642 10.7565 180.086 10.077 178.274 10.077C176.435 10.077 174.874 10.769 173.771 11.9049C172.669 13.0407 172.027 14.6203 172.027 16.3954ZM186.322 24.231H185.361H184.4V22.7221V21.2134C183.752 22.197 182.893 23.0141 181.831 23.5852C180.77 24.1564 179.506 24.4817 178.051 24.4817C175.805 24.4817 173.805 23.6271 172.367 22.189C170.93 20.7511 170.054 18.7296 170.054 16.3954C170.054 14.0614 170.93 12.0359 172.367 10.5938C173.805 9.15167 175.805 8.29309 178.051 8.29309C179.506 8.29309 180.77 8.62213 181.831 9.1952C182.893 9.76826 183.752 10.5854 184.4 11.5615V10.052V8.54262H185.361H186.322V16.3868V24.231Z" fill="#ADADAD"/>
<path d="M192.229 24.231H191.258H190.288V13.2893V2.34766H191.258H192.229V13.2893V24.231Z" fill="#ADADAD"/>
<path d="M207.109 10.277H203.416H199.723V14.5534V18.8298C199.723 20.1547 200.08 21.1215 200.704 21.757C201.328 22.3926 202.217 22.6971 203.282 22.6971C203.971 22.6971 204.63 22.5804 205.234 22.372C205.838 22.1637 206.386 21.8637 206.854 21.4969L207.314 22.2055L207.773 22.914C207.203 23.3807 206.522 23.7723 205.744 24.0475C204.964 24.3225 204.088 24.4809 203.127 24.4809C201.46 24.4809 200.123 24.0265 199.204 23.097C198.285 22.1675 197.784 20.7629 197.784 18.8623V14.5697V10.277H195.946H194.107V9.41003V8.54305H195.946H197.784V5.45078V2.35852H198.753H199.723V5.45078V8.54305H203.416H207.109V9.41003V10.277Z" fill="#ADADAD"/>
<path d="M211.561 11.2606C212.19 10.2271 213.067 9.48517 214.06 9.00162C215.053 8.51808 216.164 8.29291 217.262 8.29291C219.269 8.29291 220.955 8.90137 222.137 9.99541C223.32 11.0895 224 12.6691 224 14.6114V19.421V24.2307H223.03H222.059V19.713V15.1952C222.059 13.6115 221.591 12.3363 220.715 11.4569C219.84 10.5776 218.555 10.0942 216.921 10.0942C215.416 10.0942 214.075 10.6235 213.112 11.5382C212.148 12.4529 211.561 13.7531 211.561 15.295V19.7628V24.2307H210.59H209.62V13.2891V2.34753H210.59H211.561V6.80408V11.2606Z" fill="#ADADAD"/>
<path d="M13.5986 7.72354C13.5986 8.15141 13.7757 8.53864 14.0619 8.81889C14.348 9.09914 14.7433 9.27241 15.1797 9.27241C15.6159 9.27241 16.0115 9.09914 16.2978 8.81889C16.5844 8.53864 16.7616 8.15141 16.7616 7.72354C16.7616 7.29611 16.5844 6.90864 16.2978 6.62804C16.0115 6.34744 15.6159 6.17371 15.1797 6.17371C14.7433 6.17371 14.348 6.34744 14.0619 6.62804C13.7757 6.90864 13.5986 7.29611 13.5986 7.72354Z" fill="#ADADAD"/>
<path d="M7.41406 6.17366C7.41406 7.30693 7.64551 8.38704 8.06443 9.3715C8.48335 10.3559 9.08974 11.2447 9.83964 11.9954C10.5895 11.2447 11.1959 10.3559 11.6149 9.3715C12.0338 8.38704 12.2652 7.30693 12.2652 6.17366C12.2652 5.04036 12.0338 3.96025 11.6149 2.97581C11.1959 1.99135 10.5895 1.10257 9.83964 0.351929C9.08974 1.10257 8.48335 1.99135 8.06443 2.97581C7.64551 3.96025 7.41406 5.04036 7.41406 6.17366Z" fill="#ADADAD"/>
<path d="M13.2032 13.9264C12.0245 15.4991 11.2225 17.2291 10.7801 19.0135C10.3378 20.7978 10.2552 22.6366 10.5154 24.427C12.3371 24.1338 14.1033 23.5057 15.7087 22.5578C17.3141 21.6099 18.7588 20.342 19.9375 18.7692C21.1161 17.1966 21.9182 15.4666 22.3606 13.6821C22.803 11.8978 22.8855 10.059 22.6252 8.26868C20.8035 8.56177 19.0373 9.18984 17.4319 10.1378C15.8265 11.0858 14.3818 12.3537 13.2032 13.9264Z" fill="#ADADAD"/>
<path d="M7.18717 11.2975C6.30176 10.0931 5.21663 9.11531 4.01083 8.37711C2.80502 7.63891 1.47853 7.14024 0.110361 6.89392C-0.0849007 8.24325 -0.0226413 9.63384 0.309788 10.9882C0.642215 12.3426 1.24481 13.6607 2.13021 14.8653C2.9236 15.9446 3.87748 16.8411 4.93486 17.5464C5.99226 18.2518 7.15314 18.7658 8.36053 19.08V21.5283V23.9767C8.36053 24.1008 8.41208 24.2133 8.49543 24.2949C8.57879 24.3765 8.69394 24.4269 8.82112 24.4269C8.94784 24.4269 9.06276 24.3765 9.14599 24.2949C9.22923 24.2133 9.28079 24.1008 9.28079 23.9767V21.3589V18.741C9.28124 18.7201 9.28124 18.6972 9.28113 18.6729C9.28102 18.6485 9.28079 18.6226 9.28079 18.596C9.38146 17.3476 9.26361 16.0756 8.91826 14.8393C8.57292 13.6029 7.99935 12.4024 7.18717 11.2975Z" fill="#ADADAD"/>
</g>
<defs>
<clipPath id="clip0_846_979">
<rect width="224" height="25" fill="white"/>
</clipPath>
</defs>
</svg>
