<svg width="159" height="40" viewBox="0 0 159 40" fill="none" xmlns="http://www.w3.org/2000/svg">
<path d="M9.71435 24.9554L12.0316 25.2257C11.6752 26.3963 10.8731 27.4775 9.71435 28.4685C8.55585 29.5499 7.12995 29.9999 5.43676 29.9999C4.45608 29.9999 3.47584 29.8194 2.67365 29.2795C1.78265 28.8291 1.1585 28.1083 0.712839 27.2073C0.267509 26.3062 0 25.2256 0 24.0539C0 22.5222 0.356309 21.0809 1.06926 19.6394C1.78265 18.1983 2.67365 17.1174 3.83237 16.3965C4.90174 15.6757 6.14971 15.3154 7.39734 15.3154C9.09075 15.3154 10.3385 15.8558 11.408 16.9365C12.3882 17.9279 12.8339 19.369 12.8339 21.1711C12.8339 21.8921 12.7449 22.5222 12.6556 23.2431H2.40647V24.054C2.40647 25.3147 2.67365 26.3062 3.29746 27.0269C3.92161 27.7479 4.63445 28.1083 5.43676 28.1083C6.32764 28.1083 7.0407 27.8381 7.84279 27.2975C8.64487 26.7568 9.2688 25.9455 9.71435 24.9554ZM2.85191 21.4408H10.6057V20.9013C10.6057 19.7298 10.3385 18.8287 9.71435 18.1083C9.17989 17.4777 8.37769 17.2073 7.48637 17.2073C6.417 17.2073 5.52556 17.5677 4.7237 18.2886C3.83237 18.9188 3.20855 19.9997 2.85191 21.4408Z" fill="#ADADAD"/>
<path d="M27.628 22.8823L30.2124 23.1541C29.4104 25.4059 28.2516 27.117 26.6477 28.2888C25.1328 29.46 23.4391 29.9999 21.5677 29.9999C19.2506 29.9999 17.3789 29.2796 16.042 27.8381C14.7054 26.4863 13.9922 24.4148 13.9922 21.7117C13.9922 18.1984 14.9726 15.3155 17.1114 13.0631C18.8939 10.9908 21.2113 10 23.9742 10C26.0239 10 27.6282 10.5404 28.8759 11.6214C30.1234 12.7926 30.8366 14.2341 31.1041 16.1261L28.6976 16.3065C28.4302 14.9548 27.8953 13.8736 27.0932 13.1531C26.2915 12.5225 25.311 12.1621 24.0634 12.1621C21.7462 12.1621 19.7854 13.2432 18.3595 15.3155C17.1114 17.1175 16.4878 19.2799 16.4878 21.802C16.4878 23.784 16.9336 25.2257 17.9136 26.3062C18.8938 27.387 20.1418 27.8381 21.7461 27.8381C22.9935 27.8381 24.2412 27.4774 25.3109 26.5765C26.3802 25.676 27.1825 24.5042 27.628 22.8823Z" fill="#ADADAD"/>
<path d="M30.4795 29.7304L34.4898 10.3606H36.8072L32.7969 29.7304H30.4795ZM35.4706 29.7304L38.3225 15.6753H40.7287L37.7878 29.7304H35.4706ZM38.8572 13.0632L39.3919 10.3606H41.7983L41.2634 13.0632H38.8572ZM40.3726 29.7304L43.3135 15.6753H45.4524L45.0066 18.1083C45.8981 17.2073 46.7891 16.4862 47.5912 16.0359C48.3933 15.5855 49.2847 15.3155 50.0865 15.3155C51.2453 15.3155 52.1363 15.6753 52.7601 16.3066C53.3844 16.9366 53.7408 17.7476 53.7408 18.8287C53.7408 19.3691 53.5623 20.18 53.3844 21.2616L51.5129 29.7305H49.1064L51.0669 20.8109C51.2453 19.9103 51.3346 19.28 51.3346 18.9189C51.3346 18.4686 51.1563 18.0183 50.8887 17.7477C50.5325 17.4779 50.0866 17.2974 49.4627 17.2974C48.2152 17.2974 47.1454 17.7477 46.1654 18.6489C45.1852 19.5493 44.4721 21.081 44.0267 23.1541L42.7787 29.7304H40.3726ZM54.0974 29.7304L56.9492 15.6753H59.3555L56.4141 29.7304H54.0974ZM57.4839 13.0632L58.0186 10.3606H60.425L59.8903 13.0632H57.4839Z" fill="#ADADAD"/>
<path d="M68.5354 24.5953L70.8524 24.8651C70.2284 26.5766 69.4262 27.928 68.3569 28.739C67.1983 29.6393 65.9507 29.9999 64.525 29.9999C63.0983 29.9999 61.8511 29.5498 60.8706 28.5587C59.9797 27.5674 59.4443 26.2161 59.4443 24.4147C59.4443 22.8822 59.8011 21.3515 60.425 19.91C60.9597 18.3783 61.851 17.2972 63.0096 16.4862C64.0791 15.7655 65.4159 15.3154 66.8416 15.3154C68.3569 15.3154 69.5154 15.7655 70.407 16.6666C71.2092 17.4776 71.6542 18.5584 71.6542 19.9994L69.3375 20.2701C69.3375 19.2798 69.07 18.6486 68.6244 18.1081C68.09 17.5676 67.4659 17.2971 66.5744 17.2971C65.5944 17.2971 64.7922 17.6574 64.0791 18.1983C63.3662 18.8286 62.8314 19.7296 62.4751 20.991C62.0291 22.2517 61.851 23.4235 61.851 24.595C61.851 25.7661 62.1182 26.667 62.6533 27.2974C63.1876 27.9278 63.8119 28.1979 64.6136 28.1979C65.4159 28.1979 66.1291 27.9278 66.8416 27.2974C67.5546 26.7568 68.0899 25.7663 68.5354 24.5953Z" fill="#ADADAD"/>
<path d="M80.5671 27.928C79.7651 28.649 78.963 29.1889 78.161 29.5499C77.4482 29.9109 76.646 30 75.7546 30C74.5069 30 73.4374 29.6394 72.6352 28.9195C71.9227 28.1084 71.4766 27.1172 71.4766 25.9455C71.4766 25.2257 71.6545 24.5043 72.0112 23.8739C72.3676 23.2432 72.9028 22.7928 73.4373 22.4319C74.0613 22.0725 74.7743 21.802 75.5766 21.6215C76.1108 21.5319 77.0913 21.4407 78.6066 21.3516C80.1215 21.3516 81.1914 21.1712 81.8153 20.9012C81.9933 20.2702 82.0824 19.7297 82.0824 19.2799C82.0824 18.7384 81.9039 18.2886 81.4583 18.018C80.9233 17.5677 80.1215 17.2972 79.0517 17.2972C78.0715 17.2972 77.2692 17.5677 76.6458 18.018C75.9329 18.4683 75.4868 19.0997 75.2197 19.91L72.8134 19.6394C73.3482 18.2885 74.1503 17.2072 75.1306 16.4862C76.1999 15.6757 77.5374 15.3154 79.1409 15.3154C80.9233 15.3154 82.2608 15.7655 83.2414 16.5764C84.0432 17.2072 84.3995 18.0179 84.3995 19.0093C84.3995 19.7296 84.3102 20.6301 84.0432 21.6214L83.3295 25.1346C83.063 26.2161 82.8841 27.117 82.8841 27.838C82.8841 28.2887 83.0629 28.9194 83.2414 29.7302H80.8344C80.7456 29.2796 80.5671 28.649 80.5671 27.928ZM81.4584 22.6125C81.1018 22.7027 80.7456 22.8823 80.3891 22.8823C80.0324 22.9736 79.3197 23.0628 78.5174 23.1541C77.0914 23.2432 76.1108 23.4236 75.5766 23.6037C74.9526 23.784 74.5067 24.1442 74.239 24.5043C73.9719 24.9554 73.794 25.4059 73.794 25.8563C73.794 26.5766 74.0612 27.1171 74.5066 27.5675C74.9525 28.0183 75.6656 28.1982 76.4675 28.1982C77.2692 28.1982 77.9822 28.0182 78.6953 27.5675C79.4975 27.1171 80.0323 26.5766 80.4777 25.8563C80.9234 25.0457 81.1915 23.9638 81.4584 22.6125Z" fill="#ADADAD"/>
<path d="M84.8457 29.7304L88.8561 10.3606H91.1732L87.1624 29.7304H84.8457ZM93.5798 29.7304L92.3322 10.3606H94.9163L95.3625 19.9101C95.451 20.3604 95.451 21.6215 95.5402 23.6935V26.1259C96.6101 23.9636 97.4124 22.4319 97.8573 21.532L103.74 10.3606H106.324L106.948 21.7117C107.037 22.9736 107.037 24.5043 107.126 26.3962C107.304 25.9455 107.572 25.2257 107.929 24.3245C108.641 22.9736 109.087 21.8922 109.354 21.2615L114.791 10.3606H117.465L107.66 29.7304H104.899L104.363 18.018C104.275 17.0268 104.185 15.7655 104.097 14.2341C103.561 15.4957 103.116 16.3967 102.759 17.1176L96.1642 29.7304H93.5798Z" fill="#ADADAD"/>
<path d="M113.187 24.4148C113.187 21.6215 113.988 19.3691 115.592 17.5677C116.84 16.1261 118.623 15.3156 120.762 15.3156C122.366 15.3156 123.792 15.8559 124.772 16.9366C125.753 18.018 126.287 19.4593 126.287 21.2614C126.287 22.8822 126.02 24.3245 125.307 25.7661C124.683 27.117 123.792 28.1981 122.633 28.9194C121.386 29.6393 120.138 29.9999 118.8 29.9999C117.731 29.9999 116.751 29.8194 115.86 29.3697C114.969 28.8292 114.344 28.1982 113.899 27.3869C113.364 26.4864 113.187 25.4955 113.187 24.4148ZM115.503 24.1442C115.503 25.4956 115.77 26.4864 116.394 27.2074C117.108 27.8381 117.91 28.1982 118.8 28.1982C119.335 28.1982 119.871 28.1083 120.316 27.928C120.851 27.658 121.297 27.387 121.742 26.9367C122.187 26.4864 122.545 26.0368 122.811 25.4956C123.168 24.9554 123.435 24.3245 123.613 23.6935C123.881 22.8823 123.97 21.9823 123.97 21.1712C123.97 19.9101 123.703 18.9188 122.989 18.1984C122.366 17.5677 121.564 17.2073 120.672 17.2073C119.871 17.2073 119.246 17.3875 118.623 17.7476C117.999 18.1082 117.464 18.5586 116.929 19.2799C116.395 19.9996 116.039 20.8108 115.86 21.7117C115.592 22.6124 115.503 23.4236 115.503 24.1442Z" fill="#ADADAD"/>
<path d="M126.465 29.7303L129.317 15.6758H131.456L130.832 18.5585C131.545 17.4776 132.258 16.6667 132.97 16.1261C133.595 15.5856 134.308 15.3154 135.021 15.3154C135.555 15.3154 136.091 15.4955 136.803 15.9458L135.823 18.1081C135.377 17.8376 134.932 17.6574 134.487 17.6574C133.685 17.6574 132.793 18.1081 131.902 19.0092C131.011 19.9993 130.387 21.6213 129.852 24.0538L128.693 29.7301H126.465V29.7303Z" fill="#ADADAD"/>
<path d="M134.486 29.7304L138.407 10.3606H140.813L138.318 22.3429L145.27 15.6759H148.389L142.507 20.9013L146.072 29.7304H143.487L140.725 22.5222L137.783 25.0456L136.803 29.7304H134.486Z" fill="#ADADAD"/>
<path d="M146.251 24.9553L148.657 24.7749C148.657 25.4956 148.746 26.0368 148.924 26.5766C149.103 27.027 149.548 27.387 150.083 27.7479C150.707 28.0182 151.331 28.1982 152.043 28.1982C153.113 28.1982 153.916 28.0182 154.449 27.5675C154.984 27.1171 155.252 26.6673 155.252 26.0368C155.252 25.6759 155.074 25.2256 154.806 24.8651C154.449 24.5043 153.648 24.054 152.399 23.5135C151.152 22.9736 150.35 22.6125 149.993 22.4319C149.37 22.0726 148.924 21.6215 148.657 21.081C148.389 20.6303 148.211 20.0906 148.211 19.4593C148.211 18.2887 148.657 17.3875 149.548 16.5765C150.35 15.7655 151.597 15.3156 153.202 15.3156C154.895 15.3156 156.232 15.7656 157.213 16.5765C158.104 17.3875 158.549 18.4683 158.549 19.8199L156.321 19.9997C156.321 19.1888 155.965 18.4684 155.43 17.9281C154.895 17.4779 154.093 17.2074 153.023 17.2074C152.221 17.2074 151.597 17.3876 151.152 17.7477C150.618 18.1986 150.439 18.5587 150.439 19.0096C150.439 19.4594 150.618 19.9101 150.973 20.2703C151.242 20.4507 151.954 20.8108 153.024 21.2615C154.895 22.0727 156.054 22.7027 156.5 23.1541C157.213 23.8739 157.658 24.7749 157.658 25.7662C157.658 26.4864 157.391 27.2074 156.946 27.8381C156.589 28.4685 155.876 29.0088 155.074 29.46C154.183 29.8194 153.202 30 151.954 30C150.35 30 149.013 29.6395 147.855 28.8292C146.785 28.0182 146.251 26.7567 146.251 24.9553Z" fill="#ADADAD"/>
</svg>
