<svg width="124" height="47" viewBox="0 0 124 47" fill="none" xmlns="http://www.w3.org/2000/svg">
<path d="M33.8969 46.0558C33.8508 45.9825 33.873 45.6066 33.9464 45.2205C34.1629 44.0816 34.9937 40.1222 35.3503 38.5296C35.5319 37.7185 35.6325 37.0078 35.5738 36.9502C35.5151 36.8926 27.5176 36.8599 17.8015 36.8776L0.136045 36.9097L0.14049 36.2428C0.142945 35.8761 0.454407 34.0744 0.83265 32.2392C2.27581 25.2369 2.59436 23.6786 2.70162 23.0964C2.76248 22.7661 3.1175 20.9943 3.49056 19.1591C4.55889 13.9036 5.99868 6.7997 6.43762 4.61832C6.65836 3.52134 6.89725 2.51518 6.96848 2.3824C7.09237 2.15149 7.87409 2.1381 24.9593 2.07433C37.3573 2.02806 42.8476 2.05066 42.9091 2.14823C42.9578 2.22554 42.9058 2.69086 42.7935 3.18227C42.6813 3.67369 42.3709 5.12685 42.1038 6.41153C41.8368 7.69621 41.5628 8.97225 41.4949 9.24719L41.3714 9.74707L29.3481 9.82602L17.3249 9.90497L17.2269 10.2388C17.1729 10.4223 17.0017 11.2932 16.8464 12.174C16.6911 13.0549 16.4754 14.1843 16.3672 14.6839C16.2589 15.1835 16.206 15.6489 16.2496 15.718C16.2981 15.7951 20.364 15.8286 26.7674 15.8047C32.9291 15.7817 37.2375 15.8155 37.2828 15.8874C37.3249 15.9543 37.1522 16.9902 36.899 18.1894C36.6457 19.3886 36.3414 20.8503 36.2228 21.4376C36.1041 22.0248 35.954 22.6406 35.8892 22.8059L35.7713 23.1064L25.2435 23.1457C19.9128 23.2431 25.2435 23.1457 14.6701 23.2401L13.5718 29.2873C25.4865 29.2473 21.3674 29.2738 25.4865 29.2473L37.3158 29.1691L37.4825 28.3683C37.5742 27.9278 37.8375 26.6965 38.0677 25.632C38.2979 24.5675 38.6852 22.7356 38.9284 21.561C39.4857 18.8692 40.4064 14.4904 40.6543 13.3524C40.7583 12.8752 40.9766 11.8691 41.1395 11.1166L41.4357 9.7485L46.4335 9.73186C49.1823 9.72261 51.5062 9.76192 51.5978 9.81893C51.7262 9.89893 51.685 10.2806 51.4174 11.4891C51.2267 12.3507 51.1062 13.0906 51.1498 13.1334C51.1934 13.1761 51.3747 13.0984 51.5528 12.9607C52.9525 11.8783 53.5721 11.4613 54.5235 10.9614C57.5356 9.37855 61.207 8.75069 64.9467 9.17888C68.678 9.60613 70.8453 10.5114 72.8936 12.4985C74.3521 13.9134 75.285 15.7334 75.6146 17.8071C75.6598 18.0916 75.7448 18.2713 75.8035 18.2066C75.9014 18.0985 76.1859 16.8949 76.6833 14.4849C77.3687 11.1641 77.6975 9.81156 77.8417 9.72025C78.0679 9.57701 87.9438 9.55094 88.1724 9.69298C88.323 9.78649 88.328 9.93698 88.2002 10.5244C88.1143 10.9189 87.9259 11.7822 87.7815 12.4429C87.6371 13.1036 87.3191 14.6052 87.075 15.7798C86.8308 16.9544 86.5885 18.0806 86.5365 18.2825C86.3695 18.9307 86.6976 18.6845 87.2038 17.7816C88.2609 15.8965 90.3451 13.7012 92.3395 12.3722C96.6504 9.49968 103.01 8.11733 109.929 8.54902C113.812 8.79128 115.878 9.23692 118.234 10.3408C120.676 11.4851 122.112 13.0052 122.926 15.3067C123.26 16.2509 123.332 16.6717 123.348 17.7783L123.368 19.1119L117.916 19.1323L112.464 19.1526L112.193 18.3606C111.619 16.6775 110.041 15.7296 107.46 15.5178C103.942 15.229 101.286 16.0325 99.1255 18.0391C96.6747 20.3149 95.4802 25.0865 96.712 27.6804C97.6843 29.7277 99.7351 30.7366 102.9 30.7248C106.416 30.7117 109.076 29.4294 110.707 26.9615L111.326 26.0254L116.854 26.0048C121.869 25.9861 122.382 26.0043 122.383 26.2011C122.383 26.3205 122.132 26.8765 121.824 27.4369C118.518 33.4584 113.715 36.4726 105.855 37.4586C103.624 37.7384 97.7171 37.6908 95.7778 37.3773C93.3395 36.9831 91.776 36.5023 89.9743 35.5928C88.2937 34.7443 86.5188 33.0341 85.8189 31.5888C85.3168 30.5519 84.9803 29.4559 84.822 28.3422C84.7121 27.5685 84.5392 27.6638 84.3573 28.5981C84.2864 28.9625 84.0196 30.2518 83.7644 31.4631C83.5092 32.6743 83.2057 34.1159 83.09 34.6664C82.9743 35.217 82.8203 35.8928 82.7477 36.1681L82.6159 36.6687L77.4233 36.6881C73.1077 36.7042 72.2184 36.6761 72.1578 36.5219C72.0894 36.3474 72.3957 34.6809 73.0312 31.7699C73.1835 31.0724 73.3681 30.1715 73.4413 29.7678C73.5146 29.3641 73.6052 28.9286 73.6427 28.8001C73.7557 28.4127 73.4981 28.538 73.2282 29.0017C72.3153 30.5699 70.3523 32.7104 68.6797 33.9614C65.1949 36.5678 61.2794 37.8125 56.5037 37.8323C52.4537 37.8489 49.7218 37.0174 47.7179 35.1576C47.324 34.792 46.9618 34.5326 46.9131 34.5811C46.8644 34.6297 46.7454 35.0446 46.6486 35.5031C46.5519 35.9617 46.2662 37.3279 46.0138 38.5392C45.7614 39.7504 45.4314 41.3121 45.2805 42.0095C45.1296 42.7069 44.9103 43.728 44.7932 44.2786C44.6762 44.8292 44.5412 45.4599 44.4934 45.6801L44.4064 46.0805L39.1936 46.1349C35.821 46.17 33.9513 46.142 33.8969 46.0558ZM58.4823 29.8366C61.5262 28.9562 63.3716 27.0641 64.2919 23.8802C64.7441 22.3161 64.759 20.5628 64.3298 19.4412C63.9254 18.3846 62.9389 17.4343 61.7748 16.9799C60.0256 16.2973 57.0548 16.2423 55.1003 16.8565C51.4334 18.0088 49.1242 21.1568 49.0845 25.0572C49.0716 26.3312 49.1045 26.5297 49.4492 27.2564C50.2143 28.8693 51.5697 29.7893 53.6659 30.1186C54.7583 30.2902 57.4612 30.132 58.4823 29.8366ZM78.5142 5.92C78.6034 5.25791 79.478 1.10305 79.6474 0.536499L79.7472 0.202702L84.921 0.14844C87.7667 0.118599 90.1477 0.146039 90.2123 0.209425C90.3247 0.319651 90.1411 1.38736 89.5203 4.23399C89.3682 4.93141 89.1989 5.71226 89.1439 5.9692L89.0441 6.43637L83.7369 6.49106L78.4298 6.5458L78.5142 5.92Z" fill="#ADADAD"/>
</svg>
