<svg width="182" height="26" viewBox="0 0 182 26" fill="none" xmlns="http://www.w3.org/2000/svg">
<g clip-path="url(#clip0_846_999)">
<path d="M22.0555 7.3882L13.8258 18.1677H12.8794L4.81425 7.34783V25.4348H0.0410156V0.605591H5.55492L13.4554 11.3043L21.356 0.605591H26.8287V25.4348H22.0555V7.3882Z" fill="#ADADAD"/>
<path d="M50.2008 25.3944H31.2725C31.2725 17.118 31.2725 8.84158 31.2725 0.565186H50.2008V5.1273H36.0045V10.8602H49.707V15.2205H36.0045V20.8323H50.2008V25.3944Z" fill="#ADADAD"/>
<path d="M76.2069 12.7577C76.3303 19.0559 72.4212 25.3944 63.5331 25.3944C60.4059 25.3944 56.7025 25.3944 53.5752 25.3944V0.565186C56.7025 0.565186 60.4059 0.565186 63.5331 0.565186C72.2155 0.565186 76.0834 6.62109 76.2069 12.7577ZM58.3073 20.8726H63.5331C69.2939 20.8726 71.5571 16.7546 71.4337 12.7174C71.3102 8.84158 69.0059 4.96581 63.5331 4.96581H58.3073V20.8726Z" fill="#ADADAD"/>
<path d="M79.7871 25.3944V0.565186H84.5192V25.3944H79.7871Z" fill="#ADADAD"/>
<path d="M96.7398 4.80432H88.7158V0.565186C96.0403 0.565186 102.213 0.565186 109.537 0.565186V4.80432H101.513V25.3944H96.7398V4.80432Z" fill="#ADADAD"/>
<path d="M131.305 25.3944H112.336C112.336 17.118 112.336 8.84158 112.336 0.565186H131.305V5.1273H117.109V10.8602H130.812V15.2205H117.109V20.8323H131.305V25.3944Z" fill="#ADADAD"/>
<path d="M157.311 22.2857C154.718 24.7889 151.344 25.9597 147.682 25.9597C138.259 25.9597 134.309 19.6212 134.268 13.1615C134.268 6.66152 138.547 0.0404053 147.723 0.0404053C151.138 0.0404053 154.43 1.33233 157.023 3.83544L153.854 6.86339C152.208 5.24848 149.945 4.52177 147.723 4.52177C141.592 4.52177 138.959 9.00314 139 13.1615C139.041 17.2795 141.469 21.559 147.723 21.559C149.945 21.559 152.414 20.6708 154.101 19.0559L157.311 22.2857Z" fill="#ADADAD"/>
<path d="M177.267 25.4348V15.382H164.841V25.4348H160.067V0.605591H164.841V11.0621H177.267V0.605591H182V25.4348H177.267Z" fill="#ADADAD"/>
</g>
<defs>
<clipPath id="clip0_846_999">
<rect width="182" height="26" fill="white"/>
</clipPath>
</defs>
</svg>
