<svg width="164" height="22" viewBox="0 0 164 22" fill="none" xmlns="http://www.w3.org/2000/svg">
<g clip-path="url(#clip0_846_977)">
<path d="M70.7048 14.3146H81.5245L75.8094 4.7813L65.302 22H60.524L73.3032 1.34196C73.5818 0.929739 73.952 0.592477 74.3827 0.358432C74.8135 0.124388 75.2922 0.00037516 75.7789 -0.00321563C76.2656 -0.00680642 76.746 0.110129 77.18 0.337794C77.6139 0.56546 77.9887 0.897225 78.2729 1.3053L91.0877 22H86.3097L84.0591 18.15H73.1116L70.7261 14.3146M120.373 18.15V0.205296H116.312V19.9173C116.312 20.1912 116.365 20.4625 116.469 20.7146C116.572 20.9667 116.724 21.1944 116.916 21.384C117.108 21.5871 117.338 21.7482 117.592 21.8578C117.845 21.9674 118.118 22.0233 118.393 22.022H136.851L139.258 18.172H120.352M53.2328 14.9453C55.1251 14.9453 56.9399 14.1688 58.278 12.7867C59.6161 11.4045 60.3678 9.52994 60.3678 7.5753C60.3678 5.62065 59.6161 3.74606 58.278 2.36392C56.9399 0.981776 55.1251 0.205296 53.2328 0.205296H35.4839V22H39.5377V4.06263H52.9843C53.89 4.06263 54.7586 4.43426 55.399 5.09576C56.0394 5.75726 56.3992 6.65446 56.3992 7.58996C56.3992 8.52547 56.0394 9.42266 55.399 10.0842C54.7586 10.7457 53.89 11.1173 52.9843 11.1173H41.5469L53.6587 22H59.5443L51.4082 14.9453H53.2328ZM10.5502 22H22.8111C25.5608 21.9263 28.174 20.7462 30.0935 18.7113C32.0131 16.6764 33.0874 13.9475 33.0874 11.1063C33.0874 8.26509 32.0131 5.53624 30.0935 3.50131C28.174 1.46639 25.5608 0.286327 22.8111 0.212629H10.5502C9.14218 0.174892 7.74112 0.428754 6.42962 0.959245C5.11812 1.48974 3.92274 2.28612 2.91396 3.30142C1.90519 4.31672 1.10345 5.53039 0.556019 6.87086C0.00859186 8.21133 -0.273438 9.65145 -0.273438 11.1063C-0.273438 12.5611 0.00859186 14.0013 0.556019 15.3417C1.10345 16.6822 1.90519 17.8959 2.91396 18.9112C3.92274 19.9265 5.11812 20.7229 6.42962 21.2533C7.74112 21.7838 9.14218 22.0377 10.5502 22ZM22.5342 18.1646H10.82C9.04763 18.1056 7.36702 17.3368 6.13352 16.021C4.90002 14.7051 4.21035 12.9453 4.21035 11.1136C4.21035 9.28199 4.90002 7.52216 6.13352 6.20629C7.36702 4.89042 9.04763 4.12168 10.82 4.06263H22.5342C23.4492 4.03215 24.3608 4.19197 25.2147 4.53259C26.0687 4.87322 26.8477 5.3877 27.5053 6.04546C28.163 6.70322 28.6859 7.49082 29.043 8.36148C29.4002 9.23213 29.5842 10.1681 29.5842 11.1136C29.5842 12.0592 29.4002 12.9951 29.043 13.8658C28.6859 14.7364 28.163 15.524 27.5053 16.1818C26.8477 16.8396 26.0687 17.354 25.2147 17.6947C24.3608 18.0353 23.4492 18.1951 22.5342 18.1646ZM99.5574 22H112.074L114.445 18.1646H99.8343C98.9194 18.1951 98.0078 18.0353 97.1538 17.6947C96.2999 17.354 95.5209 16.8396 94.8633 16.1818C94.2056 15.524 93.6827 14.7364 93.3255 13.8658C92.9684 12.9951 92.7844 12.0592 92.7844 11.1136C92.7844 10.1681 92.9684 9.23213 93.3255 8.36148C93.6827 7.49082 94.2056 6.70322 94.8633 6.04546C95.5209 5.3877 96.2999 4.87322 97.1538 4.53259C98.0078 4.19197 98.9194 4.03215 99.8343 4.06263H111.726L114.126 0.212629H99.5574C98.1494 0.174892 96.7484 0.428754 95.4369 0.959245C94.1254 1.48974 92.93 2.28612 91.9212 3.30142C90.9125 4.31672 90.1107 5.53039 89.5633 6.87086C89.0159 8.21133 88.7338 9.65145 88.7338 11.1063C88.7338 12.5611 89.0159 14.0013 89.5633 15.3417C90.1107 16.6822 90.9125 17.8959 91.9212 18.9112C92.93 19.9265 94.1254 20.7229 95.4369 21.2533C96.7484 21.7838 98.1494 22.0377 99.5574 22ZM149.162 18.1646C147.675 18.1652 146.228 17.6642 145.041 16.7376C143.854 15.8111 142.993 14.5097 142.588 13.0313H159.925L162.311 9.18863H142.588C142.992 7.7096 143.853 6.40755 145.04 5.48083C146.227 4.5541 147.674 4.0535 149.162 4.0553H161.061L163.439 0.205296H148.885C146.136 0.278994 143.522 1.45906 141.603 3.49398C139.683 5.5289 138.609 8.25776 138.609 11.099C138.609 13.9402 139.683 16.669 141.603 18.7039C143.522 20.7389 146.136 21.9189 148.885 21.9926H161.402L163.78 18.1573H149.155" fill="#ADADAD"/>
</g>
<defs>
<clipPath id="clip0_846_977">
<rect width="164" height="22" fill="white"/>
</clipPath>
</defs>
</svg>
