<svg width="158" height="36" viewBox="0 0 158 36" fill="none" xmlns="http://www.w3.org/2000/svg">
<g clip-path="url(#clip0_1049_2761)">
<path d="M43.2842 11.8766H44.9205C45.3579 11.8755 45.7864 11.9998 46.1553 12.2349C46.5241 12.4567 46.8077 12.7959 46.9608 13.1981L50.9804 22.4181C51.0595 22.6173 51.1174 22.8243 51.1532 23.0357C51.1913 23.2542 51.2192 23.4906 51.2395 23.7396C51.2413 23.2854 51.3338 22.8362 51.5114 22.4181L55.531 13.1829C55.6998 12.7855 55.9862 12.4494 56.3517 12.2197C56.7146 11.9839 57.1385 11.8594 57.5713 11.8614H59.2051L52.6294 26.9545H49.8599L43.2842 11.8766Z" fill="#ADADAD"/>
<path d="M73.9822 18.1386C73.9877 18.4485 73.9217 18.7555 73.7891 19.0357C73.6684 19.2858 73.506 19.5135 73.3089 19.7091C73.1236 19.891 72.9066 20.0375 72.6686 20.1411C72.4585 20.2366 72.231 20.2877 72.0003 20.2911H61.5194C61.6016 20.865 61.7968 21.417 62.0936 21.915C62.3863 22.4071 62.76 22.8461 63.1989 23.2136C63.6443 23.5855 64.1495 23.8794 64.6929 24.0828C65.6553 24.4458 66.7071 24.4991 67.7012 24.2353C68.1046 24.1259 68.4935 23.9689 68.8599 23.7677C69.0357 23.6672 69.2235 23.5895 69.4188 23.5364C69.6167 23.4879 69.8198 23.464 70.0236 23.4652C70.3098 23.4617 70.5933 23.5207 70.8544 23.638C71.1175 23.764 71.3559 23.9361 71.5582 24.1463L72.1045 24.6927C71.388 25.4565 70.5292 26.0728 69.5764 26.5072C68.5904 26.9579 67.5174 27.186 66.4334 27.1756C65.3993 27.1814 64.3752 26.9738 63.425 26.5657C61.5615 25.776 60.0781 24.2923 59.2885 22.4284C58.8861 21.4767 58.6787 20.4539 58.6787 19.4207C58.6787 18.3874 58.8861 17.3646 59.2885 16.413C60.0784 14.549 61.5603 13.0641 63.4225 12.2706C64.3726 11.8625 65.3968 11.6549 66.4308 11.6606C67.3024 11.6572 68.1677 11.8078 68.9869 12.1054C69.7832 12.3934 70.5292 12.8051 71.1974 13.3252C71.8588 13.8445 72.4334 14.4655 72.8998 15.1652C73.3683 15.8723 73.712 16.6545 73.9161 17.4778C73.945 17.5856 73.9595 17.6966 73.9593 17.8082C73.9695 17.9225 73.972 18.0318 73.9822 18.1386ZM62.5967 17.521H71.0399C70.8497 17.071 70.5983 16.6494 70.2929 16.2681C69.6814 15.5051 68.8558 14.9423 67.9223 14.6518C66.9087 14.3352 65.8209 14.3477 64.8148 14.6874C64.3146 14.8588 63.8447 15.1084 63.4225 15.4269C62.5787 16.0696 61.9625 16.9655 61.6642 17.9835C61.7587 17.8643 61.872 17.7613 61.9996 17.6786C62.1775 17.5654 62.3861 17.5103 62.5967 17.521Z" fill="#ADADAD"/>
<path d="M78.3064 11.8767C78.3833 11.9863 78.4529 12.1009 78.5147 12.2198C78.5727 12.3435 78.6228 12.4709 78.6646 12.601C78.7135 12.7563 78.7375 12.9184 78.7358 13.0813V14.1309C78.9189 13.7712 79.162 13.4454 79.4548 13.1677C79.7668 12.8661 80.114 12.6033 80.489 12.385C80.8787 12.1574 81.2952 11.9789 81.7289 11.8538C82.1706 11.7254 82.6283 11.6603 83.0882 11.6607C83.8401 11.6554 84.5858 11.797 85.2835 12.0774L85.0701 13.2973C85.0162 13.6607 84.8363 13.9935 84.5619 14.2376C84.2839 14.4674 83.9315 14.5876 83.571 14.5756C83.5424 14.5802 83.5132 14.5802 83.4846 14.5756C83.4679 14.5719 83.4505 14.5719 83.4338 14.5756C83.3982 14.5776 83.3626 14.5776 83.3271 14.5756C83.2796 14.5756 83.1949 14.5756 83.073 14.5756C82.52 14.573 81.9702 14.6588 81.4443 14.8297C80.965 14.9801 80.5104 15.2002 80.0951 15.4829C79.7293 15.7286 79.4101 16.0376 79.1525 16.3952C78.9309 16.6925 78.7924 17.0433 78.751 17.4117V26.9749H75.8926V11.8767H78.3064Z" fill="#ADADAD"/>
<path d="M86.4903 14.0876C86.5928 13.9345 86.7075 13.79 86.8334 13.6556C86.9703 13.512 87.1145 13.3754 87.2653 13.2464C87.4576 13.0847 87.6586 12.9337 87.8675 12.794C88.4427 12.4274 89.0661 12.1425 89.7198 11.9478C90.4394 11.7435 91.1848 11.6442 91.9328 11.653C92.6617 11.6385 93.3882 11.7406 94.0849 11.9554C94.657 12.1341 95.1905 12.4186 95.6577 12.794C96.0883 13.1472 96.4486 13.5782 96.7198 14.0647C96.9999 14.5701 97.2175 15.1077 97.3677 15.6658C97.5279 16.2635 97.6359 16.874 97.6904 17.4905C97.7463 18.1283 97.7767 18.7611 97.7767 19.4219V26.9468H95.4493C95.3175 26.781 95.2137 26.5947 95.1419 26.3954C95.0621 26.1868 95.0207 25.9655 95.0199 25.7422V25.361C94.7299 25.6465 94.4035 25.8926 94.0493 26.0929C93.3018 26.5299 92.4909 26.848 91.6457 27.0358C91.278 27.12 90.9024 27.1652 90.5252 27.1705C89.8201 27.1789 89.1186 27.0698 88.4493 26.8477C87.8567 26.6527 87.3096 26.3397 86.841 25.9278C86.3951 25.5309 86.042 25.0406 85.8069 24.4919C85.5568 23.9005 85.4322 23.2635 85.441 22.6215C85.4303 21.9264 85.5726 21.2376 85.8577 20.6036C86.1469 19.997 86.5837 19.4727 87.1281 19.0788C87.7769 18.6164 88.5083 18.2825 89.2827 18.0953C90.286 17.8496 91.3167 17.7335 92.3495 17.7497C92.6747 17.7497 92.9873 17.7497 93.2896 17.7802C93.592 17.8107 93.8613 17.8183 94.1002 17.8361C94.339 17.8539 94.5372 17.8742 94.6972 17.8945C94.7954 17.9035 94.8929 17.9179 94.9894 17.9377C94.9731 17.3401 94.8642 16.7485 94.6668 16.1842C94.5225 15.7775 94.2899 15.4077 93.9858 15.1016C93.7194 14.8446 93.3939 14.657 93.0381 14.5552C92.3138 14.3648 91.5539 14.3552 90.825 14.5272C90.5818 14.5986 90.3447 14.6896 90.1161 14.7992C89.9103 14.9008 89.707 14.9898 89.5063 15.0711C89.2478 15.1615 88.9746 15.2029 88.7009 15.1931C88.4538 15.1948 88.2085 15.1518 87.9767 15.066C87.7382 14.9722 87.5134 14.8465 87.3085 14.6924L86.4903 14.0876ZM90.5099 24.4436C90.8713 24.4403 91.2317 24.4063 91.5873 24.3419C91.9806 24.2729 92.3692 24.1796 92.751 24.0624C93.1484 23.9406 93.5386 23.7963 93.9198 23.6304C94.3018 23.4659 94.6728 23.2766 95.0301 23.0636V20.535C94.9325 20.5213 94.834 20.5145 94.7354 20.5147L94.1205 20.4918L93.2998 20.4715C93 20.4715 92.69 20.4715 92.3749 20.4715C91.8181 20.4693 91.2618 20.5084 90.7107 20.5884C90.2507 20.6498 89.8017 20.7756 89.3767 20.9619C89.0305 21.1106 88.7248 21.3397 88.4849 21.6303C88.2693 21.9148 88.158 22.2647 88.1698 22.6215C88.1608 22.914 88.2227 23.2043 88.3502 23.4677C88.4692 23.6951 88.6441 23.8884 88.8584 24.0294C89.0847 24.18 89.3372 24.2869 89.6029 24.3445C89.9006 24.4112 90.2048 24.4444 90.5099 24.4436Z" fill="#ADADAD"/>
<path d="M111.62 26.9545C111.533 26.8504 111.46 26.735 111.404 26.6114C111.348 26.4872 111.3 26.3599 111.259 26.2302C111.21 26.075 111.186 25.9128 111.188 25.7499V25.6483C110.909 25.9312 110.598 26.1795 110.26 26.3878C109.95 26.5797 109.62 26.7389 109.277 26.863C108.948 26.9821 108.607 27.0672 108.261 27.1172C107.928 27.1629 107.593 27.1867 107.257 27.1883C106.237 27.1975 105.226 26.9896 104.292 26.5784C103.397 26.1859 102.591 25.6181 101.919 24.9087C101.25 24.1909 100.723 23.3527 100.366 22.4385C99.611 20.5037 99.611 18.3554 100.366 16.4206C100.727 15.5055 101.258 14.6672 101.932 13.9504C102.603 13.243 103.409 12.677 104.302 12.2858C105.549 11.741 106.924 11.5544 108.271 11.7471C108.617 11.7993 108.957 11.8844 109.287 12.0012C109.628 12.1161 109.954 12.2687 110.26 12.4561C110.598 12.6644 110.909 12.9127 111.188 13.1956V6.37463H114.031V26.9596L111.62 26.9545ZM107.255 14.446C106.601 14.4382 105.954 14.5735 105.359 14.8424C104.797 15.0956 104.291 15.4594 103.873 15.9123C103.453 16.3716 103.125 16.9074 102.907 17.4905C102.45 18.7428 102.45 20.1164 102.907 21.3686C103.126 21.9529 103.456 22.4896 103.878 22.9493C104.297 23.4015 104.802 23.7652 105.364 24.0193C105.96 24.2862 106.607 24.4206 107.26 24.4132C108.735 24.4064 110.148 23.8183 111.193 22.7765V16.0826C110.146 15.0436 108.734 14.4561 107.26 14.446H107.255Z" fill="#ADADAD"/>
<path d="M116.2 8.08493C116.197 7.82293 116.249 7.5632 116.353 7.32253C116.551 6.85834 116.923 6.49 117.389 6.29582C117.873 6.09589 118.415 6.09589 118.899 6.29582C119.129 6.39436 119.339 6.5358 119.516 6.7126C119.691 6.89124 119.831 7.10059 119.93 7.33015C120.13 7.81263 120.13 8.3547 119.93 8.83718C119.832 9.06776 119.691 9.27738 119.514 9.45472C119.337 9.63236 119.127 9.77392 118.896 9.87151C118.657 9.97215 118.401 10.024 118.142 10.024C117.882 10.024 117.626 9.97215 117.387 9.87151C117.156 9.77392 116.946 9.63236 116.769 9.45472C116.592 9.27794 116.452 9.06813 116.355 8.83718C116.252 8.59987 116.199 8.34371 116.2 8.08493ZM119.547 11.8766V26.9545H116.703V11.8766H119.547Z" fill="#ADADAD"/>
<path d="M135.013 13.7724C134.878 14.1391 134.636 14.4563 134.317 14.6822C133.887 14.9248 133.394 15.0345 132.902 14.9974C133.055 15.3539 133.175 15.724 133.26 16.1029C133.35 16.4904 133.396 16.8868 133.397 17.2846C133.402 18.0377 133.251 18.7837 132.953 19.4752C132.381 20.8235 131.307 21.8968 129.959 22.469C129.268 22.7671 128.522 22.9185 127.769 22.9137C126.902 22.9207 126.045 22.7258 125.267 22.3444C125.005 22.4922 124.776 22.6899 124.591 22.9264C124.519 23.0319 124.475 23.1531 124.461 23.2796C124.461 23.344 124.476 23.4075 124.504 23.4652L124.563 23.5236C124.688 23.6363 124.842 23.7127 125.007 23.7447C125.257 23.8146 125.512 23.8655 125.77 23.8972C126.062 23.9353 126.379 23.9607 126.725 23.976C127.071 23.9912 127.401 23.9963 127.716 23.9963C128.356 23.9963 129.009 24.0268 129.667 24.0827C130.288 24.1328 130.901 24.2582 131.492 24.4563C132.221 24.6807 132.863 25.1244 133.331 25.727C133.762 26.3319 133.983 27.061 133.961 27.8033C133.969 28.3781 133.847 28.9473 133.603 29.4678C133.359 29.9727 132.999 30.4131 132.554 30.7538C132.051 31.1351 131.482 31.4179 130.874 31.5873C130.141 31.7932 129.382 31.8924 128.62 31.8821C127.954 31.8828 127.289 31.8301 126.631 31.7246C125.986 31.6178 125.361 31.4831 124.758 31.3205C124.154 31.1578 123.572 30.9749 123.005 30.769C122.439 30.5632 121.91 30.3649 121.412 30.1718L121.758 29.2112C121.879 28.866 122.128 28.5805 122.454 28.4132C122.802 28.2169 123.195 28.1153 123.595 28.1184C123.841 28.1189 124.087 28.1479 124.326 28.2048C124.552 28.2584 124.773 28.3306 124.987 28.4208L125.462 28.6012C125.681 28.6826 125.953 28.7639 126.273 28.8554C126.63 28.9492 126.992 29.0238 127.358 29.079C127.778 29.1422 128.203 29.1736 128.628 29.173C128.884 29.1679 129.138 29.1432 129.39 29.0993C129.683 29.0551 129.969 28.9784 130.244 28.8706C130.499 28.7742 130.734 28.6302 130.935 28.4462C131.026 28.3667 131.098 28.2685 131.147 28.1584C131.196 28.0483 131.221 27.9289 131.22 27.8083C131.228 27.6514 131.194 27.4951 131.121 27.356C130.987 27.2025 130.81 27.0941 130.612 27.0459C130.178 26.9057 129.727 26.8204 129.271 26.7918C128.763 26.7537 128.255 26.7232 127.706 26.7054C127.157 26.6876 126.618 26.6596 126.069 26.6266C125.543 26.5949 125.019 26.5201 124.504 26.403C124.034 26.2991 123.581 26.1279 123.16 25.8947C122.756 25.6571 122.421 25.317 122.19 24.9087C122.012 24.6001 121.924 24.248 121.936 23.8921C121.961 23.4266 122.135 22.9816 122.431 22.6214C122.838 22.1097 123.361 21.7014 123.955 21.4295C123.391 20.9139 122.939 20.2876 122.627 19.5896C122.305 18.8704 122.141 18.0904 122.146 17.3024C122.142 16.5493 122.293 15.8033 122.591 15.1117C123.157 13.7611 124.226 12.6831 125.571 12.1053C126.83 11.5724 128.239 11.5164 129.535 11.9477C130.087 12.1351 130.607 12.406 131.077 12.7508C131.32 12.6156 131.575 12.5049 131.84 12.4204C132.224 12.3055 132.623 12.2524 133.024 12.2629C133.373 12.2662 133.721 12.2976 134.065 12.3569C134.501 12.4299 134.93 12.5326 135.351 12.6644L135.013 13.7724ZM124.86 17.2846C124.857 17.6728 124.936 18.0573 125.091 18.413C125.39 19.1049 125.942 19.6567 126.634 19.9556C126.99 20.1081 127.374 20.1867 127.762 20.1867C128.149 20.1867 128.533 20.1081 128.89 19.9556C129.58 19.6547 130.131 19.1036 130.432 18.413C130.583 18.0563 130.661 17.6731 130.661 17.2859C130.661 16.8986 130.583 16.5154 130.432 16.1588C130.132 15.4669 129.581 14.9146 128.89 14.6136C128.533 14.4627 128.149 14.3849 127.762 14.3849C127.374 14.3849 126.99 14.4627 126.634 14.6136C125.941 14.9125 125.389 15.4654 125.091 16.1588C124.935 16.5134 124.857 16.8972 124.86 17.2846Z" fill="#ADADAD"/>
<path d="M148.007 14.6035C148.176 14.1081 148.447 13.6536 148.802 13.2693C149.147 12.8991 149.551 12.5883 149.997 12.3493C150.443 12.1091 150.921 11.9329 151.417 11.8258C151.91 11.7172 152.414 11.6618 152.919 11.6606C153.739 11.6359 154.55 11.8344 155.266 12.235C155.904 12.6107 156.442 13.1335 156.837 13.7598C157.253 14.4235 157.553 15.1543 157.721 15.9199C157.907 16.7378 158.001 17.5741 158 18.413V26.957H155.101V18.4257C155.098 17.9811 155.067 17.5372 155.007 17.0966C154.951 16.6479 154.83 16.2097 154.649 15.7954C154.481 15.4167 154.23 15.0806 153.915 14.8119C153.573 14.5395 153.144 14.3996 152.708 14.418C152.237 14.415 151.769 14.4853 151.32 14.6264C150.909 14.7541 150.52 14.9453 150.167 15.1931C149.847 15.4161 149.572 15.6961 149.354 16.0191C149.155 16.3105 149.038 16.6503 149.016 17.0026V26.9545H146.102V18.4257C146.1 17.9811 146.068 17.5371 146.008 17.0966C145.952 16.6477 145.832 16.2093 145.649 15.7954C145.481 15.4175 145.231 15.0815 144.918 14.8119C144.573 14.5388 144.142 14.3989 143.703 14.418C143.233 14.4148 142.766 14.4851 142.318 14.6264C141.906 14.7541 141.516 14.9453 141.162 15.1931C140.847 15.4163 140.575 15.6943 140.359 16.014C140.16 16.3051 140.044 16.6452 140.024 16.9975V26.9494H137.181V11.8766H139.592C139.669 11.9863 139.738 12.1009 139.8 12.2197C139.86 12.3429 139.911 12.4703 139.953 12.6009C140 12.7566 140.024 12.9185 140.024 13.0812V13.6861C140.191 13.3473 140.419 13.0423 140.697 12.7864C140.978 12.5333 141.292 12.3211 141.632 12.1562C141.983 11.9857 142.355 11.8602 142.737 11.7826C143.129 11.7012 143.529 11.6604 143.929 11.6606C144.455 11.6512 144.98 11.7188 145.487 11.8614C145.906 11.9859 146.298 12.1876 146.643 12.4561C146.97 12.712 147.247 13.0255 147.461 13.3811C147.69 13.7658 147.874 14.176 148.007 14.6035Z" fill="#ADADAD"/>
<path d="M10.4206 18.0013C8.93087 16.1743 7.63487 14.1976 6.55343 12.1028C6.35524 11.6937 6.15452 11.2794 5.9792 10.8601C5.53822 9.84556 5.2077 8.78649 4.99335 7.70119C4.8048 6.75717 4.75006 5.79129 4.83074 4.832C4.94795 3.56385 5.3708 2.34302 6.06305 1.27411C4.79517 2.06193 1.61658 5.39873 1.27357 6.05948C0.400591 7.42216 -0.0420849 9.01612 0.00315128 10.6339C0.0285596 12.512 0.618034 14.4459 1.487 16.3138C1.74108 16.8806 2.03836 17.4397 2.3458 17.9861C2.96395 19.0679 3.64259 20.1141 4.37847 21.1195C5.12294 22.1361 5.87502 23.0815 6.56105 23.882C8.29514 25.8426 10.1475 27.6953 12.1077 29.4298C14.2025 28.3449 16.1788 27.0452 18.005 25.5517C15.2678 23.2541 12.7305 20.7282 10.4206 18.0013Z" fill="#8D8D8D"/>
<path d="M23.8869 29.4451C23.0865 30.1312 22.1515 30.8835 21.125 31.6281C22.5352 31.3032 23.8862 30.7604 25.1294 30.0194C24.7152 29.8441 24.301 29.6509 23.8869 29.4451Z" fill="#8D8D8D"/>
<path d="M12.0999 6.55509C12.9003 5.86893 13.8353 5.11669 14.8618 4.37207C13.4515 4.69698 12.1006 5.23972 10.8574 5.98075C11.2767 6.1561 11.6908 6.35687 12.0999 6.55509Z" fill="#ADADAD"/>
<path d="M6.06336 1.27411C5.37111 2.34301 4.94826 3.56385 4.83105 4.832C5.78731 4.75215 6.75 4.80432 7.69204 4.98703C10.1742 3.01531 13.1716 1.8004 16.3258 1.48758C14.4659 0.618438 12.5247 0.0288437 10.647 0.00343006C9.02613 -0.043871 7.42865 0.398978 6.06336 1.27411Z" fill="#8D8D8D"/>
<path d="M30.1378 31.2011C29.5185 31.1905 28.9012 31.1259 28.2931 31.0079C25.8131 32.9794 22.8189 34.1967 19.667 34.515C21.5269 35.3816 23.4782 35.9712 25.3458 35.9966C26.9674 36.0435 28.5656 35.6007 29.932 34.7259C30.9788 33.2011 31.1389 31.3205 31.1541 31.168C30.8162 31.1971 30.4769 31.2081 30.1378 31.2011Z" fill="#8D8D8D"/>
<path d="M19.6665 1.48756C15.3729 1.05209 11.0789 2.31045 7.69916 4.99463C6.69659 5.79028 5.78865 6.6984 4.99316 7.70117C5.20751 8.78647 5.53802 9.84554 5.97901 10.8601C6.94646 9.23402 8.2332 7.82082 9.76161 6.70573C11.29 5.59064 13.0284 4.79677 14.8719 4.372C15.8777 3.63539 16.9245 2.9566 18.0073 2.33891C18.5511 2.03649 19.0999 1.74932 19.6665 1.48756Z" fill="#8D8D8D"/>
<path d="M34.5079 16.3291C34.1893 13.1766 32.9723 10.182 31.0016 7.70117C30.2052 6.69835 29.2964 5.79023 28.293 4.99463C27.2079 5.20901 26.1491 5.5396 25.1348 5.98067C26.7605 6.94832 28.1734 8.23533 29.2883 9.76404C30.4031 11.2928 31.1968 13.0315 31.6215 14.8754C32.358 15.8814 33.0366 16.9284 33.6542 18.0114C33.9616 18.5553 34.2513 19.1144 34.5155 19.6811C34.5689 19.1322 34.5968 18.5731 34.5968 18.0114C34.5968 17.4498 34.5587 16.878 34.5079 16.3291Z" fill="#8D8D8D"/>
<path d="M25.1343 30.0194C23.8911 30.7604 22.5402 31.3032 21.1299 31.6281C20.1247 32.3641 19.0787 33.0429 17.9971 33.6612C17.4508 33.9687 16.8918 34.2584 16.3252 34.5227C16.874 34.5761 17.433 34.6066 17.9971 34.6066C18.5611 34.6066 19.1176 34.5761 19.6664 34.5227C22.8228 34.2068 25.8216 32.9894 28.3052 31.0156C29.304 30.2153 30.2085 29.3039 31.0011 28.2989C30.7847 27.2138 30.4533 26.1549 30.0127 25.14C28.8171 27.1466 27.1404 28.8236 25.1343 30.0194Z" fill="#8D8D8D"/>
<path d="M5.97907 25.14C5.23819 23.8966 4.69556 22.5453 4.37072 21.1348C3.63484 20.1293 2.9562 19.0832 2.33805 18.0013C2.03569 17.4549 1.74858 16.8958 1.48687 16.3291C1.05149 20.6236 2.30959 24.9184 4.99323 28.2989C5.78935 29.3018 6.69721 30.2107 7.69922 31.008C8.78408 30.7915 9.8428 30.4601 10.8575 30.0194C8.85132 28.8235 7.17468 27.1465 5.97907 25.14Z" fill="#8D8D8D"/>
<path d="M17.9974 25.5669C16.1713 27.0605 14.1949 28.3601 12.1001 29.445C11.6911 29.6509 11.2769 29.844 10.8577 30.0194C9.84298 30.4601 8.78426 30.7915 7.6994 31.0079C6.75468 31.1678 5.79478 31.219 4.83842 31.1604C3.57118 31.0455 2.35065 30.6252 1.28125 29.9355C1.7386 30.7564 4.94514 34.0906 6.06819 34.726C7.43059 35.5991 9.02423 36.0419 10.6417 35.9966C12.5194 35.9712 14.4529 35.3816 16.3205 34.515C16.8871 34.2609 17.4461 33.961 17.9923 33.6535C19.074 33.0352 20.1199 32.3565 21.1252 31.6204C22.1415 30.8758 23.0867 30.1236 23.8871 29.4374C25.849 27.7039 27.703 25.8521 29.4388 23.8922C28.3548 21.7974 27.0553 19.8214 25.5615 17.9962C23.7092 20.3673 20.7491 23.3305 17.9974 25.5669Z" fill="#ADADAD"/>
<path d="M34.7208 6.06455C33.642 5.39475 32.4261 4.97692 31.1636 4.84216C31.2358 5.79817 31.1811 6.75953 31.001 7.70119C32.9729 10.1813 34.1901 13.1763 34.5073 16.3291C35.3738 14.4688 35.9632 12.5171 35.9886 10.6492C36.0367 9.02819 35.5948 7.43041 34.7208 6.06455Z" fill="#ADADAD"/>
<path d="M29.4385 12.1028C30.1245 12.9034 30.8766 13.8386 31.6211 14.8653C31.2962 13.4548 30.7536 12.1035 30.0127 10.8601C29.8374 11.2794 29.6443 11.6937 29.4385 12.1028Z" fill="#ADADAD"/>
<path d="M6.55367 23.8922C5.86765 23.0917 5.11556 22.1565 4.37109 21.1298C4.69594 22.5403 5.23856 23.8916 5.97944 25.1349C6.15476 24.7207 6.35549 24.3065 6.55367 23.8922Z" fill="#ADADAD"/>
<path d="M4.99335 28.2989C3.0214 25.8189 1.80423 22.8238 1.487 19.671C0.618034 21.5313 0.0285597 23.4729 0.00315128 25.3509C-0.042085 26.9687 0.400591 28.5627 1.27357 29.9254C2.34297 30.6151 3.5635 31.0354 4.83074 31.1503C4.74011 30.1971 4.79494 29.2356 4.99335 28.2989Z" fill="#ADADAD"/>
<path d="M35.9887 25.3509C35.9633 23.4729 35.3739 21.5389 34.5074 19.671C34.2533 19.1043 33.9535 18.5452 33.6461 18.0013C33.0285 16.9183 32.3499 15.8712 31.6134 14.8653C30.8689 13.8487 30.1169 12.9034 29.4308 12.1028C27.6976 10.1423 25.8461 8.28957 23.8867 6.55505C21.7946 7.6364 19.8207 8.9327 17.9971 10.423C20.3194 12.2019 23.7546 15.6938 25.5611 17.9911C27.0464 19.8244 28.3453 21.8012 29.4385 23.8922C29.6443 24.3013 29.8374 24.7156 30.0127 25.1349C30.4537 26.1514 30.785 27.2121 31.0011 28.2989C31.1722 29.2425 31.2234 30.204 31.1535 31.1604C31.1383 31.3231 30.9782 33.1935 29.9314 34.7183C31.3822 33.6078 33.6105 31.4146 34.7209 29.9254C35.6229 28.7207 36.0116 27.0663 35.9887 25.3509Z" fill="#8D8D8D"/>
<path d="M5.97944 25.1399C6.15476 24.7206 6.34787 24.3064 6.55367 23.8972C5.86765 23.0967 5.11556 22.1615 4.37109 21.1348C4.69594 22.5453 5.23856 23.8966 5.97944 25.1399Z" fill="#ADADAD"/>
<path d="M1.487 19.671C0.618034 21.5313 0.0285597 23.4729 0.00315128 25.3509C-0.042085 26.9687 0.400591 28.5627 1.27357 29.9254C2.34297 30.6151 3.5635 31.0354 4.83074 31.1503C4.73656 30.1941 4.78883 29.2292 4.98573 28.2888C3.01831 25.8107 1.80392 22.8195 1.487 19.671Z" fill="#ADADAD"/>
<path d="M29.9319 1.2741C28.5603 0.411098 26.9658 -0.0306862 25.3457 0.003423C23.4681 0.0288366 21.5345 0.618431 19.667 1.48757C19.1004 1.74933 18.5515 2.03651 17.9976 2.34655C16.9148 2.96423 15.868 3.64303 14.8622 4.37964C13.8459 5.12425 12.9083 5.88412 12.1004 6.56266C10.1122 8.26442 8.25786 10.1166 6.55371 12.1028C7.63516 14.1976 8.93116 16.1743 10.4209 18.0013C12.2223 15.5768 15.8151 12.1867 17.9976 10.423C19.8213 8.93268 21.7952 7.63638 23.8873 6.55503C24.2964 6.34918 24.7105 6.15604 25.1298 5.98069C26.1441 5.53961 27.203 5.20903 28.288 4.99464C29.2319 4.81285 30.1958 4.75815 31.1541 4.832C32.4171 4.96615 33.6333 5.38496 34.7113 6.05693C33.3748 4.08738 30.8822 1.88148 29.9319 1.2741Z" fill="#ADADAD"/>
<path d="M0.765402 25.3611C0.78268 24.3884 0.938388 23.4232 1.22783 22.4944C1.36595 22.0517 1.52709 21.6166 1.71059 21.1907C1.6115 20.6824 1.53782 20.1742 1.487 19.6659C0.618034 21.5312 0.0285596 23.4728 0.00315128 25.3509C-0.042085 26.9687 0.400591 28.5627 1.27357 29.9253C1.71841 30.2139 2.19182 30.4557 2.68627 30.6471C2.37629 30.2125 2.08156 29.7525 1.82747 29.3764C1.16431 28.3853 0.747616 26.8554 0.765402 25.3611Z" fill="#ADADAD"/>
<path d="M30.2541 31.9686C30.4345 31.9686 30.7419 31.9686 31.0392 31.9432C31.1205 31.5162 31.1485 31.2214 31.1536 31.1604C30.8157 31.192 30.4765 31.2056 30.1372 31.2011C29.5179 31.1905 28.9007 31.1259 28.2926 31.0079C28.0207 31.2239 27.7387 31.4298 27.4541 31.6306C27.8251 31.7068 28.4018 31.8034 28.4933 31.8186C29.0749 31.9188 29.664 31.969 30.2541 31.9686Z" fill="#ADADAD"/>
<path d="M35.9893 10.6491C36.0345 9.03132 35.5918 7.43736 34.7188 6.07467C34.2361 5.77675 33.7255 5.52651 33.1943 5.32751C33.1943 5.32751 33.7686 6.03147 34.1675 6.63631C34.9297 7.77992 35.2448 9.15988 35.2245 10.6517C35.1876 11.6223 35.0331 12.5849 34.7646 13.5183C34.6384 13.9546 34.4761 14.3797 34.2793 14.789C34.3775 15.2972 34.4537 15.8106 34.5079 16.329C35.3744 14.4688 35.9638 12.5272 35.9893 10.6491Z" fill="#ADADAD"/>
<path d="M8.17429 5.59443C10.5394 3.71324 13.3951 2.55148 16.4015 2.24746L16.7013 2.21951C17.052 2.18393 17.865 2.08228 18.5511 2.03653C18.9144 1.84339 19.2828 1.65787 19.6563 1.48506C15.3627 1.04959 11.0688 2.30794 7.68899 4.99213C6.68984 5.78916 5.78533 6.69812 4.99316 7.70121C5.0516 8.02142 5.12783 8.33909 5.21422 8.6593C5.43781 8.37213 5.63854 8.12053 5.81385 7.8969C6.51916 7.05003 7.31018 6.27843 8.17429 5.59443Z" fill="#8D8D8D"/>
<path d="M33.9765 18.6824V18.5934L33.9434 18.5299L33.9765 18.6824Z" fill="#ADADAD"/>
<path d="M34.589 18.0013C34.589 17.4371 34.5611 16.878 34.5077 16.3291C34.2804 14.1206 33.6134 11.98 32.546 10.0334C31.4787 8.08675 30.0325 6.37351 28.2928 4.99463C27.9778 5.05308 27.6627 5.12678 27.3477 5.21064C27.6246 5.42412 27.8914 5.65538 28.0921 5.81549C28.9415 6.52054 29.7155 7.31174 30.4017 8.1764C32.2943 10.5348 33.4565 13.395 33.7455 16.4053C33.7684 16.6594 33.9157 17.9301 33.9691 18.5934C34.1571 18.9467 34.3375 19.3075 34.5077 19.671C34.5586 19.122 34.589 18.5553 34.589 18.0013Z" fill="#8D8D8D"/>
<path d="M25.526 30.6776C27.1979 29.6793 28.6577 28.3626 29.8225 26.802C30.0232 26.5326 30.2087 26.2632 30.3688 26.0396C30.2595 25.7346 30.1427 25.4322 30.0131 25.1323C29.0456 26.7584 27.7589 28.1716 26.2305 29.2867C24.7021 30.4018 22.9637 31.1956 21.1202 31.6204C20.5663 32.0219 19.9869 32.4184 19.3848 32.8021L21.4454 32.3294C22.8811 31.988 24.2569 31.431 25.526 30.6776Z" fill="#8D8D8D"/>
<path d="M5.32121 25.5313C6.31922 27.2036 7.6357 28.6636 9.19598 29.8287C9.46785 30.0397 9.72956 30.2099 9.95823 30.3701C10.2555 30.2608 10.5528 30.1464 10.8475 30.0193C9.2218 29.0517 7.80889 27.7647 6.69403 26.236C5.57917 24.7073 4.78545 22.9685 4.36077 21.1246C3.96948 20.5833 3.57819 20.014 3.20215 19.4244C3.28854 19.9048 3.45623 20.6036 3.65188 21.4575C3.99958 22.8919 4.5624 24.2654 5.32121 25.5313Z" fill="#8D8D8D"/>
<path d="M4.0686 4.77355C3.97788 5.79953 4.03349 6.8332 4.23375 7.84351C4.45943 8.97826 4.80524 10.0857 5.26533 11.1473C5.44827 11.5742 5.649 12.0088 5.86243 12.4332C6.96912 14.5836 8.30123 16.6103 9.8363 18.4791C11.437 20.4766 14.5496 23.638 16.7728 25.5491L17.3826 26.0574C17.5909 25.8973 17.7917 25.7372 17.9898 25.5796C15.2567 23.2725 12.7246 20.7373 10.4207 18.0013C8.93098 16.1743 7.63498 14.1976 6.55354 12.1028C6.35535 11.6937 6.15463 11.2794 5.97931 10.8601C5.53833 9.84556 5.20781 8.78649 4.99346 7.70119C4.80491 6.75717 4.75017 5.7913 4.83085 4.83201C4.94806 3.56385 5.37091 2.34302 6.06316 1.27411C5.55422 1.62379 5.07492 2.01479 4.63012 2.44313C4.43054 2.91494 4.28808 3.40893 4.20581 3.91458C4.14548 4.19838 4.09968 4.48508 4.0686 4.77355Z" fill="#8D8D8D"/>
<path d="M12.5933 7.13955C13.3555 6.49404 14.2906 5.73164 15.3094 4.9921C16.2918 4.27572 17.314 3.61561 18.3711 3.01493C18.9098 2.70997 19.4561 2.43042 19.9897 2.17882C21.9486 1.2741 23.7552 0.791243 25.3559 0.765829C26.8255 0.734703 28.2721 1.13398 29.5178 1.91452C30.4678 2.59407 31.3532 3.35972 32.1628 4.20174C32.5275 4.54844 32.8719 4.91585 33.1944 5.30215C33.7268 5.50464 34.2375 5.76006 34.7189 6.06455C33.3748 4.08738 30.8822 1.88148 29.9319 1.2741C28.5603 0.411098 26.9658 -0.0306862 25.3457 0.003423C23.4681 0.0288366 21.5345 0.618431 19.667 1.48757C19.1004 1.74933 18.5515 2.03651 17.9976 2.34655C16.9148 2.96423 15.868 3.64303 14.8622 4.37964C13.8459 5.12425 12.9083 5.88412 12.1004 6.56266C10.1122 8.26442 8.25786 10.1166 6.55371 12.1028C6.67313 12.3417 6.79509 12.5755 6.92213 12.8093C7.11269 12.6035 7.29818 12.3976 7.46587 12.2045C9.05586 10.3996 10.7691 8.70724 12.5933 7.13955Z" fill="#ADADAD"/>
<path d="M4.76728 31.9228H4.79269C5.81198 31.9873 6.83533 31.9319 7.84169 31.7576C8.97621 31.5319 10.0835 31.186 11.1448 30.7258C11.5716 30.5428 12.0036 30.3421 12.4304 30.1311C14.579 29.0248 16.6051 27.6951 18.4751 26.1641C20.9778 24.131 24.1005 21.0814 25.5488 19.2313C25.7182 19.0042 25.8757 18.7908 26.0214 18.5908C25.8664 18.3901 25.7114 18.1944 25.5589 18.0038C23.7067 20.3698 20.7466 23.3406 17.9949 25.5694C16.1687 27.0629 14.1924 28.3626 12.0976 29.4475C11.6885 29.6534 11.2744 29.8465 10.8551 30.0218C9.84116 30.4615 8.7833 30.7921 7.6994 31.0079C6.75468 31.1678 5.79478 31.2189 4.83842 31.1604C3.57118 31.0454 2.35065 30.6251 1.28125 29.9354C1.65193 30.4784 2.06846 30.9885 2.52626 31.4603C2.97769 31.602 3.43766 31.7148 3.90339 31.7983C4.23116 31.8465 4.47 31.8923 4.76728 31.9228Z" fill="#ADADAD"/>
<path d="M10.6363 0.765864C11.6081 0.790736 12.5721 0.946308 13.5023 1.22839C13.9822 1.35101 14.4533 1.50553 14.9125 1.69092C15.3766 1.60282 15.8475 1.53505 16.3252 1.48761C14.4653 0.618465 12.5241 0.0288707 10.6464 0.0034571C9.02898 -0.0417883 7.43535 0.400978 6.07294 1.27413C5.79924 1.69683 5.56776 2.14542 5.38184 2.61343C5.71469 2.39487 6.14409 2.13057 6.62685 1.82815C7.83451 1.09842 9.22581 0.729803 10.6363 0.765864Z" fill="#8D8D8D"/>
<path d="M34.5077 19.671C34.2536 19.1043 33.9538 18.5452 33.6464 18.0013C33.0288 16.9183 32.3502 15.8712 31.6137 14.8653C30.8693 13.8487 30.1172 12.9034 29.4311 12.1028C27.6979 10.1423 25.8464 8.28957 23.887 6.55505C23.6329 6.67704 23.3967 6.80919 23.1553 6.93626C23.3408 7.09382 23.5466 7.27172 23.7752 7.47248C25.5615 9.08788 27.2579 10.7999 28.8569 12.6009C29.6192 13.498 30.3458 14.4104 30.9988 15.3126C31.7144 16.2962 32.3752 17.3185 32.9781 18.3749C33.2805 18.9137 33.56 19.4575 33.8115 19.9937C34.7237 21.9531 35.1988 23.7575 35.2217 25.3611C35.242 27.0155 34.8482 28.4793 34.1037 29.4806C33.3965 30.3937 32.6238 31.2541 31.7916 32.055C31.5095 32.3244 31.1564 32.6319 30.7752 32.9419C30.5786 33.5728 30.292 34.172 29.9241 34.7209C31.3749 33.6103 33.6032 31.4171 34.7135 29.9279C35.6155 28.7131 36.0043 27.0587 35.984 25.3535C35.9636 23.4729 35.3742 21.5313 34.5077 19.671Z" fill="#8D8D8D"/>
<path d="M25.1343 30.0194C24.7151 29.8441 24.3009 29.6509 23.8919 29.4451C23.6784 29.628 23.4548 29.8161 23.2236 30.0067C23.5726 30.1761 23.9215 30.3379 24.2705 30.4921C24.5652 30.3447 24.8523 30.1871 25.1343 30.0194Z" fill="#8D8D8D"/>
<path d="M30.3763 31.2011H30.14C29.8681 31.2011 29.5937 31.1807 29.3193 31.1528C28.9788 31.1197 28.6383 31.0714 28.3029 31.0054C28.0285 31.2239 27.749 31.4298 27.4619 31.6305L28.1581 31.7602L28.5037 31.8211H28.5418C28.6688 31.8415 28.7959 31.8618 28.9229 31.8771L29.2939 31.9177H29.3599C29.4768 31.9177 29.5962 31.938 29.7106 31.9431H29.7766C29.896 31.9431 30.0155 31.9431 30.1349 31.9431H30.2721C30.5262 31.9431 30.7802 31.9431 31.0343 31.9152C31.0343 31.8796 31.0343 31.8466 31.0521 31.8135C31.0699 31.7805 31.0775 31.6839 31.0877 31.6204C31.1131 31.4603 31.1334 31.2976 31.1487 31.135C30.8997 31.1833 30.6405 31.1985 30.3763 31.2011Z" fill="#8D8D8D"/>
</g>
<defs>
<clipPath id="clip0_1049_2761">
<rect width="158" height="36" fill="white"/>
</clipPath>
</defs>
</svg>
