<svg width="329" height="214" viewBox="0 0 329 214" fill="none" xmlns="http://www.w3.org/2000/svg">
<path d="M202.62 0C173.086 0 144.399 10.4264 121.787 29.358C119.761 31.0488 117.557 33.0213 115.172 35.1988C107.327 42.4487 97.8161 52.081 88.2791 62.1231C66.0775 85.4609 43.7989 110.823 42.3632 112.462C35.4412 120.352 36.2103 132.367 44.1322 139.31C52.0284 146.226 64.0522 145.458 70.9742 137.542C71.5125 136.927 124.222 76.9302 146.219 58.4854C161.986 45.2922 182.008 38.0168 202.595 38.0168C251.023 38.0168 290.427 77.3913 290.427 125.783C290.427 174.175 251.023 213.55 202.595 213.55C179.88 213.55 158.55 205.019 142.168 189.469C132.631 199.511 123.12 209.144 115.275 216.368C138.835 239.091 169.677 251.567 202.569 251.567C271.968 251.567 328.447 195.131 328.447 125.783C328.447 56.436 272.02 0 202.62 0Z" fill="#FFEFE2" fill-opacity="0.7"/>
<path d="M142.219 189.469C164.421 166.131 186.699 140.744 188.135 139.105C195.057 131.189 194.262 119.2 186.366 112.257C178.47 105.34 166.446 106.109 159.498 114.025C158.96 114.64 106.25 174.636 84.2536 193.081C68.4868 206.274 48.4643 213.55 27.8778 213.55C-20.5506 213.55 -59.9547 174.175 -59.9547 125.783C-59.9547 77.3913 -20.5506 38.0424 27.8778 38.0424C50.6178 38.0424 71.9222 46.5731 88.2786 62.1231C97.8156 52.081 107.327 42.4487 115.172 35.1988C91.6114 12.5015 60.7957 0 27.8778 0C-41.5216 0 -98 56.436 -98 125.783C-98 195.131 -41.5216 251.567 27.8778 251.567C57.4116 251.567 86.0995 241.14 108.711 222.209C110.737 220.518 112.941 218.545 115.326 216.342C123.171 209.092 132.682 199.46 142.219 189.444V189.469Z" fill="#FFEFE2" fill-opacity="0.7"/>
</svg>
