<svg width="105" height="43" viewBox="0 0 105 43" fill="none" xmlns="http://www.w3.org/2000/svg">
<g clip-path="url(#clip0_846_1041)">
<path d="M97.147 30.1176C96.8661 30.1176 96.6726 29.9235 96.6726 29.6444V15.7816H91.9467C91.6657 15.7816 91.4719 15.5884 91.4719 15.309V13.3967C91.4719 13.1167 91.6658 12.923 91.9467 12.923H104.526C104.807 12.923 105 13.1169 105 13.3967V15.3089C105 15.5881 104.807 15.7816 104.526 15.7816H99.8007V29.6442C99.8007 29.9235 99.6063 30.1176 99.3263 30.1176H97.147ZM60.9454 23.1964L58.4646 16.1044L55.9616 23.1964H60.9454ZM66.4477 29.5574C66.5561 29.8375 66.3831 30.1176 66.081 30.1176H63.8374C63.5136 30.1176 63.3192 29.9676 63.211 29.6653L61.9385 26.0128H54.9698L53.6951 29.6653C53.588 29.9677 53.3931 30.1176 53.0701 30.1176H50.9563C50.6754 30.1176 50.4809 29.8374 50.5889 29.5574L56.436 13.3538C56.5443 13.0519 56.7384 12.9237 57.0614 12.9237H59.9527C60.2767 12.9237 60.4925 13.052 60.6003 13.3538L66.4477 29.5574ZM83.2079 27.7959C84.5882 27.7959 85.5165 27.1307 86.2719 25.9911L82.777 22.2509C81.4386 23.0038 80.5751 23.755 80.5751 25.2599C80.5753 26.7432 81.783 27.7959 83.2079 27.7959ZM84.1787 15.2011C83.0571 15.2011 82.4098 15.9111 82.4098 16.8566C82.4098 17.5872 82.7974 18.2321 83.6824 19.178C85.2142 18.2962 85.8618 17.7592 85.8618 16.8138C85.8618 15.9319 85.3011 15.2011 84.1787 15.2011ZM93.738 29.5157C94.0182 29.8168 93.8459 30.1176 93.4997 30.1176H90.7595C90.3929 30.1176 90.1987 30.0312 89.9614 29.7515L88.3217 27.9469C87.2214 29.4085 85.6882 30.5043 83.1427 30.5043C79.9927 30.5043 77.5107 28.6131 77.5107 25.3683C77.5107 22.8744 78.8492 21.5415 80.8777 20.4242C79.8843 19.2851 79.4321 18.0815 79.4321 17.0289C79.4321 14.3631 81.3091 12.5365 84.1352 12.5365C87.0265 12.5365 88.7961 14.235 88.7961 16.7492C88.7961 18.8984 87.243 20.1009 85.6026 21.0043L88.0196 23.6057L89.3786 21.2407C89.5511 20.9617 89.7454 20.8539 90.0901 20.8539H92.1826C92.5284 20.8539 92.7226 21.0909 92.5075 21.4561L90.0904 25.582L93.738 29.5157ZM72.205 30.1176C72.4855 30.1176 72.6806 29.9235 72.6806 29.6444V15.7816H77.4052C77.6857 15.7816 77.8797 15.5884 77.8797 15.309V13.3967C77.8797 13.1167 77.6857 12.923 77.4052 12.923H64.8255C64.5446 12.923 64.3508 13.1169 64.3508 13.3967V15.3089C64.3508 15.5881 64.5447 15.7816 64.8255 15.7816H69.5501V29.6442C69.5501 29.9235 69.7449 30.1176 70.0251 30.1176H72.205Z" fill="#ADADAD"/>
<path d="M8.34812 38.4796C12.0073 41.3022 16.6003 42.9981 21.5834 42.9981C27.0366 42.9981 32.008 40.9806 35.8021 37.6689C35.8481 37.6284 35.8254 37.6016 35.7801 37.6284C34.0775 38.7615 29.2251 41.2348 21.5836 41.2348C14.9429 41.2348 10.7462 39.7583 8.37626 38.4401C8.33091 38.4179 8.31411 38.4517 8.34812 38.4796ZM23.0485 39.5785C28.3599 39.5785 34.1965 38.1357 37.6872 35.2798C38.6425 34.5016 39.5524 33.466 40.3673 32.0741C40.8364 31.2733 41.2952 30.3218 41.6689 29.3866C41.6855 29.341 41.6573 29.3188 41.6228 29.3701C38.3767 34.1303 28.9765 37.0994 19.2704 37.0994C12.4097 37.0994 5.02775 34.9133 2.13765 30.7389C2.10921 30.7003 2.08076 30.7168 2.09808 30.7612C4.79041 36.4635 12.9583 39.5785 23.0485 39.5785ZM17.2454 30.1187C6.19871 30.1187 0.989993 24.9919 0.045138 21.4933C0.0334861 21.4426 0 21.4537 0 21.4992C0 22.6771 0.118304 24.197 0.321845 25.2059C0.418944 25.697 0.820043 26.4677 1.4081 27.0821C4.083 29.8604 10.7519 33.7535 22.3013 33.7535C38.037 33.7535 41.6349 28.5303 42.3696 26.8126C42.895 25.5842 43.1672 23.3642 43.1672 21.4993C43.1672 21.0481 43.1558 20.6876 43.1387 20.3338C43.1387 20.2763 43.1054 20.2716 43.0938 20.3276C42.3075 24.5306 28.8631 30.1187 17.2454 30.1187ZM2.08076 12.2762C1.44778 13.528 0.746142 15.6398 0.537562 16.7328C0.446132 17.2011 0.485076 17.426 0.649883 17.7755C1.9739 20.5748 8.67102 25.0536 24.2928 25.0536C33.8232 25.0536 41.2267 22.7205 42.4261 18.4628C42.6469 17.679 42.6588 16.8515 42.3751 15.7365C42.058 14.4904 41.4643 13.0374 40.9618 12.0171C40.9452 11.9839 40.916 11.9888 40.9219 12.0281C41.1086 17.6124 25.4806 21.2115 17.5954 21.2115C9.05437 21.2115 1.92876 17.8205 1.92876 13.5387C1.92876 13.1273 2.01421 12.7158 2.12086 12.2875C2.13156 12.2484 2.09797 12.2419 2.08076 12.2762ZM35.8371 5.41984C35.9278 5.56147 35.973 5.71262 35.973 5.91607C35.973 8.30478 28.6364 12.5305 16.9575 12.5305C8.37626 12.5305 6.76966 9.35833 6.76966 7.34097C6.76966 6.61984 7.0472 5.88197 7.65846 5.1326C7.69184 5.08804 7.66349 5.07089 7.62497 5.10404C6.51016 6.04547 5.48585 7.10478 4.58728 8.24829C4.15795 8.78909 3.89142 9.26817 3.89142 9.5552C3.89142 13.7358 14.4113 16.767 24.2477 16.767C34.7286 16.767 39.4061 13.3576 39.4061 10.3614C39.4061 9.29055 38.9878 8.66545 37.9177 7.45352C37.2231 6.66513 36.5661 6.02319 35.8707 5.39128C35.8371 5.36367 35.8137 5.38616 35.8371 5.41984ZM32.624 3.03166C29.3894 1.09965 25.6332 0.000488281 21.5836 0.000488281C17.5059 0.000488281 13.6365 1.13804 10.3903 3.1212C9.41653 3.71838 8.86847 4.19693 8.86847 4.8121C8.86847 6.62549 13.1214 8.57528 20.6667 8.57528C28.1337 8.57528 33.9252 6.43961 33.9252 4.38386C33.9252 3.89317 33.4948 3.54986 32.624 3.03166Z" fill="#ADADAD"/>
</g>
<defs>
<clipPath id="clip0_846_1041">
<rect width="105" height="43" fill="white"/>
</clipPath>
</defs>
</svg>
