<svg width="118" height="37" viewBox="0 0 118 37" fill="none" xmlns="http://www.w3.org/2000/svg">
<g clip-path="url(#clip0_846_1062)">
<path d="M74.4996 36.2894C74.6625 35.951 74.8066 35.6515 74.9509 35.3597C75.7467 33.7194 76.5491 32.079 77.3448 30.4447C77.9425 29.2159 78.5418 27.9872 79.1433 26.7583C79.1649 26.7148 79.175 26.6661 79.1726 26.6172C79.1711 26.5682 79.1564 26.5207 79.1318 26.4795C78.7114 25.5011 78.2934 24.5203 77.8777 23.5373C76.6683 20.6595 75.463 17.7858 74.2618 14.9161C73.641 13.4286 73.0145 11.9402 72.3937 10.4527L68.5585 1.30661C68.4958 1.16071 68.4462 1.0079 68.377 0.815376C68.5212 0.802426 68.6213 0.782567 68.7279 0.782567H72.4753C72.6195 0.782567 72.7701 0.795517 72.9143 0.782567C72.9904 0.769964 73.0683 0.788313 73.1322 0.833944C73.1961 0.879575 73.2413 0.949104 73.2588 1.02862C73.5163 1.69942 73.7851 2.36332 74.0548 3.02808C75.3207 6.14296 76.5847 9.2558 77.8469 12.3667L81.3252 20.9352C81.3946 21.1079 81.4694 21.2736 81.5627 21.4929C81.6159 21.4031 81.6645 21.3099 81.7069 21.214C83.2116 17.7999 84.7179 14.3837 86.2256 10.9655C86.8588 9.52371 87.5044 8.08283 88.1437 6.64887C88.9774 4.76279 89.8065 2.87872 90.631 0.996668C90.6495 0.932266 90.6881 0.876516 90.7405 0.838905C90.7929 0.801286 90.857 0.78413 90.9194 0.790337H91.1014C92.4588 0.790337 93.8185 0.79264 95.1813 0.797246C95.2816 0.798061 95.3818 0.804691 95.4813 0.817097C95.4443 0.923287 95.425 0.996668 95.3934 1.06919C94.7294 2.50404 94.0645 3.94493 93.4005 5.37978C92.5167 7.29291 91.6305 9.21034 90.7428 11.1322C90.2423 12.2216 89.734 13.3043 89.2265 14.3937C88.2363 16.5394 87.246 18.6825 86.255 20.823L83.0967 27.6381C82.1064 29.7837 81.1139 31.9268 80.1197 34.0672C79.8004 34.7579 79.4804 35.4486 79.1665 36.1392C79.1472 36.1987 79.1094 36.2494 79.0593 36.2832C79.0091 36.3168 78.9498 36.3316 78.8911 36.3249C77.4867 36.318 76.0897 36.318 74.6861 36.318C74.6373 36.3093 74.5868 36.2955 74.4996 36.2894Z" fill="#ADADAD"/>
<path d="M104.425 6.69247C102.607 10.8433 100.79 14.9951 98.9477 19.1925H106.719C106.995 19.1925 106.989 19.1995 107.089 19.4585C107.446 20.4081 107.81 21.3518 108.173 22.3014C108.204 22.3808 108.23 22.4672 108.28 22.5872C108.11 22.6001 107.978 22.6139 107.841 22.6139C105.604 22.6139 103.36 22.6139 101.123 22.6209C99.9688 22.6209 98.8166 22.6209 97.6567 22.6139C97.5865 22.6043 97.5155 22.621 97.4561 22.661C97.3968 22.7011 97.352 22.7621 97.3304 22.8332C96.8229 24.0022 96.3024 25.1582 95.7949 26.3202C95.7717 26.3867 95.7286 26.4432 95.6715 26.4806C95.6152 26.518 95.5481 26.5342 95.4818 26.5266C94.0897 26.5196 92.6922 26.5196 91.3009 26.5196C91.1821 26.5196 91.0687 26.5067 90.9307 26.4929C90.9561 26.4195 90.9631 26.3798 90.9808 26.34C91.7644 24.6531 92.5456 22.9639 93.3254 21.2723C94.0835 19.6251 94.8416 17.9709 95.6005 16.3238C96.0332 15.381 96.4774 14.4443 96.9101 13.5007C97.3482 12.5441 97.7816 11.5815 98.2266 10.618C98.6593 9.67524 99.1043 8.73854 99.5431 7.79496C100.038 6.71233 100.527 5.62971 101.028 4.5471C101.592 3.31859 102.168 2.09612 102.733 0.873643C102.756 0.810592 102.798 0.757154 102.853 0.721238C102.907 0.685319 102.97 0.668832 103.034 0.674216C103.98 0.674216 104.933 0.681123 105.879 0.681123C105.954 0.676976 106.03 0.698633 106.093 0.742914C106.156 0.787199 106.204 0.851776 106.231 0.927173C107.158 2.95944 108.092 4.992 109.032 7.02485C109.609 8.27324 110.191 9.52248 110.768 10.7777C111.564 12.4983 112.353 14.225 113.149 15.9456C113.763 17.2803 114.383 18.6089 114.998 19.9376C115.982 22.0631 116.962 24.1927 117.937 26.3262C117.956 26.3659 117.968 26.4057 118 26.4859C117.874 26.4989 117.774 26.5188 117.667 26.5188C116.376 26.5256 115.085 26.528 113.794 26.5256C113.668 26.5256 113.537 26.5188 113.412 26.5256C113.361 26.5312 113.31 26.5177 113.267 26.4874C113.225 26.4571 113.194 26.412 113.179 26.3599C112.559 24.9518 111.932 23.5437 111.312 22.1356C110.804 20.9866 110.303 19.8444 109.801 18.6953C109.338 17.6395 108.887 16.5698 108.422 15.5139C108.085 14.7439 107.727 13.9798 107.388 13.2158C106.881 12.0802 106.379 10.9421 105.884 9.80127C105.483 8.88442 105.088 7.96154 104.693 7.0447C104.643 6.92557 104.574 6.81247 104.518 6.69247H104.425Z" fill="#ADADAD"/>
<path d="M27.0688 26.7052H26.7112C25.3198 26.7052 23.9219 26.7052 22.5306 26.7121C22.46 26.7204 22.3888 26.7033 22.3285 26.6636C22.2682 26.6238 22.2223 26.5636 22.1982 26.4928C21.3966 24.666 20.5926 22.8395 19.7861 21.0133C19.0155 19.2599 18.2506 17.5065 17.48 15.753C17.0409 14.7498 16.5961 13.7535 16.1578 12.7573C15.7628 11.8542 15.3742 10.9504 14.9799 10.0473C14.5661 9.11086 14.1504 8.17877 13.7327 7.25099C13.67 7.11804 13.6138 6.98508 13.5324 6.80638C11.6897 11.0176 9.87228 15.1685 8.02963 19.3669C8.12526 19.3813 8.22152 19.3902 8.318 19.3937H16.0642C16.4902 20.516 16.9227 21.6323 17.3675 22.8012H6.80609C6.49247 22.8012 6.5055 22.8012 6.37354 23.1C5.96623 24.0367 5.5524 24.9664 5.13858 25.9031C5.02616 26.1621 4.90642 26.4211 4.78097 26.6939H0C0.0165192 26.6369 0.0375002 26.5815 0.0627249 26.5282C0.563712 25.4326 1.06551 24.3293 1.5665 23.2338C2.08703 22.0976 2.61328 20.9555 3.13952 19.8193C3.76596 18.4708 4.39891 17.1291 5.01964 15.7807C5.45221 14.844 5.86603 13.9012 6.29778 12.9714C6.73685 12.0148 7.19385 11.0583 7.63863 10.1017C8.56649 8.09616 9.48126 6.08291 10.4083 4.0774C10.8718 3.06817 11.3419 2.06498 11.8062 1.05575C11.8285 0.997497 11.868 0.948491 11.9188 0.916104C11.9697 0.883718 12.0291 0.869711 12.0881 0.876182C13.0533 0.883091 14.0187 0.883091 14.9897 0.876182C15.0529 0.867642 15.117 0.882012 15.1716 0.916965C15.2262 0.951911 15.268 1.00539 15.2903 1.0687C15.8166 2.23074 16.3558 3.39364 16.8886 4.55568C17.3276 5.51224 17.7724 6.47486 18.2172 7.43142C19.0758 9.29103 19.9322 11.1509 20.7865 13.0111C21.7141 15.0255 22.6457 17.04 23.5814 19.0544C24.421 20.8743 25.2587 22.6942 26.0945 24.514C26.3951 25.165 26.6965 25.816 26.9906 26.4669C27.0117 26.5325 27.0313 26.6016 27.0688 26.7052Z" fill="#ADADAD"/>
<path d="M72.3617 26.6915H67.5922C64.6823 20.083 61.7704 13.4719 58.8562 6.85828C58.7243 7.01109 53.4472 19.0001 53.347 19.3722C53.435 19.3791 53.5099 19.3852 53.5914 19.3852H61.028C61.4353 19.3852 61.3473 19.3653 61.4793 19.7106C61.8361 20.6602 62.2002 21.6039 62.5635 22.5536C62.5888 22.62 62.6075 22.6865 62.6385 22.7927H62.3126C59.6994 22.7927 57.0839 22.795 54.4662 22.7996C53.6638 22.7996 52.8615 22.8065 52.0534 22.7927C51.974 22.7846 51.8944 22.805 51.8273 22.8508C51.7602 22.8966 51.7096 22.9649 51.6836 23.0448C51.1826 24.1939 50.6686 25.3361 50.1668 26.4852C50.1106 26.6112 50.0601 26.7113 49.8906 26.7113C48.4113 26.7045 46.9322 26.7021 45.4534 26.7045C45.4094 26.7045 45.372 26.6975 45.3027 26.6915C45.3167 26.6301 45.3355 26.57 45.3589 26.5119C46.0041 25.1038 46.6566 23.7026 47.3018 22.2946C48.0789 20.6076 48.8561 18.916 49.6332 17.2199C50.3224 15.7255 50.9993 14.2242 51.6885 12.7306C52.2775 11.4555 52.8794 10.1864 53.4684 8.91123C53.945 7.88135 54.4085 6.84533 54.885 5.80934L56.6715 1.96322C56.8157 1.6576 56.9598 1.34507 57.091 1.03341C57.1088 0.979242 57.1431 0.932894 57.1886 0.901641C57.234 0.870387 57.2879 0.856002 57.3419 0.860752C58.3259 0.867654 59.31 0.873702 60.2941 0.867654C60.457 0.867654 60.5132 0.960893 60.5702 1.08694C61.0655 2.17646 61.5648 3.26569 62.0683 4.35463C63.2212 6.85885 64.3745 9.36075 65.5279 11.8604C66.2986 13.5275 67.07 15.1876 67.8341 16.8556C68.7867 18.9212 69.7371 20.9846 70.6852 23.0457L72.2461 26.4334C72.2905 26.5163 72.3291 26.6025 72.3617 26.6915Z" fill="#ADADAD"/>
<path d="M22.6504 0.80829C22.7824 0.801381 22.876 0.788431 22.9697 0.788431H27.0492C27.1014 0.791753 27.1536 0.791753 27.2057 0.788431C27.2694 0.783439 27.333 0.80098 27.3863 0.838313C27.4396 0.875645 27.4798 0.930669 27.5006 0.99477C27.7449 1.57924 28.0023 2.16371 28.2525 2.74818C28.9291 4.32923 29.6102 5.90796 30.2955 7.4844C30.9724 9.04527 31.6428 10.6062 32.3198 12.174C33.022 13.7945 33.7177 15.4149 34.4191 17.0293C34.9708 18.3048 35.5204 19.5801 36.0678 20.8556C36.0988 20.929 36.1371 20.9954 36.1868 21.1017C36.228 21.0376 36.2655 20.971 36.2992 20.9022C37.0576 19.1419 37.8225 17.3816 38.5801 15.6282C40.0654 12.1944 41.5486 8.7584 43.0295 5.32003C43.6503 3.89209 44.2644 2.45724 44.8787 1.0293C44.9414 0.8834 45.0041 0.79016 45.1736 0.79016C46.6277 0.80311 48.0818 0.80311 49.5359 0.810019C49.599 0.814912 49.6618 0.823853 49.724 0.83678C49.68 0.95592 49.6548 1.06901 49.6116 1.16225C49.2165 2.01263 48.8223 2.86905 48.4271 3.71943C47.4746 5.78508 46.5243 7.84843 45.576 9.90948C44.7866 11.6162 43.9964 13.317 43.2071 15.0238C42.298 16.9965 41.3963 18.9761 40.4806 20.9488C39.6969 22.6556 38.9011 24.3564 38.1183 26.0632C38.0555 26.1961 37.9993 26.3222 37.943 26.4551C37.9232 26.5152 37.8842 26.566 37.8327 26.5988C37.7813 26.6316 37.7206 26.6444 37.6612 26.6347C36.6837 26.6278 35.7118 26.6278 34.7343 26.6347C34.6713 26.6416 34.6079 26.6265 34.5536 26.5918C34.4994 26.5571 34.4573 26.5045 34.4337 26.4422C33.9947 25.4925 33.5442 24.5489 33.1051 23.5993C32.767 22.862 32.4347 22.1117 32.0958 21.3744C31.8139 20.7563 31.5191 20.1459 31.2307 19.5278C30.0587 16.9954 28.8911 14.4603 27.7279 11.9227C27.3898 11.1855 27.0444 10.4482 26.7064 9.70402C25.9544 8.07662 25.2082 6.45617 24.4629 4.8288C23.8862 3.58043 23.3224 2.32515 22.7522 1.06901C22.7318 1.00772 22.7008 0.928291 22.6504 0.80829Z" fill="#ADADAD"/>
</g>
<defs>
<clipPath id="clip0_846_1062">
<rect width="118" height="37" fill="white"/>
</clipPath>
</defs>
</svg>
