<svg width="145" height="27" viewBox="0 0 145 27" fill="none" xmlns="http://www.w3.org/2000/svg">
<g clip-path="url(#clip0_846_1046)">
<path d="M14.6927 22.8686C14.6927 22.1115 14.3878 21.3798 13.8368 20.8362C13.2848 20.2917 12.5308 19.9813 11.7393 19.9813H9.02124C8.25445 19.9813 7.52286 20.2726 6.97612 20.7858L6.92381 20.8362C6.37278 21.3798 6.06814 22.1115 6.06814 22.8686C6.06816 23.6258 6.37284 24.3575 6.92381 24.9011C7.47571 25.4455 8.2297 25.7559 9.02124 25.7559H11.7393C12.5309 25.7559 13.2851 25.4456 13.837 24.9011C14.3879 24.3575 14.6926 23.6258 14.6927 22.8686ZM15.9102 22.8686C15.9102 23.9598 15.4707 25.0065 14.6885 25.7782C13.9064 26.5498 12.8455 26.9832 11.7393 26.9832H9.02124C7.91512 26.9832 6.85438 26.5497 6.07225 25.7782C5.29004 25.0065 4.8506 23.9598 4.85059 22.8686C4.85059 21.7774 5.29007 20.7307 6.07225 19.9591C6.85438 19.1875 7.91514 18.7541 9.02124 18.754H11.7393C12.8109 18.754 13.84 19.1609 14.6144 19.8878L14.6885 19.9591L14.7607 20.0323C15.4977 20.7963 15.9102 21.8115 15.9102 22.8686Z" fill="#ADADAD"/>
<path d="M14.7418 12.5506C14.7418 12.1333 14.6586 11.7194 14.4964 11.3325C14.3342 10.9456 14.0958 10.5923 13.7936 10.2937C13.5102 10.0136 13.1758 9.78667 12.8071 9.62515L12.733 9.59377C12.3349 9.43084 11.9075 9.34667 11.4752 9.34666H4.56225C3.68822 9.34666 2.85471 9.69007 2.24387 10.2937C1.6339 10.8965 1.29568 11.7088 1.29568 12.5506C1.29571 13.3923 1.6339 14.2047 2.24387 14.8075C2.85471 15.4111 3.68826 15.7543 4.56225 15.7543H11.4752C11.9074 15.7543 12.3349 15.6701 12.733 15.5072C13.131 15.3443 13.4913 15.1062 13.7936 14.8075C14.0958 14.5089 14.3342 14.1555 14.4964 13.7685C14.6586 13.3816 14.7418 12.9679 14.7418 12.5506ZM15.9593 12.5506C15.9593 13.1324 15.8433 13.7086 15.618 14.2462C15.3926 14.7838 15.0622 15.2722 14.6458 15.6837C14.2294 16.0951 13.7351 16.4216 13.1911 16.6443C12.6471 16.8669 12.0641 16.9816 11.4752 16.9816H4.56225C3.37297 16.9816 2.23237 16.5147 1.39145 15.6837C0.550564 14.8527 0.078149 13.7257 0.078125 12.5506C0.078125 11.3754 0.550531 10.2483 1.39145 9.41726C2.23238 8.58627 3.37298 8.11938 4.56225 8.11938H11.4752C12.064 8.11939 12.6471 8.23405 13.1911 8.45671C13.7351 8.67939 14.2294 9.00581 14.6458 9.41726C15.0622 9.82873 15.3926 10.3172 15.618 10.8548C15.8433 11.3924 15.9593 11.9687 15.9593 12.5506Z" fill="#ADADAD"/>
<path d="M14.6864 3.18188C14.6864 2.11166 13.8258 1.24403 12.7641 1.244C11.7024 1.244 10.8416 2.11164 10.8416 3.18188C10.8416 4.25205 11.7024 5.11954 12.7641 5.11954C13.8258 5.1195 14.6864 4.25203 14.6864 3.18188ZM15.904 3.18188C15.904 4.92984 14.4983 6.34678 12.7641 6.34681C11.0299 6.34681 9.62405 4.92986 9.62402 3.18188C9.62402 1.43384 11.0299 0.0167236 12.7641 0.0167236C14.4983 0.0167563 15.904 1.43386 15.904 3.18188Z" fill="#ADADAD"/>
<path d="M11.7394 18.754H9.02134C7.91518 18.754 6.85433 19.1875 6.07217 19.9592C5.28999 20.7308 4.85059 21.7774 4.85059 22.8686C4.85059 23.9599 5.28999 25.0065 6.07217 25.7781C6.85433 26.5497 7.91518 26.9833 9.02134 26.9833H11.7394C12.8455 26.9833 13.9064 26.5497 14.6885 25.7781C15.4707 25.0065 15.9101 23.9599 15.9101 22.8686C15.9101 21.7774 15.4707 20.7308 14.6885 19.9592C13.9064 19.1875 12.8455 18.754 11.7394 18.754Z" fill="#ADADAD"/>
<path d="M11.4752 8.11938H4.56221C3.37297 8.11938 2.23241 8.58624 1.39149 9.41724C0.550554 10.2482 0.078125 11.3753 0.078125 12.5505C0.078125 13.7257 0.550554 14.8528 1.39149 15.6838C2.23241 16.5148 3.37297 16.9816 4.56221 16.9816H11.4752C12.064 16.9816 12.6471 16.867 13.1911 16.6443C13.7352 16.4216 14.2295 16.0953 14.6459 15.6838C15.0623 15.2723 15.3926 14.7838 15.6179 14.2462C15.8433 13.7086 15.9592 13.1324 15.9592 12.5505C15.9592 11.9686 15.8433 11.3924 15.6179 10.8548C15.3926 10.3172 15.0623 9.82869 14.6459 9.41724C14.2295 9.00577 13.7352 8.67938 13.1911 8.45668C12.6471 8.23399 12.064 8.11938 11.4752 8.11938Z" fill="#ADADAD"/>
<path d="M9.62402 3.18182C9.62402 1.43378 11.0299 0.0167236 12.7641 0.0167236C14.4982 0.0167236 15.9041 1.43378 15.9041 3.18182C15.9041 4.92983 14.4982 6.34689 12.7641 6.34689C11.0299 6.34689 9.62402 4.92983 9.62402 3.18182Z" fill="#ADADAD"/>
<path fill-rule="evenodd" clip-rule="evenodd" d="M42.3828 26.0568V4.43417C42.3828 4.16163 42.602 3.94067 42.8725 3.94067H54.7711C55.0416 3.94067 55.2608 4.16163 55.2608 4.43417V6.16719C55.2608 6.43974 55.0416 6.66067 54.7711 6.66067H45.1509V13.781H53.7262C53.9965 13.781 54.2157 14.002 54.2157 14.2745V15.9363C54.2157 16.2088 53.9965 16.4298 53.7262 16.4298H45.1509V23.8316H54.7725C55.0428 23.8316 55.2619 24.0525 55.2619 24.325V26.0581C55.2619 26.3306 55.0428 26.5517 54.7725 26.5515L42.8723 26.5504C42.602 26.5504 42.3828 26.3295 42.3828 26.0568Z" fill="#ADADAD"/>
<path d="M143.538 6.11564L142.881 4.13063V6.11564H142.518V3.76294H143.127L143.724 5.67467L144.333 3.76294H144.922V6.11564H144.558V4.13063L143.901 6.11564H143.538Z" fill="#ADADAD"/>
<path d="M141.132 4.05735H140.402V3.76294H142.226V4.05735H141.497V6.11435H141.132V4.05735Z" fill="#ADADAD"/>
<path fill-rule="evenodd" clip-rule="evenodd" d="M133.874 24.1119H133.878C135.235 24.1119 136.223 23.787 136.871 23.1977C137.514 22.6129 137.864 21.7291 137.864 20.5167V20.5137C137.872 19.7094 137.598 18.9279 137.09 18.3079C136.581 17.688 135.871 17.2698 135.086 17.1274L135.075 17.1255L131.371 16.14C130.02 15.8056 128.828 15.005 128.001 13.8769C127.176 12.7504 126.767 11.3684 126.846 9.97035C126.848 8.11544 127.5 6.55072 128.656 5.45021C129.812 4.34946 131.451 3.73303 133.39 3.73303C135.556 3.73303 137.152 4.47198 138.266 5.60817C139.375 6.7388 139.989 8.24326 140.239 9.75028C140.29 10.0539 140.054 10.3186 139.759 10.3186H138.052C137.797 10.3186 137.596 10.1249 137.562 9.88627C137.425 8.94062 136.958 8.07262 136.241 7.4412C135.476 6.76808 134.486 6.41456 133.471 6.45285L133.466 6.45303H133.462C132.257 6.45303 131.298 6.80619 130.644 7.40974C129.992 8.0109 129.615 8.88374 129.615 9.97818V9.98451L129.615 9.99083C129.578 10.7977 129.823 11.5921 130.307 12.2354C130.792 12.8787 131.485 13.3299 132.267 13.5102L132.272 13.5114L136.109 14.5666C137.451 14.9011 138.638 15.689 139.474 16.799C140.309 17.9089 140.742 19.2737 140.7 20.6659C140.699 22.5908 140.048 24.1766 138.861 25.2798C137.677 26.3806 135.988 26.9759 133.953 26.977C132.994 27.0172 132.038 26.859 131.142 26.512C130.245 26.1646 129.428 25.6351 128.742 24.9563C128.056 24.2777 127.516 23.4641 127.155 22.5664C126.82 21.7342 126.645 20.8459 126.64 19.9491C126.638 19.6855 126.843 19.4771 127.094 19.4603L128.746 19.3495C129.033 19.3303 129.261 19.5584 129.274 19.8298C129.299 20.3563 129.415 20.8749 129.618 21.3618C129.85 21.9181 130.191 22.4216 130.621 22.8422C131.05 23.2629 131.559 23.592 132.117 23.8102C132.675 24.0285 133.272 24.1311 133.87 24.1121L133.874 24.1119Z" fill="#ADADAD"/>
<path fill-rule="evenodd" clip-rule="evenodd" d="M115.821 17.2162V26.057C115.821 26.3294 116.04 26.5503 116.31 26.5506L118.104 26.5515C118.374 26.5517 118.593 26.3305 118.593 26.0579V17.2156L125.686 4.67862C125.872 4.34965 125.636 3.94067 125.261 3.94067H123.332C123.156 3.94067 122.993 4.03584 122.906 4.18994L117.206 14.2782L111.506 4.18994C111.419 4.03584 111.256 3.94067 111.08 3.94067H109.081C108.704 3.94067 108.469 4.3515 108.657 4.6805L115.821 17.2162Z" fill="#ADADAD"/>
<path fill-rule="evenodd" clip-rule="evenodd" d="M100.936 24.1119H100.94C102.296 24.1119 103.285 23.787 103.933 23.1977C104.576 22.6129 104.925 21.7291 104.925 20.5167V20.5137C104.934 19.7094 104.66 18.9279 104.151 18.3079C103.642 17.688 102.932 17.2698 102.147 17.1274L102.137 17.1255L98.4324 16.14C97.0813 15.8056 95.8892 15.005 95.0626 13.8769C94.2371 12.7504 93.8287 11.3684 93.9077 9.97035C93.9095 8.11544 94.5616 6.55072 95.7177 5.45021C96.8737 4.34946 98.5121 3.73303 100.451 3.73303C102.618 3.73303 104.213 4.47198 105.327 5.60817C106.436 6.7388 107.051 8.24326 107.301 9.75028C107.351 10.0539 107.115 10.3186 106.82 10.3186H105.113C104.859 10.3186 104.657 10.1249 104.623 9.88627C104.487 8.94062 104.019 8.07262 103.302 7.4412C102.538 6.76808 101.547 6.41456 100.533 6.45285L100.528 6.45303H100.523C99.3188 6.45303 98.36 6.80619 97.7052 7.40972C97.053 8.0109 96.6769 8.88374 96.6769 9.97818V9.98451L96.6764 9.99083C96.639 10.7977 96.8841 11.5922 97.3687 12.2354C97.8533 12.8787 98.5468 13.3299 99.3278 13.5102L99.3334 13.5114L103.17 14.5666C104.512 14.9011 105.7 15.689 106.535 16.799C107.37 17.9089 107.803 19.2737 107.761 20.6659C107.76 22.5908 107.109 24.1766 105.923 25.2798C104.739 26.3806 103.049 26.9759 101.014 26.977C100.055 27.0179 99.0989 26.8603 98.2035 26.514C97.306 26.1673 96.4887 25.6382 95.8022 24.9601C95.116 24.2817 94.5749 23.4688 94.213 22.5711C93.8774 21.7391 93.7023 20.8508 93.6963 19.9539C93.6945 19.6906 93.8989 19.4821 94.1492 19.4648L95.8067 19.3501C96.0936 19.3303 96.3227 19.5585 96.3355 19.8303C96.3601 20.3566 96.4763 20.8751 96.6795 21.3618C96.9118 21.9181 97.2527 22.4216 97.6821 22.8422C98.1114 23.2629 98.6203 23.592 99.1786 23.8102C99.7369 24.0285 100.333 24.1311 100.931 24.1121L100.936 24.1119Z" fill="#ADADAD"/>
<path fill-rule="evenodd" clip-rule="evenodd" d="M78.5723 26.057V4.43417C78.5723 4.16163 78.7914 3.94067 79.0619 3.94067H90.9606C91.2311 3.94067 91.4503 4.16163 91.4503 4.43417V6.16719C91.4503 6.43974 91.2311 6.66067 90.9606 6.66067H81.3403V13.7811H89.9157C90.186 13.7811 90.4052 14.002 90.4052 14.2745V15.9363C90.4052 16.2088 90.186 16.4298 89.9157 16.4298H81.3403V23.8316H90.9619C91.2322 23.8316 91.4514 24.0525 91.4514 24.3252V26.0581C91.4514 26.3305 91.2322 26.5517 90.9619 26.5517L79.0619 26.5503C78.7914 26.5503 78.5723 26.3294 78.5723 26.057Z" fill="#ADADAD"/>
<path fill-rule="evenodd" clip-rule="evenodd" d="M74.6457 4.43417V26.057C74.6457 26.3294 74.4267 26.5503 74.1564 26.5506L72.3405 26.5515C72.1692 26.5517 72.0102 26.4613 71.9215 26.3136L61.6763 9.25671V26.057C61.6763 26.3294 61.4571 26.5503 61.1866 26.5503H59.3979C59.1274 26.5503 58.9082 26.3294 58.9082 26.057V4.43417C58.9082 4.16163 59.1274 3.94067 59.3979 3.94067H61.2833C61.4544 3.94067 61.6134 4.03091 61.7022 4.17859L71.9474 21.2356V4.43417C71.9474 4.16163 72.1665 3.94067 72.4368 3.94067H74.1562C74.4265 3.94067 74.6457 4.16163 74.6457 4.43417Z" fill="#ADADAD"/>
<path fill-rule="evenodd" clip-rule="evenodd" d="M31.1512 6.37885H31.1452C29.9414 6.37885 28.7041 6.74965 27.7704 7.61637C26.8417 8.47847 26.1835 9.8592 26.1835 11.9419V18.5496C26.1835 20.6323 26.8417 22.0131 27.7704 22.8752C28.7041 23.7419 29.9414 24.1127 31.1452 24.1127C32.349 24.1127 33.5865 23.7419 34.5201 22.8752C35.4487 22.0131 36.1071 20.6323 36.1071 18.5496V17.0624H31.3666C31.0963 17.0624 30.8769 16.8414 30.8769 16.5689V14.8383C30.8769 14.5658 31.0963 14.3449 31.3666 14.3449H38.3146C38.5851 14.3449 38.8043 14.5658 38.8043 14.8383V18.5484C38.8043 20.9939 38.0547 23.0667 36.7112 24.5309C35.3657 25.9972 33.4442 26.8315 31.1452 26.8315C28.8808 26.8315 26.9599 25.9963 25.6064 24.5311C24.2545 23.0676 23.4863 20.995 23.4863 18.5484V11.9419C23.4863 9.49646 24.2355 7.42362 25.5796 5.95955C26.9249 4.49441 28.8465 3.66056 31.1468 3.66009C33.0561 3.59529 34.9154 4.28162 36.3318 5.57403C37.6884 6.81208 38.5364 8.51322 38.7153 10.3432C38.7441 10.6365 38.5119 10.8774 38.2314 10.8774H36.5058C36.2519 10.8774 36.0497 10.6849 36.0159 10.445C35.8565 9.31474 35.2969 8.27803 34.437 7.52845C33.5294 6.7372 32.3559 6.32581 31.1569 6.37859L31.1512 6.37885Z" fill="#ADADAD"/>
</g>
<defs>
<clipPath id="clip0_846_1046">
<rect width="145" height="27" fill="white"/>
</clipPath>
</defs>
</svg>
