<svg width="112" height="35" viewBox="0 0 112 35" fill="none" xmlns="http://www.w3.org/2000/svg">
<g clip-path="url(#clip0_846_1068)">
<path d="M16.128 13.1833C16.128 15.1667 14.56 16.8 12.656 16.8C10.752 16.8 9.184 15.1667 9.184 13.1833C9.184 11.2 10.752 9.56667 12.656 9.56667C14.56 9.56667 16.128 11.2 16.128 13.1833ZM12.656 18.2C10.752 18.2 9.184 19.8333 9.184 21.8167C9.184 23.8 10.752 25.4333 12.656 25.4333C14.56 25.4333 16.128 23.8 16.128 21.8167C16.128 19.8333 14.56 18.2 12.656 18.2ZM33.6 17.5C33.6 27.1833 26.096 35 16.8 35C7.504 35 0 27.1833 0 17.5C0 7.81667 7.504 0 16.8 0C26.096 0 33.6 7.81667 33.6 17.5ZM29.12 17.5C29.12 10.3833 23.632 4.66667 16.8 4.66667C9.968 4.66667 4.48 10.3833 4.48 17.5C4.48 24.6167 9.968 30.3333 16.8 30.3333C23.632 30.3333 29.12 24.6167 29.12 17.5ZM20.944 18.2C19.04 18.2 17.472 19.8333 17.472 21.8167C17.472 23.8 19.04 25.4333 20.944 25.4333C22.848 25.4333 24.416 23.8 24.416 21.8167C24.416 19.8333 22.848 18.2 20.944 18.2ZM20.944 9.56667C19.04 9.56667 17.472 11.2 17.472 13.1833C17.472 15.1667 19.04 16.8 20.944 16.8C22.848 16.8 24.416 15.1667 24.416 13.1833C24.416 11.2 22.848 9.56667 20.944 9.56667ZM78.736 6.88333C78.848 6.88333 78.96 7 79.072 7.11667V10.85C79.072 11.0833 78.848 11.2 78.736 11.2H72.8C72.576 11.2 72.464 10.9667 72.464 10.85V7.23333C72.464 7 72.688 6.88333 72.8 6.88333H78.736ZM78.624 12.1333H67.2C67.088 12.1333 66.864 12.25 66.864 12.4833L65.408 18.3167L65.296 18.6667L63.504 12.4833C63.504 12.3667 63.28 12.1333 63.168 12.1333H58.688C58.576 12.1333 58.352 12.25 58.352 12.4833L56.672 18.3167L56.56 18.6667L56.448 18.3167L55.776 15.4L55.104 12.4833C55.104 12.3667 54.88 12.1333 54.768 12.1333H45.808V7.11667C45.808 7 45.584 6.76667 45.36 6.88333L39.76 8.75C39.536 8.75 39.424 8.86667 39.424 9.1V12.25H37.968C37.856 12.25 37.632 12.3667 37.632 12.6V17.0333C37.632 17.15 37.744 17.3833 37.968 17.3833H39.424V22.8667C39.424 26.7167 41.44 28.4667 45.136 28.4667C46.704 28.4667 48.16 28.1167 49.168 27.5333V22.8667C49.168 22.6333 48.944 22.5167 48.832 22.6333C48.272 22.8667 47.712 22.9833 47.264 22.9833C46.256 22.9833 45.696 22.5167 45.696 21.35V17.3833H48.944C49.056 17.3833 49.28 17.2667 49.28 17.0333V13.3L53.536 28C53.536 28.1167 53.76 28.35 53.872 28.35H58.576C58.688 28.35 58.912 28.2333 58.912 28L60.928 21.4667L61.936 24.85L62.832 28C62.832 28.1167 63.056 28.35 63.168 28.35H67.872C67.984 28.35 68.208 28.2333 68.208 28L72.464 13.3V28C72.464 28.1167 72.576 28.35 72.8 28.35H78.512C78.624 28.35 78.848 28.2333 78.848 28V12.4833C78.848 12.3667 78.736 12.1333 78.624 12.1333ZM86.128 6.88333H80.416C80.304 6.88333 80.08 7 80.08 7.23333V27.8833C80.08 28 80.192 28.2333 80.416 28.2333H86.128C86.24 28.2333 86.464 28.1167 86.464 27.8833V7.11667C86.464 7 86.352 6.88333 86.128 6.88333ZM93.744 6.88333H87.808C87.696 6.88333 87.472 7 87.472 7.23333V10.85C87.472 10.9667 87.584 11.2 87.808 11.2H93.744C93.856 11.2 94.08 11.0833 94.08 10.85V7.11667C94.08 7 93.968 6.88333 93.744 6.88333ZM93.632 12.1333H87.92C87.808 12.1333 87.584 12.25 87.584 12.4833V27.7667C87.584 27.8833 87.696 28.1167 87.92 28.1167H93.632C93.744 28.1167 93.968 28 93.968 27.7667V12.4833C93.968 12.3667 93.856 12.1333 93.632 12.1333ZM111.664 20.0667C111.664 24.5 108.08 28.35 103.04 28.35C98.112 28.35 94.528 24.5 94.528 20.0667C94.528 15.6333 98.112 11.7833 103.152 11.7833C108.08 11.7833 111.664 15.6333 111.664 20.0667ZM105.616 20.1833C105.616 18.55 104.496 17.2667 103.152 17.3833C101.696 17.3833 100.688 18.6667 100.688 20.1833C100.688 21.7 101.808 22.9833 103.152 22.9833C104.608 22.9833 105.616 21.7 105.616 20.1833Z" fill="#ADADAD"/>
</g>
<defs>
<clipPath id="clip0_846_1068">
<rect width="112" height="35" fill="white"/>
</clipPath>
</defs>
</svg>
