<svg width="377" height="324" viewBox="0 0 377 324" fill="none" xmlns="http://www.w3.org/2000/svg">
<g clip-path="url(#clip0_886_2981)">
<rect width="376.5" height="324" rx="16" fill="#F0F0F0"/>
<rect x="-48" y="300" width="473" height="168" fill="url(#paint0_linear_886_2981)"/>
<g clip-path="url(#clip1_886_2981)">
<rect x="45.5" y="118" width="271" height="109" rx="12" fill="white"/>
<path d="M63.1811 159.586C62.1731 159.586 61.3145 159.367 60.6051 158.928C59.8958 158.485 59.3521 157.869 58.9741 157.08C58.6008 156.291 58.4141 155.377 58.4141 154.336C58.4141 153.295 58.6008 152.381 58.9741 151.592C59.3521 150.803 59.8958 150.19 60.6051 149.751C61.3145 149.308 62.1731 149.086 63.1811 149.086C64.1845 149.086 65.0408 149.308 65.7501 149.751C66.4641 150.19 67.0078 150.803 67.3811 151.592C67.7545 152.381 67.9411 153.295 67.9411 154.336C67.9411 155.377 67.7545 156.291 67.3811 157.08C67.0078 157.869 66.4641 158.485 65.7501 158.928C65.0408 159.367 64.1845 159.586 63.1811 159.586ZM63.1811 158.193C63.8951 158.202 64.4878 158.046 64.9591 157.724C65.4351 157.397 65.7921 156.945 66.0301 156.366C66.2681 155.783 66.3871 155.106 66.3871 154.336C66.3871 153.566 66.2681 152.894 66.0301 152.32C65.7921 151.741 65.4351 151.291 64.9591 150.969C64.4878 150.647 63.8951 150.484 63.1811 150.479C62.4671 150.47 61.8721 150.626 61.3961 150.948C60.9248 151.27 60.5701 151.723 60.3321 152.306C60.0941 152.889 59.9728 153.566 59.9681 154.336C59.9635 155.106 60.0801 155.78 60.3181 156.359C60.5561 156.933 60.9131 157.381 61.3891 157.703C61.8698 158.025 62.4671 158.188 63.1811 158.193ZM69.1694 159.376V151.816H70.4714V153.65L70.2894 153.412C70.3828 153.169 70.5041 152.948 70.6534 152.747C70.8028 152.542 70.9754 152.374 71.1714 152.243C71.3628 152.103 71.5751 151.996 71.8084 151.921C72.0464 151.842 72.2891 151.795 72.5364 151.781C72.7838 151.762 73.0218 151.774 73.2504 151.816V153.188C73.0031 153.123 72.7278 153.104 72.4244 153.132C72.1258 153.16 71.8504 153.256 71.5984 153.419C71.3604 153.573 71.1714 153.76 71.0314 153.979C70.8961 154.198 70.7981 154.443 70.7374 154.714C70.6768 154.98 70.6464 155.262 70.6464 155.561V159.376H69.1694ZM77.2818 159.586C76.5771 159.586 75.9681 159.411 75.4548 159.061C74.9461 158.711 74.5518 158.235 74.2718 157.633C73.9964 157.026 73.8588 156.345 73.8588 155.589C73.8588 154.828 73.9988 154.149 74.2788 153.552C74.5588 152.95 74.9554 152.476 75.4688 152.131C75.9868 151.781 76.6004 151.606 77.3098 151.606C78.0238 151.606 78.6234 151.781 79.1088 152.131C79.5988 152.476 79.9674 152.95 80.2148 153.552C80.4668 154.154 80.5928 154.833 80.5928 155.589C80.5928 156.345 80.4668 157.024 80.2148 157.626C79.9628 158.228 79.5918 158.706 79.1018 159.061C78.6118 159.411 78.0051 159.586 77.2818 159.586ZM77.4848 158.263C77.9654 158.263 78.3574 158.149 78.6608 157.92C78.9641 157.691 79.1858 157.376 79.3258 156.975C79.4658 156.574 79.5358 156.112 79.5358 155.589C79.5358 155.066 79.4634 154.604 79.3188 154.203C79.1788 153.802 78.9594 153.489 78.6608 153.265C78.3668 153.041 77.9911 152.929 77.5338 152.929C77.0484 152.929 76.6494 153.048 76.3368 153.286C76.0241 153.524 75.7908 153.844 75.6368 154.245C75.4874 154.646 75.4128 155.094 75.4128 155.589C75.4128 156.088 75.4874 156.541 75.6368 156.947C75.7908 157.348 76.0194 157.668 76.3228 157.906C76.6308 158.144 77.0181 158.263 77.4848 158.263ZM79.5358 159.376V153.937H79.3678V149.296H80.8378V159.376H79.5358ZM85.9813 159.586C85.23 159.586 84.5697 159.423 84.0003 159.096C83.4357 158.765 82.9947 158.305 82.6773 157.717C82.3647 157.124 82.2083 156.438 82.2083 155.659C82.2083 154.833 82.3623 154.117 82.6703 153.51C82.983 152.903 83.417 152.434 83.9723 152.103C84.5277 151.772 85.174 151.606 85.9113 151.606C86.6813 151.606 87.337 151.786 87.8783 152.145C88.4197 152.5 88.8233 153.006 89.0893 153.664C89.36 154.322 89.4673 155.104 89.4113 156.009H87.9483V155.477C87.939 154.6 87.771 153.951 87.4443 153.531C87.1223 153.111 86.63 152.901 85.9673 152.901C85.2347 152.901 84.684 153.132 84.3153 153.594C83.9467 154.056 83.7623 154.723 83.7623 155.596C83.7623 156.427 83.9467 157.071 84.3153 157.528C84.684 157.981 85.216 158.207 85.9113 158.207C86.3687 158.207 86.763 158.104 87.0943 157.899C87.4303 157.689 87.6917 157.39 87.8783 157.003L89.3133 157.458C89.0193 158.135 88.5737 158.66 87.9763 159.033C87.379 159.402 86.714 159.586 85.9813 159.586ZM83.2863 156.009V154.868H88.6833V156.009H83.2863ZM90.8139 159.376V151.816H92.1159V153.65L91.9339 153.412C92.0272 153.169 92.1485 152.948 92.2979 152.747C92.4472 152.542 92.6199 152.374 92.8159 152.243C93.0072 152.103 93.2195 151.996 93.4529 151.921C93.6909 151.842 93.9335 151.795 94.1809 151.781C94.4282 151.762 94.6662 151.774 94.8949 151.816V153.188C94.6475 153.123 94.3722 153.104 94.0689 153.132C93.7702 153.16 93.4949 153.256 93.2429 153.419C93.0049 153.573 92.8159 153.76 92.6759 153.979C92.5405 154.198 92.4425 154.443 92.3819 154.714C92.3212 154.98 92.2909 155.262 92.2909 155.561V159.376H90.8139ZM98.6775 159.579C97.7582 159.579 97.0092 159.376 96.4305 158.97C95.8518 158.564 95.4972 157.992 95.3665 157.255L96.8645 157.024C96.9578 157.416 97.1725 157.726 97.5085 157.955C97.8492 158.179 98.2715 158.291 98.7755 158.291C99.2328 158.291 99.5898 158.198 99.8465 158.011C100.108 157.824 100.238 157.568 100.238 157.241C100.238 157.05 100.192 156.896 100.098 156.779C100.01 156.658 99.8208 156.543 99.5315 156.436C99.2422 156.329 98.8012 156.196 98.2085 156.037C97.5598 155.869 97.0442 155.689 96.6615 155.498C96.2835 155.302 96.0128 155.076 95.8495 154.819C95.6908 154.558 95.6115 154.243 95.6115 153.874C95.6115 153.417 95.7328 153.018 95.9755 152.677C96.2182 152.336 96.5588 152.073 96.9975 151.886C97.4408 151.699 97.9588 151.606 98.5515 151.606C99.1302 151.606 99.6458 151.697 100.098 151.879C100.551 152.061 100.917 152.32 101.197 152.656C101.477 152.987 101.645 153.377 101.701 153.825L100.203 154.098C100.152 153.734 99.9818 153.447 99.6925 153.237C99.4032 153.027 99.0275 152.913 98.5655 152.894C98.1222 152.875 97.7628 152.95 97.4875 153.118C97.2122 153.281 97.0745 153.508 97.0745 153.797C97.0745 153.965 97.1258 154.107 97.2285 154.224C97.3358 154.341 97.5412 154.453 97.8445 154.56C98.1478 154.667 98.5958 154.796 99.1885 154.945C99.8232 155.108 100.327 155.29 100.7 155.491C101.074 155.687 101.34 155.923 101.498 156.198C101.662 156.469 101.743 156.798 101.743 157.185C101.743 157.932 101.47 158.517 100.924 158.942C100.383 159.367 99.6342 159.579 98.6775 159.579ZM105.759 159.376V149.296H112.199V150.675H107.222V153.503H111.359V154.882H107.222V157.997H112.199V159.376H105.759ZM119.018 159.376V155.659C119.018 155.365 118.993 155.064 118.941 154.756C118.895 154.443 118.801 154.154 118.661 153.888C118.526 153.622 118.332 153.407 118.08 153.244C117.833 153.081 117.509 152.999 117.107 152.999C116.846 152.999 116.599 153.043 116.365 153.132C116.132 153.216 115.927 153.354 115.749 153.545C115.577 153.736 115.439 153.988 115.336 154.301C115.238 154.614 115.189 154.994 115.189 155.442L114.279 155.099C114.279 154.413 114.408 153.809 114.664 153.286C114.921 152.759 115.29 152.348 115.77 152.054C116.251 151.76 116.832 151.613 117.513 151.613C118.036 151.613 118.475 151.697 118.829 151.865C119.184 152.033 119.471 152.255 119.69 152.53C119.914 152.801 120.085 153.097 120.201 153.419C120.318 153.741 120.397 154.056 120.439 154.364C120.481 154.672 120.502 154.943 120.502 155.176V159.376H119.018ZM113.705 159.376V151.816H115.014V154H115.189V159.376H113.705ZM126.483 159.376C126.007 159.469 125.541 159.509 125.083 159.495C124.626 159.481 124.218 159.392 123.858 159.229C123.499 159.066 123.228 158.809 123.046 158.459C122.883 158.146 122.794 157.829 122.78 157.507C122.771 157.18 122.766 156.812 122.766 156.401V149.716H124.236V156.331C124.236 156.634 124.239 156.898 124.243 157.122C124.253 157.346 124.302 157.535 124.39 157.689C124.558 157.978 124.824 158.144 125.188 158.186C125.557 158.223 125.989 158.207 126.483 158.137V159.376ZM121.317 152.992V151.816H126.483V152.992H121.317ZM130.921 159.586C130.169 159.586 129.509 159.423 128.94 159.096C128.375 158.765 127.934 158.305 127.617 157.717C127.304 157.124 127.148 156.438 127.148 155.659C127.148 154.833 127.302 154.117 127.61 153.51C127.922 152.903 128.356 152.434 128.912 152.103C129.467 151.772 130.113 151.606 130.851 151.606C131.621 151.606 132.276 151.786 132.818 152.145C133.359 152.5 133.763 153.006 134.029 153.664C134.299 154.322 134.407 155.104 134.351 156.009H132.888V155.477C132.878 154.6 132.71 153.951 132.384 153.531C132.062 153.111 131.569 152.901 130.907 152.901C130.174 152.901 129.623 153.132 129.255 153.594C128.886 154.056 128.702 154.723 128.702 155.596C128.702 156.427 128.886 157.071 129.255 157.528C129.623 157.981 130.155 158.207 130.851 158.207C131.308 158.207 131.702 158.104 132.034 157.899C132.37 157.689 132.631 157.39 132.818 157.003L134.253 157.458C133.959 158.135 133.513 158.66 132.916 159.033C132.318 159.402 131.653 159.586 130.921 159.586ZM128.226 156.009V154.868H133.623V156.009H128.226ZM135.753 159.376V151.816H137.055V153.65L136.873 153.412C136.966 153.169 137.088 152.948 137.237 152.747C137.386 152.542 137.559 152.374 137.755 152.243C137.946 152.103 138.159 151.996 138.392 151.921C138.63 151.842 138.873 151.795 139.12 151.781C139.367 151.762 139.605 151.774 139.834 151.816V153.188C139.587 153.123 139.311 153.104 139.008 153.132C138.709 153.16 138.434 153.256 138.182 153.419C137.944 153.573 137.755 153.76 137.615 153.979C137.48 154.198 137.382 154.443 137.321 154.714C137.26 154.98 137.23 155.262 137.23 155.561V159.376H135.753ZM144.215 159.586C143.464 159.586 142.804 159.423 142.234 159.096C141.67 158.765 141.229 158.305 140.911 157.717C140.599 157.124 140.442 156.438 140.442 155.659C140.442 154.833 140.596 154.117 140.904 153.51C141.217 152.903 141.651 152.434 142.206 152.103C142.762 151.772 143.408 151.606 144.145 151.606C144.915 151.606 145.571 151.786 146.112 152.145C146.654 152.5 147.057 153.006 147.323 153.664C147.594 154.322 147.701 155.104 147.645 156.009H146.182V155.477C146.173 154.6 146.005 153.951 145.678 153.531C145.356 153.111 144.864 152.901 144.201 152.901C143.469 152.901 142.918 153.132 142.549 153.594C142.181 154.056 141.996 154.723 141.996 155.596C141.996 156.427 142.181 157.071 142.549 157.528C142.918 157.981 143.45 158.207 144.145 158.207C144.603 158.207 144.997 158.104 145.328 157.899C145.664 157.689 145.926 157.39 146.112 157.003L147.547 157.458C147.253 158.135 146.808 158.66 146.21 159.033C145.613 159.402 144.948 159.586 144.215 159.586ZM141.52 156.009V154.868H146.917V156.009H141.52ZM152.051 159.586C151.346 159.586 150.737 159.411 150.224 159.061C149.715 158.711 149.321 158.235 149.041 157.633C148.766 157.026 148.628 156.345 148.628 155.589C148.628 154.828 148.768 154.149 149.048 153.552C149.328 152.95 149.725 152.476 150.238 152.131C150.756 151.781 151.37 151.606 152.079 151.606C152.793 151.606 153.393 151.781 153.878 152.131C154.368 152.476 154.737 152.95 154.984 153.552C155.236 154.154 155.362 154.833 155.362 155.589C155.362 156.345 155.236 157.024 154.984 157.626C154.732 158.228 154.361 158.706 153.871 159.061C153.381 159.411 152.774 159.586 152.051 159.586ZM152.254 158.263C152.735 158.263 153.127 158.149 153.43 157.92C153.733 157.691 153.955 157.376 154.095 156.975C154.235 156.574 154.305 156.112 154.305 155.589C154.305 155.066 154.233 154.604 154.088 154.203C153.948 153.802 153.729 153.489 153.43 153.265C153.136 153.041 152.76 152.929 152.303 152.929C151.818 152.929 151.419 153.048 151.106 153.286C150.793 153.524 150.56 153.844 150.406 154.245C150.257 154.646 150.182 155.094 150.182 155.589C150.182 156.088 150.257 156.541 150.406 156.947C150.56 157.348 150.789 157.668 151.092 157.906C151.4 158.144 151.787 158.263 152.254 158.263ZM154.305 159.376V153.937H154.137V149.296H155.607V159.376H154.305Z" fill="#130F0C"/>
<rect x="57.5" y="169" width="247" height="6" rx="3" fill="#FBF7F3"/>
<g filter="url(#filter0_ddii_886_2981)">
<path d="M57.5 172C57.5 170.343 58.8431 169 60.5 169H301.5C303.157 169 304.5 170.343 304.5 172C304.5 173.657 303.157 175 301.5 175H60.5C58.8431 175 57.5 173.657 57.5 172Z" fill="url(#paint1_linear_886_2981)"/>
</g>
<path d="M60.6401 195.623V188.539H58.5401V187.321H59.3941C59.7675 187.321 60.0708 187.274 60.3041 187.181C60.5375 187.078 60.7055 186.91 60.8081 186.677C60.9108 186.434 60.9621 186.103 60.9621 185.683H62.1521V195.623H60.6401ZM68.0676 195.847C67.2462 195.847 66.5322 195.637 65.9256 195.217C65.3189 194.797 64.8522 194.2 64.5256 193.425C64.1989 192.65 64.0356 191.731 64.0356 190.667C64.0356 189.603 64.1989 188.684 64.5256 187.909C64.8616 187.125 65.3282 186.523 65.9256 186.103C66.5322 185.674 67.2462 185.459 68.0676 185.459C68.8982 185.459 69.6122 185.674 70.2096 186.103C70.8162 186.523 71.2829 187.12 71.6096 187.895C71.9456 188.67 72.1136 189.594 72.1136 190.667C72.1136 191.731 71.9502 192.65 71.6236 193.425C71.2969 194.2 70.8302 194.797 70.2236 195.217C69.6169 195.637 68.8982 195.847 68.0676 195.847ZM68.0676 194.461C68.8609 194.461 69.4722 194.134 69.9016 193.481C70.3309 192.828 70.5456 191.89 70.5456 190.667C70.5456 189.846 70.4476 189.15 70.2516 188.581C70.0649 188.012 69.7849 187.582 69.4116 187.293C69.0476 186.994 68.5996 186.845 68.0676 186.845C67.5449 186.845 67.0969 186.994 66.7236 187.293C66.3596 187.582 66.0796 188.012 65.8836 188.581C65.6969 189.15 65.6036 189.846 65.6036 190.667C65.6036 191.89 65.8182 192.828 66.2476 193.481C66.6769 194.134 67.2836 194.461 68.0676 194.461ZM77.3468 195.847C76.5255 195.847 75.8115 195.637 75.2048 195.217C74.5982 194.797 74.1315 194.2 73.8048 193.425C73.4782 192.65 73.3148 191.731 73.3148 190.667C73.3148 189.603 73.4782 188.684 73.8048 187.909C74.1408 187.125 74.6075 186.523 75.2048 186.103C75.8115 185.674 76.5255 185.459 77.3468 185.459C78.1775 185.459 78.8915 185.674 79.4888 186.103C80.0955 186.523 80.5622 187.12 80.8888 187.895C81.2248 188.67 81.3928 189.594 81.3928 190.667C81.3928 191.731 81.2295 192.65 80.9028 193.425C80.5762 194.2 80.1095 194.797 79.5028 195.217C78.8962 195.637 78.1775 195.847 77.3468 195.847ZM77.3468 194.461C78.1402 194.461 78.7515 194.134 79.1808 193.481C79.6102 192.828 79.8248 191.89 79.8248 190.667C79.8248 189.846 79.7268 189.15 79.5308 188.581C79.3442 188.012 79.0642 187.582 78.6908 187.293C78.3268 186.994 77.8788 186.845 77.3468 186.845C76.8242 186.845 76.3762 186.994 76.0028 187.293C75.6388 187.582 75.3588 188.012 75.1628 188.581C74.9762 189.15 74.8828 189.846 74.8828 190.667C74.8828 191.89 75.0975 192.828 75.5268 193.481C75.9562 194.134 76.5628 194.461 77.3468 194.461ZM84.7081 190.499C84.0641 190.499 83.5321 190.289 83.1121 189.869C82.7014 189.449 82.4961 188.838 82.4961 188.035C82.4961 187.223 82.7014 186.612 83.1121 186.201C83.5321 185.781 84.0641 185.571 84.7081 185.571C85.3521 185.571 85.8794 185.781 86.2901 186.201C86.7008 186.612 86.9061 187.223 86.9061 188.035C86.9061 188.838 86.7008 189.449 86.2901 189.869C85.8794 190.289 85.3521 190.499 84.7081 190.499ZM84.7081 189.561C85.0628 189.561 85.3288 189.43 85.5061 189.169C85.6834 188.908 85.7721 188.53 85.7721 188.035C85.7721 187.54 85.6834 187.162 85.5061 186.901C85.3288 186.64 85.0628 186.509 84.7081 186.509C84.3628 186.509 84.0968 186.64 83.9101 186.901C83.7328 187.162 83.6441 187.54 83.6441 188.035C83.6441 188.53 83.7328 188.908 83.9101 189.169C84.0968 189.43 84.3628 189.561 84.7081 189.561ZM90.4481 195.735C89.8134 195.735 89.2861 195.525 88.8661 195.105C88.4461 194.685 88.2361 194.074 88.2361 193.271C88.2361 192.459 88.4461 191.848 88.8661 191.437C89.2861 191.017 89.8134 190.807 90.4481 190.807C91.1014 190.807 91.6334 191.017 92.0441 191.437C92.4548 191.848 92.6601 192.459 92.6601 193.271C92.6601 194.074 92.4548 194.685 92.0441 195.105C91.6334 195.525 91.1014 195.735 90.4481 195.735ZM90.4481 194.797C90.8028 194.797 91.0688 194.666 91.2461 194.405C91.4234 194.144 91.5121 193.766 91.5121 193.271C91.5121 192.776 91.4234 192.398 91.2461 192.137C91.0688 191.876 90.8028 191.745 90.4481 191.745C90.1028 191.745 89.8368 191.876 89.6501 192.137C89.4728 192.398 89.3841 192.776 89.3841 193.271C89.3841 193.766 89.4728 194.144 89.6501 194.405C89.8368 194.666 90.1028 194.797 90.4481 194.797ZM83.6021 195.623L90.3781 185.683H91.5541L84.7781 195.623H83.6021Z" fill="#130F0C"/>
<path d="M238.463 195.847C237.567 195.847 236.778 195.642 236.097 195.231C235.415 194.811 234.883 194.214 234.501 193.439C234.118 192.664 233.927 191.74 233.927 190.667C233.927 189.603 234.113 188.684 234.487 187.909C234.869 187.125 235.401 186.523 236.083 186.103C236.764 185.674 237.562 185.459 238.477 185.459C239.709 185.459 240.665 185.767 241.347 186.383C242.028 186.999 242.471 187.853 242.677 188.945L241.095 189.029C240.964 188.348 240.684 187.816 240.255 187.433C239.825 187.041 239.233 186.845 238.477 186.845C237.87 186.845 237.343 186.999 236.895 187.307C236.456 187.615 236.111 188.054 235.859 188.623C235.616 189.192 235.495 189.874 235.495 190.667C235.495 191.46 235.616 192.142 235.859 192.711C236.111 193.28 236.461 193.714 236.909 194.013C237.357 194.312 237.875 194.461 238.463 194.461C239.265 194.461 239.886 194.251 240.325 193.831C240.773 193.402 241.053 192.814 241.165 192.067L242.747 192.151C242.625 192.907 242.383 193.56 242.019 194.111C241.655 194.662 241.174 195.091 240.577 195.399C239.979 195.698 239.275 195.847 238.463 195.847ZM247.13 195.791C246.421 195.791 245.8 195.632 245.268 195.315C244.736 194.998 244.325 194.545 244.036 193.957C243.747 193.369 243.602 192.683 243.602 191.899C243.602 191.106 243.747 190.42 244.036 189.841C244.325 189.262 244.736 188.814 245.268 188.497C245.8 188.17 246.421 188.007 247.13 188.007C247.839 188.007 248.46 188.17 248.992 188.497C249.524 188.814 249.935 189.262 250.224 189.841C250.513 190.42 250.658 191.106 250.658 191.899C250.658 192.683 250.513 193.369 250.224 193.957C249.935 194.545 249.524 194.998 248.992 195.315C248.46 195.632 247.839 195.791 247.13 195.791ZM247.13 194.503C247.765 194.503 248.255 194.274 248.6 193.817C248.945 193.35 249.118 192.711 249.118 191.899C249.118 191.087 248.945 190.452 248.6 189.995C248.255 189.528 247.765 189.295 247.13 189.295C246.505 189.295 246.015 189.528 245.66 189.995C245.315 190.452 245.142 191.087 245.142 191.899C245.142 192.711 245.315 193.35 245.66 193.817C246.015 194.274 246.505 194.503 247.13 194.503ZM251.99 195.623V188.175H253.348L253.39 190.023L253.222 189.967C253.306 189.556 253.45 189.206 253.656 188.917C253.87 188.628 254.132 188.404 254.44 188.245C254.748 188.086 255.084 188.007 255.448 188.007C256.082 188.007 256.6 188.189 257.002 188.553C257.403 188.908 257.655 189.398 257.758 190.023H257.52C257.604 189.584 257.744 189.22 257.94 188.931C258.145 188.632 258.406 188.404 258.724 188.245C259.041 188.086 259.4 188.007 259.802 188.007C260.324 188.007 260.768 188.119 261.132 188.343C261.505 188.558 261.785 188.875 261.972 189.295C262.168 189.715 262.266 190.228 262.266 190.835V195.623H260.782V191.199C260.782 190.555 260.665 190.07 260.432 189.743C260.198 189.416 259.844 189.253 259.368 189.253C259.06 189.253 258.789 189.332 258.556 189.491C258.322 189.65 258.14 189.878 258.01 190.177C257.888 190.476 257.828 190.835 257.828 191.255V195.623H256.414V191.255C256.414 190.62 256.306 190.13 256.092 189.785C255.886 189.43 255.532 189.253 255.028 189.253C254.71 189.253 254.435 189.332 254.202 189.491C253.978 189.65 253.8 189.883 253.67 190.191C253.539 190.49 253.474 190.844 253.474 191.255V195.623H251.99ZM263.949 197.723V188.175H265.349L265.391 189.771L265.223 189.687C265.409 189.136 265.717 188.721 266.147 188.441C266.576 188.152 267.071 188.007 267.631 188.007C268.359 188.007 268.956 188.189 269.423 188.553C269.899 188.908 270.249 189.379 270.473 189.967C270.706 190.555 270.823 191.199 270.823 191.899C270.823 192.599 270.706 193.243 270.473 193.831C270.249 194.419 269.899 194.895 269.423 195.259C268.956 195.614 268.359 195.791 267.631 195.791C267.257 195.791 266.907 195.726 266.581 195.595C266.254 195.464 265.974 195.282 265.741 195.049C265.517 194.806 265.358 194.522 265.265 194.195L265.433 194.027V197.723H263.949ZM267.365 194.503C267.962 194.503 268.429 194.274 268.765 193.817C269.11 193.36 269.283 192.72 269.283 191.899C269.283 191.078 269.11 190.438 268.765 189.981C268.429 189.524 267.962 189.295 267.365 189.295C266.973 189.295 266.632 189.393 266.343 189.589C266.053 189.776 265.829 190.065 265.671 190.457C265.512 190.849 265.433 191.33 265.433 191.899C265.433 192.468 265.507 192.949 265.657 193.341C265.815 193.733 266.039 194.027 266.329 194.223C266.627 194.41 266.973 194.503 267.365 194.503ZM273.854 195.623C273.368 195.623 272.976 195.497 272.678 195.245C272.379 194.993 272.23 194.592 272.23 194.041V185.683H273.714V193.901C273.714 194.069 273.756 194.195 273.84 194.279C273.933 194.363 274.064 194.405 274.232 194.405H274.82V195.623H273.854ZM278.983 195.791C278.255 195.791 277.625 195.632 277.093 195.315C276.571 194.998 276.165 194.545 275.875 193.957C275.595 193.369 275.455 192.683 275.455 191.899C275.455 191.115 275.595 190.434 275.875 189.855C276.165 189.267 276.571 188.814 277.093 188.497C277.616 188.17 278.232 188.007 278.941 188.007C279.613 188.007 280.206 188.166 280.719 188.483C281.233 188.791 281.629 189.239 281.909 189.827C282.199 190.415 282.343 191.124 282.343 191.955V192.333H276.995C277.033 193.061 277.224 193.607 277.569 193.971C277.924 194.335 278.4 194.517 278.997 194.517C279.436 194.517 279.8 194.414 280.089 194.209C280.379 194.004 280.579 193.728 280.691 193.383L282.231 193.481C282.035 194.172 281.648 194.732 281.069 195.161C280.5 195.581 279.805 195.791 278.983 195.791ZM276.995 191.213H280.775C280.729 190.55 280.537 190.06 280.201 189.743C279.875 189.426 279.455 189.267 278.941 189.267C278.409 189.267 277.971 189.435 277.625 189.771C277.289 190.098 277.079 190.578 276.995 191.213ZM286.262 195.623C285.552 195.623 285.03 195.46 284.694 195.133C284.358 194.806 284.19 194.298 284.19 193.607V186.425H285.674V193.495C285.674 193.84 285.748 194.078 285.898 194.209C286.047 194.34 286.276 194.405 286.584 194.405H287.648V195.623H286.262ZM283.056 189.393V188.175H287.648V189.393H283.056ZM291.841 195.791C291.113 195.791 290.483 195.632 289.951 195.315C289.428 194.998 289.022 194.545 288.733 193.957C288.453 193.369 288.313 192.683 288.313 191.899C288.313 191.115 288.453 190.434 288.733 189.855C289.022 189.267 289.428 188.814 289.951 188.497C290.473 188.17 291.089 188.007 291.799 188.007C292.471 188.007 293.063 188.166 293.577 188.483C294.09 188.791 294.487 189.239 294.767 189.827C295.056 190.415 295.201 191.124 295.201 191.955V192.333H289.853C289.89 193.061 290.081 193.607 290.427 193.971C290.781 194.335 291.257 194.517 291.855 194.517C292.293 194.517 292.657 194.414 292.947 194.209C293.236 194.004 293.437 193.728 293.549 193.383L295.089 193.481C294.893 194.172 294.505 194.732 293.927 195.161C293.357 195.581 292.662 195.791 291.841 195.791ZM289.853 191.213H293.633C293.586 190.55 293.395 190.06 293.059 189.743C292.732 189.426 292.312 189.267 291.799 189.267C291.267 189.267 290.828 189.435 290.483 189.771C290.147 190.098 289.937 190.578 289.853 191.213ZM299.182 195.791C298.548 195.791 297.992 195.632 297.516 195.315C297.05 194.998 296.69 194.55 296.438 193.971C296.196 193.383 296.074 192.692 296.074 191.899C296.074 191.106 296.2 190.42 296.452 189.841C296.704 189.253 297.064 188.8 297.53 188.483C297.997 188.166 298.548 188.007 299.182 188.007C299.696 188.007 300.153 188.114 300.554 188.329C300.956 188.544 301.259 188.842 301.464 189.225V185.683H302.948V195.623H301.562L301.52 194.503C301.315 194.904 301.002 195.222 300.582 195.455C300.172 195.679 299.705 195.791 299.182 195.791ZM299.574 194.503C299.976 194.503 300.316 194.4 300.596 194.195C300.876 193.99 301.091 193.691 301.24 193.299C301.39 192.907 301.464 192.44 301.464 191.899C301.464 191.339 301.39 190.868 301.24 190.485C301.091 190.093 300.876 189.799 300.596 189.603C300.316 189.398 299.976 189.295 299.574 189.295C298.977 189.295 298.501 189.528 298.146 189.995C297.792 190.452 297.614 191.087 297.614 191.899C297.614 192.702 297.792 193.336 298.146 193.803C298.501 194.27 298.977 194.503 299.574 194.503Z" fill="#10B981"/>
</g>
<rect x="45" y="117.5" width="272" height="110" rx="12.5" stroke="#E3E3E3"/>
<g filter="url(#filter1_d_886_2981)">
<rect x="100.5" y="96" width="230.99" height="34.4949" rx="6.24746" fill="#1C275E"/>
<path d="M118.146 118.471C117.25 118.471 116.461 118.266 115.78 117.855C115.099 117.435 114.567 116.838 114.184 116.063C113.801 115.288 113.61 114.364 113.61 113.291C113.61 112.227 113.797 111.308 114.17 110.533C114.553 109.749 115.085 109.147 115.766 108.727C116.447 108.298 117.245 108.083 118.16 108.083C119.392 108.083 120.349 108.391 121.03 109.007C121.711 109.623 122.155 110.477 122.36 111.569L120.778 111.653C120.647 110.972 120.367 110.44 119.938 110.057C119.509 109.665 118.916 109.469 118.16 109.469C117.553 109.469 117.026 109.623 116.578 109.931C116.139 110.239 115.794 110.678 115.542 111.247C115.299 111.816 115.178 112.498 115.178 113.291C115.178 114.084 115.299 114.766 115.542 115.335C115.794 115.904 116.144 116.338 116.592 116.637C117.04 116.936 117.558 117.085 118.146 117.085C118.949 117.085 119.569 116.875 120.008 116.455C120.456 116.026 120.736 115.438 120.848 114.691L122.43 114.775C122.309 115.531 122.066 116.184 121.702 116.735C121.338 117.286 120.857 117.715 120.26 118.023C119.663 118.322 118.958 118.471 118.146 118.471ZM125.861 118.415C125.086 118.415 124.465 118.238 123.999 117.883C123.541 117.528 123.313 117.029 123.313 116.385C123.313 115.741 123.504 115.242 123.887 114.887C124.279 114.523 124.881 114.262 125.693 114.103L128.255 113.613C128.255 113.034 128.119 112.605 127.849 112.325C127.578 112.036 127.177 111.891 126.645 111.891C126.169 111.891 125.795 111.998 125.525 112.213C125.254 112.418 125.067 112.726 124.965 113.137L123.439 113.039C123.579 112.292 123.924 111.704 124.475 111.275C125.035 110.846 125.758 110.631 126.645 110.631C127.653 110.631 128.418 110.902 128.941 111.443C129.473 111.975 129.739 112.726 129.739 113.697V116.595C129.739 116.772 129.767 116.898 129.823 116.973C129.888 117.038 129.991 117.071 130.131 117.071H130.397V118.247C130.35 118.256 130.275 118.266 130.173 118.275C130.07 118.284 129.963 118.289 129.851 118.289C129.533 118.289 129.258 118.238 129.025 118.135C128.801 118.032 128.633 117.864 128.521 117.631C128.409 117.388 128.353 117.066 128.353 116.665L128.507 116.735C128.432 117.062 128.269 117.351 128.017 117.603C127.774 117.855 127.461 118.056 127.079 118.205C126.705 118.345 126.299 118.415 125.861 118.415ZM126.099 117.239C126.547 117.239 126.929 117.155 127.247 116.987C127.564 116.81 127.811 116.567 127.989 116.259C128.166 115.951 128.255 115.601 128.255 115.209V114.733L126.071 115.153C125.623 115.237 125.305 115.372 125.119 115.559C124.941 115.736 124.853 115.965 124.853 116.245C124.853 116.562 124.96 116.81 125.175 116.987C125.399 117.155 125.707 117.239 126.099 117.239ZM131.482 118.247V110.799H132.84L132.896 112.787L132.714 112.689C132.798 112.204 132.956 111.812 133.19 111.513C133.423 111.214 133.708 110.995 134.044 110.855C134.38 110.706 134.744 110.631 135.136 110.631C135.696 110.631 136.158 110.757 136.522 111.009C136.895 111.252 137.175 111.588 137.362 112.017C137.558 112.437 137.656 112.918 137.656 113.459V118.247H136.172V113.907C136.172 113.468 136.125 113.1 136.032 112.801C135.938 112.502 135.784 112.274 135.57 112.115C135.355 111.956 135.075 111.877 134.73 111.877C134.207 111.877 133.782 112.05 133.456 112.395C133.129 112.74 132.966 113.244 132.966 113.907V118.247H131.482ZM143.241 120.347V119.129H144.151C144.403 119.129 144.59 119.092 144.711 119.017C144.833 118.942 144.926 118.816 144.991 118.639L145.229 118.023H144.767L142.079 110.799H143.647L145.691 116.651L147.637 110.799H149.219L146.251 119.115C146.102 119.544 145.878 119.857 145.579 120.053C145.29 120.249 144.884 120.347 144.361 120.347H143.241ZM153.075 118.415C152.365 118.415 151.745 118.256 151.213 117.939C150.681 117.622 150.27 117.169 149.981 116.581C149.691 115.993 149.547 115.307 149.547 114.523C149.547 113.73 149.691 113.044 149.981 112.465C150.27 111.886 150.681 111.438 151.213 111.121C151.745 110.794 152.365 110.631 153.075 110.631C153.784 110.631 154.405 110.794 154.937 111.121C155.469 111.438 155.879 111.886 156.169 112.465C156.458 113.044 156.603 113.73 156.603 114.523C156.603 115.307 156.458 115.993 156.169 116.581C155.879 117.169 155.469 117.622 154.937 117.939C154.405 118.256 153.784 118.415 153.075 118.415ZM153.075 117.127C153.709 117.127 154.199 116.898 154.545 116.441C154.89 115.974 155.063 115.335 155.063 114.523C155.063 113.711 154.89 113.076 154.545 112.619C154.199 112.152 153.709 111.919 153.075 111.919C152.449 111.919 151.959 112.152 151.605 112.619C151.259 113.076 151.087 113.711 151.087 114.523C151.087 115.335 151.259 115.974 151.605 116.441C151.959 116.898 152.449 117.127 153.075 117.127ZM160.385 118.415C159.638 118.415 159.041 118.168 158.593 117.673C158.154 117.169 157.935 116.474 157.935 115.587V110.799H159.419V115.209C159.419 115.881 159.535 116.376 159.769 116.693C160.002 117.01 160.357 117.169 160.833 117.169C161.374 117.169 161.794 116.996 162.093 116.651C162.401 116.296 162.555 115.802 162.555 115.167V110.799H164.039V118.247H162.653L162.625 116.301L162.835 116.385C162.704 117.038 162.429 117.542 162.009 117.897C161.589 118.242 161.047 118.415 160.385 118.415ZM172.272 118.415C171.563 118.415 170.942 118.256 170.41 117.939C169.878 117.622 169.467 117.169 169.178 116.581C168.889 115.993 168.744 115.307 168.744 114.523C168.744 113.739 168.889 113.058 169.178 112.479C169.467 111.891 169.878 111.438 170.41 111.121C170.942 110.794 171.563 110.631 172.272 110.631C172.879 110.631 173.415 110.738 173.882 110.953C174.358 111.158 174.741 111.462 175.03 111.863C175.329 112.264 175.52 112.754 175.604 113.333L174.05 113.417C173.975 112.932 173.779 112.563 173.462 112.311C173.145 112.05 172.748 111.919 172.272 111.919C171.647 111.919 171.157 112.152 170.802 112.619C170.457 113.076 170.284 113.711 170.284 114.523C170.284 115.335 170.457 115.974 170.802 116.441C171.157 116.898 171.647 117.127 172.272 117.127C172.748 117.127 173.145 116.996 173.462 116.735C173.779 116.464 173.975 116.058 174.05 115.517L175.604 115.601C175.52 116.17 175.329 116.665 175.03 117.085C174.741 117.505 174.358 117.832 173.882 118.065C173.415 118.298 172.879 118.415 172.272 118.415ZM176.79 118.247V108.307H178.274V112.479L178.092 112.451C178.176 112.031 178.33 111.69 178.554 111.429C178.778 111.158 179.053 110.958 179.38 110.827C179.707 110.696 180.066 110.631 180.458 110.631C180.999 110.631 181.457 110.752 181.83 110.995C182.203 111.228 182.483 111.56 182.67 111.989C182.866 112.418 182.964 112.908 182.964 113.459V118.247H181.48V113.851C181.48 113.179 181.363 112.684 181.13 112.367C180.906 112.04 180.551 111.877 180.066 111.877C179.525 111.877 179.091 112.05 178.764 112.395C178.437 112.731 178.274 113.226 178.274 113.879V118.247H176.79ZM187.795 118.415C187.067 118.415 186.437 118.256 185.905 117.939C185.383 117.622 184.977 117.169 184.687 116.581C184.407 115.993 184.267 115.307 184.267 114.523C184.267 113.739 184.407 113.058 184.687 112.479C184.977 111.891 185.383 111.438 185.905 111.121C186.428 110.794 187.044 110.631 187.753 110.631C188.425 110.631 189.018 110.79 189.531 111.107C190.045 111.415 190.441 111.863 190.721 112.451C191.011 113.039 191.155 113.748 191.155 114.579V114.957H185.807C185.845 115.685 186.036 116.231 186.381 116.595C186.736 116.959 187.212 117.141 187.809 117.141C188.248 117.141 188.612 117.038 188.901 116.833C189.191 116.628 189.391 116.352 189.503 116.007L191.043 116.105C190.847 116.796 190.46 117.356 189.881 117.785C189.312 118.205 188.617 118.415 187.795 118.415ZM185.807 113.837H189.587C189.541 113.174 189.349 112.684 189.013 112.367C188.687 112.05 188.267 111.891 187.753 111.891C187.221 111.891 186.783 112.059 186.437 112.395C186.101 112.722 185.891 113.202 185.807 113.837ZM195.557 118.415C194.848 118.415 194.227 118.256 193.695 117.939C193.163 117.622 192.752 117.169 192.463 116.581C192.174 115.993 192.029 115.307 192.029 114.523C192.029 113.739 192.174 113.058 192.463 112.479C192.752 111.891 193.163 111.438 193.695 111.121C194.227 110.794 194.848 110.631 195.557 110.631C196.164 110.631 196.7 110.738 197.167 110.953C197.643 111.158 198.026 111.462 198.315 111.863C198.614 112.264 198.805 112.754 198.889 113.333L197.335 113.417C197.26 112.932 197.064 112.563 196.747 112.311C196.43 112.05 196.033 111.919 195.557 111.919C194.932 111.919 194.442 112.152 194.087 112.619C193.742 113.076 193.569 113.711 193.569 114.523C193.569 115.335 193.742 115.974 194.087 116.441C194.442 116.898 194.932 117.127 195.557 117.127C196.033 117.127 196.43 116.996 196.747 116.735C197.064 116.464 197.26 116.058 197.335 115.517L198.889 115.601C198.805 116.17 198.614 116.665 198.315 117.085C198.026 117.505 197.643 117.832 197.167 118.065C196.7 118.298 196.164 118.415 195.557 118.415ZM200.075 118.247V108.307H201.559V114.481L204.905 110.799H206.781L203.869 113.935L206.893 118.247H205.185L202.875 114.859L201.559 116.259V118.247H200.075ZM211.675 118.247V110.799H213.033L213.075 112.647L212.907 112.591C212.991 112.18 213.135 111.83 213.341 111.541C213.555 111.252 213.817 111.028 214.125 110.869C214.433 110.71 214.769 110.631 215.133 110.631C215.767 110.631 216.285 110.813 216.687 111.177C217.088 111.532 217.34 112.022 217.443 112.647H217.205C217.289 112.208 217.429 111.844 217.625 111.555C217.83 111.256 218.091 111.028 218.409 110.869C218.726 110.71 219.085 110.631 219.487 110.631C220.009 110.631 220.453 110.743 220.817 110.967C221.19 111.182 221.47 111.499 221.657 111.919C221.853 112.339 221.951 112.852 221.951 113.459V118.247H220.467V113.823C220.467 113.179 220.35 112.694 220.117 112.367C219.883 112.04 219.529 111.877 219.053 111.877C218.745 111.877 218.474 111.956 218.241 112.115C218.007 112.274 217.825 112.502 217.695 112.801C217.573 113.1 217.513 113.459 217.513 113.879V118.247H216.099V113.879C216.099 113.244 215.991 112.754 215.777 112.409C215.571 112.054 215.217 111.877 214.713 111.877C214.395 111.877 214.12 111.956 213.887 112.115C213.663 112.274 213.485 112.507 213.355 112.815C213.224 113.114 213.159 113.468 213.159 113.879V118.247H211.675ZM223.848 120.347V119.129H224.758C225.01 119.129 225.197 119.092 225.318 119.017C225.44 118.942 225.533 118.816 225.598 118.639L225.836 118.023H225.374L222.686 110.799H224.254L226.298 116.651L228.244 110.799H229.826L226.858 119.115C226.709 119.544 226.485 119.857 226.186 120.053C225.897 120.249 225.491 120.347 224.968 120.347H223.848ZM237.301 118.415C236.592 118.415 235.971 118.256 235.439 117.939C234.907 117.622 234.496 117.169 234.207 116.581C233.918 115.993 233.773 115.307 233.773 114.523C233.773 113.73 233.918 113.044 234.207 112.465C234.496 111.886 234.907 111.438 235.439 111.121C235.971 110.794 236.592 110.631 237.301 110.631C238.01 110.631 238.631 110.794 239.163 111.121C239.695 111.438 240.106 111.886 240.395 112.465C240.684 113.044 240.829 113.73 240.829 114.523C240.829 115.307 240.684 115.993 240.395 116.581C240.106 117.169 239.695 117.622 239.163 117.939C238.631 118.256 238.01 118.415 237.301 118.415ZM237.301 117.127C237.936 117.127 238.426 116.898 238.771 116.441C239.116 115.974 239.289 115.335 239.289 114.523C239.289 113.711 239.116 113.076 238.771 112.619C238.426 112.152 237.936 111.919 237.301 111.919C236.676 111.919 236.186 112.152 235.831 112.619C235.486 113.076 235.313 113.711 235.313 114.523C235.313 115.335 235.486 115.974 235.831 116.441C236.186 116.898 236.676 117.127 237.301 117.127ZM242.161 118.247V110.799H243.519L243.575 112.773L243.449 112.731C243.551 112.059 243.757 111.569 244.065 111.261C244.382 110.953 244.807 110.799 245.339 110.799H246.053V112.129H245.339C244.965 112.129 244.653 112.19 244.401 112.311C244.149 112.432 243.957 112.619 243.827 112.871C243.705 113.123 243.645 113.45 243.645 113.851V118.247H242.161ZM249.588 118.415C248.953 118.415 248.398 118.256 247.922 117.939C247.455 117.622 247.096 117.174 246.844 116.595C246.601 116.007 246.48 115.316 246.48 114.523C246.48 113.73 246.606 113.044 246.858 112.465C247.11 111.877 247.469 111.424 247.936 111.107C248.403 110.79 248.953 110.631 249.588 110.631C250.101 110.631 250.559 110.738 250.96 110.953C251.361 111.168 251.665 111.466 251.87 111.849V108.307H253.354V118.247H251.968L251.926 117.127C251.721 117.528 251.408 117.846 250.988 118.079C250.577 118.303 250.111 118.415 249.588 118.415ZM249.98 117.127C250.381 117.127 250.722 117.024 251.002 116.819C251.282 116.614 251.497 116.315 251.646 115.923C251.795 115.531 251.87 115.064 251.87 114.523C251.87 113.963 251.795 113.492 251.646 113.109C251.497 112.717 251.282 112.423 251.002 112.227C250.722 112.022 250.381 111.919 249.98 111.919C249.383 111.919 248.907 112.152 248.552 112.619C248.197 113.076 248.02 113.711 248.02 114.523C248.02 115.326 248.197 115.96 248.552 116.427C248.907 116.894 249.383 117.127 249.98 117.127ZM258.221 118.415C257.493 118.415 256.863 118.256 256.331 117.939C255.808 117.622 255.402 117.169 255.113 116.581C254.833 115.993 254.693 115.307 254.693 114.523C254.693 113.739 254.833 113.058 255.113 112.479C255.402 111.891 255.808 111.438 256.331 111.121C256.854 110.794 257.47 110.631 258.179 110.631C258.851 110.631 259.444 110.79 259.957 111.107C260.47 111.415 260.867 111.863 261.147 112.451C261.436 113.039 261.581 113.748 261.581 114.579V114.957H256.233C256.27 115.685 256.462 116.231 256.807 116.595C257.162 116.959 257.638 117.141 258.235 117.141C258.674 117.141 259.038 117.038 259.327 116.833C259.616 116.628 259.817 116.352 259.929 116.007L261.469 116.105C261.273 116.796 260.886 117.356 260.307 117.785C259.738 118.205 259.042 118.415 258.221 118.415ZM256.233 113.837H260.013C259.966 113.174 259.775 112.684 259.439 112.367C259.112 112.05 258.692 111.891 258.179 111.891C257.647 111.891 257.208 112.059 256.863 112.395C256.527 112.722 256.317 113.202 256.233 113.837ZM262.917 118.247V110.799H264.275L264.331 112.773L264.205 112.731C264.307 112.059 264.513 111.569 264.821 111.261C265.138 110.953 265.563 110.799 266.095 110.799H266.809V112.129H266.095C265.721 112.129 265.409 112.19 265.157 112.311C264.905 112.432 264.713 112.619 264.583 112.871C264.461 113.123 264.401 113.45 264.401 113.851V118.247H262.917ZM274.365 118.415C273.665 118.415 273.072 118.308 272.587 118.093C272.111 117.878 271.742 117.584 271.481 117.211C271.219 116.828 271.07 116.39 271.033 115.895L272.559 115.825C272.633 116.236 272.811 116.562 273.091 116.805C273.371 117.048 273.795 117.169 274.365 117.169C274.831 117.169 275.2 117.094 275.471 116.945C275.741 116.796 275.877 116.558 275.877 116.231C275.877 116.054 275.83 115.904 275.737 115.783C275.653 115.652 275.485 115.545 275.233 115.461C274.981 115.368 274.607 115.279 274.113 115.195C273.375 115.055 272.797 114.892 272.377 114.705C271.957 114.518 271.658 114.28 271.481 113.991C271.303 113.702 271.215 113.352 271.215 112.941C271.215 112.26 271.467 111.704 271.971 111.275C272.484 110.846 273.221 110.631 274.183 110.631C274.827 110.631 275.368 110.743 275.807 110.967C276.245 111.182 276.586 111.476 276.829 111.849C277.081 112.213 277.239 112.624 277.305 113.081L275.779 113.165C275.732 112.904 275.639 112.68 275.499 112.493C275.368 112.297 275.191 112.148 274.967 112.045C274.743 111.933 274.477 111.877 274.169 111.877C273.693 111.877 273.338 111.97 273.105 112.157C272.871 112.344 272.755 112.586 272.755 112.885C272.755 113.109 272.806 113.291 272.909 113.431C273.021 113.571 273.198 113.688 273.441 113.781C273.683 113.865 274.005 113.94 274.407 114.005C275.181 114.136 275.788 114.299 276.227 114.495C276.665 114.682 276.973 114.915 277.151 115.195C277.328 115.475 277.417 115.816 277.417 116.217C277.417 116.684 277.286 117.08 277.025 117.407C276.763 117.734 276.404 117.986 275.947 118.163C275.489 118.331 274.962 118.415 274.365 118.415ZM281.333 118.247C280.624 118.247 280.101 118.084 279.765 117.757C279.429 117.43 279.261 116.922 279.261 116.231V109.049H280.745V116.119C280.745 116.464 280.82 116.702 280.969 116.833C281.118 116.964 281.347 117.029 281.655 117.029H282.719V118.247H281.333ZM278.127 112.017V110.799H282.719V112.017H278.127ZM286.014 118.415C285.239 118.415 284.619 118.238 284.152 117.883C283.695 117.528 283.466 117.029 283.466 116.385C283.466 115.741 283.657 115.242 284.04 114.887C284.432 114.523 285.034 114.262 285.846 114.103L288.408 113.613C288.408 113.034 288.273 112.605 288.002 112.325C287.731 112.036 287.33 111.891 286.798 111.891C286.322 111.891 285.949 111.998 285.678 112.213C285.407 112.418 285.221 112.726 285.118 113.137L283.592 113.039C283.732 112.292 284.077 111.704 284.628 111.275C285.188 110.846 285.911 110.631 286.798 110.631C287.806 110.631 288.571 110.902 289.094 111.443C289.626 111.975 289.892 112.726 289.892 113.697V116.595C289.892 116.772 289.92 116.898 289.976 116.973C290.041 117.038 290.144 117.071 290.284 117.071H290.55V118.247C290.503 118.256 290.429 118.266 290.326 118.275C290.223 118.284 290.116 118.289 290.004 118.289C289.687 118.289 289.411 118.238 289.178 118.135C288.954 118.032 288.786 117.864 288.674 117.631C288.562 117.388 288.506 117.066 288.506 116.665L288.66 116.735C288.585 117.062 288.422 117.351 288.17 117.603C287.927 117.855 287.615 118.056 287.232 118.205C286.859 118.345 286.453 118.415 286.014 118.415ZM286.252 117.239C286.7 117.239 287.083 117.155 287.4 116.987C287.717 116.81 287.965 116.567 288.142 116.259C288.319 115.951 288.408 115.601 288.408 115.209V114.733L286.224 115.153C285.776 115.237 285.459 115.372 285.272 115.559C285.095 115.736 285.006 115.965 285.006 116.245C285.006 116.562 285.113 116.81 285.328 116.987C285.552 117.155 285.86 117.239 286.252 117.239ZM294.108 118.247C293.399 118.247 292.876 118.084 292.54 117.757C292.204 117.43 292.036 116.922 292.036 116.231V109.049H293.52V116.119C293.52 116.464 293.595 116.702 293.744 116.833C293.894 116.964 294.122 117.029 294.43 117.029H295.494V118.247H294.108ZM290.902 112.017V110.799H295.494V112.017H290.902ZM299.222 118.415C298.475 118.415 297.878 118.168 297.43 117.673C296.991 117.169 296.772 116.474 296.772 115.587V110.799H298.256V115.209C298.256 115.881 298.372 116.376 298.606 116.693C298.839 117.01 299.194 117.169 299.67 117.169C300.211 117.169 300.631 116.996 300.93 116.651C301.238 116.296 301.392 115.802 301.392 115.167V110.799H302.876V118.247H301.49L301.462 116.301L301.672 116.385C301.541 117.038 301.266 117.542 300.846 117.897C300.426 118.242 299.884 118.415 299.222 118.415ZM307.54 118.415C306.84 118.415 306.248 118.308 305.762 118.093C305.286 117.878 304.918 117.584 304.656 117.211C304.395 116.828 304.246 116.39 304.208 115.895L305.734 115.825C305.809 116.236 305.986 116.562 306.266 116.805C306.546 117.048 306.971 117.169 307.54 117.169C308.007 117.169 308.376 117.094 308.646 116.945C308.917 116.796 309.052 116.558 309.052 116.231C309.052 116.054 309.006 115.904 308.912 115.783C308.828 115.652 308.66 115.545 308.408 115.461C308.156 115.368 307.783 115.279 307.288 115.195C306.551 115.055 305.972 114.892 305.552 114.705C305.132 114.518 304.834 114.28 304.656 113.991C304.479 113.702 304.39 113.352 304.39 112.941C304.39 112.26 304.642 111.704 305.146 111.275C305.66 110.846 306.397 110.631 307.358 110.631C308.002 110.631 308.544 110.743 308.982 110.967C309.421 111.182 309.762 111.476 310.004 111.849C310.256 112.213 310.415 112.624 310.48 113.081L308.954 113.165C308.908 112.904 308.814 112.68 308.674 112.493C308.544 112.297 308.366 112.148 308.142 112.045C307.918 111.933 307.652 111.877 307.344 111.877C306.868 111.877 306.514 111.97 306.28 112.157C306.047 112.344 305.93 112.586 305.93 112.885C305.93 113.109 305.982 113.291 306.084 113.431C306.196 113.571 306.374 113.688 306.616 113.781C306.859 113.865 307.181 113.94 307.582 114.005C308.357 114.136 308.964 114.299 309.402 114.495C309.841 114.682 310.149 114.915 310.326 115.195C310.504 115.475 310.592 115.816 310.592 116.217C310.592 116.684 310.462 117.08 310.2 117.407C309.939 117.734 309.58 117.986 309.122 118.163C308.665 118.331 308.138 118.415 307.54 118.415ZM313.644 115.321C313.644 114.621 313.747 114.075 313.952 113.683C314.167 113.282 314.522 112.941 315.016 112.661C315.371 112.456 315.642 112.274 315.828 112.115C316.015 111.956 316.136 111.788 316.192 111.611C316.258 111.434 316.29 111.214 316.29 110.953C316.29 110.514 316.146 110.155 315.856 109.875C315.567 109.586 315.161 109.441 314.638 109.441C314.022 109.441 313.546 109.604 313.21 109.931C312.874 110.248 312.674 110.715 312.608 111.331L311.04 111.247C311.096 110.631 311.274 110.085 311.572 109.609C311.871 109.133 312.277 108.76 312.79 108.489C313.313 108.218 313.929 108.083 314.638 108.083C315.292 108.083 315.856 108.209 316.332 108.461C316.818 108.704 317.191 109.04 317.452 109.469C317.714 109.898 317.844 110.393 317.844 110.953C317.844 111.354 317.784 111.7 317.662 111.989C317.541 112.269 317.35 112.53 317.088 112.773C316.836 113.006 316.505 113.249 316.094 113.501C315.73 113.725 315.478 113.968 315.338 114.229C315.208 114.481 315.142 114.845 315.142 115.321H313.644ZM313.462 118.247V116.483H315.268V118.247H313.462Z" fill="white"/>
</g>
</g>
<defs>
<filter id="filter0_ddii_886_2981" x="38.7576" y="156.505" width="296.98" height="55.9797" filterUnits="userSpaceOnUse" color-interpolation-filters="sRGB">
<feFlood flood-opacity="0" result="BackgroundImageFix"/>
<feColorMatrix in="SourceAlpha" type="matrix" values="0 0 0 0 0 0 0 0 0 0 0 0 0 0 0 0 0 0 127 0" result="hardAlpha"/>
<feOffset dy="9.3712"/>
<feGaussianBlur stdDeviation="9.3712"/>
<feComposite in2="hardAlpha" operator="out"/>
<feColorMatrix type="matrix" values="0 0 0 0 0.957286 0 0 0 0 0.757698 0 0 0 0 0.619638 0 0 0 0.24 0"/>
<feBlend mode="normal" in2="BackgroundImageFix" result="effect1_dropShadow_886_2981"/>
<feColorMatrix in="SourceAlpha" type="matrix" values="0 0 0 0 0 0 0 0 0 0 0 0 0 0 0 0 0 0 127 0" result="hardAlpha"/>
<feOffset dx="6.24746" dy="12.4949"/>
<feGaussianBlur stdDeviation="12.4949"/>
<feComposite in2="hardAlpha" operator="out"/>
<feColorMatrix type="matrix" values="0 0 0 0 0 0 0 0 0 0 0 0 0 0 0 0 0 0 0.15 0"/>
<feBlend mode="normal" in2="effect1_dropShadow_886_2981" result="effect2_dropShadow_886_2981"/>
<feBlend mode="normal" in="SourceGraphic" in2="effect2_dropShadow_886_2981" result="shape"/>
<feColorMatrix in="SourceAlpha" type="matrix" values="0 0 0 0 0 0 0 0 0 0 0 0 0 0 0 0 0 0 127 0" result="hardAlpha"/>
<feOffset dx="1.56187" dy="3.12373"/>
<feGaussianBlur stdDeviation="3.12373"/>
<feComposite in2="hardAlpha" operator="arithmetic" k2="-1" k3="1"/>
<feColorMatrix type="matrix" values="0 0 0 0 0.913462 0 0 0 0 0.374084 0 0 0 0 0 0 0 0 0.88 0"/>
<feBlend mode="normal" in2="shape" result="effect3_innerShadow_886_2981"/>
<feColorMatrix in="SourceAlpha" type="matrix" values="0 0 0 0 0 0 0 0 0 0 0 0 0 0 0 0 0 0 127 0" result="hardAlpha"/>
<feOffset dy="3.12373"/>
<feGaussianBlur stdDeviation="3.12373"/>
<feComposite in2="hardAlpha" operator="arithmetic" k2="-1" k3="1"/>
<feColorMatrix type="matrix" values="0 0 0 0 1 0 0 0 0 1 0 0 0 0 1 0 0 0 0.25 0"/>
<feBlend mode="normal" in2="effect3_innerShadow_886_2981" result="effect4_innerShadow_886_2981"/>
</filter>
<filter id="filter1_d_886_2981" x="86.4432" y="91.3144" width="259.104" height="62.6087" filterUnits="userSpaceOnUse" color-interpolation-filters="sRGB">
<feFlood flood-opacity="0" result="BackgroundImageFix"/>
<feColorMatrix in="SourceAlpha" type="matrix" values="0 0 0 0 0 0 0 0 0 0 0 0 0 0 0 0 0 0 127 0" result="hardAlpha"/>
<feMorphology radius="4.6856" operator="erode" in="SourceAlpha" result="effect1_dropShadow_886_2981"/>
<feOffset dy="9.3712"/>
<feGaussianBlur stdDeviation="9.3712"/>
<feComposite in2="hardAlpha" operator="out"/>
<feColorMatrix type="matrix" values="0 0 0 0 0 0 0 0 0 0 0 0 0 0 0 0 0 0 0.12 0"/>
<feBlend mode="normal" in2="BackgroundImageFix" result="effect1_dropShadow_886_2981"/>
<feBlend mode="normal" in="SourceGraphic" in2="effect1_dropShadow_886_2981" result="shape"/>
</filter>
<linearGradient id="paint0_linear_886_2981" x1="189" y1="300" x2="189" y2="418.453" gradientUnits="userSpaceOnUse">
<stop stop-color="#FBF7F3" stop-opacity="0"/>
<stop offset="1" stop-color="#FBF7F3"/>
</linearGradient>
<linearGradient id="paint1_linear_886_2981" x1="57.5" y1="172" x2="304.5" y2="172" gradientUnits="userSpaceOnUse">
<stop stop-color="#FF6A03"/>
<stop offset="0.5" stop-color="#FC8431"/>
<stop offset="1" stop-color="#FF6A03"/>
</linearGradient>
<clipPath id="clip0_886_2981">
<rect width="376.5" height="324" rx="16" fill="white"/>
</clipPath>
<clipPath id="clip1_886_2981">
<rect x="45.5" y="118" width="271" height="109" rx="12" fill="white"/>
</clipPath>
</defs>
</svg>
