<svg width="196" height="124" viewBox="0 0 196 124" fill="none" xmlns="http://www.w3.org/2000/svg">
<rect x="0.5" y="0.5" width="195" height="123" rx="11.5" fill="white"/>
<rect x="0.5" y="0.5" width="195" height="123" rx="11.5" stroke="#E3E3E3"/>
<path d="M21.888 37.256C20.864 37.256 19.9627 37.0213 19.184 36.552C18.4053 36.072 17.7973 35.3893 17.36 34.504C16.9227 33.6187 16.704 32.5627 16.704 31.336C16.704 30.12 16.9173 29.0693 17.344 28.184C17.7813 27.288 18.3893 26.6 19.168 26.12C19.9467 25.6293 20.8587 25.384 21.904 25.384C23.312 25.384 24.4053 25.736 25.184 26.44C25.9627 27.144 26.4693 28.12 26.704 29.368L24.896 29.464C24.7467 28.6853 24.4267 28.0773 23.936 27.64C23.4453 27.192 22.768 26.968 21.904 26.968C21.2107 26.968 20.608 27.144 20.096 27.496C19.5947 27.848 19.2 28.3493 18.912 29C18.6347 29.6507 18.496 30.4293 18.496 31.336C18.496 32.2427 18.6347 33.0213 18.912 33.672C19.2 34.3227 19.6 34.8187 20.112 35.16C20.624 35.5013 21.216 35.672 21.888 35.672C22.8053 35.672 23.5147 35.432 24.016 34.952C24.528 34.4613 24.848 33.7893 24.976 32.936L26.784 33.032C26.6453 33.896 26.368 34.6427 25.952 35.272C25.536 35.9013 24.9867 36.392 24.304 36.744C23.6213 37.0853 22.816 37.256 21.888 37.256ZM31.0267 37.192C30.1734 37.192 29.4907 36.9093 28.9787 36.344C28.4774 35.768 28.2267 34.9733 28.2267 33.96V28.488H29.9227V33.528C29.9227 34.296 30.0561 34.8613 30.3227 35.224C30.5894 35.5867 30.9947 35.768 31.5387 35.768C32.1574 35.768 32.6374 35.5707 32.9787 35.176C33.3307 34.7707 33.5068 34.2053 33.5068 33.48V28.488H35.2028V37H33.6188L33.5868 34.776L33.8267 34.872C33.6774 35.6187 33.3627 36.1947 32.8828 36.6C32.4027 36.9947 31.7841 37.192 31.0267 37.192ZM40.5335 37.192C39.7335 37.192 39.0562 37.0693 38.5015 36.824C37.9575 36.5787 37.5362 36.2427 37.2375 35.816C36.9388 35.3787 36.7682 34.8773 36.7255 34.312L38.4695 34.232C38.5548 34.7013 38.7575 35.0747 39.0775 35.352C39.3975 35.6293 39.8828 35.768 40.5335 35.768C41.0668 35.768 41.4882 35.6827 41.7975 35.512C42.1068 35.3413 42.2615 35.0693 42.2615 34.696C42.2615 34.4933 42.2082 34.3227 42.1015 34.184C42.0055 34.0347 41.8135 33.912 41.5255 33.816C41.2375 33.7093 40.8108 33.608 40.2455 33.512C39.4028 33.352 38.7415 33.1653 38.2615 32.952C37.7815 32.7387 37.4402 32.4667 37.2375 32.136C37.0348 31.8053 36.9335 31.4053 36.9335 30.936C36.9335 30.1573 37.2215 29.5227 37.7975 29.032C38.3842 28.5413 39.2268 28.296 40.3255 28.296C41.0615 28.296 41.6802 28.424 42.1815 28.68C42.6828 28.9253 43.0722 29.2613 43.3495 29.688C43.6375 30.104 43.8188 30.5733 43.8935 31.096L42.1495 31.192C42.0962 30.8933 41.9895 30.6373 41.8295 30.424C41.6802 30.2 41.4775 30.0293 41.2215 29.912C40.9655 29.784 40.6615 29.72 40.3095 29.72C39.7655 29.72 39.3602 29.8267 39.0935 30.04C38.8268 30.2533 38.6935 30.5307 38.6935 30.872C38.6935 31.128 38.7522 31.336 38.8695 31.496C38.9975 31.656 39.2002 31.7893 39.4775 31.896C39.7548 31.992 40.1228 32.0773 40.5815 32.152C41.4668 32.3013 42.1602 32.488 42.6615 32.712C43.1628 32.9253 43.5148 33.192 43.7175 33.512C43.9202 33.832 44.0215 34.2213 44.0215 34.68C44.0215 35.2133 43.8722 35.6667 43.5735 36.04C43.2748 36.4133 42.8642 36.7013 42.3415 36.904C41.8188 37.096 41.2162 37.192 40.5335 37.192ZM48.4974 37C47.6867 37 47.0894 36.8133 46.7054 36.44C46.3214 36.0667 46.1294 35.4853 46.1294 34.696V26.488H47.8254V34.568C47.8254 34.9627 47.9107 35.2347 48.0814 35.384C48.252 35.5333 48.5134 35.608 48.8654 35.608H50.0814V37H48.4974ZM44.8334 29.88V28.488H50.0814V29.88H44.8334ZM54.8735 37.192C54.0628 37.192 53.3535 37.0107 52.7455 36.648C52.1375 36.2853 51.6682 35.768 51.3375 35.096C51.0068 34.424 50.8415 33.64 50.8415 32.744C50.8415 31.8373 51.0068 31.0533 51.3375 30.392C51.6682 29.7307 52.1375 29.2187 52.7455 28.856C53.3535 28.4827 54.0628 28.296 54.8735 28.296C55.6842 28.296 56.3935 28.4827 57.0015 28.856C57.6095 29.2187 58.0788 29.7307 58.4095 30.392C58.7402 31.0533 58.9055 31.8373 58.9055 32.744C58.9055 33.64 58.7402 34.424 58.4095 35.096C58.0788 35.768 57.6095 36.2853 57.0015 36.648C56.3935 37.0107 55.6842 37.192 54.8735 37.192ZM54.8735 35.72C55.5988 35.72 56.1588 35.4587 56.5535 34.936C56.9482 34.4027 57.1455 33.672 57.1455 32.744C57.1455 31.816 56.9482 31.0907 56.5535 30.568C56.1588 30.0347 55.5988 29.768 54.8735 29.768C54.1588 29.768 53.5988 30.0347 53.1935 30.568C52.7988 31.0907 52.6015 31.816 52.6015 32.744C52.6015 33.672 52.7988 34.4027 53.1935 34.936C53.5988 35.4587 54.1588 35.72 54.8735 35.72ZM60.4275 37V28.488H61.9795L62.0275 30.6L61.8355 30.536C61.9315 30.0667 62.0968 29.6667 62.3315 29.336C62.5768 29.0053 62.8755 28.7493 63.2275 28.568C63.5795 28.3867 63.9635 28.296 64.3795 28.296C65.1048 28.296 65.6968 28.504 66.1555 28.92C66.6142 29.3253 66.9022 29.8853 67.0195 30.6H66.7475C66.8435 30.0987 67.0035 29.6827 67.2275 29.352C67.4622 29.0107 67.7608 28.7493 68.1235 28.568C68.4862 28.3867 68.8968 28.296 69.3555 28.296C69.9528 28.296 70.4595 28.424 70.8755 28.68C71.3022 28.9253 71.6222 29.288 71.8355 29.768C72.0595 30.248 72.1715 30.8347 72.1715 31.528V37H70.4755V31.944C70.4755 31.208 70.3422 30.6533 70.0755 30.28C69.8088 29.9067 69.4035 29.72 68.8595 29.72C68.5075 29.72 68.1982 29.8107 67.9315 29.992C67.6648 30.1733 67.4568 30.4347 67.3075 30.776C67.1688 31.1173 67.0995 31.528 67.0995 32.008V37H65.4835V32.008C65.4835 31.2827 65.3608 30.7227 65.1155 30.328C64.8808 29.9227 64.4755 29.72 63.8995 29.72C63.5368 29.72 63.2222 29.8107 62.9555 29.992C62.6995 30.1733 62.4968 30.44 62.3475 30.792C62.1982 31.1333 62.1235 31.5387 62.1235 32.008V37H60.4275ZM77.7082 37.192C76.8762 37.192 76.1562 37.0107 75.5482 36.648C74.9509 36.2853 74.4869 35.768 74.1562 35.096C73.8362 34.424 73.6762 33.64 73.6762 32.744C73.6762 31.848 73.8362 31.0693 74.1562 30.408C74.4869 29.736 74.9509 29.2187 75.5482 28.856C76.1456 28.4827 76.8496 28.296 77.6602 28.296C78.4282 28.296 79.1056 28.4773 79.6922 28.84C80.2789 29.192 80.7322 29.704 81.0522 30.376C81.3829 31.048 81.5483 31.8587 81.5483 32.808V33.24H75.4362C75.4789 34.072 75.6976 34.696 76.0922 35.112C76.4976 35.528 77.0416 35.736 77.7242 35.736C78.2256 35.736 78.6416 35.6187 78.9722 35.384C79.3029 35.1493 79.5322 34.8347 79.6602 34.44L81.4202 34.552C81.1962 35.3413 80.7536 35.9813 80.0922 36.472C79.4416 36.952 78.6469 37.192 77.7082 37.192ZM75.4362 31.96H79.7562C79.7029 31.2027 79.4842 30.6427 79.1002 30.28C78.7269 29.9173 78.2469 29.736 77.6602 29.736C77.0522 29.736 76.5509 29.928 76.1562 30.312C75.7722 30.6853 75.5322 31.2347 75.4362 31.96ZM83.0747 37V28.488H84.6267L84.6907 30.744L84.5467 30.696C84.6641 29.928 84.8987 29.368 85.2507 29.016C85.6134 28.664 86.0987 28.488 86.7067 28.488H87.5227V30.008H86.7067C86.2801 30.008 85.9227 30.0773 85.6347 30.216C85.3467 30.3547 85.1281 30.568 84.9787 30.856C84.8401 31.144 84.7707 31.5173 84.7707 31.976V37H83.0747ZM97.1503 37.256C96.2436 37.256 95.4543 37.0907 94.7823 36.76C94.1209 36.4293 93.5983 35.9707 93.2143 35.384C92.8303 34.7973 92.6063 34.1147 92.5423 33.336L94.3183 33.224C94.3929 33.7573 94.5476 34.2107 94.7823 34.584C95.0169 34.9467 95.3316 35.224 95.7263 35.416C96.1316 35.5973 96.6169 35.688 97.1823 35.688C97.6729 35.688 98.0889 35.6293 98.4303 35.512C98.7823 35.384 99.0489 35.1973 99.2303 34.952C99.4116 34.7067 99.5023 34.408 99.5023 34.056C99.5023 33.736 99.4223 33.4533 99.2623 33.208C99.1129 32.952 98.8196 32.7227 98.3823 32.52C97.9556 32.3067 97.3263 32.0987 96.4943 31.896C95.5876 31.672 94.8623 31.4267 94.3183 31.16C93.7743 30.8933 93.3796 30.5627 93.1343 30.168C92.8996 29.7627 92.7823 29.2667 92.7823 28.68C92.7823 28.0293 92.9369 27.4587 93.2463 26.968C93.5663 26.4667 94.0196 26.0773 94.6063 25.8C95.1929 25.5227 95.8969 25.384 96.7183 25.384C97.5823 25.384 98.3183 25.544 98.9263 25.864C99.5449 26.184 100.03 26.6213 100.382 27.176C100.745 27.7307 100.969 28.3653 101.054 29.08L99.2783 29.176C99.2249 28.7387 99.0916 28.3547 98.8783 28.024C98.6649 27.6827 98.3769 27.4213 98.0143 27.24C97.6516 27.048 97.2089 26.952 96.6863 26.952C96.0249 26.952 95.5023 27.1067 95.1183 27.416C94.7449 27.7147 94.5583 28.1147 94.5583 28.616C94.5583 28.936 94.6329 29.208 94.7823 29.432C94.9423 29.6453 95.2196 29.832 95.6143 29.992C96.0196 30.152 96.5903 30.3227 97.3263 30.504C98.3076 30.728 99.0863 31.0053 99.6623 31.336C100.249 31.656 100.665 32.0347 100.91 32.472C101.156 32.9093 101.278 33.4053 101.278 33.96C101.278 34.632 101.102 35.2187 100.75 35.72C100.409 36.2107 99.9289 36.5893 99.3103 36.856C98.6916 37.1227 97.9716 37.256 97.1503 37.256ZM105.664 37.192C104.779 37.192 104.069 36.9893 103.536 36.584C103.013 36.1787 102.752 35.608 102.752 34.872C102.752 34.136 102.971 33.5653 103.408 33.16C103.856 32.744 104.544 32.4453 105.472 32.264L108.4 31.704C108.4 31.0427 108.245 30.552 107.936 30.232C107.627 29.9013 107.168 29.736 106.56 29.736C106.016 29.736 105.589 29.8587 105.28 30.104C104.971 30.3387 104.757 30.6907 104.64 31.16L102.896 31.048C103.056 30.1947 103.451 29.5227 104.08 29.032C104.72 28.5413 105.547 28.296 106.56 28.296C107.712 28.296 108.587 28.6053 109.184 29.224C109.792 29.832 110.096 30.6907 110.096 31.8V35.112C110.096 35.3147 110.128 35.4587 110.192 35.544C110.267 35.6187 110.384 35.656 110.544 35.656H110.848V37C110.795 37.0107 110.709 37.0213 110.592 37.032C110.475 37.0427 110.352 37.048 110.224 37.048C109.861 37.048 109.547 36.9893 109.28 36.872C109.024 36.7547 108.832 36.5627 108.704 36.296C108.576 36.0187 108.512 35.6507 108.512 35.192L108.688 35.272C108.603 35.6453 108.416 35.976 108.128 36.264C107.851 36.552 107.493 36.7813 107.056 36.952C106.629 37.112 106.165 37.192 105.664 37.192ZM105.936 35.848C106.448 35.848 106.885 35.752 107.248 35.56C107.611 35.3573 107.893 35.08 108.096 34.728C108.299 34.376 108.4 33.976 108.4 33.528V32.984L105.904 33.464C105.392 33.56 105.029 33.7147 104.816 33.928C104.613 34.1307 104.512 34.392 104.512 34.712C104.512 35.0747 104.635 35.3573 104.88 35.56C105.136 35.752 105.488 35.848 105.936 35.848ZM114.915 37C114.104 37 113.507 36.8133 113.123 36.44C112.739 36.0667 112.547 35.4853 112.547 34.696V26.488H114.243V34.568C114.243 34.9627 114.328 35.2347 114.499 35.384C114.669 35.5333 114.931 35.608 115.283 35.608H116.499V37H114.915ZM111.251 29.88V28.488H116.499V29.88H111.251ZM117.927 37V28.488H119.623V37H117.927ZM117.895 27.256V25.56H119.655V27.256H117.895ZM124.953 37.192C124.153 37.192 123.475 37.0693 122.921 36.824C122.377 36.5787 121.955 36.2427 121.657 35.816C121.358 35.3787 121.187 34.8773 121.145 34.312L122.889 34.232C122.974 34.7013 123.177 35.0747 123.497 35.352C123.817 35.6293 124.302 35.768 124.953 35.768C125.486 35.768 125.907 35.6827 126.217 35.512C126.526 35.3413 126.681 35.0693 126.681 34.696C126.681 34.4933 126.627 34.3227 126.521 34.184C126.425 34.0347 126.233 33.912 125.945 33.816C125.657 33.7093 125.23 33.608 124.665 33.512C123.822 33.352 123.161 33.1653 122.681 32.952C122.201 32.7387 121.859 32.4667 121.657 32.136C121.454 31.8053 121.353 31.4053 121.353 30.936C121.353 30.1573 121.641 29.5227 122.217 29.032C122.803 28.5413 123.646 28.296 124.745 28.296C125.481 28.296 126.099 28.424 126.601 28.68C127.102 28.9253 127.491 29.2613 127.769 29.688C128.057 30.104 128.238 30.5733 128.313 31.096L126.569 31.192C126.515 30.8933 126.409 30.6373 126.249 30.424C126.099 30.2 125.897 30.0293 125.641 29.912C125.385 29.784 125.081 29.72 124.729 29.72C124.185 29.72 123.779 29.8267 123.513 30.04C123.246 30.2533 123.113 30.5307 123.113 30.872C123.113 31.128 123.171 31.336 123.289 31.496C123.417 31.656 123.619 31.7893 123.897 31.896C124.174 31.992 124.542 32.0773 125.001 32.152C125.886 32.3013 126.579 32.488 127.081 32.712C127.582 32.9253 127.934 33.192 128.137 33.512C128.339 33.832 128.441 34.2213 128.441 34.68C128.441 35.2133 128.291 35.6667 127.993 36.04C127.694 36.4133 127.283 36.7013 126.761 36.904C126.238 37.096 125.635 37.192 124.953 37.192ZM130.501 37V27.944C130.501 27.24 130.698 26.68 131.093 26.264C131.488 25.848 132.106 25.64 132.949 25.64H134.453V27.032H133.173C132.842 27.032 132.597 27.1227 132.437 27.304C132.277 27.4747 132.197 27.72 132.197 28.04V37H130.501ZM129.317 29.976V28.6H134.325V29.976H129.317ZM137.938 37.192C137.053 37.192 136.344 36.9893 135.81 36.584C135.288 36.1787 135.026 35.608 135.026 34.872C135.026 34.136 135.245 33.5653 135.682 33.16C136.13 32.744 136.818 32.4453 137.746 32.264L140.674 31.704C140.674 31.0427 140.52 30.552 140.21 30.232C139.901 29.9013 139.442 29.736 138.834 29.736C138.29 29.736 137.864 29.8587 137.554 30.104C137.245 30.3387 137.032 30.6907 136.914 31.16L135.17 31.048C135.33 30.1947 135.725 29.5227 136.354 29.032C136.994 28.5413 137.821 28.296 138.834 28.296C139.986 28.296 140.861 28.6053 141.458 29.224C142.066 29.832 142.37 30.6907 142.37 31.8V35.112C142.37 35.3147 142.402 35.4587 142.466 35.544C142.541 35.6187 142.658 35.656 142.818 35.656H143.122V37C143.069 37.0107 142.984 37.0213 142.866 37.032C142.749 37.0427 142.626 37.048 142.498 37.048C142.136 37.048 141.821 36.9893 141.554 36.872C141.298 36.7547 141.106 36.5627 140.978 36.296C140.85 36.0187 140.786 35.6507 140.786 35.192L140.962 35.272C140.877 35.6453 140.69 35.976 140.402 36.264C140.125 36.552 139.768 36.7813 139.33 36.952C138.904 37.112 138.44 37.192 137.938 37.192ZM138.21 35.848C138.722 35.848 139.16 35.752 139.522 35.56C139.885 35.3573 140.168 35.08 140.37 34.728C140.573 34.376 140.674 33.976 140.674 33.528V32.984L138.178 33.464C137.666 33.56 137.304 33.7147 137.09 33.928C136.888 34.1307 136.786 34.392 136.786 34.712C136.786 35.0747 136.909 35.3573 137.154 35.56C137.41 35.752 137.762 35.848 138.21 35.848ZM147.804 37.192C146.993 37.192 146.284 37.0107 145.676 36.648C145.068 36.2853 144.599 35.768 144.268 35.096C143.937 34.424 143.772 33.64 143.772 32.744C143.772 31.848 143.937 31.0693 144.268 30.408C144.599 29.736 145.068 29.2187 145.676 28.856C146.284 28.4827 146.993 28.296 147.804 28.296C148.497 28.296 149.111 28.4187 149.644 28.664C150.188 28.8987 150.625 29.2453 150.956 29.704C151.297 30.1627 151.516 30.7227 151.612 31.384L149.836 31.48C149.751 30.9253 149.527 30.504 149.164 30.216C148.801 29.9173 148.348 29.768 147.804 29.768C147.089 29.768 146.529 30.0347 146.124 30.568C145.729 31.0907 145.532 31.816 145.532 32.744C145.532 33.672 145.729 34.4027 146.124 34.936C146.529 35.4587 147.089 35.72 147.804 35.72C148.348 35.72 148.801 35.5707 149.164 35.272C149.527 34.9627 149.751 34.4987 149.836 33.88L151.612 33.976C151.516 34.6267 151.297 35.192 150.956 35.672C150.625 36.152 150.188 36.5253 149.644 36.792C149.111 37.0587 148.497 37.192 147.804 37.192ZM155.919 37C155.108 37 154.511 36.8133 154.127 36.44C153.743 36.0667 153.551 35.4853 153.551 34.696V26.488H155.247V34.568C155.247 34.9627 155.332 35.2347 155.503 35.384C155.673 35.5333 155.935 35.608 156.287 35.608H157.503V37H155.919ZM152.255 29.88V28.488H157.503V29.88H152.255ZM158.932 37V28.488H160.628V37H158.932ZM158.9 27.256V25.56H160.66V27.256H158.9ZM166.181 37.192C165.37 37.192 164.661 37.0107 164.053 36.648C163.445 36.2853 162.976 35.768 162.645 35.096C162.314 34.424 162.149 33.64 162.149 32.744C162.149 31.8373 162.314 31.0533 162.645 30.392C162.976 29.7307 163.445 29.2187 164.053 28.856C164.661 28.4827 165.37 28.296 166.181 28.296C166.992 28.296 167.701 28.4827 168.309 28.856C168.917 29.2187 169.386 29.7307 169.717 30.392C170.048 31.0533 170.213 31.8373 170.213 32.744C170.213 33.64 170.048 34.424 169.717 35.096C169.386 35.768 168.917 36.2853 168.309 36.648C167.701 37.0107 166.992 37.192 166.181 37.192ZM166.181 35.72C166.906 35.72 167.466 35.4587 167.861 34.936C168.256 34.4027 168.453 33.672 168.453 32.744C168.453 31.816 168.256 31.0907 167.861 30.568C167.466 30.0347 166.906 29.768 166.181 29.768C165.466 29.768 164.906 30.0347 164.501 30.568C164.106 31.0907 163.909 31.816 163.909 32.744C163.909 33.672 164.106 34.4027 164.501 34.936C164.906 35.4587 165.466 35.72 166.181 35.72ZM171.735 37V28.488H173.287L173.351 30.76L173.143 30.648C173.239 30.0933 173.42 29.6453 173.687 29.304C173.954 28.9627 174.279 28.712 174.663 28.552C175.047 28.3813 175.463 28.296 175.911 28.296C176.551 28.296 177.079 28.44 177.495 28.728C177.922 29.0053 178.242 29.3893 178.455 29.88C178.679 30.36 178.791 30.9093 178.791 31.528V37H177.095V32.04C177.095 31.5387 177.042 31.1173 176.935 30.776C176.828 30.4347 176.652 30.1733 176.407 29.992C176.162 29.8107 175.842 29.72 175.447 29.72C174.85 29.72 174.364 29.9173 173.991 30.312C173.618 30.7067 173.431 31.2827 173.431 32.04V37H171.735Z" fill="black"/>
<path d="M19.756 55.192C19.108 55.192 18.536 55.096 18.04 54.904C17.544 54.712 17.156 54.428 16.876 54.052C16.604 53.676 16.468 53.216 16.468 52.672C16.468 52.048 16.656 51.532 17.032 51.124C17.408 50.716 17.912 50.444 18.544 50.308L18.568 50.548C18.056 50.428 17.644 50.208 17.332 49.888C17.028 49.568 16.876 49.148 16.876 48.628C16.876 48.172 16.992 47.768 17.224 47.416C17.456 47.064 17.784 46.788 18.208 46.588C18.64 46.388 19.156 46.288 19.756 46.288C20.348 46.288 20.86 46.388 21.292 46.588C21.724 46.788 22.052 47.064 22.276 47.416C22.508 47.768 22.624 48.172 22.624 48.628C22.624 49.148 22.472 49.568 22.168 49.888C21.864 50.2 21.452 50.42 20.932 50.548L20.956 50.308C21.596 50.444 22.104 50.716 22.48 51.124C22.856 51.532 23.044 52.048 23.044 52.672C23.044 53.216 22.904 53.676 22.624 54.052C22.352 54.428 21.968 54.712 21.472 54.904C20.976 55.096 20.404 55.192 19.756 55.192ZM19.756 54.004C20.348 54.004 20.816 53.884 21.16 53.644C21.512 53.396 21.688 53.028 21.688 52.54C21.688 52.076 21.528 51.704 21.208 51.424C20.896 51.144 20.412 51.004 19.756 51.004C19.1 51.004 18.612 51.144 18.292 51.424C17.972 51.704 17.812 52.076 17.812 52.54C17.812 53.028 17.988 53.396 18.34 53.644C18.692 53.884 19.164 54.004 19.756 54.004ZM19.756 49.936C20.244 49.936 20.62 49.836 20.884 49.636C21.156 49.428 21.292 49.112 21.292 48.688C21.292 48.32 21.16 48.024 20.896 47.8C20.64 47.576 20.26 47.464 19.756 47.464C19.252 47.464 18.868 47.576 18.604 47.8C18.34 48.024 18.208 48.32 18.208 48.688C18.208 49.112 18.344 49.428 18.616 49.636C18.888 49.836 19.268 49.936 19.756 49.936ZM27.184 55.192C26.552 55.192 26.012 55.092 25.564 54.892C25.116 54.684 24.764 54.396 24.508 54.028C24.252 53.66 24.104 53.236 24.064 52.756L25.396 52.672C25.46 53.12 25.648 53.456 25.96 53.68C26.28 53.896 26.688 54.004 27.184 54.004C27.744 54.004 28.184 53.848 28.504 53.536C28.832 53.224 28.996 52.788 28.996 52.228C28.996 51.86 28.92 51.544 28.768 51.28C28.624 51.008 28.416 50.8 28.144 50.656C27.872 50.504 27.548 50.428 27.172 50.428C26.796 50.428 26.46 50.508 26.164 50.668C25.868 50.828 25.656 51.048 25.528 51.328H24.184L24.76 46.48H29.752V47.668H25.912L25.552 50.584L25.348 50.404C25.484 50.164 25.656 49.968 25.864 49.816C26.072 49.656 26.312 49.536 26.584 49.456C26.864 49.368 27.16 49.324 27.472 49.324C28.048 49.324 28.548 49.448 28.972 49.696C29.404 49.944 29.74 50.288 29.98 50.728C30.22 51.168 30.34 51.668 30.34 52.228C30.34 52.812 30.208 53.328 29.944 53.776C29.68 54.224 29.312 54.572 28.84 54.82C28.368 55.068 27.816 55.192 27.184 55.192ZM33.2995 50.608C32.7475 50.608 32.2915 50.428 31.9315 50.068C31.5795 49.708 31.4035 49.184 31.4035 48.496C31.4035 47.8 31.5795 47.276 31.9315 46.924C32.2915 46.564 32.7475 46.384 33.2995 46.384C33.8515 46.384 34.3035 46.564 34.6555 46.924C35.0075 47.276 35.1835 47.8 35.1835 48.496C35.1835 49.184 35.0075 49.708 34.6555 50.068C34.3035 50.428 33.8515 50.608 33.2995 50.608ZM33.2995 49.804C33.6035 49.804 33.8315 49.692 33.9835 49.468C34.1355 49.244 34.2115 48.92 34.2115 48.496C34.2115 48.072 34.1355 47.748 33.9835 47.524C33.8315 47.3 33.6035 47.188 33.2995 47.188C33.0035 47.188 32.7755 47.3 32.6155 47.524C32.4635 47.748 32.3875 48.072 32.3875 48.496C32.3875 48.92 32.4635 49.244 32.6155 49.468C32.7755 49.692 33.0035 49.804 33.2995 49.804ZM38.2195 55.096C37.6755 55.096 37.2235 54.916 36.8635 54.556C36.5035 54.196 36.3235 53.672 36.3235 52.984C36.3235 52.288 36.5035 51.764 36.8635 51.412C37.2235 51.052 37.6755 50.872 38.2195 50.872C38.7795 50.872 39.2355 51.052 39.5875 51.412C39.9395 51.764 40.1155 52.288 40.1155 52.984C40.1155 53.672 39.9395 54.196 39.5875 54.556C39.2355 54.916 38.7795 55.096 38.2195 55.096ZM38.2195 54.292C38.5235 54.292 38.7515 54.18 38.9035 53.956C39.0555 53.732 39.1315 53.408 39.1315 52.984C39.1315 52.56 39.0555 52.236 38.9035 52.012C38.7515 51.788 38.5235 51.676 38.2195 51.676C37.9235 51.676 37.6955 51.788 37.5355 52.012C37.3835 52.236 37.3075 52.56 37.3075 52.984C37.3075 53.408 37.3835 53.732 37.5355 53.956C37.6955 54.18 37.9235 54.292 38.2195 54.292ZM32.3515 55L38.1595 46.48H39.1675L33.3595 55H32.3515Z" fill="black"/>
<path d="M44.6975 45.9004V50.3004M44.6975 45.9004L46.5063 47.7861M44.6975 45.9004L42.8887 47.7861" stroke="#10B981" stroke-width="0.7" stroke-linecap="round" stroke-linejoin="round"/>
<path d="M16 104C20.8747 98.152 25.6471 86.4558 45.2484 86.4558C59.8726 86.4558 63.0064 83.8251 69.2739 82.0706C75.5414 80.3162 83.8981 79.439 94.3439 79.439C108.968 79.439 105.834 65.4037 136.127 67.1581C166.42 68.9125 173.732 54 180 54" stroke="#F48024"/>
<path d="M45.2484 86.4558C25.6471 86.4558 20.8747 98.152 16 104H180V54C173.732 54 166.42 68.9125 136.127 67.1581C105.834 65.4037 108.968 79.439 94.3439 79.439C83.8981 79.439 75.5414 80.3162 69.2739 82.0706C63.0064 83.8251 59.8726 86.4558 45.2484 86.4558Z" fill="url(#paint0_linear_880_2454)"/>
<defs>
<linearGradient id="paint0_linear_880_2454" x1="98" y1="54" x2="98" y2="104" gradientUnits="userSpaceOnUse">
<stop stop-color="#F48024"/>
<stop offset="1" stop-color="#F48024" stop-opacity="0"/>
</linearGradient>
</defs>
</svg>
