<svg width="271" height="279" viewBox="0 0 271 279" fill="none" xmlns="http://www.w3.org/2000/svg">
<path opacity="0.4" d="M-70.6777 353.842V330.678H-93.8418V353.842H-70.6777ZM-93.8418 329.52H-70.6777V306.355H-93.8418V329.52ZM-69.5195 329.52H-46.3535V306.355H-69.5195V329.52ZM-45.1953 329.52H-22.0312V306.355H-45.1953V329.52ZM-20.873 329.52H2.29102V306.355H-20.873V329.52ZM3.44922 329.52H26.6133V306.355H3.44922V329.52ZM27.7715 329.52H50.9375V306.355H27.7715V329.52ZM52.0957 329.52H75.2598V306.355H52.0957V329.52ZM76.418 329.52H99.582V306.355H76.418V329.52ZM100.74 329.52H123.904V306.355H100.74V329.52ZM125.062 329.52H148.229V306.355H125.062V329.52ZM149.387 329.52H172.551V306.355H149.387V329.52ZM173.709 329.52H196.873V306.355H173.709V329.52ZM198.031 329.52H221.195V306.355H198.031V329.52ZM222.354 329.52H245.52V306.355H222.354V329.52ZM246.678 329.52H269.842V306.355H246.678V329.52ZM-93.8418 305.197H-70.6777V282.033H-93.8418V305.197ZM-69.5195 305.197H-46.3535V282.033H-69.5195V305.197ZM-45.1953 305.197H-22.0312V282.033H-45.1953V305.197ZM-20.873 305.197H2.29102V282.033H-20.873V305.197ZM3.44922 305.197H26.6133V282.033H3.44922V305.197ZM27.7715 305.197H50.9375V282.033H27.7715V305.197ZM52.0957 305.197H75.2598V282.033H52.0957V305.197ZM76.418 305.197H99.582V282.033H76.418V305.197ZM100.74 305.197H123.904V282.033H100.74V305.197ZM125.062 305.197H148.229V282.033H125.062V305.197ZM149.387 305.197H172.551V282.033H149.387V305.197ZM173.709 305.197H196.873V282.033H173.709V305.197ZM198.031 305.197H221.195V282.033H198.031V305.197ZM222.354 305.197H245.52V282.033H222.354V305.197ZM246.678 305.197H269.842V282.033H246.678V305.197ZM-93.8418 280.875H-70.6777V257.709H-93.8418V280.875ZM-69.5195 280.875H-46.3535V257.709H-69.5195V280.875ZM-45.1953 280.875H-22.0312V257.709H-45.1953V280.875ZM-20.873 280.875H2.29102V257.709H-20.873V280.875ZM3.44922 280.875H26.6133V257.709H3.44922V280.875ZM27.7715 280.875H50.9375V257.709H27.7715V280.875ZM52.0957 280.875H75.2598V257.709H52.0957V280.875ZM76.418 280.875H99.582V257.709H76.418V280.875ZM100.74 280.875H123.904V257.709H100.74V280.875ZM125.062 280.875H148.229V257.709H125.062V280.875ZM149.387 280.875H172.551V257.709H149.387V280.875ZM173.709 280.875H196.873V257.709H173.709V280.875ZM198.031 280.875H221.195V257.709H198.031V280.875ZM222.354 280.875H245.52V257.709H222.354V280.875ZM246.678 280.875H269.842V257.709H246.678V280.875ZM-93.8418 256.551H-70.6777V233.387H-93.8418V256.551ZM-69.5195 256.551H-46.3535V233.387H-69.5195V256.551ZM-45.1953 256.551H-22.0312V233.387H-45.1953V256.551ZM-20.873 256.551H2.29102V233.387H-20.873V256.551ZM3.44922 256.551H26.6133V233.387H3.44922V256.551ZM27.7715 256.551H50.9375V233.387H27.7715V256.551ZM52.0957 256.551H75.2598V233.387H52.0957V256.551ZM76.418 256.551H99.582V233.387H76.418V256.551ZM100.74 256.551H123.904V233.387H100.74V256.551ZM125.062 256.551H148.229V233.387H125.062V256.551ZM149.387 256.551H172.551V233.387H149.387V256.551ZM173.709 256.551H196.873V233.387H173.709V256.551ZM198.031 256.551H221.195V233.387H198.031V256.551ZM222.354 256.551H245.52V233.387H222.354V256.551ZM246.678 256.551H269.842V233.387H246.678V256.551ZM-93.8418 232.229H-70.6777V209.064H-93.8418V232.229ZM-69.5195 232.229H-46.3535V209.064H-69.5195V232.229ZM-45.1953 232.229H-22.0312V209.064H-45.1953V232.229ZM-20.873 232.229H2.29102V209.064H-20.873V232.229ZM3.44922 232.229H26.6133V209.064H3.44922V232.229ZM27.7715 232.229H50.9375V209.064H27.7715V232.229ZM52.0957 232.229H75.2598V209.064H52.0957V232.229ZM76.418 232.229H99.582V209.064H76.418V232.229ZM100.74 232.229H123.904V209.064H100.74V232.229ZM125.062 232.229H148.229V209.064H125.062V232.229ZM149.387 232.229H172.551V209.064H149.387V232.229ZM173.709 232.229H196.873V209.064H173.709V232.229ZM198.031 232.229H221.195V209.064H198.031V232.229ZM222.354 232.229H245.52V209.064H222.354V232.229ZM246.678 232.229H269.842V209.064H246.678V232.229ZM-93.8418 207.906H-70.6777V184.74H-93.8418V207.906ZM-69.5195 207.906H-46.3535V184.74H-69.5195V207.906ZM-45.1953 207.906H-22.0312V184.74H-45.1953V207.906ZM-20.873 207.906H2.29102V184.74H-20.873V207.906ZM3.44922 207.906H26.6133V184.74H3.44922V207.906ZM27.7715 207.906H50.9375V184.74H27.7715V207.906ZM52.0957 207.906H75.2598V184.74H52.0957V207.906ZM76.418 207.906H99.582V184.74H76.418V207.906ZM100.74 207.906H123.904V184.74H100.74V207.906ZM125.062 207.906H148.229V184.74H125.062V207.906ZM149.387 207.906H172.551V184.74H149.387V207.906ZM173.709 207.906H196.873V184.74H173.709V207.906ZM198.031 207.906H221.195V184.74H198.031V207.906ZM222.354 207.906H245.52V184.74H222.354V207.906ZM246.678 207.906H269.842V184.74H246.678V207.906ZM-93.8418 183.582H-70.6777V160.418H-93.8418V183.582ZM-69.5195 183.582H-46.3535V160.418H-69.5195V183.582ZM-45.1953 183.582H-22.0312V160.418H-45.1953V183.582ZM-20.873 183.582H2.29102V160.418H-20.873V183.582ZM3.44922 183.582H26.6133V160.418H3.44922V183.582ZM27.7715 183.582H50.9375V160.418H27.7715V183.582ZM52.0957 183.582H75.2598V160.418H52.0957V183.582ZM76.418 183.582H99.582V160.418H76.418V183.582ZM100.74 183.582H123.904V160.418H100.74V183.582ZM125.062 183.582H148.229V160.418H125.062V183.582ZM149.387 183.582H172.551V160.418H149.387V183.582ZM173.709 183.582H196.873V160.418H173.709V183.582ZM198.031 183.582H221.195V160.418H198.031V183.582ZM222.354 183.582H245.52V160.418H222.354V183.582ZM246.678 183.582H269.842V160.418H246.678V183.582ZM-93.8418 159.26H-70.6777V136.096H-93.8418V159.26ZM-69.5195 159.26H-46.3535V136.096H-69.5195V159.26ZM-45.1953 159.26H-22.0312V136.096H-45.1953V159.26ZM-20.873 159.26H2.29102V136.096H-20.873V159.26ZM3.44922 159.26H26.6133V136.096H3.44922V159.26ZM27.7715 159.26H50.9375V136.096H27.7715V159.26ZM52.0957 159.26H75.2598V136.096H52.0957V159.26ZM76.418 159.26H99.582V136.096H76.418V159.26ZM100.74 159.26H123.904V136.096H100.74V159.26ZM125.062 159.26H148.229V136.096H125.062V159.26ZM149.387 159.26H172.551V136.096H149.387V159.26ZM173.709 159.26H196.873V136.096H173.709V159.26ZM198.031 159.26H221.195V136.096H198.031V159.26ZM222.354 159.26H245.52V136.096H222.354V159.26ZM246.678 159.26H269.842V136.096H246.678V159.26ZM-93.8418 134.938H-70.6777V111.771H-93.8418V134.938ZM-69.5195 134.938H-46.3535V111.771H-69.5195V134.938ZM-45.1953 134.938H-22.0312V111.771H-45.1953V134.938ZM-20.873 134.938H2.29102V111.771H-20.873V134.938ZM3.44922 134.938H26.6133V111.771H3.44922V134.938ZM27.7715 134.938H50.9375V111.771H27.7715V134.938ZM52.0957 134.938H75.2598V111.771H52.0957V134.938ZM76.418 134.938H99.582V111.771H76.418V134.938ZM100.74 134.938H123.904V111.771H100.74V134.938ZM125.062 134.938H148.229V111.771H125.062V134.938ZM149.387 134.938H172.551V111.771H149.387V134.938ZM173.709 134.938H196.873V111.771H173.709V134.938ZM198.031 134.938H221.195V111.771H198.031V134.938ZM222.354 134.938H245.52V111.771H222.354V134.938ZM246.678 134.938H269.842V111.771H246.678V134.938ZM-93.8418 110.613H-70.6777V87.4492H-93.8418V110.613ZM-69.5195 110.613H-46.3535V87.4492H-69.5195V110.613ZM-45.1953 110.613H-22.0312V87.4492H-45.1953V110.613ZM-20.873 110.613H2.29102V87.4492H-20.873V110.613ZM3.44922 110.613H26.6133V87.4492H3.44922V110.613ZM27.7715 110.613H50.9375V87.4492H27.7715V110.613ZM52.0957 110.613H75.2598V87.4492H52.0957V110.613ZM76.418 110.613H99.582V87.4492H76.418V110.613ZM100.74 110.613H123.904V87.4492H100.74V110.613ZM125.062 110.613H148.229V87.4492H125.062V110.613ZM149.387 110.613H172.551V87.4492H149.387V110.613ZM173.709 110.613H196.873V87.4492H173.709V110.613ZM198.031 110.613H221.195V87.4492H198.031V110.613ZM222.354 110.613H245.52V87.4492H222.354V110.613ZM246.678 110.613H269.842V87.4492H246.678V110.613ZM-93.8418 86.291H-70.6777V63.125H-93.8418V86.291ZM-69.5195 86.291H-46.3535V63.125H-69.5195V86.291ZM-45.1953 86.291H-22.0312V63.125H-45.1953V86.291ZM-20.873 86.291H2.29102V63.125H-20.873V86.291ZM3.44922 86.291H26.6133V63.125H3.44922V86.291ZM27.7715 86.291H50.9375V63.125H27.7715V86.291ZM52.0957 86.291H75.2598V63.125H52.0957V86.291ZM76.418 86.291H99.582V63.125H76.418V86.291ZM100.74 86.291H123.904V63.125H100.74V86.291ZM125.062 86.291H148.229V63.125H125.062V86.291ZM149.387 86.291H172.551V63.125H149.387V86.291ZM173.709 86.291H196.873V63.125H173.709V86.291ZM198.031 86.291H221.195V63.125H198.031V86.291ZM222.354 86.291H245.52V63.125H222.354V86.291ZM246.678 86.291H269.842V63.125H246.678V86.291ZM-93.8418 61.9668H-70.6777V38.8027H-93.8418V61.9668ZM-69.5195 61.9668H-46.3535V38.8027H-69.5195V61.9668ZM-45.1953 61.9668H-22.0312V38.8027H-45.1953V61.9668ZM-20.873 61.9668H2.29102V38.8027H-20.873V61.9668ZM3.44922 61.9668H26.6133V38.8027H3.44922V61.9668ZM27.7715 61.9668H50.9375V38.8027H27.7715V61.9668ZM52.0957 61.9668H75.2598V38.8027H52.0957V61.9668ZM76.418 61.9668H99.582V38.8027H76.418V61.9668ZM100.74 61.9668H123.904V38.8027H100.74V61.9668ZM125.062 61.9668H148.229V38.8027H125.062V61.9668ZM149.387 61.9668H172.551V38.8027H149.387V61.9668ZM173.709 61.9668H196.873V38.8027H173.709V61.9668ZM198.031 61.9668H221.195V38.8027H198.031V61.9668ZM222.354 61.9668H245.52V38.8027H222.354V61.9668ZM246.678 61.9668H269.842V38.8027H246.678V61.9668ZM-93.8418 37.6445H-70.6777V14.4824H-93.8418V37.6445ZM-69.5195 37.6445H-46.3535V14.4824H-69.5195V37.6445ZM-45.1953 37.6445H-22.0312V14.4824H-45.1953V37.6445ZM-20.873 37.6445H2.29102V14.4824H-20.873V37.6445ZM3.44922 37.6445H26.6133V14.4824H3.44922V37.6445ZM27.7715 37.6445H50.9375V14.4824H27.7715V37.6445ZM52.0957 37.6445H75.2598V14.4824H52.0957V37.6445ZM76.418 37.6445H99.582V14.4824H76.418V37.6445ZM100.74 37.6445H123.904V14.4824H100.74V37.6445ZM125.062 37.6445H148.229V14.4824H125.062V37.6445ZM149.387 37.6445H172.551V14.4824H149.387V37.6445ZM173.709 37.6445H196.873V14.4824H173.709V37.6445ZM198.031 37.6445H221.195V14.4824H198.031V37.6445ZM222.354 37.6445H245.52V14.4824H222.354V37.6445ZM246.678 37.6445H269.842V14.4824H246.678V37.6445ZM-93.8418 13.3242H-70.6777V-9.8418H-93.8418V13.3242ZM-69.5195 13.3242H-46.3535V-9.8418H-69.5195V13.3242ZM-45.1953 13.3242H-22.0312V-9.8418H-45.1953V13.3242ZM-20.873 13.3242H2.29102V-9.8418H-20.873V13.3242ZM3.44922 13.3242H26.6133V-9.8418H3.44922V13.3242ZM27.7715 13.3242H50.9375V-9.8418H27.7715V13.3242ZM52.0957 13.3242H75.2598V-9.8418H52.0957V13.3242ZM76.418 13.3242H99.582V-9.8418H76.418V13.3242ZM100.74 13.3242H123.904V-9.8418H100.74V13.3242ZM125.062 13.3242H148.229V-9.8418H125.062V13.3242ZM149.387 13.3242H172.551V-9.8418H149.387V13.3242ZM173.709 13.3242H196.873V-9.8418H173.709V13.3242ZM198.031 13.3242H221.195V-9.8418H198.031V13.3242ZM222.354 13.3242H245.52V-9.8418H222.354V13.3242ZM246.678 13.3242H269.842V-9.8418H246.678V13.3242ZM-46.3535 353.842V330.678H-69.5195V353.842H-46.3535ZM-22.0312 353.842V330.678H-45.1953V353.842H-22.0312ZM2.29102 353.842V330.678H-20.873V353.842H2.29102ZM26.6133 353.842V330.678H3.44922V353.842H26.6133ZM50.9375 353.842V330.678H27.7715V353.842H50.9375ZM75.2598 353.842V330.678H52.0957V353.842H75.2598ZM99.582 353.842V330.678H76.418V353.842H99.582ZM123.904 353.842V330.678H100.74V353.842H123.904ZM148.229 353.842V330.678H125.062V353.842H148.229ZM172.551 353.842V330.678H149.387V353.842H172.551ZM196.873 353.842V330.678H173.709V353.842H196.873ZM221.195 353.842V330.678H198.031V353.842H221.195ZM245.52 353.842V330.678H222.354V353.842H245.52ZM269.842 353.842V330.678H246.678V353.842H269.842ZM271 355H-95V-11H271V355Z" fill="url(#paint0_linear_3157_9)" fill-opacity="0.6"/>
<defs>
<linearGradient id="paint0_linear_3157_9" x1="101.32" y1="149.415" x2="-330.989" y2="581.723" gradientUnits="userSpaceOnUse">
<stop stop-color="#130F0C" stop-opacity="0"/>
<stop offset="0.96977" stop-color="#130F0C"/>
</linearGradient>
</defs>
</svg>
