<svg width="191" height="253" viewBox="0 0 191 253" fill="none" xmlns="http://www.w3.org/2000/svg">
<path opacity="0.4" d="M24.3223 -111.842V-88.6777H1.1582V-111.842H24.3223ZM1.1582 -87.5195H24.3223V-64.3555H1.1582V-87.5195ZM25.4805 -87.5195H48.6465V-64.3555H25.4805V-87.5195ZM49.8047 -87.5195H72.9688V-64.3555H49.8047V-87.5195ZM74.127 -87.5195H97.291V-64.3555H74.127V-87.5195ZM98.4492 -87.5195H121.613V-64.3555H98.4492V-87.5195ZM122.771 -87.5195H145.938V-64.3555H122.771V-87.5195ZM147.096 -87.5195H170.26V-64.3555H147.096V-87.5195ZM171.418 -87.5195H194.582V-64.3555H171.418V-87.5195ZM195.74 -87.5195H218.904V-64.3555H195.74V-87.5195ZM220.062 -87.5195H243.229V-64.3555H220.062V-87.5195ZM244.387 -87.5195H267.551V-64.3555H244.387V-87.5195ZM268.709 -87.5195H291.873V-64.3555H268.709V-87.5195ZM293.031 -87.5195H316.195V-64.3555H293.031V-87.5195ZM317.354 -87.5195H340.52V-64.3555H317.354V-87.5195ZM341.678 -87.5195H364.842V-64.3555H341.678V-87.5195ZM1.1582 -63.1973H24.3223V-40.0332H1.1582V-63.1973ZM25.4805 -63.1973H48.6465V-40.0332H25.4805V-63.1973ZM49.8047 -63.1973H72.9688V-40.0332H49.8047V-63.1973ZM74.127 -63.1973H97.291V-40.0332H74.127V-63.1973ZM98.4492 -63.1973H121.613V-40.0332H98.4492V-63.1973ZM122.771 -63.1973H145.938V-40.0332H122.771V-63.1973ZM147.096 -63.1973H170.26V-40.0332H147.096V-63.1973ZM171.418 -63.1973H194.582V-40.0332H171.418V-63.1973ZM195.74 -63.1973H218.904V-40.0332H195.74V-63.1973ZM220.062 -63.1973H243.229V-40.0332H220.062V-63.1973ZM244.387 -63.1973H267.551V-40.0332H244.387V-63.1973ZM268.709 -63.1973H291.873V-40.0332H268.709V-63.1973ZM293.031 -63.1973H316.195V-40.0332H293.031V-63.1973ZM317.354 -63.1973H340.52V-40.0332H317.354V-63.1973ZM341.678 -63.1973H364.842V-40.0332H341.678V-63.1973ZM1.1582 -38.875H24.3223V-15.709H1.1582V-38.875ZM25.4805 -38.875H48.6465V-15.709H25.4805V-38.875ZM49.8047 -38.875H72.9688V-15.709H49.8047V-38.875ZM74.127 -38.875H97.291V-15.709H74.127V-38.875ZM98.4492 -38.875H121.613V-15.709H98.4492V-38.875ZM122.771 -38.875H145.938V-15.709H122.771V-38.875ZM147.096 -38.875H170.26V-15.709H147.096V-38.875ZM171.418 -38.875H194.582V-15.709H171.418V-38.875ZM195.74 -38.875H218.904V-15.709H195.74V-38.875ZM220.062 -38.875H243.229V-15.709H220.062V-38.875ZM244.387 -38.875H267.551V-15.709H244.387V-38.875ZM268.709 -38.875H291.873V-15.709H268.709V-38.875ZM293.031 -38.875H316.195V-15.709H293.031V-38.875ZM317.354 -38.875H340.52V-15.709H317.354V-38.875ZM341.678 -38.875H364.842V-15.709H341.678V-38.875ZM1.1582 -14.5508H24.3223V8.61328H1.1582V-14.5508ZM25.4805 -14.5508H48.6465V8.61328H25.4805V-14.5508ZM49.8047 -14.5508H72.9688V8.61328H49.8047V-14.5508ZM74.127 -14.5508H97.291V8.61328H74.127V-14.5508ZM98.4492 -14.5508H121.613V8.61328H98.4492V-14.5508ZM122.771 -14.5508H145.938V8.61328H122.771V-14.5508ZM147.096 -14.5508H170.26V8.61328H147.096V-14.5508ZM171.418 -14.5508H194.582V8.61328H171.418V-14.5508ZM195.74 -14.5508H218.904V8.61328H195.74V-14.5508ZM220.062 -14.5508H243.229V8.61328H220.062V-14.5508ZM244.387 -14.5508H267.551V8.61328H244.387V-14.5508ZM268.709 -14.5508H291.873V8.61328H268.709V-14.5508ZM293.031 -14.5508H316.195V8.61328H293.031V-14.5508ZM317.354 -14.5508H340.52V8.61328H317.354V-14.5508ZM341.678 -14.5508H364.842V8.61328H341.678V-14.5508ZM1.1582 9.77148H24.3223V32.9355H1.1582V9.77148ZM25.4805 9.77148H48.6465V32.9355H25.4805V9.77148ZM49.8047 9.77148H72.9688V32.9355H49.8047V9.77148ZM74.127 9.77148H97.291V32.9355H74.127V9.77148ZM98.4492 9.77148H121.613V32.9355H98.4492V9.77148ZM122.771 9.77148H145.938V32.9355H122.771V9.77148ZM147.096 9.77148H170.26V32.9355H147.096V9.77148ZM171.418 9.77148H194.582V32.9355H171.418V9.77148ZM195.74 9.77148H218.904V32.9355H195.74V9.77148ZM220.062 9.77148H243.229V32.9355H220.062V9.77148ZM244.387 9.77148H267.551V32.9355H244.387V9.77148ZM268.709 9.77148H291.873V32.9355H268.709V9.77148ZM293.031 9.77148H316.195V32.9355H293.031V9.77148ZM317.354 9.77148H340.52V32.9355H317.354V9.77148ZM341.678 9.77148H364.842V32.9355H341.678V9.77148ZM1.1582 34.0938H24.3223V57.2598H1.1582V34.0938ZM25.4805 34.0938H48.6465V57.2598H25.4805V34.0938ZM49.8047 34.0938H72.9688V57.2598H49.8047V34.0938ZM74.127 34.0938H97.291V57.2598H74.127V34.0938ZM98.4492 34.0938H121.613V57.2598H98.4492V34.0938ZM122.771 34.0938H145.938V57.2598H122.771V34.0938ZM147.096 34.0938H170.26V57.2598H147.096V34.0938ZM171.418 34.0938H194.582V57.2598H171.418V34.0938ZM195.74 34.0938H218.904V57.2598H195.74V34.0938ZM220.062 34.0938H243.229V57.2598H220.062V34.0938ZM244.387 34.0938H267.551V57.2598H244.387V34.0938ZM268.709 34.0938H291.873V57.2598H268.709V34.0938ZM293.031 34.0938H316.195V57.2598H293.031V34.0938ZM317.354 34.0938H340.52V57.2598H317.354V34.0938ZM341.678 34.0938H364.842V57.2598H341.678V34.0938ZM1.1582 58.418H24.3223V81.582H1.1582V58.418ZM25.4805 58.418H48.6465V81.582H25.4805V58.418ZM49.8047 58.418H72.9688V81.582H49.8047V58.418ZM74.127 58.418H97.291V81.582H74.127V58.418ZM98.4492 58.418H121.613V81.582H98.4492V58.418ZM122.771 58.418H145.938V81.582H122.771V58.418ZM147.096 58.418H170.26V81.582H147.096V58.418ZM171.418 58.418H194.582V81.582H171.418V58.418ZM195.74 58.418H218.904V81.582H195.74V58.418ZM220.062 58.418H243.229V81.582H220.062V58.418ZM244.387 58.418H267.551V81.582H244.387V58.418ZM268.709 58.418H291.873V81.582H268.709V58.418ZM293.031 58.418H316.195V81.582H293.031V58.418ZM317.354 58.418H340.52V81.582H317.354V58.418ZM341.678 58.418H364.842V81.582H341.678V58.418ZM1.1582 82.7402H24.3223V105.904H1.1582V82.7402ZM25.4805 82.7402H48.6465V105.904H25.4805V82.7402ZM49.8047 82.7402H72.9688V105.904H49.8047V82.7402ZM74.127 82.7402H97.291V105.904H74.127V82.7402ZM98.4492 82.7402H121.613V105.904H98.4492V82.7402ZM122.771 82.7402H145.938V105.904H122.771V82.7402ZM147.096 82.7402H170.26V105.904H147.096V82.7402ZM171.418 82.7402H194.582V105.904H171.418V82.7402ZM195.74 82.7402H218.904V105.904H195.74V82.7402ZM220.062 82.7402H243.229V105.904H220.062V82.7402ZM244.387 82.7402H267.551V105.904H244.387V82.7402ZM268.709 82.7402H291.873V105.904H268.709V82.7402ZM293.031 82.7402H316.195V105.904H293.031V82.7402ZM317.354 82.7402H340.52V105.904H317.354V82.7402ZM341.678 82.7402H364.842V105.904H341.678V82.7402ZM1.1582 107.062H24.3223V130.229H1.1582V107.062ZM25.4805 107.062H48.6465V130.229H25.4805V107.062ZM49.8047 107.062H72.9688V130.229H49.8047V107.062ZM74.127 107.062H97.291V130.229H74.127V107.062ZM98.4492 107.062H121.613V130.229H98.4492V107.062ZM122.771 107.062H145.938V130.229H122.771V107.062ZM147.096 107.062H170.26V130.229H147.096V107.062ZM171.418 107.062H194.582V130.229H171.418V107.062ZM195.74 107.062H218.904V130.229H195.74V107.062ZM220.062 107.062H243.229V130.229H220.062V107.062ZM244.387 107.062H267.551V130.229H244.387V107.062ZM268.709 107.062H291.873V130.229H268.709V107.062ZM293.031 107.062H316.195V130.229H293.031V107.062ZM317.354 107.062H340.52V130.229H317.354V107.062ZM341.678 107.062H364.842V130.229H341.678V107.062ZM1.1582 131.387H24.3223V154.551H1.1582V131.387ZM25.4805 131.387H48.6465V154.551H25.4805V131.387ZM49.8047 131.387H72.9688V154.551H49.8047V131.387ZM74.127 131.387H97.291V154.551H74.127V131.387ZM98.4492 131.387H121.613V154.551H98.4492V131.387ZM122.771 131.387H145.938V154.551H122.771V131.387ZM147.096 131.387H170.26V154.551H147.096V131.387ZM171.418 131.387H194.582V154.551H171.418V131.387ZM195.74 131.387H218.904V154.551H195.74V131.387ZM220.062 131.387H243.229V154.551H220.062V131.387ZM244.387 131.387H267.551V154.551H244.387V131.387ZM268.709 131.387H291.873V154.551H268.709V131.387ZM293.031 131.387H316.195V154.551H293.031V131.387ZM317.354 131.387H340.52V154.551H317.354V131.387ZM341.678 131.387H364.842V154.551H341.678V131.387ZM1.1582 155.709H24.3223V178.875H1.1582V155.709ZM25.4805 155.709H48.6465V178.875H25.4805V155.709ZM49.8047 155.709H72.9688V178.875H49.8047V155.709ZM74.127 155.709H97.291V178.875H74.127V155.709ZM98.4492 155.709H121.613V178.875H98.4492V155.709ZM122.771 155.709H145.938V178.875H122.771V155.709ZM147.096 155.709H170.26V178.875H147.096V155.709ZM171.418 155.709H194.582V178.875H171.418V155.709ZM195.74 155.709H218.904V178.875H195.74V155.709ZM220.062 155.709H243.229V178.875H220.062V155.709ZM244.387 155.709H267.551V178.875H244.387V155.709ZM268.709 155.709H291.873V178.875H268.709V155.709ZM293.031 155.709H316.195V178.875H293.031V155.709ZM317.354 155.709H340.52V178.875H317.354V155.709ZM341.678 155.709H364.842V178.875H341.678V155.709ZM1.1582 180.033H24.3223V203.197H1.1582V180.033ZM25.4805 180.033H48.6465V203.197H25.4805V180.033ZM49.8047 180.033H72.9688V203.197H49.8047V180.033ZM74.127 180.033H97.291V203.197H74.127V180.033ZM98.4492 180.033H121.613V203.197H98.4492V180.033ZM122.771 180.033H145.938V203.197H122.771V180.033ZM147.096 180.033H170.26V203.197H147.096V180.033ZM171.418 180.033H194.582V203.197H171.418V180.033ZM195.74 180.033H218.904V203.197H195.74V180.033ZM220.062 180.033H243.229V203.197H220.062V180.033ZM244.387 180.033H267.551V203.197H244.387V180.033ZM268.709 180.033H291.873V203.197H268.709V180.033ZM293.031 180.033H316.195V203.197H293.031V180.033ZM317.354 180.033H340.52V203.197H317.354V180.033ZM341.678 180.033H364.842V203.197H341.678V180.033ZM1.1582 204.355H24.3223V227.518H1.1582V204.355ZM25.4805 204.355H48.6465V227.518H25.4805V204.355ZM49.8047 204.355H72.9688V227.518H49.8047V204.355ZM74.127 204.355H97.291V227.518H74.127V204.355ZM98.4492 204.355H121.613V227.518H98.4492V204.355ZM122.771 204.355H145.938V227.518H122.771V204.355ZM147.096 204.355H170.26V227.518H147.096V204.355ZM171.418 204.355H194.582V227.518H171.418V204.355ZM195.74 204.355H218.904V227.518H195.74V204.355ZM220.062 204.355H243.229V227.518H220.062V204.355ZM244.387 204.355H267.551V227.518H244.387V204.355ZM268.709 204.355H291.873V227.518H268.709V204.355ZM293.031 204.355H316.195V227.518H293.031V204.355ZM317.354 204.355H340.52V227.518H317.354V204.355ZM341.678 204.355H364.842V227.518H341.678V204.355ZM1.1582 228.676H24.3223V251.842H1.1582V228.676ZM25.4805 228.676H48.6465V251.842H25.4805V228.676ZM49.8047 228.676H72.9688V251.842H49.8047V228.676ZM74.127 228.676H97.291V251.842H74.127V228.676ZM98.4492 228.676H121.613V251.842H98.4492V228.676ZM122.771 228.676H145.938V251.842H122.771V228.676ZM147.096 228.676H170.26V251.842H147.096V228.676ZM171.418 228.676H194.582V251.842H171.418V228.676ZM195.74 228.676H218.904V251.842H195.74V228.676ZM220.062 228.676H243.229V251.842H220.062V228.676ZM244.387 228.676H267.551V251.842H244.387V228.676ZM268.709 228.676H291.873V251.842H268.709V228.676ZM293.031 228.676H316.195V251.842H293.031V228.676ZM317.354 228.676H340.52V251.842H317.354V228.676ZM341.678 228.676H364.842V251.842H341.678V228.676ZM48.6465 -111.842V-88.6777H25.4805V-111.842H48.6465ZM72.9688 -111.842V-88.6777H49.8047V-111.842H72.9688ZM97.291 -111.842V-88.6777H74.127V-111.842H97.291ZM121.613 -111.842V-88.6777H98.4492V-111.842H121.613ZM145.938 -111.842V-88.6777H122.771V-111.842H145.938ZM170.26 -111.842V-88.6777H147.096V-111.842H170.26ZM194.582 -111.842V-88.6777H171.418V-111.842H194.582ZM218.904 -111.842V-88.6777H195.74V-111.842H218.904ZM243.229 -111.842V-88.6777H220.062V-111.842H243.229ZM267.551 -111.842V-88.6777H244.387V-111.842H267.551ZM291.873 -111.842V-88.6777H268.709V-111.842H291.873ZM316.195 -111.842V-88.6777H293.031V-111.842H316.195ZM340.52 -111.842V-88.6777H317.354V-111.842H340.52ZM364.842 -111.842V-88.6777H341.678V-111.842H364.842ZM366 -113H0V253H366V-113Z" fill="url(#paint0_linear_3157_42)" fill-opacity="0.6"/>
<defs>
<linearGradient id="paint0_linear_3157_42" x1="75" y1="101.5" x2="414" y2="-334" gradientUnits="userSpaceOnUse">
<stop stop-color="#130F0C" stop-opacity="0"/>
<stop offset="0.96977" stop-color="#130F0C"/>
</linearGradient>
</defs>
</svg>
