<svg width="111" height="21" viewBox="0 0 111 21" fill="none" xmlns="http://www.w3.org/2000/svg">
<g clip-path="url(#clip0_846_1026)">
<path d="M10.2724 3.1644C6.56289 3.1644 3.42407 5.75344 2.85337 9.20549H17.2634C17.5487 9.20549 17.8341 8.91782 17.6914 8.77398C16.8354 5.46576 13.8392 3.1644 10.2724 3.1644ZM17.8341 11.7945H2.85337C3.56674 15.2466 6.56289 17.6918 10.4151 17.6918C12.4125 17.6918 14.2673 16.9726 15.5513 15.8219C16.55 14.8151 18.1194 14.8151 19.2608 15.6781C17.4061 18.5548 14.1246 20.5685 10.4151 20.5685C4.70813 20.5685 0.142578 16.1096 0.142578 10.5C0.142578 4.89042 4.70813 0.431519 10.4151 0.431519C15.694 0.431519 20.1169 4.31508 20.6876 9.20549C20.6876 10.7877 19.2608 11.7945 17.8341 11.7945Z" fill="#ADADAD"/>
<path d="M60.6366 20.5685C59.2099 20.5685 57.9258 19.4178 57.9258 17.9794V10.5C57.9258 5.89724 54.9297 3.16436 50.3641 3.16436C46.3692 3.16436 43.0878 6.47258 43.0878 10.5C43.0878 14.5274 46.3692 17.8356 50.3641 17.8356C52.6469 17.8356 54.6443 16.9726 56.071 15.3904L56.3564 15.8219C57.0698 17.1164 56.6417 18.8424 55.215 19.5616C53.7883 20.2808 52.0762 20.7123 50.3641 20.7123C44.7998 20.7123 40.377 16.2534 40.377 10.6438C40.377 5.03422 44.7998 0.575317 50.3641 0.575317C56.4991 0.575317 60.6366 4.60272 60.6366 10.6438V20.5685Z" fill="#ADADAD"/>
<path d="M28.6774 10.5L20.4023 1.1507C20.973 0.71919 21.5437 0.431519 22.2571 0.431519C22.9705 0.431519 23.6838 0.71919 24.2545 1.29453L30.5322 8.34248L32.3869 10.3562L40.5193 19.7055C40.0913 20.137 39.3779 20.2808 38.8072 20.2808C38.0939 20.2808 37.2378 19.9932 36.8098 19.4178L30.5322 12.3699" fill="#ADADAD"/>
<path d="M30.5321 12.6575L24.2544 19.7055C23.6837 20.2808 22.9704 20.5685 22.257 20.5685C21.6863 20.5685 20.9729 20.4246 20.5449 19.9931L28.6773 10.6438L30.5321 8.63011L36.8097 1.43833C37.3804 0.862989 38.0938 0.575317 38.8071 0.575317C39.3778 0.575317 40.0912 0.862989 40.6619 1.2945L32.3868 10.6438" fill="#ADADAD"/>
<path d="M70.4806 12.3699H64.4883V13.3767H70.4806V12.3699Z" fill="#ADADAD"/>
<path d="M82.3223 10.3562C83.0357 10.3562 83.7491 10.2123 84.3197 10.0685C84.8904 9.92467 85.4611 9.637 85.8892 9.20549C86.3172 8.77398 86.7452 8.34248 86.8879 7.76713C87.3159 7.19179 87.4586 6.47261 87.4586 5.75344C87.4586 5.03426 87.3159 4.31508 87.0305 3.88357C86.7452 3.30823 86.3172 2.87672 85.8892 2.58905C85.4611 2.30138 84.8904 2.01371 84.3197 1.86987C83.7491 1.72604 83.0357 1.5822 82.465 1.5822H75.474V10.3562H82.3223ZM74.0473 0.431519H82.3223C83.1784 0.431519 84.0344 0.575354 84.7478 0.71919C85.4611 0.863025 86.1745 1.1507 86.7452 1.5822C87.3159 2.01371 87.7439 2.44522 88.0293 3.1644C88.3146 3.88357 88.4573 4.60275 88.4573 5.6096C88.4573 6.90412 88.0293 8.05481 87.3159 9.06166C86.6025 9.92467 85.4611 10.5 84.1771 10.7877C85.0331 10.9315 85.7465 11.0754 86.3172 11.5069C86.8879 11.9384 87.1732 12.3699 87.4586 12.8014C87.7439 13.3767 87.8866 13.9521 87.8866 14.5274C87.8866 15.1028 88.0293 15.8219 88.0293 16.5411V17.6918C88.0293 18.1233 88.0293 18.411 88.0293 18.6986C88.0293 18.9863 88.1719 19.274 88.1719 19.5617C88.3146 19.8493 88.3146 20.137 88.4573 20.2808H87.0305C86.7452 19.8493 86.6025 19.274 86.6025 18.6986C86.6025 18.1233 86.6025 17.4041 86.6025 16.6849C86.6025 15.9658 86.6025 15.3904 86.4599 14.6712C86.3172 13.9521 86.1745 13.3767 85.8892 12.9452C85.6038 12.3699 85.1758 11.9384 84.4624 11.6507C83.7491 11.363 82.893 11.2192 81.7516 11.2192H74.7606V20.2808H73.4766C74.0473 20.4247 74.0473 0.431519 74.0473 0.431519Z" fill="#ADADAD"/>
<path d="M92.8807 0.431519H91.5967V20.4247H92.8807V0.431519Z" fill="#ADADAD"/>
<path d="M109.288 6.18493C109.288 5.32192 109.002 4.60274 108.717 3.88356C108.432 3.30822 108.004 2.73288 107.433 2.30137C106.862 1.86986 106.149 1.58219 105.435 1.43836C104.722 1.29452 103.866 1.15068 102.867 1.15068C102.297 1.15068 101.726 1.15068 101.155 1.29452C100.442 1.43836 99.8711 1.58219 99.3004 2.0137C98.7297 2.30137 98.3017 2.73288 98.0164 3.30822C97.731 3.88356 97.4457 4.60274 97.4457 5.32192C97.4457 6.0411 97.5883 6.76027 98.0164 7.33562C98.4444 7.76712 98.8724 8.19863 99.5858 8.4863C100.156 8.77397 100.87 9.06164 101.726 9.20548C102.582 9.34932 103.438 9.49315 104.151 9.78082C105.007 9.92466 105.863 10.2123 106.577 10.3562C107.29 10.5 108.146 10.9315 108.717 11.363C109.288 11.7945 109.858 12.226 110.286 12.9452C110.714 13.5205 110.857 14.3836 110.857 15.3904C110.857 16.3973 110.572 17.2603 110.144 17.9795C109.716 18.6986 109.145 19.274 108.432 19.7055C107.718 20.137 107.005 20.4247 106.149 20.7123C105.293 20.8562 104.579 21 103.723 21C102.582 21 101.441 20.8562 100.442 20.5685C99.4431 20.2808 98.5871 19.8493 97.731 19.274C97.0176 18.6986 96.447 17.9795 96.0189 17.1164C95.5909 16.2534 95.4482 15.1027 95.4482 13.8082H96.7323C96.7323 14.9589 96.875 15.8219 97.1603 16.5411C97.4457 17.2603 98.0164 17.9795 98.7297 18.411C99.4431 18.8425 100.156 19.274 101.013 19.4178C101.869 19.5616 102.867 19.7055 103.866 19.7055C104.437 19.7055 105.15 19.5616 105.721 19.4178C106.291 19.274 107.005 18.9863 107.575 18.6986C108.146 18.411 108.574 17.8356 109.002 17.2603C109.43 16.6849 109.573 15.9658 109.573 15.1027C109.573 14.2397 109.43 13.5205 109.002 13.089C108.574 12.5137 108.146 12.0822 107.433 11.7945C106.862 11.5068 106.149 11.2192 105.293 11.0753C104.437 10.9315 103.723 10.6438 102.867 10.5C102.154 10.5 101.298 10.2123 100.442 10.0685C99.5858 9.92466 98.8724 9.49315 98.3017 9.20548C97.731 8.77397 97.1603 8.34247 96.7323 7.76712C96.3043 7.19178 96.1616 6.32877 96.1616 5.46575C96.1616 4.60274 96.3043 3.73973 96.7323 3.02055C97.1603 2.30137 97.5883 1.72603 98.3017 1.43836C98.8724 1.00685 99.5858 0.719178 100.442 0.575342C101.298 0.143836 102.154 0 102.867 0C103.866 0 104.865 0.143836 105.721 0.287671C106.577 0.431507 107.433 0.863014 108.146 1.43836C108.86 2.0137 109.288 2.58904 109.716 3.30822C110.144 4.0274 110.286 5.03425 110.429 6.18493H109.288Z" fill="#ADADAD"/>
</g>
<defs>
<clipPath id="clip0_846_1026">
<rect width="111" height="21" fill="white"/>
</clipPath>
</defs>
</svg>
