<svg width="126" height="22" viewBox="0 0 126 22" fill="none" xmlns="http://www.w3.org/2000/svg">
<path d="M58.1009 6.48582V0H54.1042C53.1927 0 52.9473 0.45576 52.9473 1.08681V10.9032L57.8204 7.08181C57.9957 6.90652 58.1009 6.80134 58.1009 6.48582Z" fill="#ADADAD"/>
<path d="M21.7362 0.499902V15.9256C21.7362 17.2579 21.9115 18.1694 22.8581 18.7303C24.1202 19.4665 26.2237 19.4665 27.4858 18.7654C28.3623 18.2745 28.6778 17.5033 28.6778 15.9607V1.55166C28.6778 0.920603 28.9232 0.53496 29.8348 0.53496H33.8665V15.5049C33.8665 18.9757 31.6578 20.4131 29.7296 20.939C27.1353 21.6402 23.2438 21.6402 20.7897 20.939C17.8798 20.0625 16.5125 18.3447 16.5125 15.5049V1.55166C16.5125 0.885545 16.7579 0.499902 17.5292 0.499902H21.7362ZM48.6261 0.499902V13.6468C48.6261 16.8722 47.96 18.52 46.0318 19.8872C45.0501 20.5884 43.2972 21.4298 39.5109 21.4298C37.3373 21.4298 36.3907 21.2896 36.2505 21.2896C36.0752 21.2545 36.005 21.1493 36.005 20.974V19.2912C36.8815 19.3263 38.9149 19.3964 40.4575 19.151C42.7012 18.8355 43.4725 17.5033 43.4725 15.5049V1.58671C43.4725 0.74531 43.9283 0.499902 44.4892 0.499902H48.6261ZM111.205 0.499902L114.606 15.8555H114.711L118.007 1.90224C118.252 0.99072 118.813 0.499902 119.83 0.499902H125.825V19.5016C125.825 20.3781 125.404 20.7286 124.493 20.7286H120.811V4.25116H120.496L116.71 19.2562C116.464 20.2729 116.079 20.7286 115.027 20.7286H112.257L108.05 4.25116H107.735V20.2378C107.735 20.5533 107.594 20.7286 107.279 20.7286H105.351V1.65683C105.351 0.955663 105.631 0.464844 106.543 0.464844L111.205 0.499902ZM95.8849 16.9073V0.499902H91.8882C90.9767 0.464843 90.6963 0.850488 90.6963 1.62177V17.924C90.6963 19.2912 91.0819 20.7637 93.7814 20.7637H102.546C102.791 20.7637 102.897 20.6235 102.897 20.4131V18.5901H97.4976C96.4108 18.52 95.8849 17.959 95.8849 16.9073ZM81.7563 0.499902C80.8448 0.499902 80.5994 0.920603 80.5994 1.55166V20.7286H84.7013C85.4375 20.7286 85.7881 20.5183 85.7881 19.6769V0.499902H81.7563ZM58.5126 11.5083C58.5126 15.7153 58.5126 19.6769 58.5126 19.6769C58.5126 20.5183 58.162 20.7286 57.4258 20.7286H53.3239V11.4732H58.5126V11.5083ZM13.6728 0.499902V2.46318C13.6728 2.60341 13.6027 2.74364 13.4274 2.74364H6.73123C5.81971 2.74364 5.399 3.16435 5.399 4.07587V9.22946H13.2521V11.2629C13.2521 11.4381 13.1469 11.5433 12.9716 11.5433H5.399V19.7119C5.399 20.4832 4.9783 20.7988 4.1369 20.7988H0V3.33964C0 1.79706 3.34344e-07 0.53496 2.52421 0.53496L13.6728 0.499902ZM77.5493 0.499902V2.46318C77.5493 2.60341 77.4792 2.74364 77.3039 2.74364H70.6077C69.6962 2.74364 69.2405 3.16435 69.2405 4.07587V9.22946H77.0936V11.2629C77.0936 11.4381 76.9884 11.5433 76.8131 11.5433H69.2405V19.7119C69.2405 20.4832 68.8198 20.7988 67.9784 20.7988H63.8415V11.5433H60.1954L63.7363 8.73864C63.7714 8.70359 63.8415 8.63347 63.8415 8.52829V3.30458C63.8415 1.76201 63.8415 0.499902 66.3657 0.499902H77.5493Z" fill="#ADADAD"/>
</svg>
